<?xml version="1.0" encoding="UTF-8"?>
<svg xmlns="http://www.w3.org/2000/svg" xmlns:xlink="http://www.w3.org/1999/xlink" viewBox="0 0 400 400" width="400px" height="400px">
<g id="surface29769975">
<path style=" stroke:none;fill-rule:nonzero;fill:rgb(0%,0%,0%);fill-opacity:1;" d="M 0 400 L 0 0 L 400 0 L 400 400 Z M 392 392 L 392 8 L 8 8 L 8 392 Z M 392 392 "/>
<path style=" stroke:none;fill-rule:nonzero;fill:rgb(63.921571%,63.921571%,80.392158%);fill-opacity:1;" d="M 134.414062 295.660156 L 86.75 301.617188 L 104.625 268.847656 L 62.921875 256.929688 L 98.667969 230.121094 L 56.960938 188.414062 L 98.667969 176.5 L 51.003906 110.960938 L 119.523438 122.875 L 104.625 48.398438 L 176.125 96.0625 L 223.789062 48.398438 L 229.746094 110.960938 L 307.199219 93.085938 L 277.410156 161.601562 L 331.03125 185.4375 L 280.390625 212.246094 L 319.117188 239.058594 L 286.347656 253.953125 L 304.21875 289.703125 L 265.492188 292.679688 L 268.472656 313.53125 L 188.039062 292.679688 Z M 134.414062 295.660156 "/>
<path style=" stroke:none;fill-rule:nonzero;fill:rgb(0%,0%,0%);fill-opacity:1;" d="M 268.472656 316.734375 C 268.203125 316.734375 267.933594 316.699219 267.667969 316.628906 L 187.71875 295.902344 L 134.707031 298.84375 L 87.152344 304.789062 C 85.96875 304.929688 84.785156 304.410156 84.109375 303.414062 C 83.433594 302.421875 83.371094 301.136719 83.945312 300.082031 L 99.902344 270.820312 L 62.042969 260.003906 C 60.875 259.671875 59.996094 258.699219 59.773438 257.507812 C 59.554688 256.308594 60.03125 255.09375 61.003906 254.367188 L 93.800781 229.769531 L 54.699219 190.675781 C 53.894531 189.875 53.578125 188.707031 53.863281 187.609375 C 54.148438 186.511719 54.992188 185.648438 56.082031 185.335938 L 93.382812 174.679688 L 48.414062 112.839844 C 47.648438 111.785156 47.59375 110.375 48.285156 109.265625 C 48.972656 108.160156 50.273438 107.582031 51.550781 107.804688 L 115.46875 118.921875 L 101.488281 49.027344 C 101.234375 47.757812 101.769531 46.460938 102.84375 45.742188 C 103.921875 45.023438 105.320312 45.019531 106.398438 45.738281 L 175.714844 91.945312 L 221.523438 46.136719 C 222.398438 45.261719 223.699219 44.964844 224.871094 45.386719 C 226.035156 45.808594 226.855469 46.859375 226.972656 48.097656 L 232.585938 107.019531 L 306.480469 89.96875 C 307.648438 89.691406 308.886719 90.113281 309.660156 91.039062 C 310.433594 91.96875 310.617188 93.25 310.132812 94.363281 L 281.609375 159.96875 L 332.332031 182.511719 C 333.453125 183.007812 334.1875 184.101562 334.230469 185.324219 C 334.273438 186.546875 333.613281 187.6875 332.53125 188.261719 L 286.539062 212.609375 L 320.9375 236.421875 C 321.886719 237.078125 322.40625 238.191406 322.304688 239.335938 C 322.203125 240.484375 321.488281 241.492188 320.441406 241.964844 L 290.695312 255.488281 L 307.085938 288.265625 C 307.558594 289.21875 307.535156 290.34375 307.007812 291.269531 C 306.484375 292.199219 305.535156 292.804688 304.472656 292.886719 L 269.148438 295.605469 L 271.644531 313.078125 C 271.792969 314.136719 271.40625 315.203125 270.605469 315.917969 C 270.011719 316.449219 269.25 316.734375 268.472656 316.734375 Z M 188.035156 289.480469 C 188.308594 289.480469 188.578125 289.515625 188.839844 289.582031 L 264.625 309.230469 L 262.324219 293.136719 C 262.199219 292.257812 262.445312 291.371094 262.996094 290.679688 C 263.550781 289.988281 264.367188 289.558594 265.246094 289.492188 L 299.230469 286.875 L 283.484375 255.386719 C 283.097656 254.609375 283.039062 253.707031 283.328125 252.886719 C 283.621094 252.066406 284.230469 251.402344 285.019531 251.042969 L 312.65625 238.480469 L 278.566406 214.878906 C 277.648438 214.242188 277.128906 213.175781 277.191406 212.058594 C 277.257812 210.941406 277.902344 209.941406 278.886719 209.421875 L 323.71875 185.6875 L 276.109375 164.527344 C 274.503906 163.8125 273.777344 161.9375 274.476562 160.324219 L 301.734375 97.632812 L 230.464844 114.078125 C 229.570312 114.285156 228.625 114.097656 227.875 113.554688 C 227.128906 113.015625 226.648438 112.183594 226.5625 111.265625 L 221.25 55.46875 L 178.386719 98.324219 C 177.308594 99.40625 175.613281 99.574219 174.347656 98.726562 L 109.277344 55.347656 L 122.660156 122.246094 C 122.867188 123.28125 122.550781 124.351562 121.8125 125.109375 C 121.082031 125.867188 120.011719 126.214844 118.972656 126.027344 L 58.238281 115.464844 L 101.257812 174.613281 C 101.871094 175.457031 102.035156 176.550781 101.695312 177.539062 C 101.355469 178.527344 100.554688 179.285156 99.546875 179.574219 L 63.070312 189.996094 L 100.929688 227.859375 C 101.585938 228.515625 101.925781 229.421875 101.859375 230.347656 C 101.789062 231.273438 101.328125 232.125 100.585938 232.679688 L 69.992188 255.625 L 105.503906 265.769531 C 106.4375 266.039062 107.199219 266.714844 107.578125 267.609375 C 107.949219 268.503906 107.898438 269.527344 107.433594 270.378906 L 92.550781 297.667969 L 134.019531 292.484375 C 134.089844 292.472656 134.164062 292.46875 134.234375 292.464844 L 187.859375 289.484375 C 187.917969 289.484375 187.980469 289.480469 188.035156 289.480469 Z M 188.035156 289.480469 "/>
<path style=" stroke:none;fill-rule:nonzero;fill:rgb(99.607843%,83.529413%,70.19608%);fill-opacity:1;" d="M 143.804688 243.601562 C 143.804688 254.203125 135.207031 262.800781 124.601562 262.800781 C 114 262.800781 105.402344 254.203125 105.402344 243.601562 C 105.402344 232.996094 114 224.398438 124.601562 224.398438 C 135.207031 224.398438 143.804688 232.996094 143.804688 243.601562 Z M 143.804688 243.601562 "/>
<path style=" stroke:none;fill-rule:nonzero;fill:rgb(0%,0%,0%);fill-opacity:1;" d="M 124.601562 266 C 112.253906 266 102.203125 255.949219 102.203125 243.601562 C 102.203125 231.25 112.253906 221.199219 124.601562 221.199219 C 136.953125 221.199219 147.003906 231.25 147.003906 243.601562 C 147.003906 255.949219 136.953125 266 124.601562 266 Z M 124.601562 227.601562 C 115.78125 227.601562 108.601562 234.777344 108.601562 243.601562 C 108.601562 252.421875 115.78125 259.601562 124.601562 259.601562 C 133.425781 259.601562 140.601562 252.421875 140.601562 243.601562 C 140.601562 234.777344 133.425781 227.601562 124.601562 227.601562 Z M 124.601562 227.601562 "/>
<path style=" stroke:none;fill-rule:nonzero;fill:rgb(99.607843%,83.529413%,70.19608%);fill-opacity:1;" d="M 275.003906 243.601562 C 275.003906 254.203125 266.40625 262.800781 255.804688 262.800781 C 245.199219 262.800781 236.601562 254.203125 236.601562 243.601562 C 236.601562 232.996094 245.199219 224.398438 255.804688 224.398438 C 266.40625 224.398438 275.003906 232.996094 275.003906 243.601562 Z M 275.003906 243.601562 "/>
<path style=" stroke:none;fill-rule:nonzero;fill:rgb(0%,0%,0%);fill-opacity:1;" d="M 255.804688 266 C 243.453125 266 233.402344 255.949219 233.402344 243.601562 C 233.402344 231.25 243.453125 221.199219 255.804688 221.199219 C 268.152344 221.199219 278.203125 231.25 278.203125 243.601562 C 278.203125 255.949219 268.152344 266 255.804688 266 Z M 255.804688 227.601562 C 246.980469 227.601562 239.804688 234.777344 239.804688 243.601562 C 239.804688 252.421875 246.980469 259.601562 255.804688 259.601562 C 264.625 259.601562 271.804688 252.421875 271.804688 243.601562 C 271.804688 234.777344 264.625 227.601562 255.804688 227.601562 Z M 255.804688 227.601562 "/>
<path style=" stroke:none;fill-rule:nonzero;fill:rgb(99.607843%,83.529413%,70.19608%);fill-opacity:1;" d="M 124.367188 172.0625 C 124.367188 172.0625 112.507812 265.222656 136.226562 307.296875 C 159.945312 349.371094 228.132812 352.375 245.921875 304.292969 C 263.710938 256.207031 259.769531 202.886719 254.816406 166.054688 C 245.921875 99.941406 130.296875 78.90625 124.367188 172.0625 Z M 124.367188 172.0625 "/>
<path style=" stroke:none;fill-rule:nonzero;fill:rgb(0%,0%,0%);fill-opacity:1;" d="M 193.28125 342.800781 C 168.703125 342.800781 145.140625 329.621094 133.441406 308.867188 C 109.65625 266.679688 120.539062 176.867188 121.183594 171.761719 C 124.214844 124.773438 154.402344 107 181.652344 106.042969 C 214.320312 104.890625 252.835938 127.351562 257.984375 165.628906 C 262.867188 201.914062 267.242188 255.882812 248.921875 305.402344 C 241 326.8125 222.226562 340.714844 198.707031 342.585938 C 196.898438 342.734375 195.082031 342.800781 193.28125 342.800781 Z M 184.097656 112.398438 C 183.355469 112.398438 182.617188 112.414062 181.878906 112.4375 C 150.183594 113.550781 129.875 135.914062 127.5625 172.265625 C 127.558594 172.332031 127.554688 172.398438 127.542969 172.46875 C 127.425781 173.386719 116.09375 265.0625 139.015625 305.722656 C 150.371094 325.867188 174.136719 338.105469 198.195312 336.203125 C 219.480469 334.507812 235.785156 322.46875 242.921875 303.179688 C 260.742188 255 256.433594 202.085938 251.644531 166.480469 C 247.085938 132.609375 213.503906 112.398438 184.097656 112.398438 Z M 124.371094 172.0625 L 124.402344 172.0625 Z M 124.371094 172.0625 "/>
<path style=" stroke:none;fill-rule:nonzero;fill:rgb(100%,100%,100%);fill-opacity:1;" d="M 139.503906 187.601562 C 136.265625 192.84375 134.886719 199.355469 136.441406 206.261719 C 138.566406 215.675781 146.292969 223.148438 155.777344 224.9375 C 171.59375 227.914062 185.402344 215.867188 185.402344 200.59375 C 185.402344 195.820312 184.035156 191.382812 181.699219 187.601562 Z M 139.503906 187.601562 "/>
<path style=" stroke:none;fill-rule:nonzero;fill:rgb(0%,0%,0%);fill-opacity:1;" d="M 160.550781 226.980469 C 158.867188 226.980469 157.167969 226.824219 155.480469 226.507812 C 145.414062 224.609375 137.136719 216.613281 134.882812 206.613281 C 133.328125 199.734375 134.488281 192.679688 138.140625 186.761719 C 138.4375 186.289062 138.949219 186 139.503906 186 L 181.699219 186 C 182.257812 186 182.769531 186.289062 183.0625 186.757812 C 185.644531 190.933594 187.003906 195.71875 187.003906 200.589844 C 187.003906 208.472656 183.519531 215.882812 177.445312 220.921875 C 172.671875 224.875 166.710938 226.980469 160.550781 226.980469 Z M 140.417969 189.199219 C 137.558594 194.242188 136.703125 200.140625 138 205.90625 C 139.980469 214.683594 147.242188 221.699219 156.070312 223.363281 C 163.007812 224.675781 170.058594 222.886719 175.398438 218.460938 C 180.738281 214.03125 183.800781 207.519531 183.800781 200.59375 C 183.800781 196.609375 182.761719 192.6875 180.785156 189.199219 Z M 140.417969 189.199219 "/>
<path style=" stroke:none;fill-rule:nonzero;fill:rgb(99.607843%,83.529413%,70.19608%);fill-opacity:1;" d="M 147.71875 177.511719 C 140.832031 181.71875 136.160156 189.195312 135.851562 197.792969 C 152.40625 193.441406 168.867188 192.785156 185.238281 195.902344 C 184.425781 188.6875 180.527344 182.414062 174.890625 178.429688 "/>
<path style=" stroke:none;fill-rule:nonzero;fill:rgb(0%,0%,0%);fill-opacity:1;" d="M 135.851562 199.390625 C 135.492188 199.390625 135.136719 199.269531 134.851562 199.042969 C 134.457031 198.726562 134.234375 198.242188 134.25 197.734375 C 134.570312 188.855469 139.292969 180.785156 146.882812 176.144531 C 147.628906 175.683594 148.617188 175.917969 149.082031 176.675781 C 149.542969 177.429688 149.304688 178.414062 148.550781 178.875 C 142.5 182.574219 138.523438 188.75 137.628906 195.691406 C 152.90625 191.972656 168.25 191.382812 183.296875 193.925781 C 182.105469 188.226562 178.78125 183.136719 173.964844 179.734375 C 173.238281 179.226562 173.070312 178.226562 173.578125 177.503906 C 174.09375 176.78125 175.101562 176.613281 175.804688 177.121094 C 181.96875 181.472656 185.984375 188.253906 186.820312 195.722656 C 186.878906 196.226562 186.691406 196.726562 186.320312 197.070312 C 185.945312 197.417969 185.433594 197.558594 184.929688 197.472656 C 168.933594 194.425781 152.554688 195.050781 136.25 199.335938 C 136.125 199.375 135.984375 199.390625 135.851562 199.390625 Z M 135.851562 199.390625 "/>
<path style=" stroke:none;fill-rule:nonzero;fill:rgb(100%,100%,100%);fill-opacity:1;" d="M 200.304688 187.601562 C 197.066406 192.84375 195.683594 199.355469 197.242188 206.261719 C 199.363281 215.675781 207.09375 223.148438 216.578125 224.9375 C 232.390625 227.914062 246.203125 215.867188 246.203125 200.59375 C 246.203125 195.820312 244.832031 191.382812 242.5 187.601562 Z M 200.304688 187.601562 "/>
<path style=" stroke:none;fill-rule:nonzero;fill:rgb(0%,0%,0%);fill-opacity:1;" d="M 221.347656 226.980469 C 219.667969 226.980469 217.96875 226.824219 216.28125 226.507812 C 206.214844 224.609375 197.9375 216.613281 195.683594 206.613281 C 194.128906 199.734375 195.289062 192.679688 198.941406 186.761719 C 199.238281 186.289062 199.75 186 200.304688 186 L 242.5 186 C 243.058594 186 243.570312 186.289062 243.863281 186.757812 C 246.445312 190.933594 247.804688 195.71875 247.804688 200.589844 C 247.804688 208.472656 244.320312 215.882812 238.246094 220.921875 C 233.46875 224.875 227.507812 226.980469 221.347656 226.980469 Z M 201.21875 189.199219 C 198.359375 194.242188 197.503906 200.140625 198.800781 205.90625 C 200.78125 214.683594 208.042969 221.699219 216.871094 223.363281 C 223.8125 224.675781 230.859375 222.886719 236.195312 218.460938 C 241.539062 214.03125 244.601562 207.519531 244.601562 200.59375 C 244.601562 196.609375 243.558594 192.6875 241.585938 189.199219 Z M 201.21875 189.199219 "/>
<path style=" stroke:none;fill-rule:nonzero;fill:rgb(99.607843%,83.529413%,70.19608%);fill-opacity:1;" d="M 208.519531 177.511719 C 201.628906 181.71875 196.960938 189.195312 196.652344 197.792969 C 213.207031 193.441406 229.667969 192.785156 246.035156 195.902344 C 245.222656 188.6875 241.328125 182.414062 235.691406 178.429688 "/>
<path style=" stroke:none;fill-rule:nonzero;fill:rgb(0%,0%,0%);fill-opacity:1;" d="M 196.652344 199.390625 C 196.292969 199.390625 195.9375 199.269531 195.648438 199.042969 C 195.257812 198.726562 195.035156 198.242188 195.046875 197.734375 C 195.371094 188.855469 200.089844 180.785156 207.683594 176.144531 C 208.425781 175.683594 209.417969 175.917969 209.882812 176.675781 C 210.34375 177.429688 210.105469 178.414062 209.351562 178.875 C 203.300781 182.574219 199.324219 188.75 198.425781 195.691406 C 213.707031 191.972656 229.046875 191.382812 244.097656 193.925781 C 242.902344 188.226562 239.578125 183.136719 234.761719 179.734375 C 234.039062 179.226562 233.871094 178.226562 234.378906 177.503906 C 234.894531 176.78125 235.898438 176.613281 236.605469 177.121094 C 242.769531 181.472656 246.785156 188.253906 247.621094 195.722656 C 247.679688 196.226562 247.488281 196.726562 247.117188 197.070312 C 246.746094 197.417969 246.230469 197.558594 245.730469 197.472656 C 229.734375 194.425781 213.355469 195.050781 197.050781 199.335938 C 196.921875 199.375 196.785156 199.390625 196.652344 199.390625 Z M 196.652344 199.390625 "/>
<path style=" stroke:none;fill-rule:nonzero;fill:rgb(0%,0%,0%);fill-opacity:1;" d="M 166.203125 197.199219 C 166.203125 199.851562 164.054688 202 161.402344 202 C 158.753906 202 156.601562 199.851562 156.601562 197.199219 C 156.601562 194.550781 158.753906 192.398438 161.402344 192.398438 C 164.054688 192.398438 166.203125 194.550781 166.203125 197.199219 Z M 166.203125 197.199219 "/>
<path style=" stroke:none;fill-rule:nonzero;fill:rgb(0%,0%,0%);fill-opacity:1;" d="M 227.003906 197.199219 C 227.003906 199.851562 224.855469 202 222.203125 202 C 219.550781 202 217.402344 199.851562 217.402344 197.199219 C 217.402344 194.550781 219.550781 192.398438 222.203125 192.398438 C 224.855469 192.398438 227.003906 194.550781 227.003906 197.199219 Z M 227.003906 197.199219 "/>
<path style=" stroke:none;fill-rule:nonzero;fill:rgb(0%,0%,0%);fill-opacity:1;" d="M 157.355469 239.28125 C 146.558594 239.28125 139.410156 232.980469 139.023438 232.632812 C 138.367188 232.042969 138.316406 231.035156 138.902344 230.378906 C 139.496094 229.726562 140.507812 229.671875 141.164062 230.253906 C 141.617188 230.660156 152.367188 240.054688 167.210938 234.113281 C 168.027344 233.78125 168.960938 234.183594 169.289062 235.003906 C 169.613281 235.824219 169.222656 236.753906 168.398438 237.082031 C 164.425781 238.675781 160.714844 239.28125 157.355469 239.28125 Z M 157.355469 239.28125 "/>
<path style=" stroke:none;fill-rule:nonzero;fill:rgb(0%,0%,0%);fill-opacity:1;" d="M 220.9375 239.28125 C 217.578125 239.28125 213.867188 238.675781 209.898438 237.082031 C 209.078125 236.75 208.679688 235.820312 209.007812 235.003906 C 209.339844 234.1875 210.269531 233.78125 211.085938 234.113281 C 225.984375 240.070312 237.019531 230.355469 237.132812 230.257812 C 237.789062 229.660156 238.796875 229.71875 239.390625 230.375 C 239.984375 231.03125 239.929688 232.042969 239.273438 232.632812 C 238.886719 232.984375 231.734375 239.28125 220.9375 239.28125 Z M 220.9375 239.28125 "/>
<path style=" stroke:none;fill-rule:nonzero;fill:rgb(0%,0%,0%);fill-opacity:1;" d="M 198.410156 137.203125 C 197.640625 137.203125 196.960938 136.644531 196.832031 135.855469 C 196.695312 134.984375 197.292969 134.164062 198.160156 134.023438 C 201.984375 133.40625 205.621094 132.613281 208.960938 131.65625 C 209.824219 131.417969 210.699219 131.90625 210.9375 132.757812 C 211.183594 133.605469 210.691406 134.492188 209.839844 134.734375 C 206.378906 135.722656 202.621094 136.546875 198.667969 137.179688 C 198.585938 137.199219 198.496094 137.203125 198.410156 137.203125 Z M 198.410156 137.203125 "/>
<path style=" stroke:none;fill-rule:nonzero;fill:rgb(0%,0%,0%);fill-opacity:1;" d="M 176.9375 138.804688 C 167.878906 138.804688 161.566406 138.03125 161.203125 137.988281 C 160.332031 137.878906 159.707031 137.078125 159.816406 136.203125 C 159.921875 135.320312 160.765625 134.699219 161.601562 134.8125 C 161.722656 134.828125 173.753906 136.296875 188.265625 135.179688 C 189.066406 135.101562 189.914062 135.769531 189.980469 136.652344 C 190.046875 137.53125 189.386719 138.304688 188.507812 138.371094 C 184.363281 138.6875 180.441406 138.804688 176.9375 138.804688 Z M 176.9375 138.804688 "/>
<path style=" stroke:none;fill-rule:nonzero;fill:rgb(0%,0%,0%);fill-opacity:1;" d="M 188.601562 262 C 186.027344 262 183.558594 260.671875 181.824219 258.359375 C 179.980469 255.902344 179.003906 252.457031 179.003906 248.398438 L 179.003906 229.199219 C 179.003906 228.316406 179.71875 227.601562 180.601562 227.601562 C 181.488281 227.601562 182.203125 228.316406 182.203125 229.199219 L 182.203125 248.398438 C 182.203125 255.546875 185.523438 258.800781 188.601562 258.800781 C 191.683594 258.800781 195.003906 255.546875 195.003906 248.398438 L 195.003906 229.199219 C 195.003906 228.316406 195.71875 227.601562 196.601562 227.601562 C 197.488281 227.601562 198.203125 228.316406 198.203125 229.199219 L 198.203125 248.398438 C 198.203125 257.742188 193.226562 262 188.601562 262 Z M 188.601562 262 "/>
<path style=" stroke:none;fill-rule:nonzero;fill:rgb(0%,0%,0%);fill-opacity:1;" d="M 225.402344 294.800781 C 225.199219 294.800781 224.988281 294.757812 224.789062 294.679688 C 187.511719 279.140625 152.808594 294.503906 152.464844 294.65625 C 151.664062 295.019531 150.714844 294.664062 150.347656 293.863281 C 149.984375 293.054688 150.335938 292.109375 151.140625 291.742188 C 151.496094 291.578125 187.417969 275.652344 226.019531 291.722656 C 226.832031 292.0625 227.21875 293 226.882812 293.8125 C 226.625 294.433594 226.027344 294.800781 225.402344 294.800781 Z M 225.402344 294.800781 "/>
<path style=" stroke:none;fill-rule:nonzero;fill:rgb(80.392158%,79.607844%,74.117649%);fill-opacity:1;" d="M 101.773438 156.808594 L 108.332031 165.371094 "/>
<path style=" stroke:none;fill-rule:nonzero;fill:rgb(0%,0%,0%);fill-opacity:1;" d="M 108.332031 166.96875 C 107.851562 166.96875 107.375 166.753906 107.0625 166.34375 L 100.503906 157.777344 C 99.964844 157.078125 100.097656 156.074219 100.800781 155.535156 C 101.503906 155 102.507812 155.132812 103.042969 155.832031 L 109.601562 164.398438 C 110.140625 165.097656 110.007812 166.101562 109.304688 166.640625 C 109.011719 166.863281 108.671875 166.96875 108.332031 166.96875 Z M 108.332031 166.96875 "/>
<path style=" stroke:none;fill-rule:nonzero;fill:rgb(80.392158%,79.607844%,74.117649%);fill-opacity:1;" d="M 78.917969 126.96875 L 95.335938 148.40625 "/>
<path style=" stroke:none;fill-rule:nonzero;fill:rgb(0%,0%,0%);fill-opacity:1;" d="M 95.335938 150.003906 C 94.855469 150.003906 94.378906 149.789062 94.070312 149.375 L 77.648438 127.941406 C 77.113281 127.242188 77.242188 126.238281 77.949219 125.699219 C 78.648438 125.164062 79.652344 125.296875 80.1875 125.996094 L 96.605469 147.429688 C 97.144531 148.132812 97.011719 149.136719 96.308594 149.671875 C 96.019531 149.898438 95.679688 150.003906 95.335938 150.003906 Z M 95.335938 150.003906 "/>
<path style=" stroke:none;fill-rule:nonzero;fill:rgb(80.392158%,79.607844%,74.117649%);fill-opacity:1;" d="M 126.496094 93.269531 L 131.613281 115.53125 "/>
<path style=" stroke:none;fill-rule:nonzero;fill:rgb(0%,0%,0%);fill-opacity:1;" d="M 131.613281 117.132812 C 130.882812 117.132812 130.226562 116.628906 130.054688 115.890625 L 124.9375 93.632812 C 124.738281 92.769531 125.273438 91.914062 126.136719 91.714844 C 127.011719 91.515625 127.855469 92.058594 128.054688 92.914062 L 133.175781 115.175781 C 133.375 116.035156 132.835938 116.894531 131.976562 117.089844 C 131.855469 117.121094 131.734375 117.132812 131.613281 117.132812 Z M 131.613281 117.132812 "/>
<path style=" stroke:none;fill-rule:nonzero;fill:rgb(80.392158%,79.607844%,74.117649%);fill-opacity:1;" d="M 122.21875 74.679688 L 124.242188 83.46875 "/>
<path style=" stroke:none;fill-rule:nonzero;fill:rgb(0%,0%,0%);fill-opacity:1;" d="M 124.242188 85.070312 C 123.507812 85.070312 122.851562 84.570312 122.683594 83.828125 L 120.660156 75.039062 C 120.460938 74.175781 121 73.316406 121.859375 73.121094 C 122.734375 72.925781 123.578125 73.460938 123.78125 74.320312 L 125.804688 83.105469 C 126 83.972656 125.464844 84.828125 124.601562 85.027344 C 124.480469 85.054688 124.359375 85.070312 124.242188 85.070312 Z M 124.242188 85.070312 "/>
<path style=" stroke:none;fill-rule:nonzero;fill:rgb(63.921571%,63.921571%,80.392158%);fill-opacity:1;" d="M 168.5625 168.617188 C 160.441406 168.617188 151.832031 168.113281 142.832031 166.726562 C 139.335938 166.1875 136.9375 162.921875 137.476562 159.425781 C 138.019531 155.933594 141.308594 153.527344 144.773438 154.078125 C 165.929688 157.328125 184.460938 155.386719 200.808594 153.671875 C 215.75 152.097656 228.648438 150.742188 238.761719 154.378906 C 242.089844 155.578125 243.820312 159.242188 242.621094 162.566406 C 241.425781 165.890625 237.761719 167.617188 234.4375 166.429688 C 227.070312 163.78125 215.519531 164.996094 202.140625 166.402344 C 192.300781 167.429688 181 168.617188 168.5625 168.617188 Z M 168.5625 168.617188 "/>
<path style=" stroke:none;fill-rule:nonzero;fill:rgb(0%,0%,0%);fill-opacity:1;" d="M 168.5625 170.21875 C 159.433594 170.21875 150.9375 169.59375 142.585938 168.308594 C 138.230469 167.636719 135.222656 163.542969 135.894531 159.183594 C 136.226562 157.066406 137.363281 155.203125 139.097656 153.9375 C 140.820312 152.675781 142.921875 152.148438 145.027344 152.496094 C 165.976562 155.714844 184.394531 153.78125 200.644531 152.078125 C 215.78125 150.484375 228.851562 149.113281 239.308594 152.871094 C 241.320312 153.59375 242.929688 155.054688 243.839844 156.988281 C 244.75 158.921875 244.851562 161.09375 244.132812 163.105469 C 242.636719 167.253906 238.066406 169.421875 233.902344 167.933594 C 226.871094 165.40625 215.492188 166.601562 202.316406 167.988281 C 192.332031 169.035156 181.066406 170.21875 168.5625 170.21875 Z M 143.785156 155.597656 C 142.78125 155.597656 141.8125 155.914062 140.984375 156.519531 C 139.941406 157.28125 139.257812 158.398438 139.058594 159.671875 C 138.65625 162.285156 140.460938 164.738281 143.074219 165.140625 C 151.265625 166.402344 159.597656 167.015625 168.5625 167.015625 C 180.894531 167.015625 192.074219 165.84375 201.933594 164.804688 C 215.539062 163.371094 227.257812 162.140625 234.980469 164.914062 C 237.46875 165.808594 240.226562 164.507812 241.117188 162.019531 C 241.554688 160.8125 241.488281 159.511719 240.941406 158.351562 C 240.394531 157.195312 239.429688 156.3125 238.222656 155.882812 C 228.449219 152.367188 215.714844 153.707031 200.976562 155.257812 C 184.53125 156.988281 165.898438 158.941406 144.527344 155.65625 C 144.28125 155.617188 144.03125 155.597656 143.785156 155.597656 Z M 143.785156 155.597656 "/>
</g>
</svg>
