<?xml version="1.0" encoding="UTF-8"?>
<svg xmlns="http://www.w3.org/2000/svg" xmlns:xlink="http://www.w3.org/1999/xlink" viewBox="0 0 400 400" width="400px" height="400px">
<g id="surface29778295">
<path style=" stroke:none;fill-rule:nonzero;fill:rgb(0%,0%,0%);fill-opacity:1;" d="M 0 400 L 0 0 L 400 0 L 400 400 Z M 392 392 L 392 8 L 8 8 L 8 392 Z M 392 392 "/>
<path style=" stroke:none;fill-rule:nonzero;fill:rgb(99.607843%,99.215686%,93.725491%);fill-opacity:1;" d="M 200 81.601562 C 116.558594 81.601562 100.800781 136.03125 100.800781 203.199219 C 100.800781 270.367188 152.734375 324.800781 200 324.800781 C 247.265625 324.800781 299.199219 270.367188 299.199219 203.199219 C 299.199219 136.03125 283.441406 81.601562 200 81.601562 Z M 200 81.601562 "/>
<path style=" stroke:none;fill-rule:nonzero;fill:rgb(94.117647%,35.686275%,42.352942%);fill-opacity:1;" d="M 246.398438 150.398438 L 200 172.800781 L 153.601562 150.398438 L 200 156 Z M 246.398438 150.398438 "/>
<path style=" stroke:none;fill-rule:nonzero;fill:rgb(94.117647%,35.686275%,42.352942%);fill-opacity:1;" d="M 177.019531 219.566406 C 176.429688 219.082031 175.578125 219.078125 174.988281 219.5625 L 139.789062 248.363281 C 139.441406 248.648438 139.226562 249.070312 139.203125 249.519531 C 139.179688 249.972656 139.351562 250.410156 139.671875 250.730469 L 152.46875 263.53125 C 152.769531 263.832031 153.175781 264 153.601562 264 C 153.675781 264 153.753906 263.992188 153.832031 263.984375 C 154.332031 263.910156 154.769531 263.601562 155.011719 263.160156 L 177.410156 221.558594 C 177.769531 220.886719 177.605469 220.050781 177.019531 219.566406 Z M 177.019531 219.566406 "/>
<path style=" stroke:none;fill-rule:nonzero;fill:rgb(94.117647%,35.686275%,42.352942%);fill-opacity:1;" d="M 260.210938 248.363281 L 225.011719 219.5625 C 224.421875 219.078125 223.570312 219.082031 222.980469 219.566406 C 222.394531 220.046875 222.230469 220.886719 222.589844 221.558594 L 244.988281 263.160156 C 245.230469 263.601562 245.664062 263.910156 246.167969 263.984375 C 246.246094 263.992188 246.324219 264 246.398438 264 C 246.824219 264 247.230469 263.832031 247.53125 263.53125 L 260.332031 250.734375 C 260.652344 250.414062 260.824219 249.972656 260.800781 249.523438 C 260.773438 249.070312 260.5625 248.648438 260.210938 248.363281 Z M 260.210938 248.363281 "/>
<path style=" stroke:none;fill-rule:nonzero;fill:rgb(30.588236%,43.137255%,56.862748%);fill-opacity:1;" d="M 217.601562 192 C 217.601562 183.164062 224.765625 176 233.601562 176 L 256 176 C 261.300781 176 265.601562 180.296875 265.601562 185.601562 L 265.601562 188.800781 C 265.601562 202.9375 254.136719 214.398438 240 214.398438 L 238.933594 214.398438 C 227.199219 214.398438 217.601562 207.265625 217.601562 195.199219 Z M 217.601562 192 "/>
<path style=" stroke:none;fill-rule:nonzero;fill:rgb(30.588236%,43.137255%,56.862748%);fill-opacity:1;" d="M 182.398438 195.199219 C 182.398438 207.265625 172.800781 214.398438 161.066406 214.398438 L 160 214.398438 C 145.863281 214.398438 134.398438 202.9375 134.398438 188.800781 L 134.398438 185.601562 C 134.398438 180.296875 138.699219 176 144 176 L 166.398438 176 C 175.234375 176 182.398438 183.164062 182.398438 192 Z M 182.398438 195.199219 "/>
<path style=" stroke:none;fill-rule:nonzero;fill:rgb(12.156863%,12.941177%,16.862746%);fill-opacity:1;" d="M 200 328 C 152.644531 328 97.601562 273.484375 97.601562 203.199219 C 97.601562 141.488281 109.765625 78.398438 200 78.398438 C 290.234375 78.398438 302.398438 141.488281 302.398438 203.199219 C 302.398438 273.484375 247.355469 328 200 328 Z M 200 84.800781 C 115.628906 84.800781 104 141.707031 104 203.199219 C 104 269.878906 155.605469 321.601562 200 321.601562 C 244.394531 321.601562 296 269.878906 296 203.199219 C 296 141.707031 284.371094 84.800781 200 84.800781 Z M 200 84.800781 "/>
<path style=" stroke:none;fill-rule:nonzero;fill:rgb(26.666668%,26.666668%,27.058825%);fill-opacity:1;" d="M 192 73.601562 L 208 73.601562 C 211.535156 73.601562 214.398438 76.464844 214.398438 80 L 214.398438 102.398438 C 214.398438 105.9375 211.535156 108.800781 208 108.800781 L 192 108.800781 C 188.464844 108.800781 185.601562 105.9375 185.601562 102.398438 L 185.601562 80 C 185.601562 76.464844 188.464844 73.601562 192 73.601562 Z M 192 73.601562 "/>
<path style=" stroke:none;fill-rule:nonzero;fill:rgb(82.745099%,87.450981%,94.509804%);fill-opacity:1;" d="M 208 94.398438 C 208 98.816406 204.417969 102.398438 200 102.398438 C 195.582031 102.398438 192 98.816406 192 94.398438 C 192 89.980469 195.582031 86.398438 200 86.398438 C 204.417969 86.398438 208 89.980469 208 94.398438 Z M 208 94.398438 "/>
<path style=" stroke:none;fill-rule:nonzero;fill:rgb(26.666668%,26.666668%,27.058825%);fill-opacity:1;" d="M 89.601562 201.601562 L 89.601562 185.601562 C 89.601562 182.0625 92.464844 179.199219 96 179.199219 L 115.199219 179.199219 C 118.734375 179.199219 121.601562 182.0625 121.601562 185.601562 L 121.601562 201.601562 C 121.601562 205.136719 118.734375 208 115.199219 208 L 96 208 C 92.464844 208 89.601562 205.136719 89.601562 201.601562 Z M 89.601562 201.601562 "/>
<path style=" stroke:none;fill-rule:nonzero;fill:rgb(82.745099%,87.450981%,94.509804%);fill-opacity:1;" d="M 115.199219 193.601562 C 115.199219 198.019531 111.617188 201.601562 107.199219 201.601562 C 102.78125 201.601562 99.199219 198.019531 99.199219 193.601562 C 99.199219 189.183594 102.78125 185.601562 107.199219 185.601562 C 111.617188 185.601562 115.199219 189.183594 115.199219 193.601562 Z M 115.199219 193.601562 "/>
<path style=" stroke:none;fill-rule:nonzero;fill:rgb(26.666668%,26.666668%,27.058825%);fill-opacity:1;" d="M 278.398438 201.601562 L 278.398438 185.601562 C 278.398438 182.0625 281.265625 179.199219 284.800781 179.199219 L 304 179.199219 C 307.535156 179.199219 310.398438 182.0625 310.398438 185.601562 L 310.398438 201.601562 C 310.398438 205.136719 307.535156 208 304 208 L 284.800781 208 C 281.265625 208 278.398438 205.136719 278.398438 201.601562 Z M 278.398438 201.601562 "/>
<path style=" stroke:none;fill-rule:nonzero;fill:rgb(82.745099%,87.450981%,94.509804%);fill-opacity:1;" d="M 300.800781 193.601562 C 300.800781 198.019531 297.21875 201.601562 292.800781 201.601562 C 288.382812 201.601562 284.800781 198.019531 284.800781 193.601562 C 284.800781 189.183594 288.382812 185.601562 292.800781 185.601562 C 297.21875 185.601562 300.800781 189.183594 300.800781 193.601562 Z M 300.800781 193.601562 "/>
<path style=" stroke:none;fill-rule:nonzero;fill:rgb(48.627451%,54.11765%,61.960787%);fill-opacity:1;" d="M 204.800781 136 C 204.800781 138.652344 202.652344 140.800781 200 140.800781 C 197.347656 140.800781 195.199219 138.652344 195.199219 136 C 195.199219 133.347656 197.347656 131.199219 200 131.199219 C 202.652344 131.199219 204.800781 133.347656 204.800781 136 Z M 204.800781 136 "/>
<path style=" stroke:none;fill-rule:nonzero;fill:rgb(48.627451%,54.11765%,61.960787%);fill-opacity:1;" d="M 204.800781 238.398438 C 204.800781 241.050781 202.652344 243.199219 200 243.199219 C 197.347656 243.199219 195.199219 241.050781 195.199219 238.398438 C 195.199219 235.75 197.347656 233.601562 200 233.601562 C 202.652344 233.601562 204.800781 235.75 204.800781 238.398438 Z M 204.800781 238.398438 "/>
<path style=" stroke:none;fill-rule:nonzero;fill:rgb(48.627451%,54.11765%,61.960787%);fill-opacity:1;" d="M 185.601562 260.800781 C 185.601562 263.449219 183.449219 265.601562 180.800781 265.601562 C 178.148438 265.601562 176 263.449219 176 260.800781 C 176 258.148438 178.148438 256 180.800781 256 C 183.449219 256 185.601562 258.148438 185.601562 260.800781 Z M 185.601562 260.800781 "/>
<path style=" stroke:none;fill-rule:nonzero;fill:rgb(48.627451%,54.11765%,61.960787%);fill-opacity:1;" d="M 224 260.800781 C 224 263.449219 221.851562 265.601562 219.199219 265.601562 C 216.550781 265.601562 214.398438 263.449219 214.398438 260.800781 C 214.398438 258.148438 216.550781 256 219.199219 256 C 221.851562 256 224 258.148438 224 260.800781 Z M 224 260.800781 "/>
<path style=" stroke:none;fill-rule:nonzero;fill:rgb(48.627451%,54.11765%,61.960787%);fill-opacity:1;" d="M 185.601562 283.199219 C 185.601562 285.851562 183.449219 288 180.800781 288 C 178.148438 288 176 285.851562 176 283.199219 C 176 280.550781 178.148438 278.398438 180.800781 278.398438 C 183.449219 278.398438 185.601562 280.550781 185.601562 283.199219 Z M 185.601562 283.199219 "/>
<path style=" stroke:none;fill-rule:nonzero;fill:rgb(48.627451%,54.11765%,61.960787%);fill-opacity:1;" d="M 131.199219 222.398438 C 131.199219 225.050781 129.050781 227.199219 126.398438 227.199219 C 123.75 227.199219 121.601562 225.050781 121.601562 222.398438 C 121.601562 219.75 123.75 217.601562 126.398438 217.601562 C 129.050781 217.601562 131.199219 219.75 131.199219 222.398438 Z M 131.199219 222.398438 "/>
<path style=" stroke:none;fill-rule:nonzero;fill:rgb(48.627451%,54.11765%,61.960787%);fill-opacity:1;" d="M 131.199219 244.800781 C 131.199219 247.449219 129.050781 249.601562 126.398438 249.601562 C 123.75 249.601562 121.601562 247.449219 121.601562 244.800781 C 121.601562 242.148438 123.75 240 126.398438 240 C 129.050781 240 131.199219 242.148438 131.199219 244.800781 Z M 131.199219 244.800781 "/>
<path style=" stroke:none;fill-rule:nonzero;fill:rgb(48.627451%,54.11765%,61.960787%);fill-opacity:1;" d="M 278.398438 222.398438 C 278.398438 225.050781 276.25 227.199219 273.601562 227.199219 C 270.949219 227.199219 268.800781 225.050781 268.800781 222.398438 C 268.800781 219.75 270.949219 217.601562 273.601562 217.601562 C 276.25 217.601562 278.398438 219.75 278.398438 222.398438 Z M 278.398438 222.398438 "/>
<path style=" stroke:none;fill-rule:nonzero;fill:rgb(48.627451%,54.11765%,61.960787%);fill-opacity:1;" d="M 278.398438 244.800781 C 278.398438 247.449219 276.25 249.601562 273.601562 249.601562 C 270.949219 249.601562 268.800781 247.449219 268.800781 244.800781 C 268.800781 242.148438 270.949219 240 273.601562 240 C 276.25 240 278.398438 242.148438 278.398438 244.800781 Z M 278.398438 244.800781 "/>
<path style=" stroke:none;fill-rule:nonzero;fill:rgb(48.627451%,54.11765%,61.960787%);fill-opacity:1;" d="M 163.199219 283.199219 C 163.199219 285.851562 161.050781 288 158.398438 288 C 155.75 288 153.601562 285.851562 153.601562 283.199219 C 153.601562 280.550781 155.75 278.398438 158.398438 278.398438 C 161.050781 278.398438 163.199219 280.550781 163.199219 283.199219 Z M 163.199219 283.199219 "/>
<path style=" stroke:none;fill-rule:nonzero;fill:rgb(48.627451%,54.11765%,61.960787%);fill-opacity:1;" d="M 246.398438 283.199219 C 246.398438 285.851562 244.25 288 241.601562 288 C 238.949219 288 236.800781 285.851562 236.800781 283.199219 C 236.800781 280.550781 238.949219 278.398438 241.601562 278.398438 C 244.25 278.398438 246.398438 280.550781 246.398438 283.199219 Z M 246.398438 283.199219 "/>
<path style=" stroke:none;fill-rule:nonzero;fill:rgb(48.627451%,54.11765%,61.960787%);fill-opacity:1;" d="M 224 283.199219 C 224 285.851562 221.851562 288 219.199219 288 C 216.550781 288 214.398438 285.851562 214.398438 283.199219 C 214.398438 280.550781 216.550781 278.398438 219.199219 278.398438 C 221.851562 278.398438 224 280.550781 224 283.199219 Z M 224 283.199219 "/>
<path style=" stroke:none;fill-rule:nonzero;fill:rgb(48.627451%,54.11765%,61.960787%);fill-opacity:1;" d="M 185.601562 305.601562 C 185.601562 308.25 183.449219 310.398438 180.800781 310.398438 C 178.148438 310.398438 176 308.25 176 305.601562 C 176 302.949219 178.148438 300.800781 180.800781 300.800781 C 183.449219 300.800781 185.601562 302.949219 185.601562 305.601562 Z M 185.601562 305.601562 "/>
<path style=" stroke:none;fill-rule:nonzero;fill:rgb(48.627451%,54.11765%,61.960787%);fill-opacity:1;" d="M 224 305.601562 C 224 308.25 221.851562 310.398438 219.199219 310.398438 C 216.550781 310.398438 214.398438 308.25 214.398438 305.601562 C 214.398438 302.949219 216.550781 300.800781 219.199219 300.800781 C 221.851562 300.800781 224 302.949219 224 305.601562 Z M 224 305.601562 "/>
<path style=" stroke:none;fill-rule:nonzero;fill:rgb(48.627451%,54.11765%,61.960787%);fill-opacity:1;" d="M 233.601562 132.800781 C 233.601562 135.449219 231.449219 137.601562 228.800781 137.601562 C 226.148438 137.601562 224 135.449219 224 132.800781 C 224 130.148438 226.148438 128 228.800781 128 C 231.449219 128 233.601562 130.148438 233.601562 132.800781 Z M 233.601562 132.800781 "/>
<path style=" stroke:none;fill-rule:nonzero;fill:rgb(48.627451%,54.11765%,61.960787%);fill-opacity:1;" d="M 262.398438 116.800781 C 262.398438 119.449219 260.25 121.601562 257.601562 121.601562 C 254.949219 121.601562 252.800781 119.449219 252.800781 116.800781 C 252.800781 114.148438 254.949219 112 257.601562 112 C 260.25 112 262.398438 114.148438 262.398438 116.800781 Z M 262.398438 116.800781 "/>
<path style=" stroke:none;fill-rule:nonzero;fill:rgb(48.627451%,54.11765%,61.960787%);fill-opacity:1;" d="M 265.601562 139.199219 C 265.601562 141.851562 263.449219 144 260.800781 144 C 258.148438 144 256 141.851562 256 139.199219 C 256 136.550781 258.148438 134.398438 260.800781 134.398438 C 263.449219 134.398438 265.601562 136.550781 265.601562 139.199219 Z M 265.601562 139.199219 "/>
<path style=" stroke:none;fill-rule:nonzero;fill:rgb(48.627451%,54.11765%,61.960787%);fill-opacity:1;" d="M 144 139.199219 C 144 141.851562 141.851562 144 139.199219 144 C 136.550781 144 134.398438 141.851562 134.398438 139.199219 C 134.398438 136.550781 136.550781 134.398438 139.199219 134.398438 C 141.851562 134.398438 144 136.550781 144 139.199219 Z M 144 139.199219 "/>
<path style=" stroke:none;fill-rule:nonzero;fill:rgb(48.627451%,54.11765%,61.960787%);fill-opacity:1;" d="M 128 158.398438 C 128 161.050781 125.851562 163.199219 123.199219 163.199219 C 120.550781 163.199219 118.398438 161.050781 118.398438 158.398438 C 118.398438 155.75 120.550781 153.601562 123.199219 153.601562 C 125.851562 153.601562 128 155.75 128 158.398438 Z M 128 158.398438 "/>
<path style=" stroke:none;fill-rule:nonzero;fill:rgb(48.627451%,54.11765%,61.960787%);fill-opacity:1;" d="M 281.601562 158.398438 C 281.601562 161.050781 279.449219 163.199219 276.800781 163.199219 C 274.148438 163.199219 272 161.050781 272 158.398438 C 272 155.75 274.148438 153.601562 276.800781 153.601562 C 279.449219 153.601562 281.601562 155.75 281.601562 158.398438 Z M 281.601562 158.398438 "/>
<path style=" stroke:none;fill-rule:nonzero;fill:rgb(48.627451%,54.11765%,61.960787%);fill-opacity:1;" d="M 147.199219 116.800781 C 147.199219 119.449219 145.050781 121.601562 142.398438 121.601562 C 139.75 121.601562 137.601562 119.449219 137.601562 116.800781 C 137.601562 114.148438 139.75 112 142.398438 112 C 145.050781 112 147.199219 114.148438 147.199219 116.800781 Z M 147.199219 116.800781 "/>
<path style=" stroke:none;fill-rule:nonzero;fill:rgb(48.627451%,54.11765%,61.960787%);fill-opacity:1;" d="M 176 132.800781 C 176 135.449219 173.851562 137.601562 171.199219 137.601562 C 168.550781 137.601562 166.398438 135.449219 166.398438 132.800781 C 166.398438 130.148438 168.550781 128 171.199219 128 C 173.851562 128 176 130.148438 176 132.800781 Z M 176 132.800781 "/>
<path style=" stroke:none;fill-rule:nonzero;fill:rgb(12.156863%,12.941177%,16.862746%);fill-opacity:1;" d="M 200 142.398438 C 196.351562 142.398438 193.601562 139.648438 193.601562 136 C 193.601562 132.351562 196.351562 129.601562 200 129.601562 C 203.648438 129.601562 206.398438 132.351562 206.398438 136 C 206.398438 139.648438 203.648438 142.398438 200 142.398438 Z M 200 132.800781 C 198.113281 132.800781 196.800781 134.113281 196.800781 136 C 196.800781 137.886719 198.113281 139.199219 200 139.199219 C 201.886719 139.199219 203.199219 137.886719 203.199219 136 C 203.199219 134.113281 201.886719 132.800781 200 132.800781 Z M 200 132.800781 "/>
<path style=" stroke:none;fill-rule:nonzero;fill:rgb(12.156863%,12.941177%,16.862746%);fill-opacity:1;" d="M 200 244.800781 C 196.351562 244.800781 193.601562 242.046875 193.601562 238.398438 C 193.601562 234.753906 196.351562 232 200 232 C 203.648438 232 206.398438 234.753906 206.398438 238.398438 C 206.398438 242.046875 203.648438 244.800781 200 244.800781 Z M 200 235.199219 C 198.113281 235.199219 196.800781 236.515625 196.800781 238.398438 C 196.800781 240.285156 198.113281 241.601562 200 241.601562 C 201.886719 241.601562 203.199219 240.285156 203.199219 238.398438 C 203.199219 236.515625 201.886719 235.199219 200 235.199219 Z M 200 235.199219 "/>
<path style=" stroke:none;fill-rule:nonzero;fill:rgb(12.156863%,12.941177%,16.862746%);fill-opacity:1;" d="M 180.800781 267.199219 C 177.152344 267.199219 174.398438 264.449219 174.398438 260.800781 C 174.398438 257.152344 177.152344 254.398438 180.800781 254.398438 C 184.449219 254.398438 187.199219 257.152344 187.199219 260.800781 C 187.199219 264.449219 184.449219 267.199219 180.800781 267.199219 Z M 180.800781 257.601562 C 178.914062 257.601562 177.601562 258.914062 177.601562 260.800781 C 177.601562 262.683594 178.914062 264 180.800781 264 C 182.683594 264 184 262.683594 184 260.800781 C 184 258.914062 182.683594 257.601562 180.800781 257.601562 Z M 180.800781 257.601562 "/>
<path style=" stroke:none;fill-rule:nonzero;fill:rgb(12.156863%,12.941177%,16.862746%);fill-opacity:1;" d="M 219.199219 267.199219 C 215.550781 267.199219 212.800781 264.449219 212.800781 260.800781 C 212.800781 257.152344 215.550781 254.398438 219.199219 254.398438 C 222.847656 254.398438 225.601562 257.152344 225.601562 260.800781 C 225.601562 264.449219 222.847656 267.199219 219.199219 267.199219 Z M 219.199219 257.601562 C 217.316406 257.601562 216 258.914062 216 260.800781 C 216 262.683594 217.316406 264 219.199219 264 C 221.085938 264 222.398438 262.683594 222.398438 260.800781 C 222.398438 258.914062 221.085938 257.601562 219.199219 257.601562 Z M 219.199219 257.601562 "/>
<path style=" stroke:none;fill-rule:nonzero;fill:rgb(12.156863%,12.941177%,16.862746%);fill-opacity:1;" d="M 180.800781 289.601562 C 177.152344 289.601562 174.398438 286.847656 174.398438 283.199219 C 174.398438 279.550781 177.152344 276.800781 180.800781 276.800781 C 184.449219 276.800781 187.199219 279.550781 187.199219 283.199219 C 187.199219 286.847656 184.449219 289.601562 180.800781 289.601562 Z M 180.800781 280 C 178.914062 280 177.601562 281.316406 177.601562 283.199219 C 177.601562 285.085938 178.914062 286.398438 180.800781 286.398438 C 182.683594 286.398438 184 285.085938 184 283.199219 C 184 281.316406 182.683594 280 180.800781 280 Z M 180.800781 280 "/>
<path style=" stroke:none;fill-rule:nonzero;fill:rgb(12.156863%,12.941177%,16.862746%);fill-opacity:1;" d="M 126.398438 228.800781 C 122.753906 228.800781 120 226.046875 120 222.398438 C 120 218.753906 122.753906 216 126.398438 216 C 130.046875 216 132.800781 218.753906 132.800781 222.398438 C 132.800781 226.046875 130.046875 228.800781 126.398438 228.800781 Z M 126.398438 219.199219 C 124.515625 219.199219 123.199219 220.515625 123.199219 222.398438 C 123.199219 224.285156 124.515625 225.601562 126.398438 225.601562 C 128.285156 225.601562 129.601562 224.285156 129.601562 222.398438 C 129.601562 220.515625 128.285156 219.199219 126.398438 219.199219 Z M 126.398438 219.199219 "/>
<path style=" stroke:none;fill-rule:nonzero;fill:rgb(12.156863%,12.941177%,16.862746%);fill-opacity:1;" d="M 126.398438 251.199219 C 122.753906 251.199219 120 248.449219 120 244.800781 C 120 241.152344 122.753906 238.398438 126.398438 238.398438 C 130.046875 238.398438 132.800781 241.152344 132.800781 244.800781 C 132.800781 248.449219 130.046875 251.199219 126.398438 251.199219 Z M 126.398438 241.601562 C 124.515625 241.601562 123.199219 242.914062 123.199219 244.800781 C 123.199219 246.683594 124.515625 248 126.398438 248 C 128.285156 248 129.601562 246.683594 129.601562 244.800781 C 129.601562 242.914062 128.285156 241.601562 126.398438 241.601562 Z M 126.398438 241.601562 "/>
<path style=" stroke:none;fill-rule:nonzero;fill:rgb(12.156863%,12.941177%,16.862746%);fill-opacity:1;" d="M 273.601562 228.800781 C 269.953125 228.800781 267.199219 226.046875 267.199219 222.398438 C 267.199219 218.753906 269.953125 216 273.601562 216 C 277.246094 216 280 218.753906 280 222.398438 C 280 226.046875 277.246094 228.800781 273.601562 228.800781 Z M 273.601562 219.199219 C 271.714844 219.199219 270.398438 220.515625 270.398438 222.398438 C 270.398438 224.285156 271.714844 225.601562 273.601562 225.601562 C 275.484375 225.601562 276.800781 224.285156 276.800781 222.398438 C 276.800781 220.515625 275.484375 219.199219 273.601562 219.199219 Z M 273.601562 219.199219 "/>
<path style=" stroke:none;fill-rule:nonzero;fill:rgb(12.156863%,12.941177%,16.862746%);fill-opacity:1;" d="M 273.601562 251.199219 C 269.953125 251.199219 267.199219 248.449219 267.199219 244.800781 C 267.199219 241.152344 269.953125 238.398438 273.601562 238.398438 C 277.246094 238.398438 280 241.152344 280 244.800781 C 280 248.449219 277.246094 251.199219 273.601562 251.199219 Z M 273.601562 241.601562 C 271.714844 241.601562 270.398438 242.914062 270.398438 244.800781 C 270.398438 246.683594 271.714844 248 273.601562 248 C 275.484375 248 276.800781 246.683594 276.800781 244.800781 C 276.800781 242.914062 275.484375 241.601562 273.601562 241.601562 Z M 273.601562 241.601562 "/>
<path style=" stroke:none;fill-rule:nonzero;fill:rgb(12.156863%,12.941177%,16.862746%);fill-opacity:1;" d="M 158.398438 289.601562 C 154.753906 289.601562 152 286.847656 152 283.199219 C 152 279.550781 154.753906 276.800781 158.398438 276.800781 C 162.046875 276.800781 164.800781 279.550781 164.800781 283.199219 C 164.800781 286.847656 162.046875 289.601562 158.398438 289.601562 Z M 158.398438 280 C 156.515625 280 155.199219 281.316406 155.199219 283.199219 C 155.199219 285.085938 156.515625 286.398438 158.398438 286.398438 C 160.285156 286.398438 161.601562 285.085938 161.601562 283.199219 C 161.601562 281.316406 160.285156 280 158.398438 280 Z M 158.398438 280 "/>
<path style=" stroke:none;fill-rule:nonzero;fill:rgb(12.156863%,12.941177%,16.862746%);fill-opacity:1;" d="M 241.601562 289.601562 C 237.953125 289.601562 235.199219 286.847656 235.199219 283.199219 C 235.199219 279.550781 237.953125 276.800781 241.601562 276.800781 C 245.246094 276.800781 248 279.550781 248 283.199219 C 248 286.847656 245.246094 289.601562 241.601562 289.601562 Z M 241.601562 280 C 239.714844 280 238.398438 281.316406 238.398438 283.199219 C 238.398438 285.085938 239.714844 286.398438 241.601562 286.398438 C 243.484375 286.398438 244.800781 285.085938 244.800781 283.199219 C 244.800781 281.316406 243.484375 280 241.601562 280 Z M 241.601562 280 "/>
<path style=" stroke:none;fill-rule:nonzero;fill:rgb(12.156863%,12.941177%,16.862746%);fill-opacity:1;" d="M 219.199219 289.601562 C 215.550781 289.601562 212.800781 286.847656 212.800781 283.199219 C 212.800781 279.550781 215.550781 276.800781 219.199219 276.800781 C 222.847656 276.800781 225.601562 279.550781 225.601562 283.199219 C 225.601562 286.847656 222.847656 289.601562 219.199219 289.601562 Z M 219.199219 280 C 217.316406 280 216 281.316406 216 283.199219 C 216 285.085938 217.316406 286.398438 219.199219 286.398438 C 221.085938 286.398438 222.398438 285.085938 222.398438 283.199219 C 222.398438 281.316406 221.085938 280 219.199219 280 Z M 219.199219 280 "/>
<path style=" stroke:none;fill-rule:nonzero;fill:rgb(12.156863%,12.941177%,16.862746%);fill-opacity:1;" d="M 180.800781 312 C 177.152344 312 174.398438 309.246094 174.398438 305.601562 C 174.398438 301.953125 177.152344 299.199219 180.800781 299.199219 C 184.449219 299.199219 187.199219 301.953125 187.199219 305.601562 C 187.199219 309.246094 184.449219 312 180.800781 312 Z M 180.800781 302.398438 C 178.914062 302.398438 177.601562 303.714844 177.601562 305.601562 C 177.601562 307.484375 178.914062 308.800781 180.800781 308.800781 C 182.683594 308.800781 184 307.484375 184 305.601562 C 184 303.714844 182.683594 302.398438 180.800781 302.398438 Z M 180.800781 302.398438 "/>
<path style=" stroke:none;fill-rule:nonzero;fill:rgb(12.156863%,12.941177%,16.862746%);fill-opacity:1;" d="M 219.199219 312 C 215.550781 312 212.800781 309.246094 212.800781 305.601562 C 212.800781 301.953125 215.550781 299.199219 219.199219 299.199219 C 222.847656 299.199219 225.601562 301.953125 225.601562 305.601562 C 225.601562 309.246094 222.847656 312 219.199219 312 Z M 219.199219 302.398438 C 217.316406 302.398438 216 303.714844 216 305.601562 C 216 307.484375 217.316406 308.800781 219.199219 308.800781 C 221.085938 308.800781 222.398438 307.484375 222.398438 305.601562 C 222.398438 303.714844 221.085938 302.398438 219.199219 302.398438 Z M 219.199219 302.398438 "/>
<path style=" stroke:none;fill-rule:nonzero;fill:rgb(12.156863%,12.941177%,16.862746%);fill-opacity:1;" d="M 228.800781 139.199219 C 225.152344 139.199219 222.398438 136.449219 222.398438 132.800781 C 222.398438 129.152344 225.152344 126.398438 228.800781 126.398438 C 232.449219 126.398438 235.199219 129.152344 235.199219 132.800781 C 235.199219 136.449219 232.449219 139.199219 228.800781 139.199219 Z M 228.800781 129.601562 C 226.914062 129.601562 225.601562 130.914062 225.601562 132.800781 C 225.601562 134.683594 226.914062 136 228.800781 136 C 230.683594 136 232 134.683594 232 132.800781 C 232 130.914062 230.683594 129.601562 228.800781 129.601562 Z M 228.800781 129.601562 "/>
<path style=" stroke:none;fill-rule:nonzero;fill:rgb(12.156863%,12.941177%,16.862746%);fill-opacity:1;" d="M 257.601562 123.199219 C 253.953125 123.199219 251.199219 120.449219 251.199219 116.800781 C 251.199219 113.152344 253.953125 110.398438 257.601562 110.398438 C 261.246094 110.398438 264 113.152344 264 116.800781 C 264 120.449219 261.246094 123.199219 257.601562 123.199219 Z M 257.601562 113.601562 C 255.714844 113.601562 254.398438 114.914062 254.398438 116.800781 C 254.398438 118.683594 255.714844 120 257.601562 120 C 259.484375 120 260.800781 118.683594 260.800781 116.800781 C 260.800781 114.914062 259.484375 113.601562 257.601562 113.601562 Z M 257.601562 113.601562 "/>
<path style=" stroke:none;fill-rule:nonzero;fill:rgb(12.156863%,12.941177%,16.862746%);fill-opacity:1;" d="M 260.800781 145.601562 C 257.152344 145.601562 254.398438 142.847656 254.398438 139.199219 C 254.398438 135.550781 257.152344 132.800781 260.800781 132.800781 C 264.449219 132.800781 267.199219 135.550781 267.199219 139.199219 C 267.199219 142.847656 264.449219 145.601562 260.800781 145.601562 Z M 260.800781 136 C 258.914062 136 257.601562 137.316406 257.601562 139.199219 C 257.601562 141.085938 258.914062 142.398438 260.800781 142.398438 C 262.683594 142.398438 264 141.085938 264 139.199219 C 264 137.316406 262.683594 136 260.800781 136 Z M 260.800781 136 "/>
<path style=" stroke:none;fill-rule:nonzero;fill:rgb(12.156863%,12.941177%,16.862746%);fill-opacity:1;" d="M 139.199219 145.601562 C 135.550781 145.601562 132.800781 142.847656 132.800781 139.199219 C 132.800781 135.550781 135.550781 132.800781 139.199219 132.800781 C 142.847656 132.800781 145.601562 135.550781 145.601562 139.199219 C 145.601562 142.847656 142.847656 145.601562 139.199219 145.601562 Z M 139.199219 136 C 137.316406 136 136 137.316406 136 139.199219 C 136 141.085938 137.316406 142.398438 139.199219 142.398438 C 141.085938 142.398438 142.398438 141.085938 142.398438 139.199219 C 142.398438 137.316406 141.085938 136 139.199219 136 Z M 139.199219 136 "/>
<path style=" stroke:none;fill-rule:nonzero;fill:rgb(12.156863%,12.941177%,16.862746%);fill-opacity:1;" d="M 123.199219 164.800781 C 119.550781 164.800781 116.800781 162.046875 116.800781 158.398438 C 116.800781 154.753906 119.550781 152 123.199219 152 C 126.847656 152 129.601562 154.753906 129.601562 158.398438 C 129.601562 162.046875 126.847656 164.800781 123.199219 164.800781 Z M 123.199219 155.199219 C 121.316406 155.199219 120 156.515625 120 158.398438 C 120 160.285156 121.316406 161.601562 123.199219 161.601562 C 125.085938 161.601562 126.398438 160.285156 126.398438 158.398438 C 126.398438 156.515625 125.085938 155.199219 123.199219 155.199219 Z M 123.199219 155.199219 "/>
<path style=" stroke:none;fill-rule:nonzero;fill:rgb(12.156863%,12.941177%,16.862746%);fill-opacity:1;" d="M 276.800781 164.800781 C 273.152344 164.800781 270.398438 162.046875 270.398438 158.398438 C 270.398438 154.753906 273.152344 152 276.800781 152 C 280.449219 152 283.199219 154.753906 283.199219 158.398438 C 283.199219 162.046875 280.449219 164.800781 276.800781 164.800781 Z M 276.800781 155.199219 C 274.914062 155.199219 273.601562 156.515625 273.601562 158.398438 C 273.601562 160.285156 274.914062 161.601562 276.800781 161.601562 C 278.683594 161.601562 280 160.285156 280 158.398438 C 280 156.515625 278.683594 155.199219 276.800781 155.199219 Z M 276.800781 155.199219 "/>
<path style=" stroke:none;fill-rule:nonzero;fill:rgb(12.156863%,12.941177%,16.862746%);fill-opacity:1;" d="M 142.398438 123.199219 C 138.753906 123.199219 136 120.449219 136 116.800781 C 136 113.152344 138.753906 110.398438 142.398438 110.398438 C 146.046875 110.398438 148.800781 113.152344 148.800781 116.800781 C 148.800781 120.449219 146.046875 123.199219 142.398438 123.199219 Z M 142.398438 113.601562 C 140.515625 113.601562 139.199219 114.914062 139.199219 116.800781 C 139.199219 118.683594 140.515625 120 142.398438 120 C 144.285156 120 145.601562 118.683594 145.601562 116.800781 C 145.601562 114.914062 144.285156 113.601562 142.398438 113.601562 Z M 142.398438 113.601562 "/>
<path style=" stroke:none;fill-rule:nonzero;fill:rgb(12.156863%,12.941177%,16.862746%);fill-opacity:1;" d="M 171.199219 139.199219 C 167.550781 139.199219 164.800781 136.449219 164.800781 132.800781 C 164.800781 129.152344 167.550781 126.398438 171.199219 126.398438 C 174.847656 126.398438 177.601562 129.152344 177.601562 132.800781 C 177.601562 136.449219 174.847656 139.199219 171.199219 139.199219 Z M 171.199219 129.601562 C 169.316406 129.601562 168 130.914062 168 132.800781 C 168 134.683594 169.316406 136 171.199219 136 C 173.085938 136 174.398438 134.683594 174.398438 132.800781 C 174.398438 130.914062 173.085938 129.601562 171.199219 129.601562 Z M 171.199219 129.601562 "/>
<path style=" stroke:none;fill-rule:nonzero;fill:rgb(12.156863%,12.941177%,16.862746%);fill-opacity:1;" d="M 153.601562 264 C 153.175781 264 152.769531 263.832031 152.46875 263.53125 L 139.667969 250.734375 C 139.347656 250.414062 139.175781 249.972656 139.199219 249.523438 C 139.222656 249.070312 139.4375 248.652344 139.785156 248.363281 L 155.785156 235.273438 C 156.46875 234.714844 157.476562 234.8125 158.039062 235.5 C 158.597656 236.183594 158.496094 237.191406 157.8125 237.753906 L 143.179688 249.726562 L 153.210938 259.753906 L 174.589844 220.046875 C 175.007812 219.269531 175.976562 218.980469 176.753906 219.394531 C 177.53125 219.8125 177.824219 220.789062 177.40625 221.5625 L 155.007812 263.160156 C 154.769531 263.605469 154.332031 263.914062 153.832031 263.988281 C 153.753906 263.992188 153.675781 264 153.601562 264 Z M 153.601562 264 "/>
<path style=" stroke:none;fill-rule:nonzero;fill:rgb(12.156863%,12.941177%,16.862746%);fill-opacity:1;" d="M 163.199219 232.871094 C 162.734375 232.871094 162.273438 232.667969 161.957031 232.28125 C 161.398438 231.601562 161.5 230.589844 162.1875 230.027344 L 165.386719 227.410156 C 166.066406 226.855469 167.074219 226.949219 167.636719 227.636719 C 168.199219 228.320312 168.097656 229.332031 167.410156 229.890625 L 164.210938 232.507812 C 163.917969 232.753906 163.558594 232.871094 163.199219 232.871094 Z M 163.199219 232.871094 "/>
<path style=" stroke:none;fill-rule:nonzero;fill:rgb(12.156863%,12.941177%,16.862746%);fill-opacity:1;" d="M 246.398438 240.730469 C 246.042969 240.730469 245.6875 240.609375 245.390625 240.367188 L 238.988281 235.128906 C 238.308594 234.570312 238.203125 233.5625 238.765625 232.875 C 239.320312 232.191406 240.328125 232.089844 241.019531 232.652344 L 247.417969 237.890625 C 248.097656 238.453125 248.203125 239.460938 247.640625 240.144531 C 247.320312 240.527344 246.863281 240.730469 246.398438 240.730469 Z M 246.398438 240.730469 "/>
<path style=" stroke:none;fill-rule:nonzero;fill:rgb(12.156863%,12.941177%,16.862746%);fill-opacity:1;" d="M 246.398438 264 C 246.324219 264 246.246094 263.992188 246.167969 263.984375 C 245.667969 263.910156 245.230469 263.601562 244.988281 263.160156 L 222.589844 221.558594 C 222.167969 220.78125 222.460938 219.8125 223.242188 219.390625 C 224.015625 218.976562 224.988281 219.265625 225.40625 220.042969 L 246.789062 259.75 L 256.816406 249.722656 L 250.363281 244.441406 C 249.675781 243.882812 249.574219 242.875 250.132812 242.1875 C 250.695312 241.5 251.703125 241.402344 252.386719 241.960938 L 260.207031 248.363281 C 260.558594 248.648438 260.769531 249.070312 260.792969 249.519531 C 260.816406 249.972656 260.644531 250.414062 260.328125 250.730469 L 247.527344 263.53125 C 247.230469 263.832031 246.824219 264 246.398438 264 Z M 246.398438 264 "/>
<path style=" stroke:none;fill-rule:nonzero;fill:rgb(12.156863%,12.941177%,16.862746%);fill-opacity:1;" d="M 200 174.398438 C 199.761719 174.398438 199.523438 174.34375 199.304688 174.238281 L 152.90625 151.839844 C 152.203125 151.5 151.847656 150.699219 152.0625 149.949219 C 152.285156 149.199219 153.007812 148.714844 153.792969 148.808594 L 200 154.390625 L 246.207031 148.8125 C 246.992188 148.714844 247.714844 149.203125 247.9375 149.953125 C 248.152344 150.703125 247.800781 151.5 247.09375 151.84375 L 200.695312 174.242188 C 200.476562 174.34375 200.238281 174.398438 200 174.398438 Z M 162.957031 153.140625 L 200 171.023438 L 237.042969 153.140625 L 200.191406 157.589844 C 200.0625 157.605469 199.9375 157.605469 199.808594 157.589844 Z M 162.957031 153.140625 "/>
<path style=" stroke:none;fill-rule:nonzero;fill:rgb(12.156863%,12.941177%,16.862746%);fill-opacity:1;" d="M 240 216 L 238.933594 216 C 225.644531 216 216 207.253906 216 195.199219 L 216 192 C 216 182.292969 223.894531 174.398438 233.601562 174.398438 L 256 174.398438 C 262.175781 174.398438 267.199219 179.425781 267.199219 185.601562 L 267.199219 188.800781 C 267.199219 203.796875 255 216 240 216 Z M 233.601562 180.800781 C 227.425781 180.800781 222.398438 185.824219 222.398438 192 L 222.398438 195.199219 C 222.398438 203.8125 229.042969 209.601562 238.933594 209.601562 L 240 209.601562 C 251.46875 209.601562 260.800781 200.269531 260.800781 188.800781 L 260.800781 185.601562 C 260.800781 182.953125 258.644531 180.800781 256 180.800781 Z M 233.601562 180.800781 "/>
<path style=" stroke:none;fill-rule:nonzero;fill:rgb(12.156863%,12.941177%,16.862746%);fill-opacity:1;" d="M 161.066406 216 L 160 216 C 145 216 132.800781 203.796875 132.800781 188.800781 L 132.800781 185.601562 C 132.800781 179.425781 137.824219 174.398438 144 174.398438 L 166.398438 174.398438 C 176.105469 174.398438 184 182.292969 184 192 L 184 195.199219 C 184 207.253906 174.355469 216 161.066406 216 Z M 144 180.800781 C 141.355469 180.800781 139.199219 182.953125 139.199219 185.601562 L 139.199219 188.800781 C 139.199219 200.269531 148.53125 209.601562 160 209.601562 L 161.066406 209.601562 C 170.957031 209.601562 177.601562 203.8125 177.601562 195.199219 L 177.601562 192 C 177.601562 185.824219 172.574219 180.800781 166.398438 180.800781 Z M 144 180.800781 "/>
<path style=" stroke:none;fill-rule:nonzero;fill:rgb(12.156863%,12.941177%,16.862746%);fill-opacity:1;" d="M 208 110.398438 L 192 110.398438 C 187.589844 110.398438 184 106.808594 184 102.398438 L 184 80 C 184 75.589844 187.589844 72 192 72 L 208 72 C 212.410156 72 216 75.589844 216 80 L 216 102.398438 C 216 106.808594 212.410156 110.398438 208 110.398438 Z M 192 75.199219 C 189.355469 75.199219 187.199219 77.355469 187.199219 80 L 187.199219 102.398438 C 187.199219 105.046875 189.355469 107.199219 192 107.199219 L 208 107.199219 C 210.644531 107.199219 212.800781 105.046875 212.800781 102.398438 L 212.800781 80 C 212.800781 77.355469 210.644531 75.199219 208 75.199219 Z M 192 75.199219 "/>
<path style=" stroke:none;fill-rule:nonzero;fill:rgb(12.156863%,12.941177%,16.862746%);fill-opacity:1;" d="M 200 104 C 194.527344 104 190.398438 99.871094 190.398438 94.398438 C 190.398438 88.929688 194.527344 84.800781 200 84.800781 C 205.472656 84.800781 209.601562 88.929688 209.601562 94.398438 C 209.601562 99.871094 205.472656 104 200 104 Z M 200 88 C 196.292969 88 193.601562 90.691406 193.601562 94.398438 C 193.601562 98.109375 196.292969 100.800781 200 100.800781 C 203.707031 100.800781 206.398438 98.109375 206.398438 94.398438 C 206.398438 90.691406 203.707031 88 200 88 Z M 200 88 "/>
<path style=" stroke:none;fill-rule:nonzero;fill:rgb(12.156863%,12.941177%,16.862746%);fill-opacity:1;" d="M 115.199219 209.601562 L 96 209.601562 C 91.589844 209.601562 88 206.007812 88 201.601562 L 88 185.601562 C 88 181.191406 91.589844 177.601562 96 177.601562 L 115.199219 177.601562 C 119.609375 177.601562 123.199219 181.191406 123.199219 185.601562 L 123.199219 201.601562 C 123.199219 206.007812 119.609375 209.601562 115.199219 209.601562 Z M 96 180.800781 C 93.355469 180.800781 91.199219 182.953125 91.199219 185.601562 L 91.199219 201.601562 C 91.199219 204.246094 93.355469 206.398438 96 206.398438 L 115.199219 206.398438 C 117.847656 206.398438 120 204.246094 120 201.601562 L 120 185.601562 C 120 182.953125 117.847656 180.800781 115.199219 180.800781 Z M 96 180.800781 "/>
<path style=" stroke:none;fill-rule:nonzero;fill:rgb(12.156863%,12.941177%,16.862746%);fill-opacity:1;" d="M 107.199219 203.199219 C 101.726562 203.199219 97.601562 199.070312 97.601562 193.601562 C 97.601562 188.128906 101.726562 184 107.199219 184 C 112.671875 184 116.800781 188.128906 116.800781 193.601562 C 116.800781 199.070312 112.671875 203.199219 107.199219 203.199219 Z M 107.199219 187.199219 C 103.492188 187.199219 100.800781 189.890625 100.800781 193.601562 C 100.800781 197.308594 103.492188 200 107.199219 200 C 110.910156 200 113.601562 197.308594 113.601562 193.601562 C 113.601562 189.890625 110.910156 187.199219 107.199219 187.199219 Z M 107.199219 187.199219 "/>
<path style=" stroke:none;fill-rule:nonzero;fill:rgb(12.156863%,12.941177%,16.862746%);fill-opacity:1;" d="M 304 209.601562 L 284.800781 209.601562 C 280.390625 209.601562 276.800781 206.007812 276.800781 201.601562 L 276.800781 185.601562 C 276.800781 181.191406 280.390625 177.601562 284.800781 177.601562 L 304 177.601562 C 308.410156 177.601562 312 181.191406 312 185.601562 L 312 201.601562 C 312 206.007812 308.410156 209.601562 304 209.601562 Z M 284.800781 180.800781 C 282.152344 180.800781 280 182.953125 280 185.601562 L 280 201.601562 C 280 204.246094 282.152344 206.398438 284.800781 206.398438 L 304 206.398438 C 306.644531 206.398438 308.800781 204.246094 308.800781 201.601562 L 308.800781 185.601562 C 308.800781 182.953125 306.644531 180.800781 304 180.800781 Z M 284.800781 180.800781 "/>
<path style=" stroke:none;fill-rule:nonzero;fill:rgb(12.156863%,12.941177%,16.862746%);fill-opacity:1;" d="M 292.800781 203.199219 C 287.328125 203.199219 283.199219 199.070312 283.199219 193.601562 C 283.199219 188.128906 287.328125 184 292.800781 184 C 298.273438 184 302.398438 188.128906 302.398438 193.601562 C 302.398438 199.070312 298.273438 203.199219 292.800781 203.199219 Z M 292.800781 187.199219 C 289.089844 187.199219 286.398438 189.890625 286.398438 193.601562 C 286.398438 197.308594 289.089844 200 292.800781 200 C 296.507812 200 299.199219 197.308594 299.199219 193.601562 C 299.199219 189.890625 296.507812 187.199219 292.800781 187.199219 Z M 292.800781 187.199219 "/>
</g>
</svg>
