<?xml version="1.0" encoding="UTF-8"?>
<svg xmlns="http://www.w3.org/2000/svg" xmlns:xlink="http://www.w3.org/1999/xlink" viewBox="0 0 400 400" width="400px" height="400px">
<g id="surface29779756">
<path style=" stroke:none;fill-rule:nonzero;fill:rgb(0%,0%,0%);fill-opacity:1;" d="M 0 400 L 0 0 L 400 0 L 400 400 Z M 392 392 L 392 8 L 8 8 L 8 392 Z M 392 392 "/>
<path style=" stroke:none;fill-rule:nonzero;fill:rgb(97.647059%,90.196079%,36.078432%);fill-opacity:1;" d="M 296 144 C 296 108.222656 268.523438 72 216 72 C 214.230469 72 212.800781 73.429688 212.800781 75.199219 C 212.800781 75.226562 212.8125 75.246094 212.8125 75.269531 C 177.167969 76.007812 168.453125 88.925781 158.398438 104 C 152 113.601562 136 142.398438 136 142.398438 C 136 142.398438 126.398438 145.601562 126.398438 153.601562 C 126.398438 156.34375 127.347656 158.699219 128.585938 160.628906 C 119.59375 166.859375 113.601562 177.847656 113.601562 190.398438 C 113.601562 202.007812 118.734375 212.273438 126.613281 218.6875 L 126.804688 218.925781 C 126.554688 220.046875 126.398438 221.203125 126.398438 222.398438 C 126.398438 231.234375 133.566406 238.398438 142.398438 238.398438 L 145.601562 238.398438 C 146.742188 238.398438 147.792969 238.398438 148.800781 238.398438 C 161.917969 238.398438 164.796875 238.398438 185.601562 238.398438 C 211.226562 238.398438 232 259.175781 232 284.800781 C 232 310.425781 211.226562 331.199219 185.601562 331.199219 C 176.410156 331.199219 169.410156 328.074219 164.453125 324.585938 L 164.574219 325.238281 L 168 340.800781 C 237.933594 340.800781 263.671875 328.378906 271.070312 323.523438 C 271.679688 324.328125 272.613281 324.800781 273.601562 324.800781 C 274.039062 324.800781 274.476562 324.714844 274.898438 324.523438 C 276.515625 323.804688 277.238281 321.917969 276.523438 320.300781 C 276.402344 320.027344 264.714844 293.390625 264.035156 263.433594 C 273.316406 261.257812 280 253.019531 280 243.199219 C 280 236.125 276.34375 229.546875 270.488281 225.753906 C 273.289062 217.722656 276.738281 210.105469 280.082031 202.714844 C 287.910156 185.429688 296 167.554688 296 144 Z M 296 144 "/>
<path style=" stroke:none;fill-rule:nonzero;fill:rgb(80.392158%,79.607844%,74.117649%);fill-opacity:1;" d="M 185.601562 238.398438 C 163.199219 238.398438 161.601562 238.398438 145.601562 238.398438 C 126.398438 238.398438 117.308594 257.167969 116.800781 273.601562 C 111.34375 274.351562 107.199219 279.136719 107.199219 284.800781 C 107.199219 290.984375 112.214844 296 118.398438 296 C 118.800781 296 134.398438 296 136 296 C 136 296 138.539062 313.972656 155.199219 315.199219 C 155.199219 315.199219 164.800781 331.199219 185.601562 331.199219 C 211.226562 331.199219 232 310.425781 232 284.800781 C 232 259.175781 211.226562 238.398438 185.601562 238.398438 Z M 185.601562 238.398438 "/>
<path style=" stroke:none;fill-rule:nonzero;fill:rgb(100%,100%,100%);fill-opacity:1;" d="M 233.601562 195.199219 C 233.601562 214.640625 217.839844 230.398438 198.398438 230.398438 C 178.960938 230.398438 163.199219 214.640625 163.199219 195.199219 C 163.199219 175.757812 178.960938 160 198.398438 160 C 217.839844 160 233.601562 175.757812 233.601562 195.199219 Z M 233.601562 195.199219 "/>
<path style=" stroke:none;fill-rule:nonzero;fill:rgb(100%,100%,100%);fill-opacity:1;" d="M 140.800781 208 L 171.460938 208 C 174.320312 202.875 176 196.863281 176 190.398438 C 176 171.84375 162.390625 156.800781 145.601562 156.800781 C 128.808594 156.800781 115.199219 171.84375 115.199219 190.398438 C 115.199219 201.894531 120.429688 212.03125 128.394531 218.089844 C 129.664062 212.203125 134.726562 208 140.800781 208 Z M 140.800781 208 "/>
<path style=" stroke:none;fill-rule:nonzero;fill:rgb(12.156863%,12.941177%,16.862746%);fill-opacity:1;" d="M 139.199219 190.398438 C 139.199219 193.933594 136.335938 196.800781 132.800781 196.800781 C 129.265625 196.800781 126.398438 193.933594 126.398438 190.398438 C 126.398438 186.867188 129.265625 184 132.800781 184 C 136.335938 184 139.199219 186.867188 139.199219 190.398438 Z M 139.199219 190.398438 "/>
<path style=" stroke:none;fill-rule:nonzero;fill:rgb(12.156863%,12.941177%,16.862746%);fill-opacity:1;" d="M 206.398438 196.800781 C 206.398438 200.335938 203.535156 203.199219 200 203.199219 C 196.464844 203.199219 193.601562 200.335938 193.601562 196.800781 C 193.601562 193.265625 196.464844 190.398438 200 190.398438 C 203.535156 190.398438 206.398438 193.265625 206.398438 196.800781 Z M 206.398438 196.800781 "/>
<path style=" stroke:none;fill-rule:nonzero;fill:rgb(12.156863%,12.941177%,16.862746%);fill-opacity:1;" d="M 198.398438 232 C 178.109375 232 161.601562 215.492188 161.601562 195.199219 C 161.601562 174.910156 178.109375 158.398438 198.398438 158.398438 C 218.691406 158.398438 235.199219 174.910156 235.199219 195.199219 C 235.199219 215.492188 218.691406 232 198.398438 232 Z M 198.398438 161.601562 C 179.871094 161.601562 164.800781 176.671875 164.800781 195.199219 C 164.800781 213.726562 179.871094 228.800781 198.398438 228.800781 C 216.929688 228.800781 232 213.726562 232 195.199219 C 232 176.671875 216.929688 161.601562 198.398438 161.601562 Z M 198.398438 161.601562 "/>
<path style=" stroke:none;fill-rule:nonzero;fill:rgb(12.156863%,12.941177%,16.862746%);fill-opacity:1;" d="M 170.488281 174.363281 C 165.34375 164.515625 155.804688 158.398438 145.601562 158.398438 C 140.242188 158.398438 134.992188 160.078125 130.414062 163.257812 L 128.589844 160.628906 C 133.707031 157.074219 139.585938 155.199219 145.601562 155.199219 C 157 155.199219 167.625 161.972656 173.328125 172.878906 Z M 170.488281 174.363281 "/>
<path style=" stroke:none;fill-rule:nonzero;fill:rgb(12.156863%,12.941177%,16.862746%);fill-opacity:1;" d="M 259.199219 260.800781 C 249.496094 260.800781 241.601562 252.902344 241.601562 243.199219 C 241.601562 233.496094 249.496094 225.601562 259.199219 225.601562 C 268.902344 225.601562 276.800781 233.496094 276.800781 243.199219 C 276.800781 252.902344 268.902344 260.800781 259.199219 260.800781 Z M 259.199219 228.800781 C 251.261719 228.800781 244.800781 235.261719 244.800781 243.199219 C 244.800781 251.140625 251.261719 257.601562 259.199219 257.601562 C 267.140625 257.601562 273.601562 251.140625 273.601562 243.199219 C 273.601562 235.261719 267.140625 228.800781 259.199219 228.800781 Z M 259.199219 228.800781 "/>
<path style=" stroke:none;fill-rule:nonzero;fill:rgb(12.156863%,12.941177%,16.862746%);fill-opacity:1;" d="M 136 296 L 136 292.800781 C 175.09375 292.800781 190.769531 286.691406 190.925781 286.628906 L 192.121094 289.597656 C 191.476562 289.855469 175.851562 296 136 296 Z M 136 296 "/>
<path style=" stroke:none;fill-rule:nonzero;fill:rgb(12.156863%,12.941177%,16.862746%);fill-opacity:1;" d="M 193.601562 299.199219 C 192.714844 299.199219 192 298.484375 192 297.601562 C 192 286.714844 184.957031 283.066406 184.882812 283.03125 C 184.09375 282.632812 183.773438 281.671875 184.167969 280.882812 C 184.566406 280.09375 185.523438 279.777344 186.3125 280.167969 C 186.675781 280.347656 195.195312 284.757812 195.195312 297.597656 C 195.199219 298.484375 194.484375 299.199219 193.601562 299.199219 Z M 193.601562 299.199219 "/>
<path style=" stroke:none;fill-rule:nonzero;fill:rgb(12.156863%,12.941177%,16.862746%);fill-opacity:1;" d="M 185.601562 334.398438 C 166.722656 334.398438 156.398438 322.394531 153.386719 318.222656 C 141.054688 316.542969 135.28125 306.308594 133.398438 299.199219 L 118.398438 299.199219 C 110.460938 299.199219 104 292.738281 104 284.800781 C 104 278.503906 108.035156 273.003906 113.734375 271.054688 C 115.160156 252.851562 126.234375 235.199219 145.601562 235.199219 L 185.601562 235.199219 C 212.949219 235.199219 235.199219 257.449219 235.199219 284.800781 C 235.199219 312.152344 212.949219 334.398438 185.601562 334.398438 Z M 145.601562 241.601562 C 128.691406 241.601562 120.472656 258.238281 120 273.699219 C 119.949219 275.257812 118.78125 276.558594 117.234375 276.769531 C 113.335938 277.304688 110.398438 280.757812 110.398438 284.800781 C 110.398438 289.210938 113.988281 292.800781 118.398438 292.800781 L 136 292.800781 C 137.59375 292.800781 138.945312 293.972656 139.167969 295.550781 C 139.257812 296.167969 141.605469 310.988281 155.433594 312.007812 C 156.46875 312.082031 157.40625 312.664062 157.941406 313.550781 C 158.296875 314.132812 166.960938 328 185.601562 328 C 209.421875 328 228.800781 308.621094 228.800781 284.800781 C 228.800781 260.980469 209.421875 241.601562 185.601562 241.601562 Z M 145.601562 241.601562 "/>
<path style=" stroke:none;fill-rule:nonzero;fill:rgb(12.156863%,12.941177%,16.862746%);fill-opacity:1;" d="M 252.796875 248 C 252.03125 248 251.355469 247.445312 251.222656 246.664062 C 251.183594 246.4375 250.328125 241.070312 253.15625 237.734375 C 254.582031 236.054688 256.609375 235.199219 259.199219 235.199219 C 264.921875 235.199219 266.945312 239.121094 267.03125 239.285156 C 267.425781 240.074219 267.105469 241.035156 266.3125 241.429688 C 265.519531 241.832031 264.5625 241.503906 264.167969 240.714844 C 264.128906 240.640625 262.875 238.398438 259.199219 238.398438 C 257.574219 238.398438 256.398438 238.859375 255.597656 239.800781 C 253.746094 241.984375 254.371094 246.097656 254.378906 246.132812 C 254.523438 247.003906 253.933594 247.832031 253.0625 247.972656 C 252.976562 247.992188 252.882812 248 252.796875 248 Z M 252.796875 248 "/>
<path style=" stroke:none;fill-rule:nonzero;fill:rgb(12.156863%,12.941177%,16.862746%);fill-opacity:1;" d="M 262.398438 251.199219 C 261.515625 251.199219 260.800781 250.484375 260.800781 249.601562 C 260.800781 240.960938 258.078125 237.9375 258.050781 237.914062 C 257.453125 237.277344 257.46875 236.265625 258.097656 235.660156 C 258.730469 235.054688 259.714844 235.054688 260.332031 235.671875 C 260.707031 236.042969 264 239.625 264 249.601562 C 264 250.484375 263.285156 251.199219 262.398438 251.199219 Z M 262.398438 251.199219 "/>
<path style=" stroke:none;fill-rule:nonzero;fill:rgb(12.156863%,12.941177%,16.862746%);fill-opacity:1;" d="M 256 104 C 255.800781 104 255.601562 103.960938 255.40625 103.886719 C 254.585938 103.558594 254.1875 102.628906 254.511719 101.808594 C 254.542969 101.726562 257.601562 93.929688 257.601562 83.199219 C 257.601562 68.171875 248.488281 59.199219 233.226562 59.199219 C 214.382812 59.199219 208.996094 75.257812 208.773438 75.9375 C 208.503906 76.78125 207.601562 77.25 206.761719 76.972656 C 205.921875 76.703125 205.460938 75.808594 205.726562 74.964844 C 205.785156 74.777344 212 56 233.226562 56 C 250.234375 56 260.800781 66.421875 260.800781 83.199219 C 260.800781 94.578125 257.621094 102.65625 257.484375 102.996094 C 257.234375 103.621094 256.632812 104 256 104 Z M 256 104 "/>
<path style=" stroke:none;fill-rule:nonzero;fill:rgb(12.156863%,12.941177%,16.862746%);fill-opacity:1;" d="M 275.199219 120 C 274.792969 120 274.382812 119.84375 274.070312 119.53125 C 273.445312 118.910156 273.441406 117.898438 274.0625 117.269531 C 274.160156 117.175781 283.199219 107.929688 283.199219 94.398438 C 283.199219 78.367188 273.632812 68.800781 257.601562 68.800781 C 242.894531 68.800781 238.425781 77.617188 238.238281 77.992188 C 237.855469 78.78125 236.910156 79.121094 236.105469 78.734375 C 235.316406 78.351562 234.976562 77.40625 235.355469 76.609375 C 235.566406 76.160156 240.78125 65.601562 257.601562 65.601562 C 278.835938 65.601562 286.398438 80.476562 286.398438 94.398438 C 286.398438 109.289062 276.742188 119.121094 276.332031 119.53125 C 276.019531 119.84375 275.609375 120 275.199219 120 Z M 275.199219 120 "/>
<path style=" stroke:none;fill-rule:nonzero;fill:rgb(12.156863%,12.941177%,16.862746%);fill-opacity:1;" d="M 168 344 C 166.230469 344 164.800781 342.570312 164.800781 340.800781 C 164.800781 332.273438 161.820312 326.875 161.796875 326.824219 C 160.929688 325.289062 161.464844 323.335938 163 322.46875 C 164.535156 321.597656 166.472656 322.121094 167.351562 323.648438 C 167.507812 323.921875 171.199219 330.46875 171.199219 340.800781 C 171.199219 342.570312 169.769531 344 168 344 Z M 168 344 "/>
<path style=" stroke:none;fill-rule:nonzero;fill:rgb(12.156863%,12.941177%,16.862746%);fill-opacity:1;" d="M 142.398438 238.398438 C 133.578125 238.398438 126.398438 231.222656 126.398438 222.398438 C 126.398438 213.578125 133.578125 206.398438 142.398438 206.398438 L 164.800781 206.398438 C 165.683594 206.398438 166.398438 207.117188 166.398438 208 C 166.398438 208.882812 165.683594 209.601562 164.800781 209.601562 L 142.398438 209.601562 C 135.339844 209.601562 129.601562 215.339844 129.601562 222.398438 C 129.601562 229.460938 135.339844 235.199219 142.398438 235.199219 C 143.285156 235.199219 144 235.917969 144 236.800781 C 144 237.683594 143.285156 238.398438 142.398438 238.398438 Z M 142.398438 238.398438 "/>
<path style=" stroke:none;fill-rule:nonzero;fill:rgb(12.156863%,12.941177%,16.862746%);fill-opacity:1;" d="M 273.601562 324.800781 C 272.375 324.800781 271.207031 324.09375 270.675781 322.898438 C 270.140625 321.695312 257.601562 293.105469 257.601562 260.800781 C 257.601562 259.140625 258.863281 257.679688 260.511719 257.53125 C 267.972656 256.859375 273.601562 250.699219 273.601562 243.199219 C 273.601562 237.632812 270.328125 232.507812 265.257812 230.152344 C 263.65625 229.40625 262.960938 227.503906 263.707031 225.902344 C 264.453125 224.300781 266.34375 223.601562 267.957031 224.351562 C 275.269531 227.753906 280 235.152344 280 243.199219 C 280 253.019531 273.316406 261.257812 264.03125 263.429688 C 264.71875 293.386719 276.402344 320.027344 276.523438 320.296875 C 277.242188 321.914062 276.515625 323.804688 274.898438 324.523438 C 274.476562 324.714844 274.039062 324.800781 273.601562 324.800781 Z M 273.601562 324.800781 "/>
<path style=" stroke:none;fill-rule:nonzero;fill:rgb(12.156863%,12.941177%,16.862746%);fill-opacity:1;" d="M 145.601562 241.601562 L 142.398438 241.601562 C 131.8125 241.601562 123.199219 232.988281 123.199219 222.398438 C 123.199219 221.644531 123.25 220.878906 123.351562 220.097656 C 115.035156 212.628906 110.398438 201.964844 110.398438 190.398438 C 110.398438 178.21875 115.617188 166.960938 124.480469 159.710938 C 123.625 157.734375 123.199219 155.6875 123.199219 153.601562 C 123.199219 145.285156 130.726562 141.171875 133.761719 139.847656 C 136.679688 134.605469 149.9375 110.921875 155.738281 102.222656 C 166.097656 86.679688 175.886719 72 216 72 C 268.523438 72 296 108.222656 296 144 C 296 162.367188 291.121094 176.757812 286.34375 188.414062 C 285.667969 190.050781 283.796875 190.835938 282.167969 190.164062 C 280.527344 189.492188 279.746094 187.621094 280.414062 185.988281 C 284.960938 174.910156 289.601562 161.261719 289.601562 144 C 289.601562 111.402344 264.320312 78.398438 216 78.398438 C 179.3125 78.398438 171.261719 90.480469 161.0625 105.777344 C 154.804688 115.160156 138.957031 143.671875 138.796875 143.957031 C 138.410156 144.65625 137.773438 145.183594 137.011719 145.4375 C 136.949219 145.457031 129.601562 148.039062 129.601562 153.601562 C 129.601562 155.386719 130.164062 157.164062 131.273438 158.894531 C 132.207031 160.34375 131.824219 162.273438 130.40625 163.253906 C 121.886719 169.160156 116.800781 179.308594 116.800781 190.398438 C 116.800781 200.53125 121.222656 210.179688 128.628906 216.203125 C 129.574219 216.96875 130.210938 218.378906 129.941406 219.566406 C 129.710938 220.585938 129.601562 221.511719 129.601562 222.398438 C 129.601562 229.460938 135.339844 235.199219 142.398438 235.199219 L 145.601562 235.199219 C 147.371094 235.199219 148.800781 236.628906 148.800781 238.398438 C 148.800781 240.167969 147.371094 241.601562 145.601562 241.601562 Z M 145.601562 241.601562 "/>
<path style=" stroke:none;fill-rule:nonzero;fill:rgb(12.156863%,12.941177%,16.862746%);fill-opacity:1;" d="M 269.1875 211.550781 C 267.148438 216.34375 265.222656 221.191406 263.566406 226.253906 C 263.015625 227.933594 263.929688 229.742188 265.609375 230.292969 C 265.941406 230.398438 266.273438 230.453125 266.609375 230.453125 C 267.957031 230.453125 269.210938 229.59375 269.648438 228.25 C 272.328125 220.074219 275.726562 212.363281 279.273438 204.523438 C 279.535156 203.9375 279.554688 203.335938 279.464844 202.75 L 279.425781 202.554688 L 269.332031 211.207031 Z M 269.1875 211.550781 "/>
<path style=" stroke:none;fill-rule:nonzero;fill:rgb(12.156863%,12.941177%,16.862746%);fill-opacity:1;" d="M 284.804688 225.601562 C 284.742188 225.601562 284.683594 225.597656 284.621094 225.589844 C 283.742188 225.496094 283.109375 224.703125 283.210938 223.820312 L 285.960938 199.054688 L 266.640625 215.617188 C 266.167969 216.023438 265.496094 216.113281 264.929688 215.851562 C 264.363281 215.59375 264 215.023438 264 214.398438 L 264 187.683594 L 247.730469 212.085938 C 247.238281 212.820312 246.238281 213.015625 245.511719 212.53125 C 244.78125 212.042969 244.578125 211.046875 245.070312 210.3125 L 264.269531 181.511719 C 264.660156 180.925781 265.386719 180.65625 266.0625 180.871094 C 266.734375 181.070312 267.199219 181.691406 267.199219 182.398438 L 267.199219 210.921875 L 286.960938 193.984375 C 287.460938 193.554688 288.167969 193.484375 288.75 193.78125 C 289.332031 194.09375 289.664062 194.722656 289.59375 195.375 L 286.394531 224.175781 C 286.300781 224.996094 285.605469 225.601562 284.804688 225.601562 Z M 284.804688 225.601562 "/>
</g>
</svg>
