<?xml version="1.0" encoding="UTF-8"?>
<svg xmlns="http://www.w3.org/2000/svg" xmlns:xlink="http://www.w3.org/1999/xlink" viewBox="0 0 400 400" width="400px" height="400px">
<g id="surface29780552">
<path style=" stroke:none;fill-rule:nonzero;fill:rgb(0%,0%,0%);fill-opacity:1;" d="M 0 400 L 0 0 L 400 0 L 400 400 Z M 392 392 L 392 8 L 8 8 L 8 392 Z M 392 392 "/>
<path style=" stroke:none;fill-rule:nonzero;fill:rgb(99.607843%,99.215686%,93.725491%);fill-opacity:1;" d="M 286.394531 158.398438 L 286.394531 145.601562 C 286.394531 112.023438 259.171875 84.800781 225.597656 84.800781 L 174.394531 84.800781 C 140.820312 84.800781 113.597656 112.023438 113.597656 145.601562 L 113.597656 164.800781 C 110.058594 164.800781 107.195312 167.664062 107.195312 171.199219 L 107.195312 200 C 107.195312 203.535156 110.058594 206.398438 113.597656 206.398438 C 107.195312 211.199219 94.394531 224 94.394531 240 C 94.394531 255.1875 104.382812 266.34375 108.570312 270.351562 C 107.695312 273.421875 107.195312 276.648438 107.195312 280 C 107.195312 299.441406 126.394531 315.199219 150.394531 315.199219 C 177.597656 315.199219 181.472656 299.199219 199.996094 299.199219 L 199.964844 299.199219 C 218.484375 299.199219 222.363281 315.199219 249.5625 315.199219 C 273.5625 315.199219 292.765625 299.441406 292.765625 280 C 292.765625 276.648438 292.265625 273.421875 291.390625 270.351562 C 295.578125 266.34375 305.5625 255.1875 305.5625 240 C 305.5625 224 292.765625 211.199219 286.363281 206.398438 C 289.898438 206.398438 292.765625 203.535156 292.765625 200 L 292.765625 171.199219 C 292.765625 167.664062 289.898438 164.800781 286.363281 164.800781 Z M 286.394531 158.398438 "/>
<path style=" stroke:none;fill-rule:nonzero;fill:rgb(12.156863%,12.941177%,16.862746%);fill-opacity:1;" d="M 249.597656 209.601562 C 238.253906 209.601562 229.394531 202.957031 220.011719 195.921875 C 218.277344 194.625 216.507812 193.296875 214.679688 191.976562 C 206.035156 185.726562 193.953125 185.730469 185.3125 191.976562 C 183.484375 193.300781 181.714844 194.625 179.980469 195.921875 C 170.597656 202.957031 161.738281 209.601562 150.394531 209.601562 C 134.894531 209.601562 116.796875 198.285156 116.796875 166.398438 L 116.796875 164.800781 L 283.195312 164.800781 L 283.195312 166.398438 C 283.195312 198.285156 265.097656 209.601562 249.597656 209.601562 Z M 199.992188 184 C 205.953125 184 211.683594 185.863281 216.554688 189.382812 C 218.398438 190.714844 220.183594 192.050781 221.933594 193.363281 C 231.261719 200.359375 239.320312 206.398438 249.597656 206.398438 C 263.367188 206.398438 279.398438 196.308594 279.980469 168 L 120.011719 168 C 120.59375 196.308594 136.625 206.398438 150.394531 206.398438 C 160.671875 206.398438 168.730469 200.359375 178.0625 193.359375 C 179.808594 192.046875 181.597656 190.710938 183.4375 189.378906 C 188.308594 185.863281 194.035156 184 199.992188 184 Z M 199.992188 184 "/>
<path style=" stroke:none;fill-rule:nonzero;fill:rgb(12.156863%,12.941177%,16.862746%);fill-opacity:1;" d="M 132.925781 250.230469 L 114.140625 206.398438 L 108.796875 206.398438 L 108.796875 203.199219 L 114.140625 203.199219 C 115.421875 203.199219 116.574219 203.960938 117.082031 205.140625 L 135.867188 248.96875 Z M 132.925781 250.230469 "/>
<path style=" stroke:none;fill-rule:nonzero;fill:rgb(12.156863%,12.941177%,16.862746%);fill-opacity:1;" d="M 267.035156 250.230469 L 264.09375 248.96875 L 282.875 205.140625 C 283.386719 203.960938 284.539062 203.199219 285.820312 203.199219 L 291.164062 203.199219 L 291.164062 206.398438 L 285.820312 206.398438 Z M 267.035156 250.230469 "/>
<path style=" stroke:none;fill-rule:nonzero;fill:rgb(12.156863%,12.941177%,16.862746%);fill-opacity:1;" d="M 249.5625 318.398438 C 233.761719 318.398438 225.363281 313.292969 217.953125 308.789062 C 212.316406 305.363281 207.449219 302.40625 199.980469 302.398438 C 192.511719 302.402344 187.644531 305.363281 182.007812 308.789062 C 174.597656 313.292969 166.199219 318.398438 150.394531 318.398438 C 124.8125 318.398438 103.996094 301.175781 103.996094 280 C 103.996094 277.113281 104.335938 274.203125 105.011719 271.324219 C 100 266.144531 91.195312 254.914062 91.195312 240 C 91.195312 224.921875 101.421875 213.09375 107.492188 207.40625 C 105.359375 205.640625 103.996094 202.976562 103.996094 200 L 103.996094 171.199219 C 103.996094 165.90625 108.304688 161.601562 113.597656 161.601562 L 113.597656 168 C 111.828125 168 110.394531 169.4375 110.394531 171.199219 L 110.394531 200 C 110.394531 201.761719 111.828125 203.199219 113.597656 203.199219 C 114.976562 203.199219 116.199219 204.078125 116.628906 205.390625 C 117.066406 206.699219 116.617188 208.132812 115.511719 208.960938 C 113.679688 210.335938 97.59375 222.894531 97.59375 240 C 97.59375 253.902344 106.816406 264.238281 110.78125 268.042969 C 111.632812 268.859375 111.96875 270.089844 111.644531 271.230469 C 110.820312 274.136719 110.394531 277.089844 110.394531 280 C 110.394531 297.644531 128.339844 312 150.394531 312 C 164.402344 312 171.664062 307.585938 178.683594 303.320312 C 184.59375 299.726562 190.707031 296.011719 199.953125 296 C 199.957031 295.996094 199.96875 296 199.980469 296 C 199.988281 296 199.996094 295.996094 200.007812 296 C 209.257812 296.011719 215.367188 299.726562 221.277344 303.320312 C 228.300781 307.585938 235.558594 312 249.5625 312 C 271.621094 312 289.5625 297.644531 289.5625 280 C 289.5625 277.089844 289.140625 274.136719 288.3125 271.230469 C 287.988281 270.089844 288.324219 268.863281 289.175781 268.042969 C 293.140625 264.238281 302.363281 253.902344 302.363281 240 C 302.363281 222.894531 286.28125 210.335938 284.445312 208.960938 C 283.339844 208.132812 282.890625 206.695312 283.328125 205.390625 C 283.765625 204.078125 284.988281 203.199219 286.363281 203.199219 C 288.128906 203.199219 289.597656 201.761719 289.597656 200 L 289.597656 171.199219 C 289.597656 169.4375 288.128906 168 286.363281 168 L 286.363281 161.601562 C 291.65625 161.601562 295.996094 165.90625 295.996094 171.199219 L 295.996094 200 C 295.996094 202.976562 294.601562 205.640625 292.464844 207.40625 C 298.535156 213.09375 308.765625 224.921875 308.765625 240 C 308.765625 254.914062 299.960938 266.144531 294.949219 271.324219 C 295.625 274.203125 295.964844 277.117188 295.964844 280 C 295.964844 301.175781 275.148438 318.398438 249.5625 318.398438 Z M 249.5625 318.398438 "/>
<path style=" stroke:none;fill-rule:nonzero;fill:rgb(12.156863%,12.941177%,16.862746%);fill-opacity:1;" d="M 247.996094 280 C 242.472656 280 237.695312 281.449219 235.058594 282.445312 C 233.691406 269.0625 222.347656 251.21875 199.996094 251.199219 C 199.988281 251.199219 199.988281 251.199219 199.980469 251.199219 C 199.972656 251.199219 199.96875 251.199219 199.964844 251.199219 C 177.632812 251.214844 166.300781 269.058594 164.933594 282.441406 C 162.304688 281.445312 157.53125 280 151.996094 280 C 135.578125 280 123.195312 287.566406 123.195312 297.601562 C 123.195312 307.46875 136.550781 315.199219 153.597656 315.199219 L 153.597656 312 C 138.855469 312 126.394531 305.40625 126.394531 297.601562 C 126.394531 289.527344 137.640625 283.199219 151.996094 283.199219 C 159.496094 283.199219 165.621094 286.203125 165.683594 286.230469 C 166.167969 286.472656 166.757812 286.453125 167.226562 286.164062 C 167.691406 285.875 167.984375 285.371094 167.992188 284.824219 C 168.171875 272.558594 178.464844 254.410156 199.976562 254.398438 C 221.511719 254.410156 231.8125 272.558594 231.992188 284.824219 C 232.003906 285.371094 232.289062 285.878906 232.761719 286.164062 C 233.226562 286.453125 233.808594 286.472656 234.304688 286.230469 C 234.371094 286.203125 240.488281 283.199219 247.996094 283.199219 C 262.332031 283.199219 273.5625 289.527344 273.5625 297.601562 C 273.5625 305.40625 261.105469 312 246.363281 312 L 246.363281 315.199219 C 263.410156 315.199219 276.765625 307.46875 276.765625 297.601562 C 276.765625 287.566406 264.394531 280 247.996094 280 Z M 247.996094 280 "/>
<path style=" stroke:none;fill-rule:nonzero;fill:rgb(12.156863%,12.941177%,16.862746%);fill-opacity:1;" d="M 257.507812 113.601562 C 257.109375 113.601562 256.710938 113.453125 256.402344 113.160156 C 251.621094 108.609375 245.777344 105.109375 239.496094 103.050781 C 238.660156 102.773438 238.199219 101.867188 238.480469 101.03125 C 238.75 100.1875 239.65625 99.730469 240.5 100.007812 C 247.226562 102.21875 253.492188 105.964844 258.609375 110.84375 C 259.25 111.453125 259.277344 112.46875 258.667969 113.105469 C 258.347656 113.433594 257.929688 113.601562 257.507812 113.601562 Z M 257.507812 113.601562 "/>
<path style=" stroke:none;fill-rule:nonzero;fill:rgb(12.156863%,12.941177%,16.862746%);fill-opacity:1;" d="M 265.199219 123.199219 C 264.660156 123.199219 264.128906 122.925781 263.828125 122.429688 C 263.191406 121.371094 262.519531 120.335938 261.796875 119.339844 C 261.277344 118.625 261.4375 117.625 262.148438 117.105469 C 262.863281 116.589844 263.863281 116.738281 264.382812 117.460938 C 265.160156 118.527344 265.878906 119.636719 266.566406 120.769531 C 267.023438 121.527344 266.78125 122.511719 266.023438 122.96875 C 265.769531 123.125 265.484375 123.199219 265.199219 123.199219 Z M 265.199219 123.199219 "/>
<path style=" stroke:none;fill-rule:nonzero;fill:rgb(12.156863%,12.941177%,16.862746%);fill-opacity:1;" d="M 134.792969 123.199219 C 134.507812 123.199219 134.21875 123.125 133.964844 122.96875 C 133.207031 122.507812 132.964844 121.527344 133.421875 120.769531 C 142.222656 106.261719 157.539062 97.601562 174.394531 97.601562 L 211.195312 97.601562 C 212.078125 97.601562 212.796875 98.316406 212.796875 99.199219 C 212.796875 100.082031 212.078125 100.800781 211.195312 100.800781 L 174.394531 100.800781 C 158.667969 100.800781 144.375 108.886719 136.164062 122.429688 C 135.859375 122.929688 135.332031 123.199219 134.792969 123.199219 Z M 134.792969 123.199219 "/>
<path style=" stroke:none;fill-rule:nonzero;fill:rgb(12.156863%,12.941177%,16.862746%);fill-opacity:1;" d="M 289.597656 158.398438 L 283.195312 158.398438 L 283.195312 145.601562 C 283.195312 113.839844 257.355469 88 225.597656 88 L 174.394531 88 C 142.636719 88 116.796875 113.839844 116.796875 145.601562 L 116.796875 158.398438 L 110.394531 158.398438 L 110.394531 145.601562 C 110.394531 110.308594 139.105469 81.601562 174.394531 81.601562 L 225.597656 81.601562 C 260.886719 81.601562 289.597656 110.308594 289.597656 145.601562 Z M 289.597656 158.398438 "/>
<path style=" stroke:none;fill-rule:nonzero;fill:rgb(26.666668%,26.666668%,27.058825%);fill-opacity:1;" d="M 188.796875 166.398438 C 185.597656 178.535156 159.996094 192 147.195312 192 C 131.195312 192 127.996094 180.167969 127.996094 166.398438 Z M 188.796875 166.398438 "/>
<path style=" stroke:none;fill-rule:nonzero;fill:rgb(26.666668%,26.666668%,27.058825%);fill-opacity:1;" d="M 211.195312 166.398438 C 214.394531 178.535156 239.996094 192 252.796875 192 C 268.796875 192 271.996094 180.167969 271.996094 166.398438 Z M 211.195312 166.398438 "/>
<path style=" stroke:none;fill-rule:nonzero;fill:rgb(12.156863%,12.941177%,16.862746%);fill-opacity:1;" d="M 147.195312 193.601562 C 128.554688 193.601562 126.394531 178.078125 126.394531 166.398438 L 129.597656 166.398438 C 129.597656 183.222656 134.859375 190.398438 147.195312 190.398438 C 159.96875 190.398438 184.410156 176.765625 187.25 165.992188 L 190.34375 166.808594 C 186.839844 180.097656 160.128906 193.601562 147.195312 193.601562 Z M 147.195312 193.601562 "/>
<path style=" stroke:none;fill-rule:nonzero;fill:rgb(12.156863%,12.941177%,16.862746%);fill-opacity:1;" d="M 252.796875 193.601562 C 239.863281 193.601562 213.152344 180.097656 209.652344 166.804688 L 212.746094 165.992188 C 215.582031 176.765625 240.023438 190.398438 252.796875 190.398438 C 265.132812 190.398438 270.394531 183.222656 270.394531 166.398438 L 273.597656 166.398438 C 273.597656 178.078125 271.4375 193.601562 252.796875 193.601562 Z M 252.796875 193.601562 "/>
<path style=" stroke:none;fill-rule:nonzero;fill:rgb(69.411767%,74.117649%,81.568629%);fill-opacity:1;" d="M 111.996094 156.800781 L 287.996094 156.800781 L 287.996094 166.398438 L 111.996094 166.398438 Z M 111.996094 156.800781 "/>
<path style=" stroke:none;fill-rule:nonzero;fill:rgb(12.156863%,12.941177%,16.862746%);fill-opacity:1;" d="M 289.597656 168 L 110.394531 168 L 110.394531 155.199219 L 289.597656 155.199219 Z M 113.597656 164.800781 L 286.394531 164.800781 L 286.394531 158.398438 L 113.597656 158.398438 Z M 113.597656 164.800781 "/>
<path style=" stroke:none;fill-rule:nonzero;fill:rgb(26.666668%,26.666668%,27.058825%);fill-opacity:1;" d="M 204.796875 267.199219 C 204.796875 264.550781 202.644531 262.398438 199.996094 262.398438 C 197.347656 262.398438 195.195312 264.550781 195.195312 267.199219 C 195.195312 269.34375 195.195312 300.253906 195.195312 302.398438 C 195.195312 305.050781 197.347656 307.199219 199.996094 307.199219 C 202.644531 307.199219 204.796875 305.050781 204.796875 302.398438 C 204.796875 300.253906 204.796875 269.34375 204.796875 267.199219 Z M 204.796875 267.199219 "/>
<path style=" stroke:none;fill-rule:nonzero;fill:rgb(26.666668%,26.666668%,27.058825%);fill-opacity:1;" d="M 195.195312 273.601562 C 195.195312 270.949219 193.046875 268.800781 190.394531 268.800781 C 187.746094 268.800781 185.597656 270.949219 185.597656 273.601562 C 185.597656 275.605469 185.597656 300.390625 185.597656 302.398438 C 185.597656 305.050781 187.746094 307.199219 190.394531 307.199219 C 193.046875 307.199219 195.195312 305.050781 195.195312 302.398438 C 195.195312 300.390625 195.195312 275.605469 195.195312 273.601562 Z M 195.195312 273.601562 "/>
<path style=" stroke:none;fill-rule:nonzero;fill:rgb(26.666668%,26.666668%,27.058825%);fill-opacity:1;" d="M 214.394531 273.605469 C 214.394531 270.949219 212.246094 268.800781 209.597656 268.800781 C 206.945312 268.800781 204.796875 270.953125 204.796875 273.605469 C 204.796875 275.921875 204.796875 300.078125 204.796875 302.394531 C 204.796875 305.050781 206.945312 307.199219 209.597656 307.199219 C 212.246094 307.199219 214.394531 305.046875 214.394531 302.394531 C 214.394531 300.078125 214.394531 275.921875 214.394531 273.605469 Z M 214.394531 273.605469 "/>
<path style=" stroke:none;fill-rule:nonzero;fill:rgb(26.666668%,26.666668%,27.058825%);fill-opacity:1;" d="M 223.996094 286.398438 C 223.996094 283.75 221.84375 281.601562 219.195312 281.601562 C 216.546875 281.601562 214.394531 283.75 214.394531 286.398438 C 214.394531 288.714844 214.394531 295.285156 214.394531 297.601562 C 214.394531 300.25 216.546875 302.398438 219.195312 302.398438 C 221.84375 302.398438 223.996094 300.25 223.996094 297.601562 C 223.996094 295.285156 223.996094 288.714844 223.996094 286.398438 Z M 223.996094 286.398438 "/>
<path style=" stroke:none;fill-rule:nonzero;fill:rgb(26.666668%,26.666668%,27.058825%);fill-opacity:1;" d="M 185.597656 286.398438 C 185.597656 283.75 183.445312 281.601562 180.796875 281.601562 C 178.144531 281.601562 175.996094 283.75 175.996094 286.398438 C 175.996094 288.714844 175.996094 295.285156 175.996094 297.601562 C 175.996094 300.25 178.144531 302.398438 180.796875 302.398438 C 183.445312 302.398438 185.597656 300.25 185.597656 297.601562 C 185.597656 295.285156 185.597656 288.714844 185.597656 286.398438 Z M 185.597656 286.398438 "/>
<path style=" stroke:none;fill-rule:nonzero;fill:rgb(12.156863%,12.941177%,16.862746%);fill-opacity:1;" d="M 199.996094 308.800781 C 196.464844 308.800781 193.597656 305.929688 193.597656 302.398438 L 193.597656 267.199219 C 193.597656 263.671875 196.464844 260.800781 199.996094 260.800781 C 203.527344 260.800781 206.394531 263.671875 206.394531 267.199219 L 206.394531 302.398438 C 206.394531 305.929688 203.527344 308.800781 199.996094 308.800781 Z M 199.996094 264 C 198.230469 264 196.796875 265.4375 196.796875 267.199219 L 196.796875 302.398438 C 196.796875 304.164062 198.230469 305.601562 199.996094 305.601562 C 201.761719 305.601562 203.195312 304.164062 203.195312 302.398438 L 203.195312 267.199219 C 203.195312 265.4375 201.761719 264 199.996094 264 Z M 199.996094 264 "/>
<path style=" stroke:none;fill-rule:nonzero;fill:rgb(12.156863%,12.941177%,16.862746%);fill-opacity:1;" d="M 190.394531 308.800781 C 186.867188 308.800781 183.996094 305.929688 183.996094 302.398438 L 183.996094 273.601562 C 183.996094 270.070312 186.867188 267.199219 190.394531 267.199219 C 193.925781 267.199219 196.796875 270.070312 196.796875 273.601562 L 196.796875 302.398438 C 196.796875 305.929688 193.925781 308.800781 190.394531 308.800781 Z M 190.394531 270.398438 C 188.628906 270.398438 187.195312 271.835938 187.195312 273.601562 L 187.195312 302.398438 C 187.195312 304.164062 188.628906 305.601562 190.394531 305.601562 C 192.164062 305.601562 193.597656 304.164062 193.597656 302.398438 L 193.597656 273.601562 C 193.597656 271.835938 192.164062 270.398438 190.394531 270.398438 Z M 190.394531 270.398438 "/>
<path style=" stroke:none;fill-rule:nonzero;fill:rgb(12.156863%,12.941177%,16.862746%);fill-opacity:1;" d="M 209.597656 308.800781 C 206.066406 308.800781 203.195312 305.925781 203.195312 302.394531 L 203.195312 273.609375 C 203.195312 270.074219 206.066406 267.199219 209.597656 267.199219 C 213.125 267.199219 215.996094 270.074219 215.996094 273.605469 L 215.996094 302.390625 C 215.996094 305.925781 213.125 308.800781 209.597656 308.800781 Z M 209.597656 270.398438 C 207.828125 270.398438 206.394531 271.839844 206.394531 273.605469 L 206.394531 302.390625 C 206.394531 304.160156 207.828125 305.601562 209.597656 305.601562 C 211.363281 305.601562 212.796875 304.160156 212.796875 302.394531 L 212.796875 273.609375 C 212.796875 271.839844 211.363281 270.398438 209.597656 270.398438 Z M 209.597656 270.398438 "/>
<path style=" stroke:none;fill-rule:nonzero;fill:rgb(12.156863%,12.941177%,16.862746%);fill-opacity:1;" d="M 219.195312 304 C 215.667969 304 212.796875 301.128906 212.796875 297.601562 L 212.796875 286.398438 C 212.796875 282.871094 215.667969 280 219.195312 280 C 222.726562 280 225.597656 282.871094 225.597656 286.398438 L 225.597656 297.601562 C 225.597656 301.128906 222.726562 304 219.195312 304 Z M 219.195312 283.199219 C 217.429688 283.199219 215.996094 284.636719 215.996094 286.398438 L 215.996094 297.601562 C 215.996094 299.363281 217.429688 300.800781 219.195312 300.800781 C 220.960938 300.800781 222.394531 299.363281 222.394531 297.601562 L 222.394531 286.398438 C 222.394531 284.636719 220.960938 283.199219 219.195312 283.199219 Z M 219.195312 283.199219 "/>
<path style=" stroke:none;fill-rule:nonzero;fill:rgb(12.156863%,12.941177%,16.862746%);fill-opacity:1;" d="M 180.796875 304 C 177.265625 304 174.394531 301.128906 174.394531 297.601562 L 174.394531 286.398438 C 174.394531 282.871094 177.265625 280 180.796875 280 C 184.324219 280 187.195312 282.871094 187.195312 286.398438 L 187.195312 297.601562 C 187.195312 301.128906 184.324219 304 180.796875 304 Z M 180.796875 283.199219 C 179.03125 283.199219 177.597656 284.636719 177.597656 286.398438 L 177.597656 297.601562 C 177.597656 299.363281 179.03125 300.800781 180.796875 300.800781 C 182.5625 300.800781 183.996094 299.363281 183.996094 297.601562 L 183.996094 286.398438 C 183.996094 284.636719 182.5625 283.199219 180.796875 283.199219 Z M 180.796875 283.199219 "/>
<path style=" stroke:none;fill-rule:nonzero;fill:rgb(69.411767%,74.117649%,81.568629%);fill-opacity:1;" d="M 159.996094 291.199219 C 159.996094 296.5 155.699219 300.800781 150.394531 300.800781 C 145.09375 300.800781 140.796875 296.5 140.796875 291.199219 C 140.796875 285.898438 145.09375 281.601562 150.394531 281.601562 C 155.699219 281.601562 159.996094 285.898438 159.996094 291.199219 Z M 159.996094 291.199219 "/>
<path style=" stroke:none;fill-rule:nonzero;fill:rgb(69.411767%,74.117649%,81.568629%);fill-opacity:1;" d="M 259.195312 291.199219 C 259.195312 296.5 254.898438 300.800781 249.597656 300.800781 C 244.292969 300.800781 239.996094 296.5 239.996094 291.199219 C 239.996094 285.898438 244.292969 281.601562 249.597656 281.601562 C 254.898438 281.601562 259.195312 285.898438 259.195312 291.199219 Z M 259.195312 291.199219 "/>
<path style=" stroke:none;fill-rule:nonzero;fill:rgb(12.156863%,12.941177%,16.862746%);fill-opacity:1;" d="M 150.394531 302.398438 C 144.21875 302.398438 139.195312 297.375 139.195312 291.199219 C 139.195312 285.023438 144.21875 280 150.394531 280 C 156.570312 280 161.597656 285.023438 161.597656 291.199219 C 161.597656 297.375 156.570312 302.398438 150.394531 302.398438 Z M 150.394531 283.199219 C 145.984375 283.199219 142.394531 286.789062 142.394531 291.199219 C 142.394531 295.609375 145.984375 299.199219 150.394531 299.199219 C 154.808594 299.199219 158.394531 295.609375 158.394531 291.199219 C 158.394531 286.789062 154.808594 283.199219 150.394531 283.199219 Z M 150.394531 283.199219 "/>
<path style=" stroke:none;fill-rule:nonzero;fill:rgb(12.156863%,12.941177%,16.862746%);fill-opacity:1;" d="M 249.597656 302.398438 C 243.421875 302.398438 238.394531 297.375 238.394531 291.199219 C 238.394531 285.023438 243.421875 280 249.597656 280 C 255.773438 280 260.796875 285.023438 260.796875 291.199219 C 260.796875 297.375 255.773438 302.398438 249.597656 302.398438 Z M 249.597656 283.199219 C 245.183594 283.199219 241.597656 286.789062 241.597656 291.199219 C 241.597656 295.609375 245.183594 299.199219 249.597656 299.199219 C 254.007812 299.199219 257.597656 295.609375 257.597656 291.199219 C 257.597656 286.789062 254.007812 283.199219 249.597656 283.199219 Z M 249.597656 283.199219 "/>
<path style=" stroke:none;fill-rule:nonzero;fill:rgb(69.411767%,74.117649%,81.568629%);fill-opacity:1;" d="M 199.933594 224.011719 L 200.027344 224.011719 C 200.011719 224.011719 199.996094 224.015625 199.984375 224.015625 C 219.1875 224.039062 231.996094 236.8125 265.566406 249.601562 L 265.597656 249.601562 C 236.800781 230.402344 217.597656 204.804688 200 204.804688 C 182.398438 204.804688 163.199219 230.402344 134.398438 249.601562 C 167.96875 236.8125 180.78125 224.039062 199.984375 224.015625 C 199.964844 224.011719 199.953125 224.011719 199.933594 224.011719 Z M 199.933594 224.011719 "/>
<path style=" stroke:none;fill-rule:nonzero;fill:rgb(26.666668%,26.666668%,27.058825%);fill-opacity:1;" d="M 204.796875 205.40625 L 204.796875 224.289062 C 203.226562 224.097656 201.628906 224 199.996094 224 C 198.363281 224 196.765625 224.097656 195.195312 224.289062 L 195.195312 205.40625 C 196.796875 205.023438 198.394531 204.800781 199.996094 204.800781 C 201.597656 204.800781 203.195312 205.023438 204.796875 205.40625 Z M 204.796875 205.40625 "/>
<path style=" stroke:none;fill-rule:nonzero;fill:rgb(26.666668%,26.666668%,27.058825%);fill-opacity:1;" d="M 223.996094 216.289062 L 223.996094 230.367188 C 220.667969 228.832031 217.53125 227.519531 214.394531 226.496094 L 214.394531 209.566406 C 217.46875 211.390625 220.667969 213.664062 223.996094 216.289062 Z M 223.996094 216.289062 "/>
<path style=" stroke:none;fill-rule:nonzero;fill:rgb(26.666668%,26.666668%,27.058825%);fill-opacity:1;" d="M 243.195312 232.414062 L 243.195312 239.871094 C 239.738281 238.207031 236.570312 236.609375 233.597656 235.105469 L 233.597656 224.222656 C 236.667969 226.847656 239.867188 229.601562 243.195312 232.414062 Z M 243.195312 232.414062 "/>
<path style=" stroke:none;fill-rule:nonzero;fill:rgb(26.666668%,26.666668%,27.058825%);fill-opacity:1;" d="M 185.597656 209.566406 L 185.597656 226.464844 C 182.492188 227.488281 179.324219 228.800781 175.996094 230.367188 L 175.996094 216.289062 C 179.324219 213.664062 182.523438 211.390625 185.597656 209.566406 Z M 185.597656 209.566406 "/>
<path style=" stroke:none;fill-rule:nonzero;fill:rgb(26.666668%,26.666668%,27.058825%);fill-opacity:1;" d="M 166.394531 224.222656 L 166.394531 235.105469 C 163.421875 236.609375 160.253906 238.207031 156.796875 239.871094 L 156.796875 232.414062 C 160.125 229.601562 163.324219 226.847656 166.394531 224.222656 Z M 166.394531 224.222656 "/>
<path style=" stroke:none;fill-rule:nonzero;fill:rgb(12.156863%,12.941177%,16.862746%);fill-opacity:1;" d="M 206.394531 226.097656 L 204.601562 225.875 C 201.613281 225.511719 198.375 225.511719 195.386719 225.875 L 193.597656 226.097656 L 193.597656 204.148438 L 194.820312 203.851562 C 198.480469 202.980469 201.515625 202.980469 205.171875 203.851562 L 206.394531 204.148438 Z M 199.996094 222.398438 C 201.070312 222.398438 202.144531 222.441406 203.195312 222.523438 L 203.195312 206.703125 C 200.964844 206.296875 199.027344 206.296875 196.796875 206.703125 L 196.796875 222.523438 C 197.847656 222.441406 198.921875 222.398438 199.996094 222.398438 Z M 199.996094 222.398438 "/>
<path style=" stroke:none;fill-rule:nonzero;fill:rgb(12.156863%,12.941177%,16.862746%);fill-opacity:1;" d="M 225.597656 232.871094 L 223.324219 231.820312 C 219.664062 230.132812 216.671875 228.921875 213.898438 228.015625 L 212.796875 227.65625 L 212.796875 206.757812 L 215.210938 208.191406 C 218.210938 209.972656 221.40625 212.203125 224.988281 215.03125 L 225.597656 215.511719 Z M 215.996094 225.347656 C 217.964844 226.027344 220.054688 226.859375 222.394531 227.890625 L 222.394531 217.070312 C 220.109375 215.289062 217.996094 213.761719 215.996094 212.453125 Z M 215.996094 225.347656 "/>
<path style=" stroke:none;fill-rule:nonzero;fill:rgb(12.156863%,12.941177%,16.862746%);fill-opacity:1;" d="M 244.796875 242.417969 L 242.5 241.316406 C 239.035156 239.648438 235.859375 238.042969 232.871094 236.53125 L 231.996094 236.085938 L 231.996094 220.753906 L 237.15625 225.160156 C 239.445312 227.121094 241.800781 229.140625 244.230469 231.195312 L 244.796875 231.671875 Z M 235.195312 234.117188 C 237.226562 235.144531 239.351562 236.214844 241.597656 237.316406 L 241.597656 233.160156 C 239.402344 231.300781 237.273438 229.476562 235.195312 227.699219 Z M 235.195312 234.117188 "/>
<path style=" stroke:none;fill-rule:nonzero;fill:rgb(12.156863%,12.941177%,16.862746%);fill-opacity:1;" d="M 174.394531 232.894531 L 174.394531 215.511719 L 175.003906 215.03125 C 178.585938 212.203125 181.78125 209.96875 184.78125 208.191406 L 187.195312 206.757812 L 187.195312 227.621094 L 186.09375 227.984375 C 183.210938 228.9375 180.128906 230.1875 176.675781 231.816406 Z M 177.597656 217.066406 L 177.597656 227.871094 C 179.855469 226.867188 181.96875 226.023438 183.996094 225.316406 L 183.996094 212.453125 C 181.996094 213.761719 179.878906 215.285156 177.597656 217.066406 Z M 177.597656 217.066406 "/>
<path style=" stroke:none;fill-rule:nonzero;fill:rgb(12.156863%,12.941177%,16.862746%);fill-opacity:1;" d="M 155.195312 242.417969 L 155.195312 231.671875 L 155.761719 231.195312 C 158.191406 229.140625 160.546875 227.125 162.835938 225.160156 L 167.996094 220.753906 L 167.996094 236.085938 L 167.121094 236.53125 C 164.132812 238.042969 160.957031 239.644531 157.492188 241.316406 Z M 158.394531 233.160156 L 158.394531 237.316406 C 160.640625 236.214844 162.765625 235.144531 164.796875 234.117188 L 164.796875 227.699219 C 162.71875 229.476562 160.589844 231.300781 158.394531 233.160156 Z M 158.394531 233.160156 "/>
<path style=" stroke:none;fill-rule:nonzero;fill:rgb(12.156863%,12.941177%,16.862746%);fill-opacity:1;" d="M 265.597656 251.199219 C 265.289062 251.199219 264.980469 251.113281 264.710938 250.929688 C 253.78125 243.648438 244.160156 235.390625 235.671875 228.105469 C 221.535156 215.980469 210.375 206.398438 199.996094 206.398438 C 189.617188 206.398438 178.457031 215.980469 164.324219 228.105469 C 155.835938 235.390625 146.214844 243.644531 135.285156 250.929688 C 134.554688 251.414062 133.5625 251.222656 133.066406 250.488281 C 132.578125 249.75 132.777344 248.757812 133.511719 248.269531 C 144.277344 241.089844 153.824219 232.902344 162.242188 225.675781 C 176.871094 213.121094 188.433594 203.199219 199.996094 203.199219 C 211.558594 203.199219 223.121094 213.121094 237.757812 225.675781 C 246.175781 232.902344 255.71875 241.089844 266.484375 248.269531 C 267.21875 248.757812 267.421875 249.75 266.929688 250.488281 C 266.617188 250.949219 266.109375 251.199219 265.597656 251.199219 Z M 265.597656 251.199219 "/>
<path style=" stroke:none;fill-rule:nonzero;fill:rgb(12.156863%,12.941177%,16.862746%);fill-opacity:1;" d="M 292.765625 280 L 289.5625 280 C 289.5625 260.453125 273.085938 254.175781 265.160156 251.160156 C 251.636719 246.007812 241.347656 240.820312 233.074219 236.644531 C 220.382812 230.246094 211.207031 225.621094 199.980469 225.609375 C 188.75 225.621094 179.578125 230.246094 166.886719 236.644531 C 158.613281 240.816406 148.320312 246.007812 134.960938 251.09375 C 126.875 254.175781 110.394531 260.453125 110.394531 280 L 107.195312 280 C 107.195312 258.246094 125.738281 251.183594 133.660156 248.167969 C 147.03125 243.078125 156.8125 238.144531 165.449219 233.792969 C 178.507812 227.207031 187.957031 222.445312 199.914062 222.414062 C 199.929688 222.410156 199.945312 222.414062 199.964844 222.414062 C 199.96875 222.414062 199.976562 222.414062 199.976562 222.414062 C 200.003906 222.414062 200.015625 222.414062 200.035156 222.414062 C 200.039062 222.414062 200.050781 222.414062 200.058594 222.414062 C 212.011719 222.445312 221.460938 227.207031 234.523438 233.792969 C 243.15625 238.144531 252.941406 243.078125 266.144531 248.105469 C 274.21875 251.183594 292.765625 258.246094 292.765625 280 Z M 292.765625 280 "/>
</g>
</svg>
