<?xml version="1.0" encoding="UTF-8"?>
<svg xmlns="http://www.w3.org/2000/svg" xmlns:xlink="http://www.w3.org/1999/xlink" viewBox="0 0 400 400" width="400px" height="400px">
<g id="surface29784930">
<path style=" stroke:none;fill-rule:nonzero;fill:rgb(0%,0%,0%);fill-opacity:1;" d="M 0 400 L 0 0 L 400 0 L 400 400 Z M 392 392 L 392 8 L 8 8 L 8 392 Z M 392 392 "/>
<path style=" stroke:none;fill-rule:nonzero;fill:rgb(37.64706%,74.509805%,57.254905%);fill-opacity:1;" d="M 137.851562 184.171875 C 136.390625 189.871094 135.613281 195.863281 135.613281 202.035156 C 135.613281 203.082031 135.722656 204.097656 135.765625 205.128906 C 85.207031 205.132812 90.378906 266.734375 90.378906 266.734375 L 103.632812 256.027344 C 97.628906 276.664062 108.335938 286.738281 108.335938 286.738281 L 117.65625 271.335938 C 121.820312 293.046875 131.839844 302.136719 131.839844 302.136719 L 136.53125 286.769531 C 164.953125 314.765625 202.347656 324.800781 202.347656 324.800781 C 202.347656 324.800781 239.742188 314.765625 268.167969 286.769531 L 272.859375 302.136719 C 272.859375 302.136719 282.878906 293.046875 287.042969 271.335938 L 296.363281 286.738281 C 296.363281 286.738281 307.070312 276.65625 301.066406 256.027344 L 314.378906 266.203125 C 314.378906 266.203125 321.664062 205.132812 268.9375 205.132812 C 268.972656 204.101562 269.082031 203.078125 269.082031 202.039062 C 269.082031 195.863281 268.300781 189.871094 266.84375 184.175781 "/>
<path style=" stroke:none;fill-rule:nonzero;fill:rgb(12.156863%,12.941177%,16.862746%);fill-opacity:1;" d="M 202.347656 328 C 202.070312 328 201.789062 327.960938 201.519531 327.890625 C 200.023438 327.492188 166.132812 318.179688 138.085938 292.644531 L 134.902344 303.070312 C 134.582031 304.117188 133.75 304.929688 132.691406 305.222656 C 131.640625 305.515625 130.507812 305.246094 129.691406 304.503906 C 129.304688 304.15625 121.242188 296.679688 116.355469 279.667969 L 111.074219 288.394531 C 110.574219 289.222656 109.726562 289.777344 108.769531 289.910156 C 107.789062 290.03125 106.847656 289.730469 106.144531 289.070312 C 105.71875 288.667969 97.175781 280.394531 98.800781 264.046875 L 92.390625 269.222656 C 91.46875 269.96875 90.210938 270.136719 89.125 269.679688 C 88.035156 269.210938 87.292969 268.183594 87.191406 267.003906 C 87.082031 265.679688 84.664062 234.359375 101.980469 215.527344 C 109.609375 207.230469 119.832031 202.699219 132.414062 202.023438 C 132.414062 195.714844 133.203125 189.441406 134.75 183.382812 L 140.953125 184.96875 C 139.535156 190.515625 138.816406 196.257812 138.816406 202.039062 C 138.816406 202.609375 138.851562 203.171875 138.886719 203.734375 C 138.917969 204.160156 138.945312 204.582031 138.957031 205.007812 C 138.996094 205.875 138.671875 206.722656 138.070312 207.351562 C 137.46875 207.976562 136.636719 208.332031 135.761719 208.332031 C 123.5 208.332031 113.71875 212.207031 106.691406 219.855469 C 95.628906 231.886719 93.667969 250.464844 93.453125 260.132812 L 101.617188 253.535156 C 102.707031 252.652344 104.238281 252.582031 105.402344 253.359375 C 106.570312 254.132812 107.09375 255.574219 106.703125 256.914062 C 103.210938 268.914062 105.78125 276.839844 108.074219 280.980469 L 114.921875 269.679688 C 115.609375 268.546875 116.910156 267.953125 118.222656 268.1875 C 119.523438 268.417969 120.550781 269.433594 120.800781 270.734375 C 123.152344 282.996094 127.472656 291.035156 130.527344 295.476562 L 133.472656 285.832031 C 133.800781 284.757812 134.660156 283.9375 135.746094 283.660156 C 136.839844 283.386719 137.984375 283.695312 138.78125 284.488281 C 163.96875 309.300781 196.738281 319.800781 202.347656 321.464844 C 207.953125 319.796875 240.769531 309.265625 265.917969 284.484375 C 266.714844 283.699219 267.859375 283.386719 268.953125 283.660156 C 270.039062 283.9375 270.898438 284.761719 271.222656 285.832031 L 274.171875 295.476562 C 277.222656 291.035156 281.546875 283 283.898438 270.734375 C 284.144531 269.433594 285.171875 268.417969 286.476562 268.1875 C 287.796875 267.957031 289.089844 268.546875 289.777344 269.679688 L 296.621094 280.984375 C 298.914062 276.847656 301.488281 268.917969 297.996094 256.917969 C 297.609375 255.589844 298.117188 254.167969 299.257812 253.386719 C 300.402344 252.609375 301.914062 252.640625 303.011719 253.484375 L 311.503906 259.972656 C 311.609375 250.703125 310.304688 232.46875 299.597656 220.433594 C 292.457031 212.402344 282.144531 208.335938 268.9375 208.335938 C 268.070312 208.335938 267.238281 207.984375 266.632812 207.355469 C 266.027344 206.730469 265.707031 205.886719 265.738281 205.019531 C 265.753906 204.585938 265.78125 204.152344 265.808594 203.722656 C 265.84375 203.164062 265.878906 202.605469 265.878906 202.042969 C 265.878906 196.25 265.15625 190.507812 263.738281 184.972656 L 269.941406 183.386719 C 271.488281 189.433594 272.273438 195.703125 272.277344 202.019531 C 285.824219 202.683594 296.621094 207.445312 304.394531 216.207031 C 321.101562 235.023438 317.707031 265.308594 317.554688 266.585938 C 317.417969 267.726562 316.679688 268.707031 315.621094 269.15625 C 314.570312 269.605469 313.351562 269.449219 312.433594 268.75 L 305.863281 263.730469 C 307.632812 280.289062 298.984375 288.671875 298.554688 289.074219 C 297.851562 289.738281 296.886719 290.042969 295.933594 289.917969 C 294.972656 289.785156 294.128906 289.230469 293.625 288.398438 L 288.34375 279.671875 C 283.457031 296.683594 275.394531 304.160156 275.007812 304.511719 C 274.191406 305.25 273.0625 305.515625 272.003906 305.230469 C 270.949219 304.9375 270.113281 304.125 269.796875 303.078125 L 266.613281 292.648438 C 238.558594 318.183594 204.671875 327.496094 203.175781 327.898438 C 202.90625 327.960938 202.625 328 202.347656 328 Z M 202.347656 328 "/>
<path style=" stroke:none;fill-rule:nonzero;fill:rgb(98.039216%,90.980393%,90.196079%);fill-opacity:1;" d="M 250.378906 218.113281 C 250.378906 226.953125 243.214844 234.113281 234.378906 234.113281 C 225.542969 234.113281 218.378906 226.953125 218.378906 218.113281 C 218.378906 209.277344 225.542969 202.113281 234.378906 202.113281 C 243.214844 202.113281 250.378906 209.277344 250.378906 218.113281 Z M 250.378906 218.113281 "/>
<path style=" stroke:none;fill-rule:nonzero;fill:rgb(12.156863%,12.941177%,16.862746%);fill-opacity:1;" d="M 234.367188 235.71875 C 231.292969 235.71875 228.253906 234.902344 225.578125 233.355469 C 220.148438 230.222656 216.777344 224.378906 216.777344 218.101562 C 216.777344 216.867188 216.90625 215.636719 217.167969 214.4375 C 217.351562 213.574219 218.191406 213.023438 219.066406 213.210938 C 219.933594 213.398438 220.480469 214.25 220.292969 215.113281 C 220.085938 216.089844 219.976562 217.09375 219.976562 218.101562 C 219.976562 223.238281 222.734375 228.023438 227.179688 230.585938 C 230.289062 232.378906 234.03125 232.945312 237.503906 232.171875 C 238.378906 231.984375 239.222656 232.527344 239.414062 233.390625 C 239.605469 234.253906 239.0625 235.105469 238.199219 235.300781 C 236.941406 235.578125 235.652344 235.71875 234.367188 235.71875 Z M 246.0625 230.652344 C 245.671875 230.652344 245.28125 230.507812 244.972656 230.222656 C 244.324219 229.621094 244.289062 228.609375 244.890625 227.960938 C 245.636719 227.160156 246.296875 226.273438 246.851562 225.316406 C 248.113281 223.125 248.78125 220.640625 248.78125 218.128906 C 248.78125 216.933594 248.628906 215.742188 248.339844 214.59375 C 248.121094 213.734375 248.640625 212.863281 249.492188 212.648438 C 250.359375 212.417969 251.21875 212.949219 251.4375 213.804688 C 251.789062 215.210938 251.976562 216.664062 251.980469 218.128906 C 251.980469 221.207031 251.164062 224.242188 249.617188 226.917969 C 248.945312 228.082031 248.144531 229.171875 247.234375 230.148438 C 246.921875 230.480469 246.492188 230.652344 246.0625 230.652344 Z M 221.261719 210.546875 C 220.945312 210.546875 220.628906 210.453125 220.351562 210.257812 C 219.625 209.757812 219.445312 208.757812 219.949219 208.035156 C 220.621094 207.066406 221.390625 206.167969 222.238281 205.363281 C 222.875 204.761719 223.890625 204.773438 224.5 205.421875 C 225.109375 206.0625 225.085938 207.074219 224.445312 207.683594 C 223.753906 208.339844 223.125 209.074219 222.574219 209.863281 C 222.269531 210.308594 221.773438 210.546875 221.261719 210.546875 Z M 244.976562 207.722656 C 244.605469 207.722656 244.226562 207.589844 243.921875 207.320312 C 243.203125 206.691406 242.414062 206.125 241.582031 205.648438 C 238.710938 203.988281 235.304688 203.390625 232.074219 203.902344 C 231.214844 204.0625 230.378906 203.453125 230.238281 202.578125 C 230.09375 201.707031 230.691406 200.886719 231.558594 200.746094 C 235.597656 200.085938 239.691406 200.859375 243.183594 202.875 C 244.199219 203.460938 245.160156 204.152344 246.039062 204.925781 C 246.703125 205.511719 246.765625 206.519531 246.179688 207.179688 C 245.859375 207.535156 245.417969 207.722656 244.976562 207.722656 Z M 244.976562 207.722656 "/>
<path style=" stroke:none;fill-rule:nonzero;fill:rgb(98.039216%,90.980393%,90.196079%);fill-opacity:1;" d="M 186.378906 218.113281 C 186.378906 226.953125 179.214844 234.113281 170.378906 234.113281 C 161.542969 234.113281 154.378906 226.953125 154.378906 218.113281 C 154.378906 209.277344 161.542969 202.113281 170.378906 202.113281 C 179.214844 202.113281 186.378906 209.277344 186.378906 218.113281 Z M 186.378906 218.113281 "/>
<path style=" stroke:none;fill-rule:nonzero;fill:rgb(12.156863%,12.941177%,16.862746%);fill-opacity:1;" d="M 170.390625 235.714844 C 170.386719 235.714844 170.382812 235.714844 170.378906 235.714844 C 162.726562 235.714844 156 230.828125 153.636719 223.554688 C 153.367188 222.714844 153.824219 221.8125 154.664062 221.539062 C 155.503906 221.265625 156.410156 221.726562 156.679688 222.566406 C 158.613281 228.515625 164.117188 232.511719 170.378906 232.511719 C 170.382812 232.511719 170.386719 232.511719 170.390625 232.511719 C 174.003906 232.511719 177.457031 231.167969 180.117188 228.722656 C 180.765625 228.128906 181.78125 228.167969 182.375 228.820312 C 182.972656 229.46875 182.933594 230.484375 182.28125 231.078125 C 179.03125 234.070312 174.808594 235.714844 170.394531 235.714844 Z M 185.96875 223.339844 C 185.847656 223.339844 185.730469 223.328125 185.609375 223.300781 C 184.746094 223.097656 184.210938 222.242188 184.410156 221.378906 C 184.65625 220.308594 184.78125 219.210938 184.78125 218.113281 C 184.78125 214.339844 183.332031 210.777344 180.710938 208.074219 C 180.09375 207.441406 180.109375 206.425781 180.742188 205.8125 C 181.375 205.195312 182.390625 205.210938 183.003906 205.84375 C 186.214844 209.144531 187.984375 213.503906 187.984375 218.113281 C 187.984375 219.449219 187.828125 220.789062 187.527344 222.097656 C 187.355469 222.839844 186.699219 223.339844 185.96875 223.339844 Z M 154.445312 218.34375 C 154.394531 218.34375 154.355469 218.34375 154.304688 218.339844 C 153.425781 218.269531 152.773438 217.492188 152.847656 216.609375 C 152.941406 215.441406 153.164062 214.277344 153.492188 213.15625 C 153.738281 212.300781 154.640625 211.828125 155.476562 212.070312 C 156.328125 212.320312 156.8125 213.207031 156.5625 214.054688 C 156.292969 214.976562 156.113281 215.925781 156.035156 216.878906 C 155.964844 217.714844 155.261719 218.34375 154.445312 218.34375 Z M 160.25 207.328125 C 159.785156 207.328125 159.328125 207.125 159.011719 206.738281 C 158.449219 206.058594 158.550781 205.050781 159.234375 204.488281 C 162.363281 201.925781 166.316406 200.515625 170.367188 200.515625 C 170.371094 200.515625 170.375 200.515625 170.378906 200.515625 C 171.546875 200.515625 172.722656 200.628906 173.875 200.859375 C 174.742188 201.035156 175.304688 201.875 175.132812 202.742188 C 174.957031 203.613281 174.082031 204.167969 173.25 204 C 172.304688 203.8125 171.339844 203.714844 170.378906 203.714844 C 170.375 203.714844 170.375 203.714844 170.367188 203.714844 C 167.054688 203.714844 163.824219 204.867188 161.257812 206.964844 C 160.964844 207.210938 160.605469 207.328125 160.25 207.328125 Z M 160.25 207.328125 "/>
<path style=" stroke:none;fill-rule:nonzero;fill:rgb(12.156863%,12.941177%,16.862746%);fill-opacity:1;" d="M 234.378906 218.113281 C 234.378906 221.0625 231.992188 223.449219 229.046875 223.449219 C 226.097656 223.449219 223.710938 221.0625 223.710938 218.113281 C 223.710938 215.167969 226.097656 212.78125 229.046875 212.78125 C 231.992188 212.78125 234.378906 215.167969 234.378906 218.113281 Z M 234.378906 218.113281 "/>
<path style=" stroke:none;fill-rule:nonzero;fill:rgb(12.156863%,12.941177%,16.862746%);fill-opacity:1;" d="M 181.046875 218.113281 C 181.046875 221.0625 178.660156 223.449219 175.714844 223.449219 C 172.769531 223.449219 170.378906 221.0625 170.378906 218.113281 C 170.378906 215.167969 172.769531 212.78125 175.714844 212.78125 C 178.660156 212.78125 181.046875 215.167969 181.046875 218.113281 Z M 181.046875 218.113281 "/>
<path style=" stroke:none;fill-rule:nonzero;fill:rgb(63.137257%,82.745099%,63.529414%);fill-opacity:1;" d="M 250.378906 202.113281 C 226.070312 202.113281 223.714844 228.78125 213.046875 228.78125 C 204.4375 228.78125 202.378906 218.113281 202.378906 218.113281 C 202.378906 218.113281 207.714844 223.449219 213.046875 218.113281 C 217.046875 214.113281 224.070312 199.417969 232.605469 197.53125 C 245.109375 194.761719 250.378906 202.113281 250.378906 202.113281 Z M 250.378906 202.113281 "/>
<path style=" stroke:none;fill-rule:nonzero;fill:rgb(12.156863%,12.941177%,16.862746%);fill-opacity:1;" d="M 213.046875 230.378906 C 209.34375 230.378906 206.152344 228.644531 203.820312 225.355469 C 203.3125 224.636719 203.480469 223.636719 204.199219 223.125 C 204.921875 222.625 205.914062 222.785156 206.429688 223.507812 C 208.160156 225.945312 210.382812 227.179688 213.042969 227.179688 C 214.578125 227.179688 215.984375 226.453125 217.609375 224.824219 C 218.234375 224.195312 219.246094 224.203125 219.871094 224.820312 C 220.5 225.441406 220.5 226.457031 219.878906 227.082031 C 217.640625 229.332031 215.472656 230.378906 213.046875 230.378906 Z M 207.914062 222.085938 C 206.566406 222.085938 205.207031 221.746094 203.867188 221.070312 C 203.078125 220.675781 202.761719 219.710938 203.15625 218.925781 C 203.554688 218.132812 204.515625 217.820312 205.304688 218.214844 C 207.667969 219.40625 209.894531 219.007812 211.914062 216.980469 C 212.984375 215.910156 214.386719 213.859375 216.007812 211.488281 C 218.777344 207.433594 222.226562 202.390625 226.1875 199.144531 C 226.878906 198.585938 227.878906 198.683594 228.441406 199.367188 C 229 200.050781 228.902344 201.058594 228.21875 201.621094 C 224.613281 204.574219 221.308594 209.410156 218.652344 213.292969 C 216.941406 215.796875 215.460938 217.957031 214.179688 219.242188 C 212.296875 221.132812 210.183594 222.085938 207.914062 222.085938 Z M 224.550781 219.910156 C 224.234375 219.910156 223.914062 219.816406 223.632812 219.621094 C 222.90625 219.117188 222.730469 218.117188 223.238281 217.394531 C 228.605469 209.691406 234.824219 202.148438 246.417969 200.75 C 244.621094 199.621094 241.867188 198.507812 238.003906 198.507812 C 236.515625 198.453125 234.851562 198.6875 233.164062 199.046875 C 232.3125 199.21875 231.453125 198.679688 231.261719 197.8125 C 231.078125 196.945312 231.632812 196.097656 232.496094 195.914062 C 234.40625 195.503906 236.195312 195.363281 238.007812 195.308594 C 247.363281 195.308594 251.507812 200.945312 251.679688 201.1875 C 252.027344 201.671875 252.074219 202.316406 251.800781 202.851562 C 251.527344 203.386719 250.976562 203.71875 250.378906 203.71875 C 237.722656 203.71875 231.328125 211.382812 225.863281 219.230469 C 225.550781 219.671875 225.050781 219.910156 224.550781 219.910156 Z M 224.550781 219.910156 "/>
<path style=" stroke:none;fill-rule:nonzero;fill:rgb(63.137257%,82.745099%,63.529414%);fill-opacity:1;" d="M 154.378906 202.113281 C 178.691406 202.113281 181.046875 228.78125 191.714844 228.78125 C 200.265625 228.78125 202.378906 218.113281 202.378906 218.113281 C 202.378906 218.113281 197.046875 223.449219 191.714844 218.113281 C 187.714844 214.113281 180.691406 199.332031 172.15625 197.441406 C 159.648438 194.675781 154.378906 202.113281 154.378906 202.113281 Z M 154.378906 202.113281 "/>
<path style=" stroke:none;fill-rule:nonzero;fill:rgb(12.156863%,12.941177%,16.862746%);fill-opacity:1;" d="M 191.714844 230.378906 C 189.289062 230.378906 187.117188 229.332031 184.878906 227.082031 C 184.257812 226.457031 184.257812 225.441406 184.886719 224.820312 C 185.511719 224.199219 186.527344 224.199219 187.148438 224.824219 C 188.769531 226.453125 190.175781 227.179688 191.714844 227.179688 C 194.355469 227.179688 196.582031 225.9375 198.320312 223.484375 C 198.832031 222.765625 199.839844 222.601562 200.550781 223.109375 C 201.273438 223.621094 201.4375 224.621094 200.925781 225.339844 C 198.585938 228.636719 195.402344 230.378906 191.714844 230.378906 Z M 196.847656 222.085938 C 194.570312 222.085938 192.464844 221.128906 190.582031 219.246094 C 189.296875 217.957031 187.808594 215.777344 186.089844 213.253906 C 183.449219 209.371094 180.160156 204.535156 176.570312 201.574219 C 175.886719 201.011719 175.789062 200.003906 176.355469 199.320312 C 176.921875 198.636719 177.933594 198.542969 178.605469 199.105469 C 182.542969 202.363281 185.980469 207.40625 188.738281 211.457031 C 190.363281 213.84375 191.769531 215.910156 192.84375 216.984375 C 194.871094 219.007812 197.109375 219.394531 199.441406 218.222656 C 200.222656 217.832031 201.195312 218.144531 201.59375 218.9375 C 201.984375 219.726562 201.667969 220.691406 200.878906 221.089844 C 199.550781 221.75 198.195312 222.085938 196.847656 222.085938 Z M 180.210938 219.910156 C 179.707031 219.910156 179.207031 219.671875 178.898438 219.226562 C 173.433594 211.378906 167.035156 203.714844 154.378906 203.714844 C 153.78125 203.714844 153.234375 203.382812 152.957031 202.847656 C 152.683594 202.3125 152.730469 201.675781 153.074219 201.1875 C 153.246094 200.945312 157.40625 195.222656 166.800781 195.222656 C 168.558594 195.222656 170.414062 195.425781 172.3125 195.832031 C 173.179688 196.023438 173.726562 196.871094 173.542969 197.734375 C 173.355469 198.601562 172.5 199.132812 171.644531 198.964844 C 169.96875 198.605469 168.335938 198.421875 166.800781 198.421875 C 162.878906 198.421875 160.097656 199.582031 158.300781 200.738281 C 169.921875 202.128906 176.148438 209.675781 181.523438 217.390625 C 182.03125 218.117188 181.855469 219.113281 181.128906 219.621094 C 180.847656 219.8125 180.527344 219.910156 180.210938 219.910156 Z M 180.210938 219.910156 "/>
<path style=" stroke:none;fill-rule:nonzero;fill:rgb(37.64706%,74.509805%,57.254905%);fill-opacity:1;" d="M 234.378906 242.113281 C 234.378906 228.859375 245.125 218.113281 258.378906 218.113281 L 255.132812 237.363281 Z M 234.378906 242.113281 "/>
<path style=" stroke:none;fill-rule:nonzero;fill:rgb(12.156863%,12.941177%,16.862746%);fill-opacity:1;" d="M 234.378906 243.714844 C 233.496094 243.714844 232.78125 243 232.78125 242.113281 C 232.78125 228 244.265625 216.515625 258.378906 216.515625 C 259.261719 216.515625 259.980469 217.230469 259.980469 218.113281 C 259.980469 219 259.261719 219.714844 258.378906 219.714844 C 246.03125 219.714844 235.980469 229.765625 235.980469 242.113281 C 235.980469 243 235.261719 243.714844 234.378906 243.714844 Z M 234.378906 243.714844 "/>
<path style=" stroke:none;fill-rule:nonzero;fill:rgb(37.64706%,74.509805%,57.254905%);fill-opacity:1;" d="M 146.378906 218.113281 C 159.632812 218.113281 170.378906 228.859375 170.378906 242.113281 L 150.777344 238.511719 Z M 146.378906 218.113281 "/>
<path style=" stroke:none;fill-rule:nonzero;fill:rgb(12.156863%,12.941177%,16.862746%);fill-opacity:1;" d="M 170.378906 243.714844 C 169.496094 243.714844 168.78125 243 168.78125 242.113281 C 168.78125 229.765625 158.730469 219.714844 146.378906 219.714844 C 145.496094 219.714844 144.78125 219 144.78125 218.113281 C 144.78125 217.230469 145.496094 216.515625 146.378906 216.515625 C 160.496094 216.515625 171.980469 228 171.980469 242.113281 C 171.980469 243 171.261719 243.714844 170.378906 243.714844 Z M 170.378906 243.714844 "/>
<path style=" stroke:none;fill-rule:nonzero;fill:rgb(63.137257%,82.745099%,63.529414%);fill-opacity:1;" d="M 222.78125 251.867188 C 222.769531 251.835938 222.765625 251.800781 222.753906 251.773438 C 222.5 251 222.140625 250.300781 221.691406 249.667969 C 218.632812 244.945312 211.164062 241.601562 202.386719 241.601562 C 193.609375 241.601562 186.144531 244.945312 183.082031 249.667969 C 182.632812 250.300781 182.269531 251 182.019531 251.773438 C 182.007812 251.804688 182.003906 251.839844 181.992188 251.867188 C 181.742188 252.664062 181.578125 253.496094 181.578125 254.382812 C 181.578125 258.617188 184.683594 262.054688 188.515625 262.054688 C 192.339844 262.054688 195.449219 259.53125 195.449219 259.53125 C 195.445312 263.761719 198.550781 267.199219 202.378906 267.199219 C 206.207031 267.199219 209.3125 263.761719 209.3125 259.53125 C 209.3125 259.53125 212.417969 262.054688 216.25 262.054688 C 220.078125 262.054688 223.183594 258.617188 223.183594 254.382812 C 223.1875 253.496094 223.03125 252.664062 222.78125 251.867188 Z M 222.78125 251.867188 "/>
<path style=" stroke:none;fill-rule:nonzero;fill:rgb(12.156863%,12.941177%,16.862746%);fill-opacity:1;" d="M 202.378906 268.800781 C 198.523438 268.800781 195.257812 266.007812 194.199219 262.1875 C 194.074219 262.253906 193.949219 262.3125 193.816406 262.378906 C 193.019531 262.746094 192.0625 262.417969 191.683594 261.621094 C 191.304688 260.824219 191.644531 259.867188 192.441406 259.488281 C 193.648438 258.914062 194.429688 258.292969 194.4375 258.289062 C 194.917969 257.902344 195.574219 257.820312 196.132812 258.089844 C 196.6875 258.355469 197.042969 258.914062 197.042969 259.53125 C 197.042969 262.875 199.4375 265.601562 202.375 265.601562 C 205.316406 265.601562 207.710938 262.875 207.710938 259.53125 C 207.710938 258.914062 208.066406 258.355469 208.621094 258.089844 C 209.179688 257.820312 209.832031 257.898438 210.316406 258.289062 C 210.339844 258.308594 212.519531 260.042969 215.277344 260.394531 C 216.15625 260.503906 216.777344 261.308594 216.664062 262.1875 C 216.550781 263.066406 215.730469 263.679688 214.871094 263.570312 C 213.1875 263.355469 211.691406 262.769531 210.550781 262.1875 C 209.507812 266.007812 206.234375 268.800781 202.378906 268.800781 Z M 184.140625 261.933594 C 183.757812 261.933594 183.375 261.796875 183.066406 261.523438 C 181.105469 259.757812 179.980469 257.152344 179.980469 254.382812 C 179.980469 253.40625 180.140625 252.429688 180.464844 251.386719 C 180.78125 250.386719 181.207031 249.535156 181.769531 248.742188 C 182.554688 247.527344 183.65625 246.34375 185.007812 245.277344 C 185.699219 244.730469 186.703125 244.847656 187.253906 245.542969 C 187.800781 246.238281 187.683594 247.242188 186.988281 247.789062 C 185.914062 248.636719 185.050781 249.558594 184.421875 250.53125 C 184.011719 251.117188 183.722656 251.679688 183.539062 252.261719 C 183.289062 253.070312 183.179688 253.738281 183.179688 254.382812 C 183.179688 256.25 183.917969 257.984375 185.210938 259.140625 C 185.867188 259.738281 185.921875 260.746094 185.332031 261.40625 C 185.011719 261.757812 184.578125 261.933594 184.140625 261.933594 Z M 220.921875 261.648438 C 220.515625 261.648438 220.109375 261.496094 219.796875 261.183594 C 219.171875 260.5625 219.164062 259.546875 219.785156 258.921875 C 220.925781 257.765625 221.582031 256.113281 221.578125 254.386719 C 221.578125 253.695312 221.476562 253.054688 221.25 252.355469 C 221.03125 251.671875 220.746094 251.105469 220.378906 250.585938 C 217.507812 246.144531 210.289062 243.195312 202.386719 243.195312 C 199.832031 243.195312 197.359375 243.492188 195.027344 244.066406 C 194.160156 244.269531 193.296875 243.75 193.089844 242.898438 C 192.878906 242.042969 193.402344 241.175781 194.257812 240.964844 C 196.835938 240.324219 199.574219 239.996094 202.386719 239.996094 C 211.472656 239.996094 219.574219 243.449219 223.03125 248.792969 C 223.542969 249.515625 223.96875 250.363281 224.269531 251.265625 C 224.625 252.402344 224.78125 253.355469 224.78125 254.382812 C 224.78125 256.945312 223.789062 259.421875 222.058594 261.171875 C 221.75 261.488281 221.335938 261.648438 220.921875 261.648438 Z M 220.921875 261.648438 "/>
<path style=" stroke:none;fill-rule:nonzero;fill:rgb(94.509804%,35.686275%,42.352942%);fill-opacity:1;" d="M 140.710938 148.664062 C 140.710938 148.664062 166.378906 75.199219 217.714844 75.199219 C 236.875 75.199219 227.554688 87.066406 258.78125 87.066406 C 304.980469 87.066406 308.691406 126.710938 308.691406 126.710938 L 298.425781 131.84375 C 298.425781 131.84375 269.046875 112.734375 253.648438 117.867188 C 258.78125 128.132812 263.914062 148.664062 263.914062 148.664062 "/>
<path style=" stroke:none;fill-rule:nonzero;fill:rgb(12.156863%,12.941177%,16.862746%);fill-opacity:1;" d="M 143.738281 149.722656 L 137.691406 147.609375 C 138.769531 144.523438 164.714844 72 217.714844 72 C 227.238281 72 230.832031 74.816406 234.304688 77.535156 C 238.269531 80.648438 242.375 83.867188 258.78125 83.867188 C 307.332031 83.867188 311.839844 125.988281 311.878906 126.414062 C 312.003906 127.726562 311.304688 128.984375 310.125 129.574219 L 299.855469 134.707031 C 298.835938 135.210938 297.632812 135.140625 296.679688 134.527344 C 289.613281 129.933594 270.328125 119.347656 258.234375 120.230469 C 262.800781 131.125 266.832031 147.128906 267.015625 147.890625 L 260.8125 149.441406 C 260.757812 149.238281 255.699219 129.128906 250.78125 119.296875 C 250.367188 118.464844 250.332031 117.496094 250.691406 116.640625 C 251.046875 115.785156 251.753906 115.121094 252.632812 114.832031 C 267.351562 109.917969 292.089844 124.179688 298.601562 128.179688 L 305.183594 124.890625 C 303.691406 116.996094 295.898438 90.269531 258.78125 90.269531 C 240.167969 90.269531 234.726562 86.007812 230.355469 82.578125 C 227.257812 80.152344 225.027344 78.398438 217.714844 78.398438 C 169.210938 78.398438 143.984375 149.003906 143.738281 149.722656 Z M 143.738281 149.722656 "/>
<path style=" stroke:none;fill-rule:nonzero;fill:rgb(98.039216%,90.980393%,90.196079%);fill-opacity:1;" d="M 262.65625 184 L 141.96875 184 C 136.414062 184 131.914062 179.5 131.914062 173.941406 L 131.914062 158.859375 C 131.914062 153.300781 136.410156 148.800781 141.96875 148.800781 L 262.65625 148.800781 C 268.210938 148.800781 272.710938 153.300781 272.710938 158.859375 L 272.710938 173.941406 C 272.710938 179.5 268.214844 184 262.65625 184 Z M 262.65625 184 "/>
<path style=" stroke:none;fill-rule:nonzero;fill:rgb(12.156863%,12.941177%,16.862746%);fill-opacity:1;" d="M 262.65625 187.199219 L 141.96875 187.199219 C 134.660156 187.199219 128.710938 181.253906 128.710938 173.941406 L 128.710938 158.855469 C 128.710938 151.546875 134.65625 145.597656 141.96875 145.597656 L 262.65625 145.597656 C 269.96875 145.597656 275.914062 151.542969 275.914062 158.855469 L 275.914062 173.941406 C 275.914062 181.253906 269.96875 187.199219 262.65625 187.199219 Z M 141.96875 152 C 138.1875 152 135.113281 155.074219 135.113281 158.859375 L 135.113281 173.945312 C 135.113281 177.726562 138.1875 180.804688 141.96875 180.804688 L 262.65625 180.804688 C 266.4375 180.804688 269.515625 177.726562 269.515625 173.945312 L 269.515625 158.859375 C 269.515625 155.074219 266.4375 152 262.65625 152 Z M 141.96875 152 "/>
<path style=" stroke:none;fill-rule:nonzero;fill:rgb(98.039216%,90.980393%,90.196079%);fill-opacity:1;" d="M 333.578125 148.800781 C 333.578125 161.171875 323.550781 171.199219 311.179688 171.199219 C 298.808594 171.199219 288.78125 161.171875 288.78125 148.800781 C 288.78125 136.429688 298.808594 126.398438 311.179688 126.398438 C 323.550781 126.398438 333.578125 136.429688 333.578125 148.800781 Z M 333.578125 148.800781 "/>
<path style=" stroke:none;fill-rule:nonzero;fill:rgb(12.156863%,12.941177%,16.862746%);fill-opacity:1;" d="M 311.179688 174.398438 C 297.066406 174.398438 285.578125 162.914062 285.578125 148.800781 C 285.578125 134.683594 297.066406 123.199219 311.179688 123.199219 C 325.296875 123.199219 336.78125 134.683594 336.78125 148.800781 C 336.78125 162.914062 325.296875 174.398438 311.179688 174.398438 Z M 311.179688 129.601562 C 300.589844 129.601562 291.980469 138.210938 291.980469 148.800781 C 291.980469 159.390625 300.589844 168 311.179688 168 C 321.769531 168 330.378906 159.390625 330.378906 148.800781 C 330.378906 138.210938 321.769531 129.601562 311.179688 129.601562 Z M 311.179688 129.601562 "/>
<path style=" stroke:none;fill-rule:nonzero;fill:rgb(12.156863%,12.941177%,16.862746%);fill-opacity:1;" d="M 240 118.40625 C 223.859375 118.40625 216.9375 111.714844 216.585938 111.359375 C 215.960938 110.734375 215.960938 109.722656 216.585938 109.097656 C 217.207031 108.480469 218.214844 108.472656 218.839844 109.089844 C 218.941406 109.191406 228.976562 118.671875 253.332031 113.796875 C 254.164062 113.613281 255.039062 114.179688 255.214844 115.054688 C 255.390625 115.921875 254.828125 116.761719 253.957031 116.933594 C 248.695312 117.984375 244.054688 118.40625 240 118.40625 Z M 240 118.40625 "/>
<path style=" stroke:none;fill-rule:nonzero;fill:rgb(12.156863%,12.941177%,16.862746%);fill-opacity:1;" d="M 115.082031 233.058594 C 115.078125 233.058594 115.074219 233.058594 115.070312 233.058594 C 114.191406 233.054688 113.480469 232.34375 113.480469 231.464844 C 113.480469 231.316406 113.734375 216.398438 135.613281 216.398438 C 136.5 216.398438 137.214844 217.117188 137.214844 218 C 137.214844 218.882812 136.5 219.601562 135.613281 219.601562 C 117.039062 219.601562 116.6875 230.992188 116.679688 231.476562 C 116.671875 232.351562 115.953125 233.058594 115.082031 233.058594 Z M 115.082031 233.058594 "/>
<path style=" stroke:none;fill-rule:nonzero;fill:rgb(12.156863%,12.941177%,16.862746%);fill-opacity:1;" d="M 202.347656 305.867188 C 201.527344 305.867188 200.710938 305.550781 200.085938 304.929688 C 193.488281 298.332031 182.644531 293.273438 171.164062 287.921875 C 148.1875 277.199219 122.148438 265.054688 122.148438 235.9375 C 122.148438 234.167969 123.578125 232.734375 125.347656 232.734375 C 127.117188 232.734375 128.550781 234.167969 128.550781 235.9375 C 128.550781 260.980469 151.589844 271.726562 173.871094 282.121094 C 184.710938 287.179688 195.011719 291.984375 202.347656 298.308594 C 209.683594 291.984375 219.984375 287.179688 230.824219 282.121094 C 253.105469 271.726562 276.144531 260.980469 276.144531 235.9375 C 276.144531 234.167969 277.578125 232.734375 279.347656 232.734375 C 281.117188 232.734375 282.546875 234.167969 282.546875 235.9375 C 282.546875 265.054688 256.503906 277.203125 233.53125 287.921875 C 222.050781 293.277344 211.203125 298.335938 204.609375 304.929688 C 203.984375 305.550781 203.167969 305.867188 202.347656 305.867188 Z M 202.347656 305.867188 "/>
<path style=" stroke:none;fill-rule:nonzero;fill:rgb(12.156863%,12.941177%,16.862746%);fill-opacity:1;" d="M 289.613281 233.066406 C 288.734375 233.066406 288.019531 232.351562 288.015625 231.476562 C 288.007812 230.984375 287.652344 219.601562 269.082031 219.601562 C 268.199219 219.601562 267.480469 218.882812 267.480469 218 C 267.480469 217.117188 268.199219 216.398438 269.082031 216.398438 C 290.960938 216.398438 291.214844 231.316406 291.214844 231.464844 C 291.214844 232.347656 290.5 233.066406 289.613281 233.066406 Z M 289.613281 233.066406 "/>
<path style=" stroke:none;fill-rule:nonzero;fill:rgb(12.156863%,12.941177%,16.862746%);fill-opacity:1;" d="M 264.78125 164.800781 L 231.179688 164.800781 C 230.296875 164.800781 229.578125 164.082031 229.578125 163.199219 C 229.578125 162.316406 230.296875 161.601562 231.179688 161.601562 L 264.78125 161.601562 C 265.664062 161.601562 266.378906 162.316406 266.378906 163.199219 C 266.378906 164.082031 265.664062 164.800781 264.78125 164.800781 Z M 221.578125 164.800781 L 215.179688 164.800781 C 214.296875 164.800781 213.578125 164.082031 213.578125 163.199219 C 213.578125 162.316406 214.296875 161.601562 215.179688 161.601562 L 221.578125 161.601562 C 222.464844 161.601562 223.179688 162.316406 223.179688 163.199219 C 223.179688 164.082031 222.464844 164.800781 221.578125 164.800781 Z M 205.578125 164.800781 L 141.578125 164.800781 C 140.695312 164.800781 139.980469 164.082031 139.980469 163.199219 C 139.980469 162.316406 140.695312 161.601562 141.578125 161.601562 L 205.578125 161.601562 C 206.464844 161.601562 207.179688 162.316406 207.179688 163.199219 C 207.179688 164.082031 206.464844 164.800781 205.578125 164.800781 Z M 205.578125 164.800781 "/>
<path style=" stroke:none;fill-rule:nonzero;fill:rgb(95.686275%,80.000001%,79.607844%);fill-opacity:1;" d="M 325.578125 142.398438 C 325.578125 150.351562 319.132812 156.800781 311.179688 156.800781 C 303.226562 156.800781 296.78125 150.351562 296.78125 142.398438 C 296.78125 134.445312 303.226562 128 311.179688 128 C 319.132812 128 325.578125 134.445312 325.578125 142.398438 Z M 325.578125 142.398438 "/>
<path style=" stroke:none;fill-rule:nonzero;fill:rgb(12.156863%,12.941177%,16.862746%);fill-opacity:1;" d="M 311.214844 158.398438 C 311.203125 158.398438 311.1875 158.398438 311.175781 158.398438 C 306.535156 158.398438 302.128906 156.386719 299.085938 152.875 C 298.507812 152.207031 298.582031 151.195312 299.25 150.617188 C 299.917969 150.039062 300.925781 150.109375 301.507812 150.78125 C 303.9375 153.585938 307.464844 155.199219 311.179688 155.199219 C 312.203125 155.175781 313.347656 155.066406 314.390625 154.792969 C 315.273438 154.574219 316.125 155.089844 316.34375 155.9375 C 316.566406 156.796875 316.050781 157.671875 315.199219 157.890625 C 313.898438 158.226562 312.5625 158.398438 311.214844 158.398438 Z M 322.640625 152.71875 C 322.300781 152.71875 321.957031 152.613281 321.667969 152.390625 C 320.964844 151.855469 320.828125 150.851562 321.367188 150.152344 C 323.078125 147.90625 323.980469 145.230469 323.980469 142.398438 C 323.980469 135.339844 318.238281 129.601562 311.179688 129.601562 C 304.121094 129.601562 298.378906 135.339844 298.378906 142.398438 L 298.394531 143.019531 C 298.429688 143.902344 297.746094 144.644531 296.863281 144.683594 C 295.933594 144.675781 295.234375 144.03125 295.195312 143.152344 L 295.179688 142.398438 C 295.179688 133.578125 302.355469 126.398438 311.179688 126.398438 C 320.003906 126.398438 327.179688 133.578125 327.179688 142.398438 C 327.179688 145.933594 326.046875 149.285156 323.914062 152.085938 C 323.597656 152.503906 323.117188 152.71875 322.640625 152.71875 Z M 322.640625 152.71875 "/>
<path style=" stroke:none;fill-rule:nonzero;fill:rgb(12.156863%,12.941177%,16.862746%);fill-opacity:1;" d="M 163.457031 135.867188 C 163.191406 135.867188 162.921875 135.796875 162.675781 135.660156 C 161.90625 135.230469 161.632812 134.257812 162.066406 133.480469 C 172.5625 114.789062 183.914062 101.671875 195.808594 94.484375 C 196.558594 94.03125 197.546875 94.269531 198.003906 95.023438 C 198.464844 95.777344 198.21875 96.765625 197.464844 97.222656 C 186.054688 104.117188 175.082031 116.847656 164.855469 135.050781 C 164.558594 135.570312 164.019531 135.867188 163.457031 135.867188 Z M 281.242188 108.753906 C 280.945312 108.753906 280.644531 108.675781 280.375 108.503906 C 274.761719 104.894531 267.492188 103.066406 258.78125 103.066406 C 238.066406 103.066406 230.199219 98.894531 223.347656 94.246094 C 222.65625 93.777344 222.128906 93.28125 221.621094 92.796875 C 221.113281 92.316406 220.710938 91.929688 220.195312 91.664062 C 219.410156 91.257812 219.101562 90.292969 219.507812 89.507812 C 219.914062 88.722656 220.878906 88.414062 221.664062 88.820312 C 222.585938 89.292969 223.214844 89.898438 223.828125 90.480469 C 224.214844 90.847656 224.621094 91.238281 225.144531 91.597656 C 231.570312 95.957031 238.976562 99.867188 258.78125 99.867188 C 268.121094 99.867188 275.96875 101.867188 282.109375 105.808594 C 282.851562 106.285156 283.070312 107.277344 282.589844 108.019531 C 282.285156 108.496094 281.769531 108.753906 281.242188 108.753906 Z M 205.28125 93.339844 C 204.621094 93.339844 204.003906 92.925781 203.769531 92.265625 C 203.480469 91.429688 203.921875 90.519531 204.757812 90.226562 C 206.886719 89.492188 209.054688 88.929688 211.191406 88.558594 C 212.039062 88.382812 212.886719 88.996094 213.042969 89.863281 C 213.191406 90.730469 212.605469 91.558594 211.738281 91.710938 C 209.773438 92.046875 207.773438 92.570312 205.808594 93.25 C 205.632812 93.3125 205.457031 93.339844 205.28125 93.339844 Z M 205.28125 93.339844 "/>
</g>
</svg>
