<?xml version="1.0" encoding="UTF-8"?>
<svg xmlns="http://www.w3.org/2000/svg" xmlns:xlink="http://www.w3.org/1999/xlink" viewBox="0 0 400 400" width="400px" height="400px">
<g id="surface212403">
<path style=" stroke:none;fill-rule:nonzero;fill:rgb(0%,0%,0%);fill-opacity:1;" d="M 0 400 L 0 0 L 400 0 L 400 400 Z M 392 392 L 392 8 L 8 8 L 8 392 Z M 392 392 "/>
<path style=" stroke:none;fill-rule:nonzero;fill:rgb(99.215686%,83.137256%,69.803923%);fill-opacity:1;" d="M 239.632812 355.601562 C 238.101562 355.601562 236.777344 354.507812 236.496094 352.988281 L 217.292969 250.589844 C 217.035156 249.210938 217.703125 247.824219 218.945312 247.171875 C 219.417969 246.921875 219.929688 246.800781 220.4375 246.800781 C 221.265625 246.800781 222.085938 247.125 222.699219 247.738281 L 225.511719 250.546875 L 217.269531 192.851562 C 217.074219 191.488281 217.773438 190.152344 219.007812 189.535156 C 219.460938 189.3125 219.949219 189.199219 220.4375 189.199219 C 221.265625 189.199219 222.085938 189.523438 222.699219 190.136719 L 229.46875 196.90625 L 225.765625 142.09375 L 225.640625 142.09375 C 217.84375 142.09375 211.960938 142.5 198.035156 147.949219 L 198.035156 236.445312 L 204.101562 248.570312 C 204.597656 249.5625 204.546875 250.738281 203.960938 251.683594 C 203.375 252.625 202.347656 253.199219 201.238281 253.199219 L 156.4375 253.199219 C 155.320312 253.199219 154.289062 252.621094 153.703125 251.671875 C 153.121094 250.71875 153.082031 249.535156 153.585938 248.539062 L 159.636719 236.714844 L 159.636719 168.160156 C 152.839844 172.523438 144.335938 176.855469 137.238281 178.890625 L 137.238281 223.644531 L 143.300781 235.769531 C 143.796875 236.761719 143.746094 237.9375 143.160156 238.882812 C 142.574219 239.824219 141.546875 240.398438 140.4375 240.398438 L 95.636719 240.398438 C 94.527344 240.398438 93.5 239.824219 92.914062 238.882812 C 92.328125 237.9375 92.277344 236.761719 92.773438 235.769531 L 98.839844 223.632812 L 99.292969 177.929688 C 92.433594 174.84375 82.390625 168.972656 77.179688 165.671875 C 74.574219 164.027344 66.644531 159.011719 64.265625 146.371094 C 64.230469 146.171875 64.214844 145.972656 64.214844 145.777344 L 64.214844 145.136719 C 64.214844 143.789062 65.058594 142.585938 66.320312 142.128906 C 68.261719 141.425781 70.035156 140.71875 71.730469 140.042969 C 76.0625 138.324219 80.152344 136.695312 85.375 135.75 C 85.566406 135.714844 85.753906 135.699219 85.949219 135.699219 C 86.691406 135.699219 87.417969 135.957031 88 136.441406 C 88.726562 137.050781 89.148438 137.949219 89.148438 138.898438 C 89.335938 139.820312 89.371094 141.46875 87.472656 143.171875 C 86.460938 144.078125 85.09375 145.1875 83.660156 146.34375 C 82.5 147.28125 81.296875 148.257812 80.21875 149.175781 C 79.890625 149.460938 79.859375 149.804688 79.871094 149.988281 C 79.882812 150.199219 79.964844 150.5 80.289062 150.71875 L 81.082031 151.257812 C 84.550781 153.421875 90.003906 155.726562 94.816406 157.765625 C 96.230469 158.363281 97.589844 158.941406 98.84375 159.492188 L 98.84375 87.554688 L 92.78125 75.429688 C 92.285156 74.4375 92.335938 73.261719 92.921875 72.316406 C 93.5 71.375 94.527344 70.800781 95.636719 70.800781 L 140.4375 70.800781 C 141.546875 70.800781 142.574219 71.375 143.160156 72.316406 C 143.746094 73.261719 143.796875 74.4375 143.300781 75.429688 L 137.238281 87.554688 L 137.238281 158.410156 C 143.25 155 154.183594 148.273438 159.636719 144.203125 L 159.636719 81.15625 L 153.574219 69.03125 C 153.078125 68.039062 153.128906 66.859375 153.714844 65.917969 C 154.300781 64.976562 155.328125 64.398438 156.4375 64.398438 L 200.949219 64.398438 C 202.050781 64.398438 203.070312 64.964844 203.65625 65.894531 C 204.246094 66.824219 204.3125 67.988281 203.839844 68.980469 L 198.035156 81.125 L 198.035156 129.007812 C 203.324219 127.617188 212.9375 125.542969 223.167969 125.542969 C 223.507812 125.542969 223.851562 125.542969 224.195312 125.546875 L 223.640625 109.308594 C 223.609375 108.441406 223.933594 107.601562 224.535156 106.976562 C 225.140625 106.351562 225.96875 106 226.835938 106 L 262.035156 106 C 263.808594 106 265.238281 107.433594 265.238281 109.199219 L 265.238281 117.671875 C 270.4375 116.085938 276.910156 114.144531 281.253906 112.855469 C 282.183594 112.574219 283.152344 112.433594 284.117188 112.433594 C 287.445312 112.433594 290.527344 114.109375 292.363281 116.921875 L 292.589844 117.269531 C 296.644531 123.433594 308.976562 142.191406 315.4375 150.164062 C 315.929688 150.769531 316.179688 151.53125 316.148438 152.308594 C 316.011719 155.664062 315.878906 159.601562 315.738281 163.8125 C 315.273438 178 314.6875 195.652344 313.296875 204.511719 C 313.195312 205.152344 312.003906 210.363281 312.003906 210.363281 C 311.871094 210.953125 311.574219 211.488281 311.148438 211.910156 C 306.28125 216.777344 302.640625 218.246094 296.046875 220.234375 C 292.351562 221.464844 284.613281 223.367188 279.902344 224.191406 C 279.527344 224.257812 279.148438 224.292969 278.765625 224.292969 C 276.957031 224.292969 275.097656 223.519531 273.921875 222.277344 C 272.253906 220.324219 270.25 218.433594 268.125 216.433594 C 267.363281 215.714844 266.597656 214.992188 265.832031 214.257812 L 268.429688 252.984375 C 268.515625 254.316406 267.773438 255.5625 266.558594 256.113281 C 266.132812 256.308594 265.683594 256.398438 265.238281 256.398438 C 264.40625 256.398438 263.585938 256.078125 262.976562 255.460938 L 256.097656 248.585938 L 258.832031 297.824219 C 258.902344 299.148438 258.15625 300.378906 256.941406 300.925781 C 256.523438 301.109375 256.078125 301.199219 255.636719 301.199219 C 254.804688 301.199219 253.984375 300.875 253.375 300.261719 L 248.550781 295.4375 L 242.820312 352.714844 C 242.660156 354.300781 241.363281 355.527344 239.773438 355.59375 C 239.726562 355.601562 239.683594 355.601562 239.632812 355.601562 Z M 265.238281 195.75 C 267.582031 198.039062 273.082031 201.71875 277.785156 204.363281 C 278.464844 203.324219 279.222656 202.003906 279.492188 201.390625 C 280.710938 195.28125 283.789062 178.804688 283.789062 173.964844 C 283.789062 156.476562 282.0625 144.699219 279.472656 132.398438 C 279.441406 132.246094 279.417969 132.09375 279.410156 131.9375 C 276.753906 132.320312 269.988281 133.320312 265.234375 134.210938 L 265.234375 195.75 Z M 265.238281 195.75 "/>
<path style=" stroke:none;fill-rule:nonzero;fill:rgb(98.431373%,72.549021%,49.803922%);fill-opacity:1;" d="M 94.035156 72.398438 L 116.4375 86.800781 L 142.035156 72.398438 Z M 94.035156 72.398438 "/>
<path style=" stroke:none;fill-rule:nonzero;fill:rgb(98.431373%,72.549021%,49.803922%);fill-opacity:1;" d="M 94.035156 238.800781 L 116.4375 224.398438 L 142.035156 238.800781 Z M 94.035156 238.800781 "/>
<path style=" stroke:none;fill-rule:nonzero;fill:rgb(98.431373%,72.549021%,49.803922%);fill-opacity:1;" d="M 154.835938 252.078125 L 177.238281 237.679688 L 202.835938 252.078125 Z M 154.835938 252.078125 "/>
<path style=" stroke:none;fill-rule:nonzero;fill:rgb(98.431373%,72.549021%,49.803922%);fill-opacity:1;" d="M 154.835938 64.398438 L 177.238281 78.800781 L 202.835938 64.398438 Z M 154.835938 64.398438 "/>
<path style=" stroke:none;fill-rule:nonzero;fill:rgb(98.431373%,72.549021%,49.803922%);fill-opacity:1;" d="M 225.238281 107.601562 L 244.4375 122 L 263.636719 107.601562 Z M 225.238281 107.601562 "/>
<path style=" stroke:none;fill-rule:nonzero;fill:rgb(96.078432%,56.862748%,45.09804%);fill-opacity:1;" d="M 98.765625 177.792969 L 98.765625 222.800781 L 94.035156 238.800781 L 116.4375 224.398438 L 116.4375 86.800781 L 94.035156 72.398438 L 98.765625 88.15625 L 98.765625 158.800781 L 102.035156 163.601562 L 102.035156 176.398438 Z M 98.765625 177.792969 "/>
<path style=" stroke:none;fill-rule:nonzero;fill:rgb(96.078432%,56.862748%,45.09804%);fill-opacity:1;" d="M 153.714844 65.917969 L 177.238281 80.398438 L 177.238281 237.199219 L 154.835938 251.601562 L 162.835938 237.199219 L 162.835938 80.398438 Z M 153.714844 65.917969 "/>
<path style=" stroke:none;fill-rule:nonzero;fill:rgb(96.078432%,56.862748%,45.09804%);fill-opacity:1;" d="M 278.054688 206.800781 C 278.054688 206.800781 294.535156 201.1875 295.636719 197.199219 C 297.339844 191.03125 298.835938 152.398438 298.835938 152.398438 L 280.402344 130 C 280.402344 130 284.738281 159.148438 283.789062 170.171875 C 282.835938 181.195312 278.054688 206.800781 278.054688 206.800781 Z M 278.054688 206.800781 "/>
<path style=" stroke:none;fill-rule:nonzero;fill:rgb(96.078432%,56.862748%,45.09804%);fill-opacity:1;" d="M 239.636719 354 L 234.835938 270.800781 L 244.4375 280.398438 L 238.035156 213.199219 L 247.636719 222.800781 L 244.4375 122 L 226.644531 108.058594 L 233.238281 205.199219 L 218.300781 189.476562 L 229.019531 257.566406 L 219.160156 248.097656 Z M 239.636719 354 "/>
<path style=" stroke:none;fill-rule:nonzero;fill:rgb(12.156863%,12.941177%,16.862746%);fill-opacity:1;" d="M 200.949219 67.601562 L 194.835938 80.398438 L 194.835938 133.265625 C 194.835938 133.265625 215.171875 128.148438 226.195312 128.148438 C 226.851562 128.148438 227.480469 128.167969 228.066406 128.203125 L 226.835938 109.199219 L 262.035156 109.199219 L 262.035156 122 C 267.414062 120.335938 276.566406 117.585938 282.164062 115.921875 C 282.816406 115.726562 283.46875 115.632812 284.117188 115.632812 C 286.335938 115.632812 288.421875 116.738281 289.683594 118.671875 C 293.558594 124.558594 306.261719 143.921875 312.949219 152.175781 C 312.339844 166.894531 311.894531 192.785156 310.132812 204.015625 C 310.035156 204.625 308.886719 209.648438 308.886719 209.648438 C 304.5 214.03125 301.398438 215.28125 295.125 217.167969 C 291.382812 218.417969 283.734375 220.273438 279.347656 221.039062 C 279.152344 221.074219 278.957031 221.089844 278.765625 221.089844 C 277.726562 221.089844 276.761719 220.621094 276.246094 220.078125 C 272.40625 215.566406 266.421875 211.082031 262.035156 205.449219 L 265.238281 253.199219 L 252.4375 240.398438 L 255.636719 298 L 246.035156 288.398438 L 239.636719 352.398438 L 220.4375 250 L 230.035156 259.601562 L 220.4375 192.398438 L 233.238281 205.199219 L 228.757812 138.894531 C 227.679688 138.894531 226.652344 138.890625 225.648438 138.890625 C 217.390625 138.890625 211.03125 139.242188 194.835938 145.777344 L 194.835938 237.199219 L 201.238281 250 L 156.4375 250 L 162.835938 237.488281 L 162.835938 162.0625 C 155.316406 167.695312 142.804688 174.511719 134.035156 176.398438 L 134.035156 224.398438 L 140.4375 237.199219 L 95.636719 237.199219 L 102.035156 224.398438 L 102.515625 175.824219 C 96.277344 173.328125 85.132812 166.914062 78.890625 162.964844 C 75.363281 160.734375 69.386719 156.273438 67.414062 145.777344 L 67.414062 145.136719 C 74.292969 142.640625 79.066406 140.144531 85.945312 138.894531 C 85.945312 139.503906 86.367188 139.859375 85.335938 140.785156 C 83.523438 142.410156 80.515625 144.699219 78.132812 146.746094 C 76.042969 148.539062 76.203125 151.8125 78.480469 153.359375 C 78.746094 153.542969 79.015625 153.722656 79.285156 153.902344 C 84.308594 157.039062 92.5 160.175781 98.132812 162.671875 C 99.414062 163.3125 102.035156 163.601562 102.035156 163.601562 L 102.035156 86.800781 L 95.636719 74 L 140.4375 74 L 134.035156 86.800781 L 134.035156 163.601562 C 136.53125 162.960938 156.566406 150.800781 162.835938 145.777344 L 162.835938 80.398438 L 156.4375 67.601562 L 200.949219 67.601562 M 278.382812 208.363281 C 279.40625 208.363281 282.601562 202.714844 282.601562 202.140625 C 282.601562 202.140625 286.988281 180.226562 286.988281 173.96875 C 286.988281 155.882812 285.109375 143.636719 282.601562 131.742188 C 282.601562 130.488281 282.601562 129.863281 281.976562 129.234375 C 281.347656 128.609375 280.726562 128.609375 280.097656 128.609375 C 280.097656 128.609375 267.667969 130.34375 262.035156 131.601562 L 262.035156 196.992188 C 264.539062 200.121094 272.992188 205.496094 278.15625 208.207031 C 278.214844 208.316406 278.289062 208.363281 278.382812 208.363281 M 200.949219 61.199219 L 156.4375 61.199219 C 154.21875 61.199219 152.160156 62.347656 150.992188 64.238281 C 149.828125 66.125 149.71875 68.480469 150.710938 70.464844 L 156.4375 81.910156 L 156.4375 142.574219 C 152.246094 145.566406 145.726562 149.671875 140.4375 152.835938 L 140.4375 88.308594 L 146.160156 76.859375 C 147.152344 74.875 147.046875 72.523438 145.878906 70.632812 C 144.714844 68.75 142.65625 67.601562 140.4375 67.601562 L 95.636719 67.601562 C 93.417969 67.601562 91.359375 68.75 90.195312 70.636719 C 89.027344 72.523438 88.921875 74.878906 89.914062 76.863281 L 95.636719 88.308594 L 95.636719 154.636719 C 91.902344 153.054688 87.824219 151.316406 84.683594 149.628906 C 85.019531 149.355469 85.351562 149.085938 85.683594 148.820312 C 87.136719 147.644531 88.515625 146.535156 89.613281 145.546875 C 91.152344 144.167969 92.863281 141.800781 92.324219 138.355469 C 92.179688 136.660156 91.367188 135.082031 90.050781 133.980469 C 88.890625 133.011719 87.433594 132.492188 85.949219 132.492188 C 85.566406 132.492188 85.1875 132.527344 84.804688 132.59375 C 79.269531 133.601562 75.03125 135.28125 70.546875 137.070312 C 68.878906 137.730469 67.136719 138.425781 65.234375 139.117188 C 62.703125 140.035156 61.015625 142.441406 61.015625 145.132812 L 61.015625 145.773438 C 61.015625 146.167969 61.054688 146.566406 61.125 146.957031 C 63.757812 160.964844 72.574219 166.542969 75.472656 168.375 C 80.492188 171.546875 89.242188 176.683594 96.078125 179.957031 L 95.65625 222.859375 L 89.914062 234.335938 C 88.921875 236.320312 89.027344 238.675781 90.195312 240.5625 C 91.359375 242.453125 93.417969 243.601562 95.636719 243.601562 L 140.4375 243.601562 C 142.65625 243.601562 144.714844 242.453125 145.878906 240.5625 C 147.046875 238.675781 147.152344 236.320312 146.160156 234.335938 L 140.4375 222.890625 L 140.4375 181.234375 C 145.605469 179.488281 151.265625 176.785156 156.4375 173.832031 L 156.4375 235.945312 L 150.738281 247.085938 C 149.722656 249.070312 149.8125 251.4375 150.972656 253.335938 C 152.140625 255.242188 154.210938 256.398438 156.4375 256.398438 L 201.238281 256.398438 C 203.453125 256.398438 205.515625 255.25 206.679688 253.363281 C 207.84375 251.476562 207.953125 249.121094 206.960938 247.136719 L 201.238281 235.691406 L 201.238281 150.144531 C 211.71875 146.1875 217.027344 145.445312 222.777344 145.316406 L 225.699219 188.609375 L 224.960938 187.871094 C 223.734375 186.644531 222.09375 186 220.433594 186 C 219.460938 186 218.480469 186.222656 217.574219 186.675781 C 215.109375 187.90625 213.710938 190.574219 214.101562 193.304688 L 221.292969 243.65625 C 221.011719 243.621094 220.722656 243.601562 220.433594 243.601562 C 219.417969 243.601562 218.390625 243.84375 217.453125 244.339844 C 214.96875 245.648438 213.628906 248.421875 214.144531 251.179688 L 233.347656 353.582031 C 233.914062 356.617188 236.566406 358.800781 239.632812 358.800781 C 239.726562 358.800781 239.820312 358.796875 239.914062 358.792969 C 243.09375 358.65625 245.6875 356.203125 246.003906 353.035156 L 251.0625 302.476562 L 251.113281 302.527344 C 252.335938 303.75 253.976562 304.398438 255.640625 304.398438 C 256.523438 304.398438 257.414062 304.21875 258.25 303.84375 C 260.671875 302.761719 262.179688 300.292969 262.03125 297.644531 L 259.757812 256.769531 L 260.710938 257.726562 C 261.9375 258.949219 263.578125 259.601562 265.238281 259.601562 C 266.132812 259.601562 267.035156 259.410156 267.882812 259.027344 C 270.3125 257.925781 271.804688 255.433594 271.625 252.769531 L 269.582031 222.285156 C 270.234375 222.949219 270.839844 223.597656 271.375 224.222656 C 271.453125 224.3125 271.527344 224.398438 271.609375 224.484375 C 273.394531 226.363281 276.070312 227.484375 278.769531 227.484375 C 279.347656 227.484375 279.921875 227.433594 280.484375 227.332031 C 285.253906 226.496094 293.125 224.5625 297.0625 223.261719 C 303.527344 221.3125 307.871094 219.707031 313.417969 214.164062 C 314.265625 213.3125 314.859375 212.238281 315.128906 211.070312 C 316.328125 205.832031 316.425781 205.207031 316.460938 205.003906 C 317.878906 195.9375 318.46875 178.152344 318.941406 163.867188 C 319.082031 159.679688 319.210938 155.765625 319.347656 152.433594 C 319.414062 150.875 318.90625 149.351562 317.929688 148.140625 C 311.574219 140.292969 299.3125 121.644531 295.277344 115.515625 L 295.039062 115.148438 C 292.617188 111.441406 288.53125 109.226562 284.125 109.226562 C 282.84375 109.226562 281.570312 109.414062 280.335938 109.785156 C 276.976562 110.785156 272.574219 112.101562 268.445312 113.351562 L 268.445312 109.199219 C 268.445312 105.664062 265.582031 102.800781 262.046875 102.800781 L 226.835938 102.800781 C 225.066406 102.800781 223.378906 103.53125 222.167969 104.824219 C 220.957031 106.113281 220.335938 107.847656 220.449219 109.613281 L 221.25 121.988281 C 214.683594 122.550781 206.921875 124.019531 201.238281 125.230469 L 201.238281 81.851562 L 206.726562 70.359375 C 207.671875 68.375 207.535156 66.042969 206.363281 64.1875 C 205.1875 62.328125 203.148438 61.199219 200.949219 61.199219 Z M 268.4375 136.890625 C 271.285156 136.398438 274.425781 135.910156 276.855469 135.546875 C 279.117188 146.78125 280.585938 157.933594 280.585938 173.964844 C 280.585938 177.902344 278.171875 191.550781 276.519531 199.914062 C 273.246094 197.917969 270.214844 195.800781 268.4375 194.324219 Z M 268.4375 136.890625 "/>
<path style=" stroke:none;fill-rule:nonzero;fill:rgb(12.156863%,12.941177%,16.862746%);fill-opacity:1;" d="M 245.605469 160.425781 C 244.742188 160.425781 244.035156 159.742188 244.003906 158.875 L 242.835938 122.050781 C 242.808594 121.167969 243.503906 120.429688 244.386719 120.402344 C 245.25 120.363281 246.007812 121.070312 246.035156 121.953125 L 247.203125 158.777344 C 247.234375 159.660156 246.539062 160.398438 245.65625 160.425781 C 245.640625 160.425781 245.621094 160.425781 245.605469 160.425781 Z M 245.605469 160.425781 "/>
<path style=" stroke:none;fill-rule:nonzero;fill:rgb(12.156863%,12.941177%,16.862746%);fill-opacity:1;" d="M 246.113281 176.488281 C 245.25 176.488281 244.542969 175.808594 244.515625 174.941406 L 244.308594 168.453125 C 244.28125 167.566406 244.976562 166.828125 245.859375 166.800781 C 246.742188 166.722656 247.480469 167.464844 247.507812 168.34375 L 247.714844 174.835938 C 247.742188 175.71875 247.046875 176.457031 246.164062 176.488281 C 246.148438 176.488281 246.128906 176.488281 246.113281 176.488281 Z M 246.113281 176.488281 "/>
<path style=" stroke:none;fill-rule:nonzero;fill:rgb(12.156863%,12.941177%,16.862746%);fill-opacity:1;" d="M 246.710938 195.265625 C 245.847656 195.265625 245.140625 194.585938 245.113281 193.71875 L 244.796875 183.914062 C 244.769531 183.03125 245.464844 182.292969 246.347656 182.261719 C 247.269531 182.179688 247.96875 182.929688 248 183.808594 L 248.3125 193.613281 C 248.339844 194.496094 247.648438 195.234375 246.761719 195.265625 C 246.746094 195.265625 246.726562 195.265625 246.710938 195.265625 Z M 246.710938 195.265625 "/>
<path style=" stroke:none;fill-rule:nonzero;fill:rgb(12.156863%,12.941177%,16.862746%);fill-opacity:1;" d="M 239.636719 355.601562 C 238.792969 355.601562 238.089844 354.945312 238.039062 354.09375 L 233.242188 270.894531 C 233.203125 270.230469 233.578125 269.613281 234.183594 269.339844 C 234.785156 269.070312 235.496094 269.199219 235.96875 269.671875 L 242.425781 276.125 L 236.445312 213.355469 C 236.382812 212.679688 236.746094 212.042969 237.359375 211.753906 C 237.96875 211.460938 238.691406 211.59375 239.167969 212.070312 L 245.910156 218.808594 L 245.429688 203.644531 C 245.398438 202.761719 246.09375 202.023438 246.976562 201.996094 C 247.882812 201.9375 248.601562 202.664062 248.628906 203.546875 L 249.238281 222.75 C 249.257812 223.40625 248.875 224.007812 248.269531 224.269531 C 247.675781 224.523438 246.972656 224.398438 246.503906 223.933594 L 240.050781 217.476562 L 246.027344 280.25 C 246.089844 280.921875 245.726562 281.5625 245.117188 281.847656 C 244.503906 282.136719 243.78125 282.007812 243.304688 281.53125 L 236.675781 274.902344 L 241.234375 353.90625 C 241.285156 354.789062 240.613281 355.546875 239.726562 355.597656 C 239.699219 355.601562 239.664062 355.601562 239.636719 355.601562 Z M 239.636719 355.601562 "/>
<path style=" stroke:none;fill-rule:nonzero;fill:rgb(12.156863%,12.941177%,16.862746%);fill-opacity:1;" d="M 177.238281 82 C 176.9375 82 176.636719 81.917969 176.371094 81.742188 L 153.96875 67.34375 L 155.699219 64.652344 L 177.292969 78.53125 L 202.050781 64.605469 L 203.617188 67.390625 L 178.019531 81.792969 C 177.777344 81.933594 177.507812 82 177.238281 82 Z M 177.238281 82 "/>
<path style=" stroke:none;fill-rule:nonzero;fill:rgb(12.156863%,12.941177%,16.862746%);fill-opacity:1;" d="M 244.4375 123.601562 C 244.101562 123.601562 243.761719 123.496094 243.476562 123.28125 L 224.277344 108.878906 L 226.195312 106.320312 L 244.4375 120 L 262.675781 106.320312 L 264.597656 108.878906 L 245.398438 123.28125 C 245.113281 123.496094 244.773438 123.601562 244.4375 123.601562 Z M 244.4375 123.601562 "/>
<path style=" stroke:none;fill-rule:nonzero;fill:rgb(12.156863%,12.941177%,16.862746%);fill-opacity:1;" d="M 116.4375 88.398438 C 116.136719 88.398438 115.835938 88.316406 115.570312 88.144531 L 93.167969 73.742188 L 94.902344 71.054688 L 116.492188 84.929688 L 141.25 71.003906 L 142.816406 73.792969 L 117.21875 88.191406 C 116.976562 88.332031 116.707031 88.398438 116.4375 88.398438 Z M 116.4375 88.398438 "/>
<path style=" stroke:none;fill-rule:nonzero;fill:rgb(12.156863%,12.941177%,16.862746%);fill-opacity:1;" d="M 141.253906 240.195312 L 116.496094 226.269531 L 94.902344 240.148438 L 93.171875 237.457031 L 115.574219 223.054688 C 116.070312 222.730469 116.707031 222.714844 117.222656 223.007812 L 142.824219 237.40625 Z M 141.253906 240.195312 "/>
<path style=" stroke:none;fill-rule:nonzero;fill:rgb(12.156863%,12.941177%,16.862746%);fill-opacity:1;" d="M 202.054688 252.996094 L 177.292969 239.070312 L 155.703125 252.945312 L 153.972656 250.257812 L 176.375 235.855469 C 176.867188 235.53125 177.507812 235.511719 178.023438 235.808594 L 203.625 250.207031 Z M 202.054688 252.996094 "/>
<path style=" stroke:none;fill-rule:nonzero;fill:rgb(12.156863%,12.941177%,16.862746%);fill-opacity:1;" d="M 116.4375 226 C 115.554688 226 114.835938 225.285156 114.835938 224.398438 L 114.835938 165.199219 C 114.835938 164.316406 115.554688 163.601562 116.4375 163.601562 C 117.320312 163.601562 118.035156 164.316406 118.035156 165.199219 L 118.035156 224.398438 C 118.035156 225.285156 117.320312 226 116.4375 226 Z M 116.4375 226 "/>
<path style=" stroke:none;fill-rule:nonzero;fill:rgb(12.156863%,12.941177%,16.862746%);fill-opacity:1;" d="M 116.4375 144.328125 C 115.554688 144.328125 114.835938 143.613281 114.835938 142.730469 L 114.835938 126.871094 C 114.835938 125.988281 115.554688 125.269531 116.4375 125.269531 C 117.320312 125.269531 118.035156 125.988281 118.035156 126.871094 L 118.035156 142.730469 C 118.035156 143.613281 117.320312 144.328125 116.4375 144.328125 Z M 116.4375 144.328125 "/>
<path style=" stroke:none;fill-rule:nonzero;fill:rgb(12.156863%,12.941177%,16.862746%);fill-opacity:1;" d="M 116.4375 118.664062 C 115.554688 118.664062 114.835938 117.945312 114.835938 117.0625 L 114.835938 86.800781 C 114.835938 85.917969 115.554688 85.199219 116.4375 85.199219 C 117.320312 85.199219 118.035156 85.917969 118.035156 86.800781 L 118.035156 117.0625 C 118.035156 117.945312 117.320312 118.664062 116.4375 118.664062 Z M 116.4375 118.664062 "/>
<path style=" stroke:none;fill-rule:nonzero;fill:rgb(12.156863%,12.941177%,16.862746%);fill-opacity:1;" d="M 175.636719 80.398438 L 178.835938 80.398438 L 178.835938 237.199219 L 175.636719 237.199219 Z M 175.636719 80.398438 "/>
<path style=" stroke:none;fill-rule:nonzero;fill:rgb(12.156863%,12.941177%,16.862746%);fill-opacity:1;" d="M 278.570312 208.3125 L 277.542969 205.285156 C 285.113281 202.703125 293.574219 198.667969 294.09375 196.773438 C 295.382812 192.105469 296.6875 166.421875 297.21875 152.945312 L 279.167969 131.019531 L 281.636719 128.980469 L 300.074219 151.382812 C 300.320312 151.6875 300.449219 152.070312 300.4375 152.460938 C 300.375 154.042969 298.910156 191.347656 297.179688 197.621094 C 295.949219 202.078125 282.625 206.933594 278.570312 208.3125 Z M 278.570312 208.3125 "/>
</g>
</svg>
