<?xml version="1.0" encoding="UTF-8"?>
<svg xmlns="http://www.w3.org/2000/svg" xmlns:xlink="http://www.w3.org/1999/xlink" viewBox="0 0 400 400" width="400px" height="400px">
<g id="surface213128">
<path style=" stroke:none;fill-rule:nonzero;fill:rgb(0%,0%,0%);fill-opacity:1;" d="M 0 400 L 0 0 L 400 0 L 400 400 Z M 392 392 L 392 8 L 8 8 L 8 392 Z M 392 392 "/>
<path style=" stroke:none;fill-rule:nonzero;fill:rgb(33.725491%,37.254903%,63.137257%);fill-opacity:1;" d="M 292.648438 176.78125 C 291.691406 154.597656 288.863281 134.320312 284.042969 118.867188 L 289.601562 68.828125 L 255.730469 84.457031 C 240.828125 76.511719 221.910156 75.226562 200 75.226562 C 178.089844 75.226562 159.171875 76.511719 144.269531 84.457031 L 110.398438 68.828125 L 115.957031 118.867188 C 111.136719 134.320312 108.304688 154.597656 107.351562 176.78125 C 106.976562 185.46875 107.296875 194.183594 108.308594 202.820312 L 113.207031 244.601562 C 115.421875 263.523438 123.246094 281.355469 135.667969 295.816406 L 155.089844 318.425781 C 169.375 332.683594 182.984375 331.605469 200 331.285156 C 217.015625 331.605469 230.625 332.683594 244.910156 318.425781 L 264.328125 295.816406 C 276.75 281.351562 284.574219 263.519531 286.789062 244.597656 L 291.6875 202.816406 C 292.703125 194.183594 293.023438 185.464844 292.648438 176.78125 Z M 292.648438 176.78125 "/>
<path style=" stroke:none;fill-rule:nonzero;fill:rgb(12.156863%,12.941177%,16.862746%);fill-opacity:1;" d="M 190.34375 334.640625 C 177.109375 334.640625 165.171875 333.007812 152.824219 320.695312 L 133.234375 297.902344 C 120.351562 282.898438 112.324219 264.597656 110.023438 244.972656 L 105.125 203.1875 C 104.097656 194.410156 103.769531 185.480469 104.148438 176.640625 C 105.140625 153.675781 108.09375 133.613281 112.699219 118.554688 L 107.214844 69.179688 C 107.085938 68.03125 107.589844 66.902344 108.527344 66.226562 C 109.464844 65.550781 110.699219 65.429688 111.742188 65.917969 L 144.191406 80.894531 C 158.910156 73.554688 177.207031 72.023438 200 72.023438 C 222.792969 72.023438 241.089844 73.554688 255.808594 80.894531 L 288.253906 65.917969 C 289.308594 65.433594 290.539062 65.550781 291.472656 66.226562 C 292.410156 66.902344 292.910156 68.03125 292.785156 69.179688 L 287.296875 118.554688 C 291.902344 133.617188 294.855469 153.675781 295.847656 176.640625 C 296.226562 185.492188 295.902344 194.421875 294.871094 203.1875 L 289.972656 244.972656 C 287.671875 264.597656 279.644531 282.898438 266.761719 297.902344 L 247.339844 320.511719 C 232.648438 335.179688 218.703125 334.875 202.511719 334.539062 L 199.9375 334.484375 L 197.484375 334.539062 C 195.0625 334.589844 192.683594 334.640625 190.34375 334.640625 Z M 114.210938 74.113281 L 119.144531 118.511719 C 119.191406 118.949219 119.148438 119.394531 119.015625 119.820312 C 114.457031 134.421875 111.53125 154.167969 110.550781 176.917969 C 110.183594 185.414062 110.5 194.003906 111.488281 202.449219 L 116.386719 244.234375 C 118.539062 262.582031 126.046875 279.703125 138.097656 293.730469 L 157.519531 316.34375 C 169.941406 328.71875 182.039062 328.476562 197.347656 328.136719 L 199.9375 328.082031 L 202.648438 328.136719 C 217.957031 328.46875 230.054688 328.726562 242.644531 316.164062 L 261.902344 293.730469 C 273.953125 279.699219 281.457031 262.585938 283.609375 244.234375 L 288.507812 202.449219 C 289.496094 194.019531 289.8125 185.429688 289.449219 176.917969 C 288.46875 154.171875 285.539062 134.429688 280.980469 119.820312 C 280.851562 119.398438 280.808594 118.953125 280.855469 118.511719 L 285.792969 74.113281 L 257.074219 87.367188 C 256.160156 87.785156 255.105469 87.757812 254.222656 87.285156 C 240.433594 79.941406 222.574219 78.433594 200 78.433594 C 177.425781 78.433594 159.5625 79.941406 145.777344 87.285156 C 144.890625 87.757812 143.84375 87.785156 142.925781 87.367188 Z M 114.210938 74.113281 "/>
<path style=" stroke:none;fill-rule:nonzero;fill:rgb(22.352941%,76.078433%,84.705883%);fill-opacity:1;" d="M 220.800781 204.828125 L 201.601562 188.828125 L 182.398438 204.828125 L 201.601562 201.625 Z M 220.800781 204.828125 "/>
<path style=" stroke:none;fill-rule:nonzero;fill:rgb(12.156863%,12.941177%,16.862746%);fill-opacity:1;" d="M 220.800781 206.425781 C 220.714844 206.425781 220.625 206.417969 220.539062 206.402344 L 201.601562 203.25 L 182.664062 206.402344 C 181.957031 206.527344 181.246094 206.152344 180.945312 205.492188 C 180.644531 204.835938 180.820312 204.0625 181.375 203.597656 L 200.574219 187.597656 C 201.171875 187.105469 202.03125 187.105469 202.628906 187.597656 L 221.828125 203.597656 C 222.378906 204.0625 222.558594 204.835938 222.253906 205.492188 C 221.988281 206.070312 221.417969 206.425781 220.800781 206.425781 Z M 201.601562 200.027344 C 201.6875 200.027344 201.777344 200.03125 201.863281 200.046875 L 215.246094 202.277344 L 201.601562 190.910156 L 187.953125 202.28125 L 201.335938 200.050781 C 201.421875 200.03125 201.511719 200.027344 201.601562 200.027344 Z M 201.601562 200.027344 "/>
<path style=" stroke:none;fill-rule:nonzero;fill:rgb(100%,100%,100%);fill-opacity:1;" d="M 141.855469 188.609375 L 162.996094 192.898438 L 173.105469 186.15625 L 138.789062 170.53125 Z M 141.855469 188.609375 "/>
<path style=" stroke:none;fill-rule:nonzero;fill:rgb(12.156863%,12.941177%,16.862746%);fill-opacity:1;" d="M 163 194.5 C 162.890625 194.5 162.785156 194.492188 162.679688 194.46875 L 141.539062 190.179688 C 140.890625 190.046875 140.394531 189.53125 140.277344 188.878906 L 137.210938 170.804688 C 137.117188 170.21875 137.347656 169.628906 137.8125 169.269531 C 138.28125 168.910156 138.910156 168.832031 139.453125 169.078125 L 173.769531 184.703125 C 174.296875 184.945312 174.652344 185.453125 174.699219 186.03125 C 174.75 186.613281 174.480469 187.167969 173.992188 187.492188 L 163.882812 194.230469 C 163.617188 194.402344 163.308594 194.5 163 194.5 Z M 143.25 187.261719 L 162.664062 191.199219 L 169.824219 186.421875 L 140.871094 173.238281 Z M 143.25 187.261719 "/>
<path style=" stroke:none;fill-rule:nonzero;fill:rgb(47.058824%,63.529414%,82.352942%);fill-opacity:1;" d="M 185.601562 236.828125 L 193.601562 252.828125 L 209.601562 252.828125 L 217.601562 236.828125 L 201.601562 233.625 Z M 185.601562 236.828125 "/>
<path style=" stroke:none;fill-rule:nonzero;fill:rgb(12.156863%,12.941177%,16.862746%);fill-opacity:1;" d="M 132.195312 258.726562 C 132.113281 258.726562 132.03125 258.71875 131.953125 258.707031 C 131.082031 258.578125 130.476562 257.761719 130.609375 256.886719 L 132.308594 245.664062 C 132.398438 245.082031 132.800781 244.597656 133.351562 244.398438 L 149.257812 238.734375 L 161.769531 213.710938 C 162.167969 212.921875 163.128906 212.597656 163.917969 212.992188 C 164.707031 213.390625 165.027344 214.347656 164.632812 215.140625 L 151.832031 240.738281 C 151.648438 241.109375 151.328125 241.394531 150.941406 241.53125 L 135.332031 247.089844 L 133.777344 257.363281 C 133.652344 258.15625 132.972656 258.726562 132.195312 258.726562 Z M 132.195312 258.726562 "/>
<path style=" stroke:none;fill-rule:nonzero;fill:rgb(12.156863%,12.941177%,16.862746%);fill-opacity:1;" d="M 128.003906 286.425781 C 127.921875 286.425781 127.839844 286.417969 127.757812 286.40625 C 126.890625 286.277344 126.285156 285.460938 126.417969 284.585938 L 128.886719 268.277344 C 129.015625 267.40625 129.84375 266.800781 130.707031 266.9375 C 131.578125 267.070312 132.183594 267.886719 132.046875 268.757812 L 129.582031 285.066406 C 129.460938 285.855469 128.78125 286.425781 128.003906 286.425781 Z M 128.003906 286.425781 "/>
<path style=" stroke:none;fill-rule:nonzero;fill:rgb(22.352941%,76.078433%,84.705883%);fill-opacity:1;" d="M 193.601562 76.828125 L 193.601562 110.425781 C 193.601562 113.960938 196.464844 116.828125 200 116.828125 C 203.535156 116.828125 206.398438 113.960938 206.398438 110.425781 L 206.398438 76.828125 Z M 193.601562 76.828125 "/>
<path style=" stroke:none;fill-rule:nonzero;fill:rgb(12.156863%,12.941177%,16.862746%);fill-opacity:1;" d="M 200 118.578125 C 195.503906 118.578125 191.847656 114.921875 191.847656 110.425781 L 191.847656 76.828125 C 191.847656 75.855469 192.628906 75.074219 193.601562 75.074219 L 206.398438 75.074219 C 207.371094 75.074219 208.152344 75.855469 208.152344 76.828125 L 208.152344 110.425781 C 208.152344 114.921875 204.496094 118.578125 200 118.578125 Z M 195.351562 78.578125 L 195.351562 110.425781 C 195.351562 112.988281 197.4375 115.074219 200 115.074219 C 202.5625 115.074219 204.644531 112.988281 204.644531 110.425781 L 204.644531 78.578125 Z M 195.351562 78.578125 "/>
<path style=" stroke:none;fill-rule:nonzero;fill:rgb(22.352941%,76.078433%,84.705883%);fill-opacity:1;" d="M 161.601562 321.625 C 161.601562 321.625 160 275.226562 160 268.828125 C 118.398438 240.027344 110.398438 203.226562 110.398438 203.226562 L 108.96875 193.203125 C 108.96875 193.203125 137.601562 236.828125 172.800781 256.027344 C 172.375 265.875 169.601562 313.625 169.601562 326.425781 Z M 161.601562 321.625 "/>
<path style=" stroke:none;fill-rule:nonzero;fill:rgb(12.156863%,12.941177%,16.862746%);fill-opacity:1;" d="M 169.601562 328.027344 C 169.316406 328.027344 169.03125 327.953125 168.777344 327.800781 L 160.777344 323 C 160.308594 322.71875 160.019531 322.226562 160 321.683594 C 159.9375 319.855469 158.507812 278.367188 158.40625 269.667969 C 117.355469 240.910156 108.917969 203.941406 108.835938 203.570312 L 107.386719 193.429688 C 107.28125 192.691406 107.703125 191.976562 108.402344 191.710938 C 109.101562 191.453125 109.898438 191.699219 110.308594 192.328125 C 110.589844 192.761719 139.128906 235.839844 173.566406 254.625 C 174.101562 254.914062 174.425781 255.488281 174.398438 256.097656 C 174.28125 258.789062 173.988281 264.296875 173.628906 271.15625 C 172.664062 289.476562 171.199219 317.164062 171.199219 326.425781 C 171.199219 327.003906 170.890625 327.535156 170.386719 327.820312 C 170.144531 327.960938 169.871094 328.027344 169.601562 328.027344 Z M 163.167969 320.703125 L 168.03125 323.621094 C 168.25 312.367188 169.546875 287.761719 170.433594 270.984375 C 170.757812 264.898438 171.023438 259.871094 171.15625 256.949219 C 143.867188 241.699219 120.4375 211.898438 111.5 199.59375 L 111.988281 203 C 112.042969 203.246094 120.367188 239.441406 160.910156 267.507812 C 161.34375 267.8125 161.601562 268.300781 161.601562 268.828125 C 161.601562 274.640625 162.949219 314.296875 163.167969 320.703125 Z M 163.167969 320.703125 "/>
<path style=" stroke:none;fill-rule:nonzero;fill:rgb(100%,100%,100%);fill-opacity:1;" d="M 259.914062 188.609375 L 238.773438 192.898438 L 228.664062 186.15625 L 262.980469 170.53125 Z M 259.914062 188.609375 "/>
<path style=" stroke:none;fill-rule:nonzero;fill:rgb(12.156863%,12.941177%,16.862746%);fill-opacity:1;" d="M 238.773438 194.5 C 238.460938 194.5 238.152344 194.410156 237.886719 194.230469 L 227.777344 187.492188 C 227.292969 187.167969 227.023438 186.613281 227.070312 186.03125 C 227.113281 185.453125 227.472656 184.945312 228 184.703125 L 262.316406 169.078125 C 262.855469 168.832031 263.484375 168.90625 263.953125 169.269531 C 264.421875 169.628906 264.65625 170.222656 264.554688 170.804688 L 261.496094 188.878906 C 261.382812 189.53125 260.882812 190.046875 260.234375 190.179688 L 239.09375 194.46875 C 238.988281 194.492188 238.878906 194.5 238.773438 194.5 Z M 231.941406 186.421875 L 239.105469 191.199219 L 258.519531 187.261719 L 260.890625 173.238281 Z M 259.917969 188.613281 L 259.949219 188.613281 Z M 259.917969 188.613281 "/>
<path style=" stroke:none;fill-rule:nonzero;fill:rgb(22.352941%,76.078433%,84.705883%);fill-opacity:1;" d="M 264.167969 160.027344 L 225.769531 176.027344 L 219.371094 172.828125 L 219.371094 160.027344 C 219.371094 160.027344 241.769531 147.226562 257.769531 140.828125 C 273.769531 128.027344 275.230469 107.007812 275.230469 107.007812 C 270.484375 100.757812 263.257812 93.800781 254.570312 86.425781 C 254.570312 112.027344 241.769531 128.027344 241.769531 128.027344 L 209.769531 153.625 L 209.769531 182.425781 L 222.570312 188.828125 L 262.722656 170.382812 L 276.96875 182.425781 L 260.96875 201.625 L 232.167969 204.828125 L 225.769531 217.625 L 209.769531 214.425781 L 192 214.425781 L 176 217.625 L 169.601562 204.828125 L 140.800781 201.625 L 124.800781 182.425781 L 138.789062 170.382812 L 179.199219 188.828125 L 192 182.425781 L 192 153.625 L 160 128.027344 C 160 128.027344 145.328125 111.980469 145.328125 86.382812 C 138.148438 92.035156 131.769531 98.757812 126.332031 106.808594 C 126.332031 106.808594 128 128.03125 144 140.828125 C 160 147.230469 182.398438 160.03125 182.398438 160.03125 L 182.398438 172.828125 L 176 176.03125 L 137.601562 160.03125 L 118.398438 176.03125 L 118.398438 188.828125 L 137.601562 211.230469 L 163.199219 214.429688 L 172.800781 230.429688 L 195.199219 224.03125 L 206.570312 224.03125 L 230.398438 230.429688 L 238.570312 214.429688 L 264.167969 211.230469 L 283.371094 188.828125 L 283.371094 176.03125 Z M 264.167969 160.027344 "/>
<path style=" stroke:none;fill-rule:nonzero;fill:rgb(12.156863%,12.941177%,16.862746%);fill-opacity:1;" d="M 230.398438 232.027344 C 230.261719 232.027344 230.121094 232.007812 229.984375 231.96875 L 206.355469 225.625 L 195.421875 225.625 L 173.238281 231.960938 C 172.542969 232.171875 171.796875 231.871094 171.425781 231.246094 L 162.226562 215.914062 L 137.398438 212.808594 C 137.003906 212.757812 136.644531 212.566406 136.382812 212.261719 L 117.183594 189.863281 C 116.933594 189.574219 116.800781 189.207031 116.800781 188.828125 L 116.800781 176.027344 C 116.800781 175.550781 117.011719 175.101562 117.375 174.796875 L 136.574219 158.796875 C 137.035156 158.414062 137.664062 158.328125 138.21875 158.546875 L 175.941406 174.265625 L 180.800781 171.839844 L 180.800781 160.964844 C 176.652344 158.628906 157.421875 147.921875 143.40625 142.3125 C 143.257812 142.257812 143.121094 142.175781 143 142.082031 C 126.644531 128.996094 124.804688 107.828125 124.734375 106.933594 C 124.703125 106.574219 124.804688 106.214844 125.003906 105.914062 C 130.335938 98.027344 136.839844 91.03125 144.335938 85.128906 C 144.8125 84.75 145.472656 84.675781 146.023438 84.945312 C 146.574219 85.210938 146.925781 85.769531 146.925781 86.382812 C 146.925781 111.019531 161.035156 126.796875 161.175781 126.953125 L 192.996094 152.382812 C 193.378906 152.679688 193.601562 153.140625 193.601562 153.625 L 193.601562 182.425781 C 193.601562 183.03125 193.257812 183.585938 192.714844 183.855469 L 179.917969 190.257812 C 179.488281 190.472656 178.980469 190.484375 178.535156 190.28125 L 139.058594 172.261719 L 127.035156 182.609375 L 141.617188 200.105469 L 169.777344 203.234375 C 170.316406 203.296875 170.785156 203.625 171.035156 204.109375 L 176.886719 215.816406 L 191.6875 212.855469 L 209.769531 212.824219 L 224.886719 215.816406 L 230.738281 204.109375 C 230.980469 203.625 231.457031 203.292969 231.992188 203.234375 L 260.15625 200.105469 L 274.726562 182.621094 L 262.46875 172.257812 L 223.242188 190.277344 C 222.796875 190.480469 222.289062 190.476562 221.855469 190.257812 L 209.054688 183.855469 C 208.515625 183.585938 208.171875 183.03125 208.171875 182.425781 L 208.171875 153.625 C 208.171875 153.140625 208.394531 152.679688 208.773438 152.375 L 240.625 126.898438 C 241.808594 125.332031 252.972656 109.925781 252.972656 86.425781 C 252.972656 85.800781 253.335938 85.234375 253.902344 84.972656 C 254.46875 84.710938 255.132812 84.800781 255.605469 85.203125 C 265.222656 93.363281 272.0625 100.179688 276.511719 106.039062 C 276.746094 106.347656 276.855469 106.730469 276.835938 107.117188 C 276.769531 108.003906 275.132812 128.984375 258.769531 142.074219 C 258.648438 142.171875 258.511719 142.253906 258.363281 142.308594 C 244.347656 147.914062 225.117188 158.621094 220.96875 160.957031 L 220.96875 171.835938 L 225.832031 174.261719 L 263.554688 158.542969 C 264.105469 158.324219 264.734375 158.410156 265.195312 158.792969 L 284.398438 174.792969 C 284.761719 175.097656 284.972656 175.546875 284.972656 176.023438 L 284.972656 188.824219 C 284.972656 189.203125 284.835938 189.570312 284.589844 189.863281 L 265.386719 212.261719 C 265.128906 212.566406 264.769531 212.757812 264.375 212.808594 L 239.617188 215.90625 L 231.832031 231.152344 C 231.546875 231.699219 230.992188 232.027344 230.398438 232.027344 Z M 138.414062 209.714844 L 163.402344 212.839844 C 163.886719 212.898438 164.320312 213.179688 164.574219 213.605469 L 173.542969 228.550781 L 194.761719 222.488281 C 194.902344 222.449219 195.050781 222.425781 195.199219 222.425781 L 206.570312 222.425781 C 206.710938 222.425781 206.847656 222.445312 206.984375 222.484375 L 229.566406 228.546875 L 237.144531 213.699219 C 237.386719 213.230469 237.847656 212.90625 238.371094 212.839844 L 263.359375 209.714844 L 281.773438 188.234375 L 281.773438 176.773438 L 263.894531 161.875 L 226.386719 177.503906 C 225.953125 177.679688 225.46875 177.667969 225.054688 177.457031 L 218.65625 174.257812 C 218.113281 173.984375 217.773438 173.429688 217.773438 172.828125 L 217.773438 160.027344 C 217.773438 159.449219 218.078125 158.921875 218.578125 158.632812 C 218.804688 158.507812 241.050781 145.824219 256.953125 139.429688 C 270.609375 128.367188 273.199219 110.886719 273.582031 107.480469 C 269.679688 102.449219 263.9375 96.65625 256.097656 89.84375 C 255.066406 113.699219 243.53125 128.382812 243.019531 129.023438 C 242.945312 129.113281 242.859375 129.199219 242.769531 129.273438 L 211.371094 154.394531 L 211.371094 181.4375 L 222.597656 187.050781 L 262.054688 168.925781 C 262.621094 168.664062 263.277344 168.753906 263.757812 169.15625 L 278.003906 181.203125 C 278.671875 181.773438 278.757812 182.773438 278.199219 183.449219 L 262.199219 202.648438 C 261.9375 202.96875 261.558594 203.167969 261.148438 203.214844 L 233.210938 206.320312 L 227.199219 218.34375 C 226.875 218.988281 226.164062 219.34375 225.457031 219.199219 L 209.457031 215.996094 L 192 216.027344 L 176.3125 219.195312 C 175.601562 219.332031 174.890625 218.984375 174.570312 218.339844 L 168.558594 206.316406 L 140.625 203.214844 C 140.214844 203.164062 139.835938 202.964844 139.574219 202.648438 L 123.574219 183.445312 C 123.015625 182.773438 123.097656 181.78125 123.757812 181.210938 L 137.75 169.164062 C 138.222656 168.753906 138.890625 168.660156 139.457031 168.917969 L 179.171875 187.050781 L 190.398438 181.441406 L 190.398438 154.394531 L 159 129.273438 C 158.238281 128.46875 144.953125 113.667969 143.804688 89.6875 C 137.765625 94.808594 132.453125 100.6875 127.984375 107.214844 C 128.382812 110.539062 131.117188 128.332031 144.820312 139.429688 C 160.722656 145.824219 182.96875 158.507812 183.191406 158.632812 C 183.691406 158.921875 184 159.449219 184 160.027344 L 184 172.828125 C 184 173.429688 183.65625 173.984375 183.117188 174.257812 L 176.714844 177.457031 C 176.300781 177.667969 175.8125 177.679688 175.386719 177.503906 L 137.878906 161.875 L 120 176.773438 L 120 188.234375 Z M 138.414062 209.714844 "/>
<path style=" stroke:none;fill-rule:nonzero;fill:rgb(12.156863%,12.941177%,16.862746%);fill-opacity:1;" d="M 273.765625 286.425781 C 272.988281 286.425781 272.308594 285.855469 272.1875 285.066406 L 266.445312 247.09375 L 250.832031 241.535156 C 250.453125 241.398438 250.136719 241.125 249.953125 240.769531 L 242.15625 225.8125 C 241.746094 225.027344 242.054688 224.0625 242.835938 223.652344 C 243.617188 223.25 244.589844 223.546875 244.996094 224.332031 L 252.5 238.730469 L 268.421875 244.398438 C 268.976562 244.597656 269.378906 245.082031 269.464844 245.664062 L 275.351562 284.585938 C 275.488281 285.460938 274.886719 286.277344 274.011719 286.40625 C 273.929688 286.417969 273.847656 286.425781 273.765625 286.425781 Z M 273.765625 286.425781 "/>
<path style=" stroke:none;fill-rule:nonzero;fill:rgb(22.352941%,76.078433%,84.705883%);fill-opacity:1;" d="M 240.167969 321.625 C 240.167969 321.625 243.199219 275.226562 243.199219 268.828125 C 284.800781 240.027344 291.371094 203.226562 291.371094 203.226562 L 292.800781 193.203125 C 292.800781 193.203125 264.167969 236.828125 228.96875 256.027344 C 229.394531 265.875 232.167969 313.625 232.167969 326.425781 Z M 240.167969 321.625 "/>
<path style=" stroke:none;fill-rule:nonzero;fill:rgb(12.156863%,12.941177%,16.862746%);fill-opacity:1;" d="M 232.167969 328.027344 C 231.898438 328.027344 231.625 327.960938 231.382812 327.820312 C 230.878906 327.535156 230.570312 327.003906 230.570312 326.425781 C 230.570312 317.121094 229.101562 289.316406 228.128906 270.914062 C 227.773438 264.171875 227.484375 258.753906 227.371094 256.09375 C 227.34375 255.484375 227.667969 254.914062 228.203125 254.621094 C 262.640625 235.835938 291.179688 192.757812 291.464844 192.324219 C 291.878906 191.695312 292.675781 191.445312 293.371094 191.707031 C 294.070312 191.972656 294.496094 192.6875 294.386719 193.429688 L 292.957031 203.449219 C 292.882812 203.878906 285.859375 240.886719 244.789062 269.667969 C 244.589844 278.394531 241.886719 319.902344 241.769531 321.730469 C 241.734375 322.253906 241.441406 322.730469 240.996094 322.996094 L 232.996094 327.796875 C 232.734375 327.953125 232.453125 328.027344 232.167969 328.027344 Z M 230.609375 256.949219 C 230.746094 259.835938 231.007812 264.765625 231.324219 270.75 C 232.210938 287.601562 233.519531 312.328125 233.738281 323.621094 L 238.625 320.683594 C 239.035156 314.382812 241.601562 274.632812 241.601562 268.828125 C 241.601562 268.300781 241.855469 267.8125 242.289062 267.511719 C 282.804688 239.464844 289.726562 203.304688 289.796875 202.945312 L 290.273438 199.59375 C 281.332031 211.898438 257.902344 241.703125 230.609375 256.949219 Z M 240.167969 321.625 L 240.203125 321.625 Z M 240.167969 321.625 "/>
<path style=" stroke:none;fill-rule:nonzero;fill:rgb(12.156863%,12.941177%,16.862746%);fill-opacity:1;" d="M 195.199219 142.578125 C 194.816406 142.578125 194.429688 142.457031 194.105469 142.195312 C 193.941406 142.066406 177.917969 129.222656 168.359375 119.664062 C 168.167969 119.472656 168.023438 119.238281 167.9375 118.980469 C 161.519531 99.730469 161.445312 80.820312 161.445312 80.027344 C 161.445312 79.058594 162.230469 78.277344 163.199219 78.273438 C 164.167969 78.273438 164.953125 79.058594 164.953125 80.027344 C 164.953125 80.214844 165.03125 98.917969 171.136719 117.480469 C 180.585938 126.867188 196.136719 139.332031 196.292969 139.457031 C 197.050781 140.0625 197.171875 141.164062 196.570312 141.921875 C 196.21875 142.355469 195.710938 142.578125 195.199219 142.578125 Z M 195.199219 142.578125 "/>
<path style=" stroke:none;fill-rule:nonzero;fill:rgb(12.156863%,12.941177%,16.862746%);fill-opacity:1;" d="M 120.449219 135.355469 C 119.707031 135.355469 119.019531 134.878906 118.785156 134.136719 C 117.117188 128.945312 115.976562 123.589844 115.402344 118.226562 C 115.296875 117.261719 115.992188 116.398438 116.957031 116.296875 C 117.917969 116.167969 118.78125 116.886719 118.886719 117.851562 C 119.441406 122.980469 120.527344 128.097656 122.121094 133.066406 C 122.417969 133.984375 121.910156 134.972656 120.988281 135.269531 C 120.804688 135.324219 120.628906 135.355469 120.449219 135.355469 Z M 120.449219 135.355469 "/>
<path style=" stroke:none;fill-rule:nonzero;fill:rgb(12.156863%,12.941177%,16.862746%);fill-opacity:1;" d="M 129.398438 153.90625 C 128.867188 153.90625 128.34375 153.664062 127.996094 153.203125 C 127.898438 153.074219 125.527344 149.898438 122.808594 144.25 C 122.386719 143.378906 122.753906 142.332031 123.628906 141.914062 C 124.496094 141.5 125.550781 141.855469 125.964844 142.734375 C 128.519531 148.039062 130.773438 151.066406 130.796875 151.097656 C 131.378906 151.871094 131.222656 152.96875 130.449219 153.550781 C 130.132812 153.789062 129.761719 153.90625 129.398438 153.90625 Z M 129.398438 153.90625 "/>
<path style=" stroke:none;fill-rule:nonzero;fill:rgb(12.156863%,12.941177%,16.862746%);fill-opacity:1;" d="M 206.945312 142.578125 C 206.347656 142.578125 205.769531 142.277344 205.441406 141.726562 C 204.945312 140.894531 205.210938 139.816406 206.042969 139.324219 C 206.105469 139.273438 206.625 138.910156 208.375 137.46875 C 209.117188 136.855469 210.230469 136.960938 210.839844 137.710938 C 211.457031 138.457031 211.347656 139.5625 210.601562 140.175781 C 209.152344 141.371094 208.167969 142.132812 207.84375 142.332031 C 207.5625 142.5 207.253906 142.578125 206.945312 142.578125 Z M 206.945312 142.578125 "/>
<path style=" stroke:none;fill-rule:nonzero;fill:rgb(12.156863%,12.941177%,16.862746%);fill-opacity:1;" d="M 215.125 135.839844 C 214.628906 135.839844 214.132812 135.628906 213.785156 135.214844 C 213.160156 134.476562 213.257812 133.371094 213.996094 132.75 L 215.53125 131.472656 C 216.609375 130.578125 217.632812 129.722656 218.988281 128.542969 C 219.71875 127.90625 220.820312 127.980469 221.457031 128.71875 C 222.097656 129.449219 222.019531 130.554688 221.285156 131.1875 C 219.902344 132.386719 218.863281 133.253906 217.765625 134.167969 L 216.25 135.433594 C 215.925781 135.707031 215.527344 135.839844 215.125 135.839844 Z M 215.125 135.839844 "/>
<path style=" stroke:none;fill-rule:nonzero;fill:rgb(12.156863%,12.941177%,16.862746%);fill-opacity:1;" d="M 225.503906 126.824219 C 225.027344 126.824219 224.550781 126.628906 224.203125 126.242188 C 223.554688 125.523438 223.609375 124.417969 224.328125 123.769531 C 226.90625 121.445312 229.148438 119.328125 231.015625 117.480469 C 237.121094 98.894531 237.191406 80.210938 237.191406 80.027344 C 237.191406 79.058594 237.976562 78.273438 238.945312 78.273438 C 239.917969 78.273438 240.699219 79.058594 240.699219 80.027344 C 240.699219 80.824219 240.628906 99.730469 234.210938 118.980469 C 234.128906 119.238281 233.980469 119.472656 233.789062 119.664062 C 231.828125 121.625 229.4375 123.882812 226.679688 126.367188 C 226.34375 126.671875 225.921875 126.824219 225.503906 126.824219 Z M 225.503906 126.824219 "/>
<path style=" stroke:none;fill-rule:nonzero;fill:rgb(12.156863%,12.941177%,16.862746%);fill-opacity:1;" d="M 270.503906 153.90625 C 270.132812 153.90625 269.765625 153.789062 269.449219 153.550781 C 268.679688 152.96875 268.519531 151.871094 269.105469 151.097656 C 269.199219 150.96875 278.851562 137.914062 281.015625 117.851562 C 281.117188 116.886719 281.996094 116.179688 282.945312 116.296875 C 283.910156 116.398438 284.609375 117.261719 284.503906 118.226562 C 282.226562 139.296875 272.324219 152.648438 271.902344 153.207031 C 271.558594 153.664062 271.035156 153.90625 270.503906 153.90625 Z M 270.503906 153.90625 "/>
<path style=" stroke:none;fill-rule:nonzero;fill:rgb(12.156863%,12.941177%,16.862746%);fill-opacity:1;" d="M 209.601562 254.425781 L 193.601562 254.425781 C 192.996094 254.425781 192.441406 254.082031 192.167969 253.542969 L 184.167969 237.542969 C 183.949219 237.09375 183.945312 236.570312 184.164062 236.125 C 184.378906 235.679688 184.796875 235.359375 185.289062 235.257812 L 201.289062 232.058594 C 201.496094 232.011719 201.707031 232.011719 201.914062 232.058594 L 217.914062 235.257812 C 218.402344 235.355469 218.820312 235.675781 219.039062 236.125 C 219.261719 236.574219 219.253906 237.097656 219.035156 237.542969 L 211.035156 253.542969 C 210.757812 254.082031 210.203125 254.425781 209.601562 254.425781 Z M 194.589844 251.226562 L 208.613281 251.226562 L 215.230469 237.984375 L 201.601562 235.257812 L 187.96875 237.988281 Z M 194.589844 251.226562 "/>
<path style=" stroke:none;fill-rule:nonzero;fill:rgb(47.058824%,63.529414%,82.352942%);fill-opacity:1;" d="M 193.601562 302.425781 L 188.621094 313.625 L 214.578125 313.625 L 209.601562 302.425781 L 209.601562 276.828125 L 212.800781 273.625 L 212.800781 264.027344 L 190.398438 264.027344 L 190.398438 273.625 L 193.601562 276.828125 Z M 193.601562 302.425781 "/>
<path style=" stroke:none;fill-rule:nonzero;fill:rgb(12.156863%,12.941177%,16.862746%);fill-opacity:1;" d="M 222.398438 332.828125 L 180.800781 332.828125 C 180.257812 332.828125 179.753906 332.550781 179.457031 332.097656 C 179.160156 331.640625 179.121094 331.070312 179.335938 330.574219 L 192 302.082031 L 192 291.039062 C 192 290.15625 192.714844 289.441406 193.601562 289.441406 C 194.484375 289.441406 195.199219 290.15625 195.199219 291.039062 L 195.199219 302.425781 C 195.199219 302.648438 195.152344 302.871094 195.0625 303.074219 L 183.265625 329.625 L 219.9375 329.625 L 216.765625 322.492188 C 216.40625 321.683594 216.769531 320.738281 217.578125 320.378906 C 218.382812 320.027344 219.332031 320.382812 219.6875 321.191406 L 223.863281 330.578125 C 224.078125 331.074219 224.039062 331.648438 223.742188 332.101562 C 223.445312 332.550781 222.941406 332.828125 222.398438 332.828125 Z M 222.398438 332.828125 "/>
<path style=" stroke:none;fill-rule:nonzero;fill:rgb(12.156863%,12.941177%,16.862746%);fill-opacity:1;" d="M 214.503906 315.039062 C 213.890625 315.039062 213.304688 314.6875 213.039062 314.089844 L 208.136719 303.074219 C 208.046875 302.875 208 302.648438 208 302.425781 L 208 276.828125 C 208 276.402344 208.167969 275.996094 208.46875 275.695312 L 211.199219 272.960938 L 211.199219 265.625 L 192 265.625 L 192 272.964844 L 194.734375 275.695312 C 195.03125 275.996094 195.199219 276.402344 195.199219 276.828125 L 195.199219 283.382812 C 195.199219 284.265625 194.484375 284.984375 193.601562 284.984375 C 192.714844 284.984375 192 284.265625 192 283.382812 L 192 277.488281 L 189.265625 274.757812 C 188.96875 274.457031 188.800781 274.050781 188.800781 273.625 L 188.800781 264.027344 C 188.800781 263.144531 189.515625 262.425781 190.398438 262.425781 L 212.800781 262.425781 C 213.683594 262.425781 214.398438 263.144531 214.398438 264.027344 L 214.398438 273.625 C 214.398438 274.050781 214.230469 274.457031 213.933594 274.757812 L 211.199219 277.488281 L 211.199219 302.085938 L 215.964844 312.792969 C 216.324219 313.601562 215.960938 314.546875 215.152344 314.90625 C 214.945312 315 214.722656 315.039062 214.503906 315.039062 Z M 214.503906 315.039062 "/>
<path style=" stroke:none;fill-rule:nonzero;fill:rgb(12.156863%,12.941177%,16.862746%);fill-opacity:1;" d="M 214.398438 315.226562 L 188.800781 315.226562 C 187.917969 315.226562 187.199219 314.507812 187.199219 313.625 C 187.199219 312.742188 187.917969 312.027344 188.800781 312.027344 L 214.398438 312.027344 C 215.28125 312.027344 216 312.742188 216 313.625 C 216 314.507812 215.28125 315.226562 214.398438 315.226562 Z M 214.398438 315.226562 "/>
</g>
</svg>
