<?xml version="1.0" encoding="UTF-8"?>
<svg xmlns="http://www.w3.org/2000/svg" xmlns:xlink="http://www.w3.org/1999/xlink" viewBox="0 0 400 400" width="400px" height="400px">
<g id="surface213987">
<path style=" stroke:none;fill-rule:nonzero;fill:rgb(0%,0%,0%);fill-opacity:1;" d="M 0 400 L 0 0 L 400 0 L 400 400 Z M 392 392 L 392 8 L 8 8 L 8 392 Z M 392 392 "/>
<path style=" stroke:none;fill-rule:nonzero;fill:rgb(80.392158%,79.607844%,74.117649%);fill-opacity:1;" d="M 296 168 C 296 177.183594 295.296875 185.214844 294.144531 192.449219 C 289.34375 222.945312 276.800781 239.359375 276.800781 270.398438 C 276.800781 283.199219 243.199219 328 200 328 C 156.800781 328 123.199219 283.199219 123.199219 270.398438 C 123.199219 242.464844 111.105469 224.609375 106.113281 194.398438 C 104.832031 186.558594 104 177.886719 104 168 C 104 161.089844 104.734375 154.367188 106.144531 147.871094 L 106.144531 147.839844 C 109.089844 133.953125 115.039062 121.214844 123.296875 110.273438 C 126.207031 106.398438 129.40625 102.785156 132.863281 99.425781 C 137.054688 95.296875 141.664062 91.550781 146.558594 88.257812 C 161.824219 77.984375 180.222656 72 200 72 C 210.816406 72 221.214844 73.792969 230.910156 77.121094 C 242.847656 81.152344 253.761719 87.519531 263.039062 95.648438 C 271.070312 102.59375 277.921875 110.878906 283.230469 120.191406 C 290.113281 132.097656 294.496094 145.632812 295.648438 160.0625 C 295.902344 162.6875 296 165.3125 296 168 Z M 296 168 "/>
<path style=" stroke:none;fill-rule:nonzero;fill:rgb(92.156863%,91.37255%,89.411765%);fill-opacity:1;" d="M 181.601562 153.824219 C 132.128906 160.449219 113.28125 182.785156 106.273438 195.390625 C 106.238281 195.070312 106.175781 194.753906 106.113281 194.398438 C 104.832031 186.558594 104 177.886719 104 168 C 104 162.273438 104.511719 156.671875 105.472656 151.199219 L 105.503906 151.167969 C 106.144531 150.367188 117.054688 137.34375 144.0625 129.34375 L 144.097656 129.34375 C 153.921875 137.183594 166.273438 145.566406 181.601562 153.824219 Z M 181.601562 153.824219 "/>
<path style=" stroke:none;fill-rule:nonzero;fill:rgb(69.01961%,67.058825%,45.882353%);fill-opacity:1;" d="M 115.199219 224 C 115.199219 224 124.800781 230.398438 153.601562 230.398438 C 179.199219 230.398438 188.800781 224 200 224 C 220.800781 224 227.199219 243.199219 278.398438 243.199219 L 280.238281 243.199219 C 284.308594 226.875 290.941406 212.785156 294.144531 192.449219 C 245.472656 182.753906 208.800781 168.511719 181.601562 153.824219 C 132.121094 160.445312 113.28125 182.789062 106.292969 195.402344 C 108.144531 206.152344 110.878906 215.332031 113.613281 224 Z M 115.199219 224 "/>
<path style=" stroke:none;fill-rule:nonzero;fill:rgb(92.156863%,91.37255%,89.411765%);fill-opacity:1;" d="M 152.320312 94.078125 C 152.9375 94.671875 153.621094 95.292969 154.289062 95.90625 C 205.558594 93.046875 225.671875 77.03125 226.980469 75.949219 C 218.414062 73.421875 209.378906 72 200 72 C 180.222656 72 161.824219 77.984375 146.558594 88.257812 C 148.191406 90.015625 150.113281 91.96875 152.320312 94.078125 Z M 152.320312 94.078125 "/>
<path style=" stroke:none;fill-rule:nonzero;fill:rgb(80.392158%,79.607844%,74.117649%);fill-opacity:1;" d="M 273.097656 281.035156 C 269.410156 287.777344 263.109375 296.054688 254.832031 303.777344 C 254.824219 303.78125 254.820312 303.796875 254.8125 303.800781 L 291.199219 310.398438 L 297.601562 284.800781 Z M 273.097656 281.035156 "/>
<path style=" stroke:none;fill-rule:nonzero;fill:rgb(92.156863%,91.37255%,89.411765%);fill-opacity:1;" d="M 252.21875 306.136719 L 256 329.601562 L 281.601562 316.800781 L 269.152344 287.378906 C 264.96875 293.40625 259.210938 300.023438 252.21875 306.136719 Z M 252.21875 306.136719 "/>
<path style=" stroke:none;fill-rule:nonzero;fill:rgb(92.156863%,91.37255%,89.411765%);fill-opacity:1;" d="M 275.777344 275.199219 C 273.441406 281.824219 267.136719 291.519531 257.921875 300.800781 L 257.886719 300.800781 C 227.519531 300.800781 205.441406 291.007812 190.976562 281.214844 C 176.480469 271.425781 169.601562 261.632812 169.601562 261.632812 C 186.398438 259.9375 193.726562 256 200 256 C 206.6875 256 211.617188 259.039062 216.097656 261.921875 C 236.0625 274.71875 252.671875 275.167969 275.777344 275.199219 Z M 275.777344 275.199219 "/>
<path style=" stroke:none;fill-rule:nonzero;fill:rgb(92.156863%,91.37255%,89.411765%);fill-opacity:1;" d="M 228.0625 297.40625 C 208.863281 321.726562 182.433594 325.566406 182.433594 325.566406 C 171.390625 322.496094 161.3125 316.863281 152.769531 310.238281 C 158.910156 308.574219 182.496094 301.441406 199.679688 286.527344 L 199.710938 286.527344 C 207.519531 290.816406 216.929688 294.71875 227.9375 297.34375 Z M 228.0625 297.40625 "/>
<path style=" stroke:none;fill-rule:nonzero;fill:rgb(100%,100%,100%);fill-opacity:1;" d="M 280.222656 243.199219 L 278.398438 243.199219 C 227.199219 243.199219 220.800781 224 200 224 C 188.800781 224 179.199219 230.398438 153.601562 230.398438 C 124.800781 230.398438 115.199219 224 115.199219 224 L 113.601562 224 C 117.34375 235.808594 121.054688 246.6875 122.527344 259.199219 L 122.777344 261.4375 L 123 261.492188 C 131.992188 263.15625 142.289062 264 153.601562 264 C 172.664062 264 183.59375 261.175781 190.824219 259.304688 C 194.664062 258.308594 197.4375 257.59375 199.992188 257.59375 C 206.417969 257.59375 211.304688 260.730469 215.230469 263.253906 C 236.046875 276.621094 254.175781 276.785156 275.070312 276.800781 C 275.304688 276.800781 275.78125 275.179688 275.78125 275.179688 C 276.449219 273.300781 276.800781 271.675781 276.800781 270.398438 C 276.800781 260.0625 278.175781 251.359375 280.222656 243.199219 Z M 280.222656 243.199219 "/>
<path style=" stroke:none;fill-rule:nonzero;fill:rgb(92.156863%,91.37255%,89.411765%);fill-opacity:1;" d="M 175.425781 268.351562 C 160.480469 280.574219 136.929688 285.246094 129.34375 285.152344 C 125.375 279.007812 123.199219 273.664062 123.199219 270.398438 C 123.199219 266.753906 123.007812 263.265625 122.59375 259.902344 L 123.296875 259.902344 C 131.296875 261.40625 141.28125 262.398438 153.601562 262.398438 C 159.777344 262.398438 165.023438 262.078125 169.601562 261.632812 C 169.601562 261.632812 170.078125 262.335938 171.039062 263.488281 C 172.03125 264.703125 173.472656 266.367188 175.425781 268.351562 Z M 175.425781 268.351562 "/>
<path style=" stroke:none;fill-rule:nonzero;fill:rgb(100%,100%,100%);fill-opacity:1;" d="M 295.648438 160.0625 L 295.328125 158.363281 C 274.210938 153.902344 254.421875 148.253906 236.496094 141.570312 L 236.191406 141.472656 C 219.195312 135.183594 203.355469 127.734375 189.101562 119.328125 L 188.664062 119.105469 C 175 111.019531 163.148438 102.214844 153.425781 92.925781 C 151.460938 91.046875 149.640625 89.210938 148.007812 87.464844 L 146.558594 88.257812 C 141.664062 91.550781 137.054688 95.296875 132.863281 99.425781 C 129.40625 102.785156 126.207031 106.398438 123.296875 110.273438 C 128.351562 115.742188 135.167969 122.304688 144.0625 129.34375 L 144.097656 129.34375 C 153.921875 137.183594 166.273438 145.566406 181.601562 153.824219 C 208.800781 168.511719 245.472656 182.753906 294.144531 192.449219 C 295.296875 185.214844 296 177.183594 296 168 C 296 165.3125 295.902344 162.6875 295.648438 160.0625 Z M 295.648438 160.0625 "/>
<path style=" stroke:none;fill-rule:nonzero;fill:rgb(92.156863%,91.37255%,89.411765%);fill-opacity:1;" d="M 274.453125 107.425781 C 274.0625 106.949219 273.65625 106.496094 273.257812 106.03125 C 272.097656 104.667969 270.910156 103.335938 269.675781 102.042969 C 269.167969 101.503906 268.65625 100.96875 268.132812 100.445312 C 266.488281 98.792969 264.804688 97.175781 263.035156 95.648438 C 261.476562 94.289062 259.875 93 258.238281 91.742188 C 258.0625 91.609375 257.886719 91.476562 257.707031 91.34375 C 257.539062 91.542969 234.617188 118.378906 190.5625 122.011719 C 190.5625 122.011719 190.5625 122.011719 190.566406 122.011719 C 202.222656 128.734375 216.15625 135.554688 232.832031 141.898438 C 233.773438 142.257812 234.683594 142.617188 235.640625 142.96875 C 260.851562 137.738281 276.589844 117.523438 279.257812 113.867188 C 277.746094 111.652344 276.144531 109.5 274.453125 107.425781 Z M 274.453125 107.425781 "/>
<path style=" stroke:none;fill-rule:nonzero;fill:rgb(12.156863%,12.941177%,16.862746%);fill-opacity:1;" d="M 256 331.199219 C 255.75 331.199219 255.5 331.140625 255.269531 331.023438 C 254.816406 330.792969 254.503906 330.359375 254.417969 329.855469 L 250.636719 306.394531 C 250.550781 305.847656 250.75 305.300781 251.164062 304.933594 C 259.277344 297.84375 264.707031 290.976562 267.835938 286.46875 C 268.167969 285.988281 268.738281 285.734375 269.316406 285.789062 C 269.898438 285.847656 270.398438 286.222656 270.625 286.757812 L 283.070312 316.179688 C 283.402344 316.957031 283.070312 317.855469 282.3125 318.234375 L 256.714844 331.035156 C 256.488281 331.140625 256.246094 331.199219 256 331.199219 Z M 253.9375 306.753906 L 257.230469 327.195312 L 279.539062 316.039062 L 268.789062 290.625 C 264.597656 296.273438 259.515625 301.796875 253.9375 306.753906 Z M 253.9375 306.753906 "/>
<path style=" stroke:none;fill-rule:nonzero;fill:rgb(12.156863%,12.941177%,16.862746%);fill-opacity:1;" d="M 291.199219 312 C 291.105469 312 291.007812 311.992188 290.910156 311.972656 L 277.582031 309.558594 C 277.050781 309.460938 276.605469 309.105469 276.394531 308.609375 L 267.675781 288 L 267.726562 287.980469 C 267.570312 287.5 267.617188 286.925781 267.84375 286.46875 L 267.832031 286.46875 C 267.847656 286.449219 267.859375 286.429688 267.875 286.410156 C 267.898438 286.371094 267.921875 286.335938 267.941406 286.300781 C 270.238281 282.785156 271.246094 281.078125 271.691406 280.265625 C 272.015625 279.671875 272.648438 279.339844 273.339844 279.453125 L 297.84375 283.21875 C 298.289062 283.285156 298.679688 283.539062 298.929688 283.914062 C 299.179688 284.289062 299.261719 284.753906 299.148438 285.1875 L 292.75 310.789062 C 292.574219 311.511719 291.921875 312 291.199219 312 Z M 279.003906 306.5625 L 290.007812 308.558594 L 295.621094 286.113281 L 273.9375 282.78125 C 273.25 283.949219 272.253906 285.539062 270.953125 287.535156 Z M 279.003906 306.5625 "/>
<path style=" stroke:none;fill-rule:nonzero;fill:rgb(12.156863%,12.941177%,16.862746%);fill-opacity:1;" d="M 164.800781 193.601562 C 160.429688 193.601562 156.78125 197.519531 155.621094 202.851562 C 156.367188 201.175781 158.042969 200 160 200 C 162.648438 200 164.800781 202.152344 164.800781 204.800781 C 164.800781 207.449219 162.648438 209.601562 160 209.601562 C 157.585938 209.601562 155.601562 207.808594 155.269531 205.484375 C 155.25 205.792969 155.199219 206.085938 155.199219 206.398438 C 155.199219 213.46875 159.496094 219.199219 164.800781 219.199219 C 170.101562 219.199219 174.398438 213.46875 174.398438 206.398438 C 174.398438 199.332031 170.101562 193.601562 164.800781 193.601562 Z M 164.800781 193.601562 "/>
<path style=" stroke:none;fill-rule:nonzero;fill:rgb(12.156863%,12.941177%,16.862746%);fill-opacity:1;" d="M 235.199219 193.601562 C 230.828125 193.601562 227.179688 197.519531 226.019531 202.851562 C 226.769531 201.175781 228.445312 200 230.398438 200 C 233.050781 200 235.199219 202.152344 235.199219 204.800781 C 235.199219 207.449219 233.050781 209.601562 230.398438 209.601562 C 227.984375 209.601562 226.003906 207.808594 225.671875 205.484375 C 225.652344 205.792969 225.601562 206.085938 225.601562 206.398438 C 225.601562 213.46875 229.898438 219.199219 235.199219 219.199219 C 240.503906 219.199219 244.800781 213.46875 244.800781 206.398438 C 244.800781 199.332031 240.503906 193.601562 235.199219 193.601562 Z M 235.199219 193.601562 "/>
<path style=" stroke:none;fill-rule:nonzero;fill:rgb(12.156863%,12.941177%,16.862746%);fill-opacity:1;" d="M 148.546875 183.703125 L 145.835938 177.902344 C 146.140625 177.761719 153.453125 174.398438 168 174.398438 C 182.546875 174.398438 189.859375 177.761719 190.164062 177.902344 L 187.4375 183.695312 C 187.390625 183.671875 180.945312 180.800781 168 180.800781 C 155.054688 180.800781 148.609375 183.671875 148.546875 183.703125 Z M 148.546875 183.703125 "/>
<path style=" stroke:none;fill-rule:nonzero;fill:rgb(12.156863%,12.941177%,16.862746%);fill-opacity:1;" d="M 278.398438 244.800781 C 246.757812 244.800781 232.214844 237.648438 220.53125 231.898438 C 213.375 228.378906 207.726562 225.601562 200 225.601562 C 195.730469 225.601562 191.726562 226.566406 186.648438 227.792969 C 178.875 229.667969 169.199219 232 153.601562 232 C 124.648438 232 114.71875 225.601562 114.3125 225.332031 L 116.078125 222.664062 C 116.175781 222.726562 125.832031 228.800781 153.601562 228.800781 C 168.820312 228.800781 178.289062 226.515625 185.898438 224.679688 C 190.96875 223.457031 195.351562 222.398438 200 222.398438 C 208.46875 222.398438 214.714844 225.472656 221.941406 229.027344 C 233.332031 234.628906 247.503906 241.601562 278.398438 241.601562 Z M 278.398438 244.800781 "/>
<path style=" stroke:none;fill-rule:nonzero;fill:rgb(12.156863%,12.941177%,16.862746%);fill-opacity:1;" d="M 182.421875 327.160156 C 181.636719 327.160156 180.957031 326.585938 180.839844 325.789062 C 180.714844 324.914062 181.320312 324.101562 182.195312 323.976562 C 182.453125 323.9375 208.257812 319.925781 226.800781 296.410156 C 227.347656 295.71875 228.355469 295.601562 229.046875 296.144531 C 229.742188 296.691406 229.859375 297.695312 229.3125 298.390625 C 209.953125 322.945312 183.761719 326.984375 182.652344 327.140625 C 182.574219 327.15625 182.496094 327.160156 182.421875 327.160156 Z M 182.421875 327.160156 "/>
<path style=" stroke:none;fill-rule:nonzero;fill:rgb(12.156863%,12.941177%,16.862746%);fill-opacity:1;" d="M 152.769531 311.839844 C 152.0625 311.839844 151.417969 311.371094 151.226562 310.660156 C 150.996094 309.804688 151.496094 308.925781 152.351562 308.699219 C 157.046875 307.425781 181.347656 300.320312 198.632812 285.320312 C 199.300781 284.738281 200.3125 284.8125 200.890625 285.480469 C 201.46875 286.148438 201.398438 287.160156 200.730469 287.738281 C 183.363281 302.804688 159.953125 309.957031 153.191406 311.785156 C 153.046875 311.824219 152.90625 311.839844 152.769531 311.839844 Z M 152.769531 311.839844 "/>
<path style=" stroke:none;fill-rule:nonzero;fill:rgb(12.156863%,12.941177%,16.862746%);fill-opacity:1;" d="M 129.585938 286.746094 C 129.496094 286.746094 129.410156 286.746094 129.328125 286.746094 C 128.445312 286.734375 127.738281 286.011719 127.746094 285.125 C 127.757812 284.238281 128.453125 283.460938 129.367188 283.546875 C 129.429688 283.546875 129.496094 283.546875 129.5625 283.546875 C 137.007812 283.546875 159.957031 278.914062 174.421875 267.125 C 175.105469 266.570312 176.113281 266.675781 176.675781 267.355469 C 177.230469 268.042969 177.128906 269.050781 176.445312 269.609375 C 161.660156 281.660156 138.472656 286.746094 129.585938 286.746094 Z M 129.585938 286.746094 "/>
<path style=" stroke:none;fill-rule:nonzero;fill:rgb(12.156863%,12.941177%,16.862746%);fill-opacity:1;" d="M 257.90625 302.398438 C 196.980469 302.398438 168.570312 262.964844 168.292969 262.570312 L 170.910156 260.730469 C 171.179688 261.113281 198.710938 299.199219 257.90625 299.199219 Z M 257.90625 302.398438 "/>
<path style=" stroke:none;fill-rule:nonzero;fill:rgb(12.156863%,12.941177%,16.862746%);fill-opacity:1;" d="M 106.738281 152.195312 L 104.226562 150.210938 C 104.679688 149.636719 115.578125 136.113281 143.609375 127.808594 L 144.0625 127.742188 L 144.078125 129.398438 L 144.519531 130.875 C 117.554688 138.867188 106.84375 152.0625 106.738281 152.195312 Z M 106.738281 152.195312 "/>
<path style=" stroke:none;fill-rule:nonzero;fill:rgb(12.156863%,12.941177%,16.862746%);fill-opacity:1;" d="M 107.683594 196.195312 L 104.882812 194.644531 C 112.0625 181.671875 131.546875 158.910156 181.386719 152.238281 L 181.8125 155.410156 C 133.359375 161.894531 114.574219 183.742188 107.683594 196.195312 Z M 107.683594 196.195312 "/>
<path style=" stroke:none;fill-rule:nonzero;fill:rgb(12.156863%,12.941177%,16.862746%);fill-opacity:1;" d="M 293.832031 194.015625 C 250.539062 185.390625 212.523438 172.34375 180.839844 155.230469 C 166.992188 147.773438 154.433594 139.59375 143.503906 130.914062 L 143.070312 130.59375 C 135.242188 124.398438 128.191406 117.925781 122.121094 111.355469 L 124.46875 109.179688 C 130.316406 115.511719 137.09375 121.75 144.621094 127.738281 L 144.625 127.738281 L 145.089844 128.085938 C 155.964844 136.765625 168.503906 144.945312 182.359375 152.40625 C 213.765625 169.371094 251.480469 182.308594 294.453125 190.875 Z M 293.832031 194.015625 "/>
<path style=" stroke:none;fill-rule:nonzero;fill:rgb(12.156863%,12.941177%,16.862746%);fill-opacity:1;" d="M 228.496094 174.523438 C 216.363281 175.011719 210.113281 177.773438 209.835938 177.902344 L 212.546875 183.703125 C 212.609375 183.671875 219.054688 180.800781 232 180.800781 C 244.945312 180.800781 251.390625 183.671875 251.453125 183.703125 L 252.148438 182.207031 C 243.8125 179.769531 235.945312 177.195312 228.496094 174.523438 Z M 228.496094 174.523438 "/>
<path style=" stroke:none;fill-rule:nonzero;fill:rgb(12.156863%,12.941177%,16.862746%);fill-opacity:1;" d="M 190.675781 123.617188 L 190.414062 120.425781 C 233.425781 116.890625 256.269531 90.546875 256.492188 90.28125 L 258.933594 92.347656 C 258.703125 92.625 235.070312 119.964844 190.675781 123.617188 Z M 190.675781 123.617188 "/>
<path style=" stroke:none;fill-rule:nonzero;fill:rgb(12.156863%,12.941177%,16.862746%);fill-opacity:1;" d="M 154.359375 97.503906 L 154.179688 94.308594 C 205.949219 91.425781 225.8125 74.84375 226.003906 74.675781 L 228.097656 77.09375 C 227.277344 77.808594 207.375 94.550781 154.359375 97.503906 Z M 154.359375 97.503906 "/>
<path style=" stroke:none;fill-rule:nonzero;fill:rgb(12.156863%,12.941177%,16.862746%);fill-opacity:1;" d="M 200 331.199219 C 154.097656 331.199219 120 284.644531 120 270.398438 C 120 254.664062 115.953125 241.949219 111.667969 228.488281 C 108.433594 218.320312 105.085938 207.808594 102.953125 194.921875 C 101.503906 186.042969 100.800781 177.242188 100.800781 168 C 100.800781 161.035156 101.53125 154.09375 102.980469 147.355469 C 102.992188 147.292969 103 147.230469 103.015625 147.175781 C 106.015625 133.027344 111.976562 119.960938 120.746094 108.34375 C 123.707031 104.402344 127.035156 100.628906 130.636719 97.125 C 134.910156 92.914062 139.671875 89.035156 144.773438 85.597656 C 161.105469 74.609375 180.203125 68.800781 200 68.800781 C 210.964844 68.800781 221.71875 70.582031 231.953125 74.09375 C 244.1875 78.226562 255.363281 84.667969 265.148438 93.238281 C 273.515625 100.472656 280.539062 109.011719 286.011719 118.605469 C 293.355469 131.300781 297.671875 145.171875 298.839844 159.808594 C 299.078125 162.292969 299.199219 164.992188 299.199219 168 C 299.199219 176.789062 298.578125 184.949219 297.300781 192.949219 C 295.265625 205.886719 291.898438 216.238281 288.636719 226.253906 C 284.195312 239.894531 280 252.78125 280 270.398438 C 280 284.644531 245.902344 331.199219 200 331.199219 Z M 109.304688 148.351562 C 109.296875 148.417969 109.285156 148.488281 109.269531 148.550781 C 107.898438 154.894531 107.199219 161.4375 107.199219 168 C 107.199219 176.890625 107.875 185.355469 109.269531 193.886719 C 111.324219 206.308594 114.597656 216.59375 117.765625 226.546875 C 122.203125 240.496094 126.398438 253.671875 126.398438 270.398438 C 126.398438 281.40625 158.582031 324.800781 200 324.800781 C 241.417969 324.800781 273.601562 281.40625 273.601562 270.398438 C 273.601562 251.765625 277.945312 238.410156 282.550781 224.273438 C 285.734375 214.496094 289.023438 204.382812 290.980469 191.949219 C 292.203125 184.277344 292.800781 176.449219 292.800781 168 C 292.800781 165.199219 292.691406 162.707031 292.464844 160.375 C 291.367188 146.640625 287.332031 133.675781 280.460938 121.796875 C 275.339844 112.820312 268.78125 104.839844 260.945312 98.070312 C 251.78125 90.042969 241.335938 84.019531 229.886719 80.152344 C 220.308594 76.863281 210.257812 75.199219 200 75.199219 C 181.480469 75.199219 163.621094 80.632812 148.34375 90.910156 C 143.570312 94.125 139.117188 97.757812 135.109375 101.707031 C 131.730469 104.992188 128.625 108.515625 125.855469 112.199219 C 117.6875 123.019531 112.121094 135.1875 109.304688 148.351562 Z M 109.304688 148.351562 "/>
<path style=" stroke:none;fill-rule:nonzero;fill:rgb(12.156863%,12.941177%,16.862746%);fill-opacity:1;" d="M 275.78125 276.800781 C 272.230469 276.796875 268.847656 276.777344 265.566406 276.710938 C 264.683594 276.691406 263.984375 275.960938 264 275.078125 C 264.019531 274.195312 264.824219 273.53125 265.632812 273.511719 C 268.894531 273.578125 272.253906 273.597656 275.78125 273.601562 C 276.664062 273.601562 277.382812 274.316406 277.382812 275.199219 C 277.382812 276.082031 276.664062 276.800781 275.78125 276.800781 Z M 275.78125 276.800781 "/>
<path style=" stroke:none;fill-rule:nonzero;fill:rgb(12.156863%,12.941177%,16.862746%);fill-opacity:1;" d="M 230.398438 270.90625 C 230.203125 270.90625 230.007812 270.871094 229.8125 270.792969 C 224.878906 268.847656 220.109375 266.378906 215.230469 263.25 C 211.304688 260.730469 206.417969 257.589844 199.992188 257.589844 C 197.441406 257.589844 194.664062 258.308594 190.824219 259.300781 C 183.59375 261.175781 172.664062 264 153.601562 264 C 142.28125 264 131.992188 263.15625 123 261.488281 C 122.132812 261.328125 121.558594 260.488281 121.722656 259.621094 C 121.886719 258.753906 122.710938 258.164062 123.585938 258.34375 C 132.378906 259.972656 142.476562 260.800781 153.601562 260.800781 C 172.257812 260.800781 182.523438 258.144531 190.023438 256.203125 C 193.9375 255.195312 197.03125 254.394531 199.992188 254.394531 C 207.355469 254.394531 212.679688 257.8125 216.960938 260.558594 C 221.660156 263.578125 226.246094 265.953125 230.984375 267.816406 C 231.808594 268.144531 232.210938 269.070312 231.886719 269.890625 C 231.640625 270.523438 231.035156 270.90625 230.398438 270.90625 Z M 230.398438 270.90625 "/>
<path style=" stroke:none;fill-rule:nonzero;fill:rgb(12.156863%,12.941177%,16.862746%);fill-opacity:1;" d="M 249.601562 275.671875 C 249.53125 275.671875 249.464844 275.671875 249.398438 275.660156 C 245.953125 275.226562 242.753906 274.644531 239.621094 273.882812 C 238.761719 273.671875 238.234375 272.808594 238.441406 271.949219 C 238.648438 271.089844 239.519531 270.5625 240.375 270.769531 C 243.390625 271.503906 246.472656 272.0625 249.796875 272.488281 C 250.671875 272.597656 251.292969 273.398438 251.183594 274.273438 C 251.085938 275.085938 250.398438 275.671875 249.601562 275.671875 Z M 249.601562 275.671875 "/>
<path style=" stroke:none;fill-rule:nonzero;fill:rgb(12.156863%,12.941177%,16.862746%);fill-opacity:1;" d="M 259.199219 276.5 C 259.171875 276.5 259.144531 276.5 259.117188 276.5 C 258.027344 276.441406 256.949219 276.378906 255.886719 276.304688 C 255.003906 276.238281 254.34375 275.476562 254.402344 274.59375 C 254.46875 273.714844 255.21875 273.046875 256.113281 273.113281 C 257.160156 273.1875 258.214844 273.246094 259.28125 273.300781 C 260.164062 273.347656 260.839844 274.097656 260.796875 274.980469 C 260.753906 275.832031 260.046875 276.5 259.199219 276.5 Z M 259.199219 276.5 "/>
<path style=" stroke:none;fill-rule:nonzero;fill:rgb(12.156863%,12.941177%,16.862746%);fill-opacity:1;" d="M 166.398438 107.660156 C 166.0625 107.660156 165.71875 107.550781 165.425781 107.332031 C 160.238281 103.355469 155.457031 99.285156 151.214844 95.234375 C 149.089844 93.207031 147.132812 91.226562 145.386719 89.34375 C 144.785156 88.695312 144.824219 87.683594 145.46875 87.082031 C 146.117188 86.480469 147.128906 86.515625 147.730469 87.164062 C 149.433594 89 151.347656 90.933594 153.425781 92.921875 C 157.582031 96.894531 162.273438 100.886719 167.371094 104.789062 C 168.070312 105.324219 168.203125 106.328125 167.667969 107.03125 C 167.355469 107.445312 166.878906 107.660156 166.398438 107.660156 Z M 166.398438 107.660156 "/>
<path style=" stroke:none;fill-rule:nonzero;fill:rgb(12.156863%,12.941177%,16.862746%);fill-opacity:1;" d="M 179.199219 116.679688 C 178.898438 116.679688 178.597656 116.597656 178.328125 116.417969 C 176.078125 114.949219 173.917969 113.496094 171.878906 112.0625 C 171.15625 111.550781 170.980469 110.554688 171.492188 109.832031 C 172 109.105469 173 108.9375 173.722656 109.441406 C 175.726562 110.859375 177.855469 112.292969 180.074219 113.742188 C 180.8125 114.222656 181.019531 115.210938 180.539062 115.957031 C 180.234375 116.425781 179.722656 116.679688 179.199219 116.679688 Z M 179.199219 116.679688 "/>
<path style=" stroke:none;fill-rule:nonzero;fill:rgb(12.156863%,12.941177%,16.862746%);fill-opacity:1;" d="M 295.652344 161.664062 C 295.542969 161.664062 295.433594 161.65625 295.320312 161.628906 C 273.902344 157.136719 253.824219 151.425781 235.632812 144.664062 L 235.355469 144.574219 C 218.222656 138.253906 202.242188 130.761719 187.851562 122.304688 L 187.414062 122.082031 C 186.824219 121.738281 186.265625 121.390625 185.707031 121.050781 L 184.769531 120.476562 C 184.015625 120.019531 183.773438 119.035156 184.234375 118.277344 C 184.6875 117.523438 185.671875 117.28125 186.433594 117.742188 L 187.382812 118.324219 C 187.808594 118.585938 188.238281 118.847656 188.675781 119.113281 L 189.101562 119.328125 C 203.351562 127.734375 219.191406 135.1875 236.1875 141.476562 L 236.496094 141.574219 C 254.605469 148.324219 274.617188 154.019531 295.976562 158.503906 C 296.84375 158.683594 297.394531 159.53125 297.214844 160.398438 C 297.054688 161.144531 296.390625 161.664062 295.652344 161.664062 Z M 295.652344 161.664062 "/>
<path style=" stroke:none;fill-rule:nonzero;fill:rgb(12.156863%,12.941177%,16.862746%);fill-opacity:1;" d="M 256 134.613281 C 255.464844 134.613281 254.941406 134.34375 254.640625 133.859375 C 254.171875 133.105469 254.40625 132.121094 255.15625 131.65625 C 257.207031 130.382812 259.257812 128.953125 261.421875 127.285156 C 262.117188 126.746094 263.125 126.875 263.664062 127.578125 C 264.203125 128.277344 264.074219 129.28125 263.371094 129.820312 C 261.121094 131.554688 258.980469 133.046875 256.839844 134.378906 C 256.582031 134.539062 256.289062 134.613281 256 134.613281 Z M 256 134.613281 "/>
<path style=" stroke:none;fill-rule:nonzero;fill:rgb(12.156863%,12.941177%,16.862746%);fill-opacity:1;" d="M 268.800781 124.703125 C 268.375 124.703125 267.949219 124.535156 267.636719 124.203125 C 267.03125 123.558594 267.058594 122.542969 267.703125 121.9375 C 268.859375 120.847656 269.890625 119.8125 270.839844 118.8125 C 271.453125 118.175781 272.464844 118.152344 273.105469 118.757812 C 273.742188 119.367188 273.765625 120.378906 273.160156 121.019531 C 272.167969 122.054688 271.097656 123.132812 269.898438 124.265625 C 269.585938 124.558594 269.195312 124.703125 268.800781 124.703125 Z M 268.800781 124.703125 "/>
<path style=" stroke:none;fill-rule:nonzero;fill:rgb(12.156863%,12.941177%,16.862746%);fill-opacity:1;" d="M 232.839844 143.527344 C 232.066406 143.527344 231.386719 142.964844 231.261719 142.183594 C 231.121094 141.3125 231.710938 140.488281 232.585938 140.347656 C 238.082031 139.460938 243.417969 137.734375 248.902344 135.070312 C 249.707031 134.683594 250.660156 135.019531 251.039062 135.808594 C 251.425781 136.605469 251.09375 137.5625 250.300781 137.945312 C 244.613281 140.710938 238.824219 142.578125 233.09375 143.507812 C 233.007812 143.519531 232.921875 143.527344 232.839844 143.527344 Z M 232.839844 143.527344 "/>
</g>
</svg>
