<?xml version="1.0" encoding="UTF-8"?>
<svg xmlns="http://www.w3.org/2000/svg" xmlns:xlink="http://www.w3.org/1999/xlink" viewBox="0 0 400 400" width="400px" height="400px">
<g id="surface29770933">
<path style=" stroke:none;fill-rule:nonzero;fill:rgb(0%,0%,0%);fill-opacity:1;" d="M 0 400 L 0 0 L 400 0 L 400 400 Z M 392 392 L 392 8 L 8 8 L 8 392 Z M 392 392 "/>
<path style=" stroke:none;fill-rule:nonzero;fill:rgb(99.607843%,83.529413%,70.19608%);fill-opacity:1;" d="M 129.601562 236.359375 C 129.601562 249.613281 118.855469 260.359375 105.601562 260.359375 C 92.34375 260.359375 81.601562 249.613281 81.601562 236.359375 C 81.601562 223.105469 92.34375 212.359375 105.601562 212.359375 C 118.855469 212.359375 129.601562 223.105469 129.601562 236.359375 Z M 129.601562 236.359375 "/>
<path style=" stroke:none;fill-rule:nonzero;fill:rgb(0%,0%,0%);fill-opacity:1;" d="M 105.601562 263.558594 C 90.601562 263.558594 78.398438 251.359375 78.398438 236.359375 C 78.398438 221.359375 90.601562 209.160156 105.601562 209.160156 C 120.597656 209.160156 132.800781 221.359375 132.800781 236.359375 C 132.800781 251.359375 120.597656 263.558594 105.601562 263.558594 Z M 105.601562 215.558594 C 94.132812 215.558594 84.800781 224.890625 84.800781 236.359375 C 84.800781 247.828125 94.132812 257.160156 105.601562 257.160156 C 117.070312 257.160156 126.398438 247.828125 126.398438 236.359375 C 126.398438 224.890625 117.070312 215.558594 105.601562 215.558594 Z M 105.601562 215.558594 "/>
<path style=" stroke:none;fill-rule:nonzero;fill:rgb(99.607843%,83.529413%,70.19608%);fill-opacity:1;" d="M 318.398438 239.558594 C 318.398438 252.816406 307.65625 263.558594 294.398438 263.558594 C 281.144531 263.558594 270.398438 252.816406 270.398438 239.558594 C 270.398438 226.304688 281.144531 215.558594 294.398438 215.558594 C 307.65625 215.558594 318.398438 226.304688 318.398438 239.558594 Z M 318.398438 239.558594 "/>
<path style=" stroke:none;fill-rule:nonzero;fill:rgb(0%,0%,0%);fill-opacity:1;" d="M 294.398438 266.757812 C 279.402344 266.757812 267.199219 254.558594 267.199219 239.558594 C 267.199219 224.5625 279.402344 212.359375 294.398438 212.359375 C 309.398438 212.359375 321.601562 224.5625 321.601562 239.558594 C 321.601562 254.558594 309.398438 266.757812 294.398438 266.757812 Z M 294.398438 218.757812 C 282.929688 218.757812 273.601562 228.089844 273.601562 239.558594 C 273.601562 251.027344 282.929688 260.359375 294.398438 260.359375 C 305.867188 260.359375 315.199219 251.027344 315.199219 239.558594 C 315.199219 228.089844 305.867188 218.757812 294.398438 218.757812 Z M 294.398438 218.757812 "/>
<path style=" stroke:none;fill-rule:nonzero;fill:rgb(71.764708%,46.666667%,28.235295%);fill-opacity:1;" d="M 308.800781 196.359375 C 293.988281 244.5 260.089844 257.160156 200 257.160156 C 139.910156 257.160156 98.929688 239.128906 88 189.960938 C 81.601562 161.160156 103.171875 134.015625 110.398438 119.558594 C 126.398438 87.558594 159.691406 77.859375 200 74.757812 C 241.601562 71.558594 273.644531 92.179688 292.78125 118.300781 C 302.941406 132.171875 315.199219 175.558594 308.800781 196.359375 Z M 308.800781 196.359375 "/>
<path style=" stroke:none;fill-rule:nonzero;fill:rgb(0%,0%,0%);fill-opacity:1;" d="M 200 260.359375 C 132.957031 260.359375 95.300781 237.558594 84.875 190.652344 C 79.425781 166.128906 93.140625 142.914062 102.21875 127.546875 C 104.355469 123.925781 106.203125 120.792969 107.539062 118.128906 C 125.621094 81.960938 164.304688 74.296875 199.757812 71.570312 C 237.539062 68.652344 272.363281 85.011719 295.363281 116.410156 C 306.34375 131.398438 318.59375 175.40625 311.859375 197.300781 C 295.699219 249.808594 257.078125 260.359375 200 260.359375 Z M 208.285156 77.640625 C 205.621094 77.640625 202.945312 77.742188 200.246094 77.949219 C 152.523438 81.621094 126.511719 94.492188 113.265625 120.988281 C 111.832031 123.855469 109.929688 127.074219 107.730469 130.800781 C 98.65625 146.164062 86.222656 167.207031 91.125 189.265625 C 100.933594 233.402344 135.53125 253.960938 200 253.960938 C 264.769531 253.960938 292.445312 238.640625 305.742188 195.417969 C 311.664062 176.175781 300.207031 133.851562 290.203125 120.191406 C 270.183594 92.863281 240.664062 77.640625 208.285156 77.640625 Z M 208.285156 77.640625 "/>
<path style=" stroke:none;fill-rule:nonzero;fill:rgb(99.607843%,83.529413%,70.19608%);fill-opacity:1;" d="M 302.398438 218.855469 C 302.398438 277.179688 258.320312 321.160156 200 321.160156 C 141.679688 321.160156 97.601562 273.878906 97.601562 215.558594 C 97.601562 157.238281 141.679688 109.960938 200 109.960938 C 258.320312 109.960938 302.398438 160.535156 302.398438 218.855469 Z M 302.398438 218.855469 "/>
<path style=" stroke:none;fill-rule:nonzero;fill:rgb(0%,0%,0%);fill-opacity:1;" d="M 200 324.359375 C 140.785156 324.359375 94.398438 276.566406 94.398438 215.558594 C 94.398438 154.550781 140.785156 106.757812 200 106.757812 C 258.226562 106.757812 305.601562 157.042969 305.601562 218.855469 C 305.601562 279.003906 260.203125 324.359375 200 324.359375 Z M 200 113.160156 C 144.375 113.160156 100.800781 158.140625 100.800781 215.558594 C 100.800781 272.980469 144.375 317.960938 200 317.960938 C 256.554688 317.960938 299.199219 275.355469 299.199219 218.855469 C 299.199219 160.574219 254.699219 113.160156 200 113.160156 Z M 200 113.160156 "/>
<path style=" stroke:none;fill-rule:nonzero;fill:rgb(100%,100%,100%);fill-opacity:1;" d="M 121.714844 191.546875 C 121.691406 192.085938 121.601562 192.613281 121.601562 193.160156 C 121.601562 211.714844 136.644531 226.757812 155.199219 226.757812 C 173.757812 226.757812 188.800781 211.714844 188.800781 193.160156 C 188.800781 191.78125 188.675781 190.4375 188.507812 189.101562 C 166.363281 185.324219 144.097656 186.171875 121.714844 191.546875 Z M 121.714844 191.546875 "/>
<path style=" stroke:none;fill-rule:nonzero;fill:rgb(0%,0%,0%);fill-opacity:1;" d="M 155.199219 228.359375 C 135.792969 228.359375 120 212.566406 120 193.160156 C 120 192.785156 120.03125 192.421875 120.066406 192.050781 L 120.113281 191.46875 C 120.152344 190.757812 120.648438 190.15625 121.339844 189.988281 C 143.902344 184.574219 166.59375 183.738281 188.777344 187.519531 C 189.476562 187.640625 190.011719 188.203125 190.097656 188.902344 C 190.238281 190.054688 190.398438 191.578125 190.398438 193.160156 C 190.398438 212.566406 174.609375 228.359375 155.199219 228.359375 Z M 123.210938 192.835938 C 123.203125 192.945312 123.199219 193.050781 123.199219 193.160156 C 123.199219 210.804688 137.554688 225.160156 155.199219 225.160156 C 172.84375 225.160156 187.199219 210.804688 187.199219 193.160156 C 187.199219 192.226562 187.136719 191.308594 187.054688 190.480469 C 166.035156 187.058594 144.574219 187.851562 123.210938 192.835938 Z M 123.210938 192.835938 "/>
<path style=" stroke:none;fill-rule:nonzero;fill:rgb(100%,100%,100%);fill-opacity:1;" d="M 211.253906 192.410156 C 211.246094 192.664062 211.199219 192.90625 211.199219 193.160156 C 211.199219 211.714844 226.242188 226.757812 244.800781 226.757812 C 263.355469 226.757812 278.398438 211.714844 278.398438 193.160156 C 278.398438 191.601562 278.28125 190.074219 278.074219 188.574219 C 255.921875 185.261719 233.648438 186.5625 211.253906 192.410156 Z M 211.253906 192.410156 "/>
<path style=" stroke:none;fill-rule:nonzero;fill:rgb(0%,0%,0%);fill-opacity:1;" d="M 244.800781 228.359375 C 225.390625 228.359375 209.601562 212.566406 209.601562 193.160156 C 209.601562 192.96875 209.617188 192.78125 209.636719 192.597656 C 209.65625 191.882812 210.160156 191.042969 210.851562 190.863281 C 233.398438 184.976562 256.085938 183.671875 278.308594 186.988281 C 279.011719 187.09375 279.5625 187.648438 279.65625 188.351562 C 279.886719 189.984375 280 191.605469 280 193.160156 C 280 212.566406 264.207031 228.359375 244.800781 228.359375 Z M 212.824219 193.660156 C 213.195312 211.199219 227.402344 225.160156 244.800781 225.160156 C 262.445312 225.160156 276.800781 210.804688 276.800781 193.160156 C 276.800781 192.125 276.742188 191.058594 276.628906 189.980469 C 255.609375 187 234.160156 188.238281 212.824219 193.660156 Z M 212.824219 193.660156 "/>
<path style=" stroke:none;fill-rule:nonzero;fill:rgb(0%,0%,0%);fill-opacity:1;" d="M 206.203125 245.890625 C 197.058594 245.890625 188.007812 234.738281 187.546875 234.160156 C 187 233.46875 187.109375 232.464844 187.796875 231.910156 C 188.492188 231.359375 189.496094 231.472656 190.046875 232.160156 C 190.167969 232.3125 202.039062 246.941406 210.3125 241.429688 C 211.726562 240.488281 212.488281 239.277344 212.640625 237.730469 C 213.175781 232.304688 206.347656 224.171875 203.671875 221.492188 C 203.046875 220.867188 203.046875 219.855469 203.671875 219.230469 C 204.292969 218.605469 205.308594 218.605469 205.933594 219.230469 C 206.371094 219.667969 216.617188 230.015625 215.824219 238.046875 C 215.574219 240.574219 214.316406 242.609375 212.089844 244.09375 C 210.183594 245.359375 208.191406 245.890625 206.203125 245.890625 Z M 206.203125 245.890625 "/>
<path style=" stroke:none;fill-rule:nonzero;fill:rgb(99.607843%,83.529413%,70.19608%);fill-opacity:1;" d="M 137.742188 164.453125 C 128.414062 170.152344 122.082031 180.285156 121.660156 191.925781 C 144.089844 186.035156 166.394531 185.144531 188.570312 189.363281 C 187.472656 179.59375 182.1875 171.089844 174.550781 165.695312 "/>
<path style=" stroke:none;fill-rule:nonzero;fill:rgb(99.607843%,83.529413%,70.19608%);fill-opacity:1;" d="M 224.121094 166.679688 C 221.375 168.828125 218.972656 171.398438 217.007812 174.289062 C 215.640625 176.300781 214.488281 178.472656 213.574219 180.761719 C 212.09375 184.496094 211.261719 188.5625 211.214844 192.8125 C 233.632812 186.445312 255.921875 185.078125 278.082031 188.789062 C 276.863281 179.425781 271.800781 171.269531 264.523438 165.96875 "/>
<path style=" stroke:none;fill-rule:nonzero;fill:rgb(0%,0%,0%);fill-opacity:1;" d="M 137.601562 151.558594 C 137.054688 151.558594 136.527344 151.285156 136.226562 150.78125 C 135.773438 150.023438 136.019531 149.042969 136.773438 148.585938 C 137.449219 148.179688 153.632812 138.707031 176.4375 145.21875 C 177.289062 145.464844 177.777344 146.351562 177.539062 147.199219 C 177.296875 148.050781 176.402344 148.527344 175.5625 148.296875 C 154.078125 142.15625 138.574219 151.238281 138.425781 151.332031 C 138.167969 151.484375 137.882812 151.558594 137.601562 151.558594 Z M 137.601562 151.558594 "/>
<path style=" stroke:none;fill-rule:nonzero;fill:rgb(91.764706%,83.92157%,78.039217%);fill-opacity:1;" d="M 172.800781 277.960938 C 172.800781 277.960938 204.664062 267.414062 233.601562 277.960938 "/>
<path style=" stroke:none;fill-rule:nonzero;fill:rgb(0%,0%,0%);fill-opacity:1;" d="M 233.601562 279.558594 C 233.417969 279.558594 233.234375 279.527344 233.054688 279.464844 C 204.988281 269.238281 173.617188 279.378906 173.300781 279.480469 C 172.46875 279.757812 171.558594 279.300781 171.28125 278.464844 C 171.003906 277.625 171.460938 276.722656 172.296875 276.441406 C 173.621094 276.003906 205.023438 265.839844 234.148438 276.457031 C 234.980469 276.761719 235.40625 277.679688 235.105469 278.511719 C 234.867188 279.15625 234.253906 279.558594 233.601562 279.558594 Z M 233.601562 279.558594 "/>
<path style=" stroke:none;fill-rule:nonzero;fill:rgb(0%,0%,0%);fill-opacity:1;" d="M 262.398438 151.558594 C 262.160156 151.558594 261.917969 151.503906 261.683594 151.390625 C 243.25 142.175781 221.457031 148.234375 221.238281 148.296875 C 220.371094 148.539062 219.5 148.046875 219.261719 147.199219 C 219.019531 146.351562 219.507812 145.464844 220.359375 145.21875 C 221.300781 144.953125 243.582031 138.761719 263.113281 148.527344 C 263.902344 148.925781 264.222656 149.886719 263.832031 150.675781 C 263.546875 151.238281 262.984375 151.558594 262.398438 151.558594 Z M 262.398438 151.558594 "/>
<path style=" stroke:none;fill-rule:nonzero;fill:rgb(0%,0%,0%);fill-opacity:1;" d="M 158.398438 191.558594 C 158.398438 194.210938 156.25 196.359375 153.601562 196.359375 C 150.949219 196.359375 148.800781 194.210938 148.800781 191.558594 C 148.800781 188.910156 150.949219 186.757812 153.601562 186.757812 C 156.25 186.757812 158.398438 188.910156 158.398438 191.558594 Z M 158.398438 191.558594 "/>
<path style=" stroke:none;fill-rule:nonzero;fill:rgb(0%,0%,0%);fill-opacity:1;" d="M 251.199219 191.558594 C 251.199219 194.210938 249.050781 196.359375 246.398438 196.359375 C 243.75 196.359375 241.601562 194.210938 241.601562 191.558594 C 241.601562 188.910156 243.75 186.757812 246.398438 186.757812 C 249.050781 186.757812 251.199219 188.910156 251.199219 191.558594 Z M 251.199219 191.558594 "/>
<path style=" stroke:none;fill-rule:nonzero;fill:rgb(0%,0%,0%);fill-opacity:1;" d="M 121.664062 193.53125 C 121.304688 193.53125 120.949219 193.410156 120.664062 193.179688 C 120.265625 192.863281 120.042969 192.378906 120.0625 191.875 C 120.269531 186.15625 121.886719 180.527344 124.730469 175.589844 C 125.167969 174.824219 126.148438 174.5625 126.914062 175 C 127.683594 175.4375 127.945312 176.417969 127.503906 177.183594 C 125.277344 181.050781 123.882812 185.386719 123.414062 189.835938 C 144.585938 184.570312 165.84375 183.757812 186.664062 187.394531 C 185.171875 179.203125 180.503906 171.859375 173.632812 167.003906 C 172.910156 166.492188 172.738281 165.496094 173.246094 164.773438 C 173.757812 164.050781 174.757812 163.878906 175.476562 164.386719 C 183.691406 170.191406 189.042969 179.234375 190.164062 189.1875 C 190.222656 189.695312 190.03125 190.191406 189.660156 190.539062 C 189.289062 190.882812 188.761719 191.03125 188.273438 190.9375 C 166.511719 186.800781 144.238281 187.65625 122.070312 193.476562 C 121.933594 193.511719 121.796875 193.53125 121.664062 193.53125 Z M 121.664062 193.53125 "/>
<path style=" stroke:none;fill-rule:nonzero;fill:rgb(0%,0%,0%);fill-opacity:1;" d="M 131.8125 170.65625 C 131.398438 170.65625 130.980469 170.492188 130.667969 170.175781 C 130.054688 169.539062 130.066406 168.527344 130.699219 167.910156 C 132.582031 166.078125 134.671875 164.457031 136.910156 163.089844 C 137.664062 162.628906 138.648438 162.863281 139.109375 163.621094 C 139.570312 164.375 139.335938 165.359375 138.578125 165.820312 C 136.542969 167.0625 134.644531 168.539062 132.929688 170.207031 C 132.621094 170.507812 132.21875 170.65625 131.8125 170.65625 Z M 131.8125 170.65625 "/>
<path style=" stroke:none;fill-rule:nonzero;fill:rgb(0%,0%,0%);fill-opacity:1;" d="M 211.21875 194.417969 C 210.875 194.417969 210.53125 194.304688 210.246094 194.085938 C 209.847656 193.78125 209.613281 193.304688 209.621094 192.800781 C 209.660156 188.582031 210.441406 184.460938 211.941406 180.546875 C 212.257812 179.726562 213.191406 179.316406 214.007812 179.625 C 214.835938 179.945312 215.246094 180.867188 214.929688 181.695312 C 213.824219 184.582031 213.144531 187.597656 212.910156 190.6875 C 234.054688 184.976562 255.300781 183.6875 276.148438 186.859375 C 274.578125 179.046875 270.078125 171.992188 263.585938 167.261719 C 262.871094 166.742188 262.71875 165.738281 263.234375 165.023438 C 263.753906 164.308594 264.757812 164.15625 265.46875 164.671875 C 273.261719 170.347656 278.433594 179.058594 279.671875 188.582031 C 279.742188 189.082031 279.5625 189.585938 279.195312 189.9375 C 278.832031 190.289062 278.332031 190.441406 277.820312 190.363281 C 256.054688 186.714844 233.796875 188.054688 211.65625 194.351562 C 211.511719 194.394531 211.367188 194.417969 211.21875 194.417969 Z M 211.21875 194.417969 "/>
<path style=" stroke:none;fill-rule:nonzero;fill:rgb(0%,0%,0%);fill-opacity:1;" d="M 217.371094 175.363281 C 217.050781 175.363281 216.730469 175.269531 216.449219 175.070312 C 215.726562 174.5625 215.558594 173.5625 216.066406 172.839844 C 218.046875 170.039062 220.425781 167.542969 223.136719 165.417969 C 223.832031 164.875 224.835938 164.996094 225.382812 165.691406 C 225.925781 166.386719 225.804688 167.394531 225.109375 167.9375 C 222.644531 169.871094 220.480469 172.140625 218.679688 174.6875 C 218.363281 175.128906 217.871094 175.363281 217.371094 175.363281 Z M 217.371094 175.363281 "/>
</g>
</svg>
