<?xml version="1.0" encoding="UTF-8"?>
<svg xmlns="http://www.w3.org/2000/svg" xmlns:xlink="http://www.w3.org/1999/xlink" viewBox="0 0 400 400" width="400px" height="400px">
<g id="surface29771591">
<path style=" stroke:none;fill-rule:nonzero;fill:rgb(0%,0%,0%);fill-opacity:1;" d="M 0 400 L 0 0 L 400 0 L 400 400 Z M 392 392 L 392 8 L 8 8 L 8 392 Z M 392 392 "/>
<path style=" stroke:none;fill-rule:nonzero;fill:rgb(63.529414%,70.588237%,80.000001%);fill-opacity:1;" d="M 224.792969 80.972656 C 222.757812 83.097656 216.304688 88 200 88 C 181.128906 88 175.445312 81.4375 174.550781 80.214844 C 145.613281 88.722656 124.800781 110.664062 124.800781 138.398438 C 124.800781 141.90625 124.800781 149.726562 124.800781 155.199219 L 124.675781 156.839844 C 124.800781 156.800781 124.800781 156.800781 124.800781 156.800781 C 124.800781 156.800781 137.601562 163.199219 176 163.199219 C 222.398438 163.199219 233.601562 156.800781 233.601562 156.800781 C 233.601562 156.800781 252.800781 166.398438 252.800781 182.398438 C 252.800781 188.300781 252.800781 195.199219 252.800781 211.199219 C 252.800781 231.535156 230.398438 240 204.800781 240 C 195.605469 240 145.757812 240 118.398438 240 L 118.398438 251.199219 C 118.398438 251.199219 122.070312 255.640625 139.199219 257.902344 L 139.199219 297.601562 L 137.601562 297.601562 C 128 297.601562 124.800781 302.398438 124.800781 305.601562 C 124.800781 308.800781 124.800781 320 124.800781 320 C 124.800781 320 124.800781 336 186.949219 336 C 265.460938 336 275.199219 308.800781 275.199219 308.800781 C 275.199219 308.800781 275.199219 173.304688 275.199219 138.398438 C 275.199219 111.480469 254.488281 84.925781 224.792969 80.972656 Z M 224.792969 80.972656 "/>
<path style=" stroke:none;fill-rule:nonzero;fill:rgb(77.64706%,87.450981%,94.509804%);fill-opacity:1;" d="M 204.800781 240 C 192 240 100.398438 240 100.398438 240 C 87.367188 240 76.800781 229.433594 76.800781 216.398438 L 76.800781 186.332031 C 76.800781 172.800781 92.238281 167.65625 105.601562 163.199219 C 124.800781 156.800781 124.800781 156.800781 124.800781 156.800781 C 124.800781 156.800781 137.601562 163.199219 176 163.199219 C 222.398438 163.199219 233.601562 156.800781 233.601562 156.800781 C 233.601562 156.800781 252.800781 166.398438 252.800781 182.398438 C 252.800781 188.300781 252.800781 195.199219 252.800781 211.199219 C 252.800781 231.535156 230.398438 240 204.800781 240 Z M 204.800781 240 "/>
<path style=" stroke:none;fill-rule:nonzero;fill:rgb(63.529414%,70.588237%,80.000001%);fill-opacity:1;" d="M 211.050781 65.324219 L 211.128906 65.195312 L 209.601562 46.398438 L 209.601562 44.800781 L 190.398438 44.800781 L 190.328125 46.398438 L 188.800781 65.195312 C 191.402344 67.320312 193.683594 68.800781 200 68.800781 C 206.1875 68.800781 208.882812 67.382812 211.050781 65.324219 Z M 211.050781 65.324219 "/>
<path style=" stroke:none;fill-rule:nonzero;fill:rgb(26.666668%,26.666668%,27.058825%);fill-opacity:1;" d="M 200 177.601562 L 104 177.601562 C 95.164062 177.601562 88 184.765625 88 193.601562 L 88 212.800781 C 88 221.636719 95.164062 228.800781 104 228.800781 L 206.398438 228.800781 C 215.234375 228.800781 222.398438 221.636719 222.398438 212.800781 L 222.398438 200 C 222.398438 187.628906 212.371094 177.601562 200 177.601562 Z M 200 177.601562 "/>
<path style=" stroke:none;fill-rule:nonzero;fill:rgb(99.607843%,96.470588%,66.666669%);fill-opacity:1;" d="M 200 177.601562 L 188.613281 177.601562 C 174.8125 183.910156 162.886719 189.972656 162.140625 190.351562 C 159.796875 194.65625 158.398438 199.546875 158.398438 204.800781 C 158.398438 214.570312 163.027344 223.238281 170.1875 228.800781 L 206.398438 228.800781 C 215.234375 228.800781 222.398438 221.636719 222.398438 212.800781 L 222.398438 200 C 222.398438 187.628906 212.371094 177.601562 200 177.601562 Z M 200 177.601562 "/>
<path style=" stroke:none;fill-rule:nonzero;fill:rgb(99.607843%,96.470588%,66.666669%);fill-opacity:1;" d="M 256 280 C 256 252.800781 241.601562 252.800781 235.199219 252.800781 C 228.800781 252.800781 203.199219 259.199219 161.601562 259.199219 C 152.328125 259.199219 144.996094 258.691406 139.199219 257.933594 L 139.199219 310.238281 C 144.949219 312.539062 158.585938 316.800781 180.800781 316.800781 C 259.199219 316.800781 256 299.199219 256 280 Z M 256 280 "/>
<path style=" stroke:none;fill-rule:nonzero;fill:rgb(99.607843%,96.470588%,66.666669%);fill-opacity:1;" d="M 162.160156 190.34375 C 162.125 190.363281 162.042969 190.398438 162.042969 190.398438 C 154.960938 184.308594 147.847656 180.152344 142.089844 177.601562 L 124.078125 177.601562 C 114.085938 182.578125 107.199219 192.875 107.199219 204.800781 C 107.199219 214.570312 111.828125 223.238281 118.988281 228.800781 L 156.167969 228.800781 C 158.917969 226.664062 161.316406 224.09375 163.203125 221.148438 C 160.167969 216.429688 158.398438 210.828125 158.398438 204.800781 C 158.398438 199.542969 159.808594 194.644531 162.160156 190.34375 Z M 162.160156 190.34375 "/>
<path style=" stroke:none;fill-rule:nonzero;fill:rgb(77.64706%,87.450981%,94.509804%);fill-opacity:1;" d="M 200 88 C 220.800781 88 225.601562 80 225.601562 80 C 225.601562 80 224 67.199219 211.707031 64.679688 C 209.40625 67.085938 206.824219 68.800781 200 68.800781 C 193.683594 68.800781 191.402344 67.320312 188.800781 65.195312 C 180.800781 65.601562 174.398438 77.132812 174.398438 80 C 174.398438 80 179.199219 88 200 88 Z M 200 88 "/>
<path style=" stroke:none;fill-rule:nonzero;fill:rgb(12.156863%,12.941177%,16.862746%);fill-opacity:1;" d="M 145.601562 211.199219 L 136 211.199219 C 135.117188 211.199219 134.398438 210.484375 134.398438 209.601562 L 134.398438 200 C 134.398438 199.117188 135.117188 198.398438 136 198.398438 L 145.601562 198.398438 C 146.484375 198.398438 147.199219 199.117188 147.199219 200 L 147.199219 209.601562 C 147.199219 210.484375 146.484375 211.199219 145.601562 211.199219 Z M 145.601562 211.199219 "/>
<path style=" stroke:none;fill-rule:nonzero;fill:rgb(12.156863%,12.941177%,16.862746%);fill-opacity:1;" d="M 212.800781 211.199219 L 203.199219 211.199219 C 202.316406 211.199219 201.601562 210.484375 201.601562 209.601562 L 201.601562 200 C 201.601562 199.117188 202.316406 198.398438 203.199219 198.398438 L 212.800781 198.398438 C 213.683594 198.398438 214.398438 199.117188 214.398438 200 L 214.398438 209.601562 C 214.398438 210.484375 213.683594 211.199219 212.800781 211.199219 Z M 212.800781 211.199219 "/>
<path style=" stroke:none;fill-rule:nonzero;fill:rgb(12.156863%,12.941177%,16.862746%);fill-opacity:1;" d="M 204.800781 243.199219 L 100.398438 243.199219 C 85.621094 243.199219 73.601562 231.175781 73.601562 216.398438 L 73.601562 186.332031 C 73.601562 170.488281 90.78125 164.765625 104.589844 160.164062 L 123.789062 153.761719 C 124.601562 153.496094 125.472656 153.5625 126.234375 153.9375 C 126.335938 153.992188 139.191406 160 176 160 C 220.257812 160 231.941406 154.058594 232.058594 153.996094 C 232.976562 153.511719 234.109375 153.476562 235.035156 153.9375 C 235.886719 154.363281 256 164.628906 256 182.398438 L 256 211.199219 C 256 230.9375 236.378906 243.199219 204.800781 243.199219 Z M 124.667969 160.21875 L 106.609375 166.238281 C 94.136719 170.394531 80 175.105469 80 186.332031 L 80 216.398438 C 80 227.648438 89.148438 236.800781 100.398438 236.800781 L 204.800781 236.800781 C 215.308594 236.800781 249.601562 234.953125 249.601562 211.199219 L 249.601562 182.398438 C 249.601562 170.804688 237.421875 162.707031 233.421875 160.359375 C 228.710938 162.15625 213.609375 166.398438 176 166.398438 C 143.480469 166.398438 128.84375 161.839844 124.667969 160.21875 Z M 124.667969 160.21875 "/>
<path style=" stroke:none;fill-rule:nonzero;fill:rgb(12.156863%,12.941177%,16.862746%);fill-opacity:1;" d="M 206.398438 230.398438 L 104 230.398438 C 94.296875 230.398438 86.398438 222.503906 86.398438 212.800781 L 86.398438 193.601562 C 86.398438 183.894531 94.296875 176 104 176 L 200 176 C 213.234375 176 224 186.765625 224 200 L 224 212.800781 C 224 222.503906 216.101562 230.398438 206.398438 230.398438 Z M 104 179.199219 C 96.0625 179.199219 89.601562 185.660156 89.601562 193.601562 L 89.601562 212.800781 C 89.601562 220.738281 96.0625 227.199219 104 227.199219 L 206.398438 227.199219 C 214.339844 227.199219 220.800781 220.738281 220.800781 212.800781 L 220.800781 200 C 220.800781 188.53125 211.46875 179.199219 200 179.199219 Z M 104 179.199219 "/>
<path style=" stroke:none;fill-rule:nonzero;fill:rgb(12.156863%,12.941177%,16.862746%);fill-opacity:1;" d="M 180.800781 320 C 149.925781 320 135.0625 311.9375 134.449219 311.597656 C 132.902344 310.738281 132.34375 308.789062 133.203125 307.246094 C 134.0625 305.703125 136.007812 305.140625 137.550781 306.003906 C 137.683594 306.074219 151.777344 313.601562 180.800781 313.601562 C 218.226562 313.601562 239.542969 309.691406 247.882812 301.300781 C 252.894531 296.253906 252.859375 289.738281 252.808594 282.195312 L 252.800781 280 C 252.800781 256 241.351562 256 235.199219 256 C 233.640625 256 230.167969 256.53125 225.777344 257.199219 C 213.875 259.015625 191.722656 262.398438 161.601562 262.398438 C 125.109375 262.398438 117.132812 254.734375 115.902344 253.199219 L 115.199219 252.324219 L 115.199219 240 C 115.199219 238.234375 116.628906 236.800781 118.398438 236.800781 C 120.167969 236.800781 121.601562 238.234375 121.601562 240 L 121.601562 249.710938 C 124.054688 251.292969 133.675781 256 161.601562 256 C 191.238281 256 213.074219 252.664062 224.804688 250.875 C 229.832031 250.105469 233.152344 249.601562 235.199219 249.601562 C 241.761719 249.601562 259.199219 249.601562 259.199219 280 L 259.210938 282.152344 C 259.265625 290.375 259.316406 298.875 252.417969 305.8125 C 242.667969 315.625 220.582031 320 180.800781 320 Z M 180.800781 320 "/>
<path style=" stroke:none;fill-rule:nonzero;fill:rgb(12.156863%,12.941177%,16.862746%);fill-opacity:1;" d="M 137.601562 259.199219 L 140.800781 259.199219 L 140.800781 310.398438 L 137.601562 310.398438 Z M 137.601562 259.199219 "/>
<path style=" stroke:none;fill-rule:nonzero;fill:rgb(12.156863%,12.941177%,16.862746%);fill-opacity:1;" d="M 158.398438 316.800781 C 157.515625 316.800781 156.800781 316.082031 156.800781 315.199219 L 156.800781 286.398438 C 156.800781 285.515625 157.515625 284.800781 158.398438 284.800781 C 159.285156 284.800781 160 285.515625 160 286.398438 L 160 315.199219 C 160 316.082031 159.285156 316.800781 158.398438 316.800781 Z M 158.398438 316.800781 "/>
<path style=" stroke:none;fill-rule:nonzero;fill:rgb(12.156863%,12.941177%,16.862746%);fill-opacity:1;" d="M 195.199219 259.199219 L 198.398438 259.199219 L 198.398438 316.800781 L 195.199219 316.800781 Z M 195.199219 259.199219 "/>
<path style=" stroke:none;fill-rule:nonzero;fill:rgb(12.156863%,12.941177%,16.862746%);fill-opacity:1;" d="M 235.199219 288 C 234.316406 288 233.601562 287.285156 233.601562 286.398438 L 233.601562 254.398438 C 233.601562 253.515625 234.316406 252.800781 235.199219 252.800781 C 236.082031 252.800781 236.800781 253.515625 236.800781 254.398438 L 236.800781 286.398438 C 236.800781 287.285156 236.082031 288 235.199219 288 Z M 235.199219 288 "/>
<path style=" stroke:none;fill-rule:nonzero;fill:rgb(12.156863%,12.941177%,16.862746%);fill-opacity:1;" d="M 145.601562 211.199219 L 136 211.199219 C 135.117188 211.199219 134.398438 210.484375 134.398438 209.601562 L 134.398438 200 C 134.398438 199.117188 135.117188 198.398438 136 198.398438 L 145.601562 198.398438 C 146.484375 198.398438 147.199219 199.117188 147.199219 200 L 147.199219 209.601562 C 147.199219 210.484375 146.484375 211.199219 145.601562 211.199219 Z M 145.601562 211.199219 "/>
<path style=" stroke:none;fill-rule:nonzero;fill:rgb(12.156863%,12.941177%,16.862746%);fill-opacity:1;" d="M 212.800781 211.199219 L 203.199219 211.199219 C 202.316406 211.199219 201.601562 210.484375 201.601562 209.601562 L 201.601562 200 C 201.601562 199.117188 202.316406 198.398438 203.199219 198.398438 L 212.800781 198.398438 C 213.683594 198.398438 214.398438 199.117188 214.398438 200 L 214.398438 209.601562 C 214.398438 210.484375 213.683594 211.199219 212.800781 211.199219 Z M 212.800781 211.199219 "/>
<path style=" stroke:none;fill-rule:nonzero;fill:rgb(12.156863%,12.941177%,16.862746%);fill-opacity:1;" d="M 156.71875 230.398438 L 118.441406 230.398438 L 118.007812 230.0625 C 110.121094 223.9375 105.601562 214.734375 105.601562 204.800781 C 105.601562 192.59375 112.410156 181.625 123.371094 176.167969 L 123.707031 176 L 142.742188 176.136719 C 147.445312 178.222656 154.582031 182.042969 162.261719 188.484375 L 165.972656 186.550781 L 163.566406 191.105469 C 161.199219 195.433594 160 200.039062 160 204.800781 C 160 210.296875 161.570312 215.652344 164.550781 220.285156 L 165.105469 221.148438 L 164.550781 222.011719 C 162.609375 225.050781 160.113281 227.761719 157.148438 230.0625 Z M 119.542969 227.199219 L 155.609375 227.199219 C 157.828125 225.410156 159.738281 223.371094 161.300781 221.117188 C 158.351562 216.179688 156.800781 210.558594 156.800781 204.800781 C 156.800781 199.960938 157.910156 195.273438 160.097656 190.84375 C 152.910156 184.835938 146.242188 181.222656 141.753906 179.199219 L 124.46875 179.199219 C 114.792969 184.167969 108.800781 193.941406 108.800781 204.800781 C 108.800781 213.554688 112.710938 221.691406 119.542969 227.199219 Z M 119.542969 227.199219 "/>
<path style=" stroke:none;fill-rule:nonzero;fill:rgb(12.156863%,12.941177%,16.862746%);fill-opacity:1;" d="M 206.398438 230.398438 L 169.640625 230.398438 L 169.207031 230.0625 C 161.320312 223.9375 156.800781 214.734375 156.800781 204.800781 C 156.800781 199.496094 158.125 194.375 160.734375 189.585938 L 160.972656 189.152344 L 161.414062 188.929688 C 162.710938 188.269531 174.480469 182.308594 187.949219 176.148438 L 188.613281 176 L 200 176 C 213.234375 176 224 186.765625 224 200 L 224 212.800781 C 224 222.503906 216.101562 230.398438 206.398438 230.398438 Z M 170.742188 227.199219 L 206.398438 227.199219 C 214.339844 227.199219 220.800781 220.738281 220.800781 212.800781 L 220.800781 200 C 220.800781 188.53125 211.46875 179.199219 200 179.199219 L 188.964844 179.199219 C 176.664062 184.832031 165.859375 190.261719 163.3125 191.546875 C 161.117188 195.738281 160 200.195312 160 204.800781 C 160 213.554688 163.910156 221.691406 170.742188 227.199219 Z M 170.742188 227.199219 "/>
<path style=" stroke:none;fill-rule:nonzero;fill:rgb(12.156863%,12.941177%,16.862746%);fill-opacity:1;" d="M 200 89.601562 C 178.539062 89.601562 173.246094 81.179688 173.027344 80.824219 L 172.800781 80.445312 L 172.800781 80 C 172.800781 76.179688 179.960938 64.042969 188.71875 63.601562 L 189.335938 63.566406 L 189.8125 63.957031 C 192.277344 65.972656 194.195312 67.199219 200 67.199219 C 206.546875 67.199219 208.652344 65.554688 210.554688 63.570312 L 211.164062 62.929688 L 212.03125 63.109375 C 225.292969 65.832031 227.167969 79.660156 227.1875 79.800781 L 227.253906 80.347656 L 226.96875 80.824219 C 226.753906 81.179688 221.460938 89.601562 200 89.601562 Z M 176.0625 79.542969 C 177.34375 81.015625 183.191406 86.398438 200 86.398438 C 216.652344 86.398438 222.542969 81.117188 223.90625 79.574219 C 223.4375 77.171875 221.160156 68.734375 212.214844 66.433594 C 209.625 68.898438 206.480469 70.398438 200 70.398438 C 193.601562 70.398438 190.875 68.890625 188.296875 66.847656 C 181.796875 67.683594 176.683594 76.832031 176.0625 79.542969 Z M 176.0625 79.542969 "/>
<path style=" stroke:none;fill-rule:nonzero;fill:rgb(12.156863%,12.941177%,16.862746%);fill-opacity:1;" d="M 174.398438 80 C 174.398438 79.683594 174.488281 79.246094 174.644531 78.738281 C 174.644531 78.726562 174.648438 78.71875 174.652344 78.703125 C 174.808594 78.1875 175.046875 77.589844 175.34375 76.941406 L 174.355469 77.011719 L 173.679688 77.132812 C 142.042969 86.421875 121.601562 110.472656 121.601562 138.398438 L 121.601562 155.199219 C 121.601562 156.964844 123.035156 158.398438 124.800781 158.398438 C 126.566406 158.398438 128 156.964844 128 155.199219 L 128 138.398438 C 128 113.476562 146.496094 91.910156 175.152344 83.371094 L 177.96875 83.171875 C 175.300781 81.480469 174.398438 80 174.398438 80 Z M 174.398438 80 "/>
<path style=" stroke:none;fill-rule:nonzero;fill:rgb(12.156863%,12.941177%,16.862746%);fill-opacity:1;" d="M 225.105469 77.785156 C 225.484375 79.117188 225.601562 80 225.601562 80 C 225.601562 80 224.460938 81.855469 220.984375 83.777344 L 224.1875 84.109375 C 251 87.585938 272 111.433594 272 138.398438 L 272 308.097656 C 270.304688 311.246094 256.0625 332.800781 186.949219 332.800781 C 131.957031 332.800781 128.042969 320 128 320 L 128 305.601562 C 128 304.265625 129.726562 300.800781 137.601562 300.800781 C 139.367188 300.800781 140.800781 299.367188 140.800781 297.601562 C 140.800781 295.832031 139.367188 294.398438 137.601562 294.398438 C 124.945312 294.398438 121.601562 301.726562 121.601562 305.601562 L 121.601562 320 C 121.601562 323.207031 124.75 339.199219 186.949219 339.199219 C 266.789062 339.199219 277.78125 311.074219 278.210938 309.878906 L 278.398438 309.355469 L 278.398438 138.398438 C 278.398438 108.339844 255.039062 81.757812 225.105469 77.785156 Z M 225.105469 77.785156 "/>
<path style=" stroke:none;fill-rule:nonzero;fill:rgb(12.156863%,12.941177%,16.862746%);fill-opacity:1;" d="M 188.804688 66.796875 C 188.757812 66.796875 188.71875 66.796875 188.671875 66.792969 C 187.792969 66.722656 187.136719 65.949219 187.207031 65.070312 L 188.734375 46.273438 C 188.804688 45.390625 189.589844 44.738281 190.457031 44.804688 C 191.335938 44.875 191.992188 45.652344 191.921875 46.53125 L 190.394531 65.328125 C 190.328125 66.164062 189.628906 66.796875 188.804688 66.796875 Z M 188.804688 66.796875 "/>
<path style=" stroke:none;fill-rule:nonzero;fill:rgb(12.156863%,12.941177%,16.862746%);fill-opacity:1;" d="M 211.125 66.796875 C 210.300781 66.796875 209.601562 66.164062 209.535156 65.328125 L 208.007812 46.53125 C 207.9375 45.652344 208.59375 44.875 209.472656 44.804688 C 210.320312 44.742188 211.125 45.390625 211.195312 46.273438 L 212.722656 65.070312 C 212.792969 65.949219 212.136719 66.722656 211.257812 66.792969 C 211.210938 66.796875 211.167969 66.796875 211.125 66.796875 Z M 211.125 66.796875 "/>
<path style=" stroke:none;fill-rule:nonzero;fill:rgb(12.156863%,12.941177%,16.862746%);fill-opacity:1;" d="M 158.398438 272 C 157.515625 272 156.800781 271.285156 156.800781 270.398438 L 156.800781 260.800781 C 156.800781 259.917969 157.515625 259.199219 158.398438 259.199219 C 159.285156 259.199219 160 259.917969 160 260.800781 L 160 270.398438 C 160 271.285156 159.285156 272 158.398438 272 Z M 158.398438 272 "/>
<path style=" stroke:none;fill-rule:nonzero;fill:rgb(12.156863%,12.941177%,16.862746%);fill-opacity:1;" d="M 172.800781 281.601562 C 146.9375 281.601562 138.542969 275.125 138.199219 274.851562 C 137.507812 274.296875 137.398438 273.292969 137.949219 272.601562 C 138.496094 271.917969 139.496094 271.800781 140.1875 272.34375 C 140.269531 272.402344 148.296875 278.398438 172.800781 278.398438 C 186.945312 278.398438 207.546875 277.777344 225.335938 274.804688 C 226.199219 274.648438 227.03125 275.246094 227.175781 276.121094 C 227.324219 276.996094 226.734375 277.816406 225.863281 277.964844 C 207.855469 280.96875 187.070312 281.601562 172.800781 281.601562 Z M 172.800781 281.601562 "/>
<path style=" stroke:none;fill-rule:nonzero;fill:rgb(12.156863%,12.941177%,16.862746%);fill-opacity:1;" d="M 174.535156 300.800781 C 174.488281 300.800781 174.445312 300.800781 174.398438 300.800781 C 152.753906 300.796875 139.09375 294.515625 138.523438 294.25 C 137.722656 293.875 137.378906 292.925781 137.75 292.125 C 138.121094 291.324219 139.074219 290.980469 139.878906 291.351562 C 140.011719 291.414062 153.515625 297.597656 174.398438 297.601562 C 174.445312 297.601562 174.488281 297.601562 174.535156 297.601562 C 185.03125 297.601562 200.667969 297.253906 215.828125 295.605469 C 216.714844 295.53125 217.496094 296.144531 217.589844 297.023438 C 217.6875 297.902344 217.050781 298.691406 216.171875 298.789062 C 200.871094 300.453125 185.109375 300.800781 174.535156 300.800781 Z M 174.535156 300.800781 "/>
<path style=" stroke:none;fill-rule:nonzero;fill:rgb(12.156863%,12.941177%,16.862746%);fill-opacity:1;" d="M 235.199219 295.800781 C 234.464844 295.800781 233.796875 295.289062 233.636719 294.539062 C 233.449219 293.675781 233.996094 292.824219 234.859375 292.636719 C 243.957031 290.652344 250.761719 288.113281 255.082031 285.089844 C 255.808594 284.585938 256.804688 284.753906 257.308594 285.480469 C 257.816406 286.203125 257.640625 287.203125 256.917969 287.707031 C 252.246094 290.980469 245.054688 293.691406 235.539062 295.761719 C 235.425781 295.792969 235.3125 295.800781 235.199219 295.800781 Z M 235.199219 295.800781 "/>
<path style=" stroke:none;fill-rule:nonzero;fill:rgb(12.156863%,12.941177%,16.862746%);fill-opacity:1;" d="M 225.597656 297.546875 C 224.824219 297.546875 224.140625 296.980469 224.019531 296.191406 C 223.886719 295.320312 224.488281 294.503906 225.359375 294.367188 L 225.933594 294.28125 C 226.804688 294.148438 227.675781 294.015625 228.53125 293.867188 C 229.390625 293.714844 230.230469 294.300781 230.378906 295.175781 C 230.53125 296.042969 229.945312 296.875 229.074219 297.023438 C 228.203125 297.175781 227.304688 297.3125 226.414062 297.445312 L 225.84375 297.53125 C 225.761719 297.542969 225.675781 297.546875 225.597656 297.546875 Z M 225.597656 297.546875 "/>
<path style=" stroke:none;fill-rule:nonzero;fill:rgb(12.156863%,12.941177%,16.862746%);fill-opacity:1;" d="M 235.199219 313.027344 C 234.316406 313.027344 233.601562 312.308594 233.601562 311.425781 L 233.601562 302.398438 C 233.601562 301.515625 234.316406 300.800781 235.199219 300.800781 C 236.082031 300.800781 236.800781 301.515625 236.800781 302.398438 L 236.800781 311.425781 C 236.800781 312.308594 236.082031 313.027344 235.199219 313.027344 Z M 235.199219 313.027344 "/>
<path style=" stroke:none;fill-rule:nonzero;fill:rgb(12.156863%,12.941177%,16.862746%);fill-opacity:1;" d="M 241.601562 274.308594 C 240.914062 274.308594 240.28125 273.867188 240.066406 273.175781 C 239.8125 272.332031 240.285156 271.441406 241.128906 271.179688 C 246.28125 269.605469 250.457031 267.8125 253.539062 265.847656 C 254.277344 265.382812 255.273438 265.589844 255.746094 266.339844 C 256.222656 267.085938 256 268.074219 255.257812 268.546875 C 251.886719 270.695312 247.570312 272.554688 242.066406 274.238281 C 241.914062 274.289062 241.753906 274.308594 241.601562 274.308594 Z M 241.601562 274.308594 "/>
</g>
</svg>
