<?xml version="1.0" encoding="UTF-8"?>
<svg xmlns="http://www.w3.org/2000/svg" xmlns:xlink="http://www.w3.org/1999/xlink" viewBox="0 0 400 400" width="400px" height="400px">
<g id="surface29772159">
<path style=" stroke:none;fill-rule:nonzero;fill:rgb(0%,0%,0%);fill-opacity:1;" d="M 0 400 L 0 0 L 400 0 L 400 400 Z M 392 392 L 392 8 L 8 8 L 8 392 Z M 392 392 "/>
<path style=" stroke:none;fill-rule:nonzero;fill:rgb(97.647059%,90.196079%,36.078432%);fill-opacity:1;" d="M 200 82.378906 C 138.550781 82.378906 88.738281 132.191406 88.738281 193.640625 L 88.738281 196.820312 C 88.738281 207.355469 97.277344 215.894531 107.808594 215.894531 C 112.703125 215.894531 117.148438 214.039062 120.527344 211.007812 L 120.527344 317.621094 L 279.472656 317.621094 L 279.472656 211.007812 C 282.851562 214.039062 287.296875 215.894531 292.191406 215.894531 C 302.722656 215.894531 311.261719 207.355469 311.261719 196.820312 L 311.261719 193.640625 C 311.261719 132.191406 261.449219 82.378906 200 82.378906 Z M 200 82.378906 "/>
<path style=" stroke:none;fill-rule:nonzero;fill:rgb(92.941177%,86.274511%,40.392157%);fill-opacity:1;" d="M 211.023438 190.941406 C 207.660156 191.652344 203.949219 192.050781 200.027344 192.050781 C 196.082031 192.050781 192.351562 191.644531 188.976562 190.929688 C 188.84375 194.730469 188.347656 199.195312 187.421875 203.726562 C 190.277344 205.175781 194.289062 206.359375 200 206.359375 C 205.710938 206.359375 209.722656 205.175781 212.578125 203.726562 C 211.65625 199.199219 211.15625 194.738281 211.023438 190.941406 Z M 211.023438 190.941406 "/>
<path style=" stroke:none;fill-rule:nonzero;fill:rgb(26.666668%,26.666668%,27.058825%);fill-opacity:1;" d="M 182.476562 152.335938 C 182.476562 169.003906 168.964844 182.515625 152.296875 182.515625 C 135.628906 182.515625 122.117188 169.003906 122.117188 152.335938 C 122.117188 135.667969 135.628906 122.152344 152.296875 122.152344 C 168.964844 122.152344 182.476562 135.667969 182.476562 152.335938 Z M 182.476562 152.335938 "/>
<path style=" stroke:none;fill-rule:nonzero;fill:rgb(100%,100%,100%);fill-opacity:1;" d="M 169.6875 150.667969 C 169.6875 161.171875 161.171875 169.6875 150.667969 169.6875 C 140.167969 169.6875 131.652344 161.171875 131.652344 150.667969 C 131.652344 140.167969 140.167969 131.652344 150.667969 131.652344 C 161.171875 131.652344 169.6875 140.167969 169.6875 150.667969 Z M 169.6875 150.667969 "/>
<path style=" stroke:none;fill-rule:nonzero;fill:rgb(26.666668%,26.666668%,27.058825%);fill-opacity:1;" d="M 277.847656 152.335938 C 277.847656 169.003906 264.335938 182.515625 247.664062 182.515625 C 230.996094 182.515625 217.484375 169.003906 217.484375 152.335938 C 217.484375 135.667969 230.996094 122.152344 247.664062 122.152344 C 264.335938 122.152344 277.847656 135.667969 277.847656 152.335938 Z M 277.847656 152.335938 "/>
<path style=" stroke:none;fill-rule:nonzero;fill:rgb(100%,100%,100%);fill-opacity:1;" d="M 268.3125 150.667969 C 268.3125 161.171875 259.800781 169.6875 249.296875 169.6875 C 238.792969 169.6875 230.28125 161.171875 230.28125 150.667969 C 230.28125 140.167969 238.792969 131.652344 249.296875 131.652344 C 259.800781 131.652344 268.3125 140.167969 268.3125 150.667969 Z M 268.3125 150.667969 "/>
<path style=" stroke:none;fill-rule:nonzero;fill:rgb(26.666668%,26.666668%,27.058825%);fill-opacity:1;" d="M 227.019531 179.335938 C 227.019531 172.316406 214.933594 166.621094 200.027344 166.621094 C 185.117188 166.621094 173.03125 172.316406 173.03125 179.335938 C 173.03125 186.359375 185.117188 192.050781 200.027344 192.050781 C 214.933594 192.050781 227.019531 186.359375 227.019531 179.335938 Z M 227.019531 179.335938 "/>
<path style=" stroke:none;fill-rule:nonzero;fill:rgb(97.647059%,90.196079%,36.078432%);fill-opacity:1;" d="M 120.527344 283.839844 L 103.101562 268.296875 L 120.527344 252.898438 L 120.527344 227.445312 L 82.421875 261.117188 C 80.378906 262.917969 79.207031 265.515625 79.199219 268.238281 C 79.195312 270.964844 80.355469 273.5625 82.386719 275.375 L 120.527344 309.398438 Z M 120.527344 283.839844 "/>
<path style=" stroke:none;fill-rule:nonzero;fill:rgb(97.647059%,90.196079%,36.078432%);fill-opacity:1;" d="M 279.472656 283.839844 L 296.898438 268.296875 L 279.472656 252.898438 L 279.472656 227.445312 L 317.578125 261.117188 C 319.621094 262.917969 320.792969 265.515625 320.800781 268.238281 C 320.804688 270.964844 319.644531 273.5625 317.613281 275.375 L 279.472656 309.398438 Z M 279.472656 283.839844 "/>
<path style=" stroke:none;fill-rule:nonzero;fill:rgb(99.607843%,96.470588%,66.666669%);fill-opacity:1;" d="M 200 150.726562 C 139.601562 150.726562 145.203125 200.777344 150.683594 215.289062 C 154.027344 224.085938 160.988281 230.199219 167.125 230.199219 C 182.585938 230.199219 188.46875 205.609375 188.976562 190.929688 C 179.582031 188.941406 173.03125 184.503906 173.03125 179.335938 C 173.03125 172.316406 185.117188 166.621094 200.027344 166.621094 C 214.933594 166.621094 227.019531 172.316406 227.019531 179.335938 C 227.019531 184.511719 220.445312 188.957031 211.023438 190.941406 C 211.535156 205.625 217.417969 230.199219 232.875 230.199219 C 239.011719 230.199219 245.972656 224.085938 249.316406 215.289062 C 254.796875 200.777344 260.398438 150.726562 200 150.726562 Z M 200 150.726562 "/>
<path style=" stroke:none;fill-rule:nonzero;fill:rgb(12.156863%,12.941177%,16.862746%);fill-opacity:1;" d="M 120.527344 320.800781 C 118.769531 320.800781 117.347656 319.378906 117.347656 317.621094 L 117.347656 211.066406 C 117.347656 209.308594 118.769531 207.886719 120.527344 207.886719 C 122.285156 207.886719 123.707031 209.308594 123.707031 211.066406 L 123.707031 317.621094 C 123.707031 319.378906 122.285156 320.800781 120.527344 320.800781 Z M 120.527344 320.800781 "/>
<path style=" stroke:none;fill-rule:nonzero;fill:rgb(12.156863%,12.941177%,16.862746%);fill-opacity:1;" d="M 200.027344 193.640625 C 183.996094 193.640625 171.445312 187.355469 171.445312 179.335938 C 171.445312 171.316406 183.996094 165.03125 200.027344 165.03125 C 216.054688 165.03125 228.609375 171.316406 228.609375 179.335938 C 228.609375 187.355469 216.054688 193.640625 200.027344 193.640625 Z M 200.027344 168.210938 C 184.828125 168.210938 174.621094 173.964844 174.621094 179.335938 C 174.621094 184.710938 184.828125 190.464844 200.027344 190.464844 C 215.222656 190.464844 225.429688 184.710938 225.429688 179.335938 C 225.429688 173.964844 215.222656 168.210938 200.027344 168.210938 Z M 200.027344 168.210938 "/>
<path style=" stroke:none;fill-rule:nonzero;fill:rgb(12.156863%,12.941177%,16.862746%);fill-opacity:1;" d="M 150.667969 171.273438 C 139.308594 171.273438 130.0625 162.035156 130.0625 150.671875 C 130.0625 139.3125 139.308594 130.0625 150.667969 130.0625 C 162.03125 130.0625 171.273438 139.308594 171.273438 150.667969 C 171.273438 153.15625 170.8125 155.617188 169.90625 157.988281 L 169.699219 158.539062 L 169.179688 158.820312 C 163.910156 161.65625 159.605469 165.433594 156.386719 170.058594 L 156.039062 170.554688 L 155.449219 170.691406 C 153.839844 171.078125 152.230469 171.273438 150.667969 171.273438 Z M 150.667969 133.242188 C 141.058594 133.242188 133.242188 141.058594 133.242188 150.667969 C 133.242188 161.40625 142.925781 170.039062 154.136719 167.726562 C 157.496094 163.082031 161.863281 159.246094 167.140625 156.308594 C 167.773438 154.472656 168.097656 152.578125 168.097656 150.667969 C 168.097656 141.058594 160.277344 133.242188 150.667969 133.242188 Z M 150.667969 133.242188 "/>
<path style=" stroke:none;fill-rule:nonzero;fill:rgb(12.156863%,12.941177%,16.862746%);fill-opacity:1;" d="M 150.335938 184.070312 L 148.972656 183.925781 C 132.753906 182.242188 120.527344 168.660156 120.527344 152.335938 C 120.527344 134.816406 134.777344 120.566406 152.296875 120.566406 C 169.816406 120.566406 184.066406 134.816406 184.066406 152.335938 L 184.066406 153.621094 L 182.804688 154 C 165.433594 157.699219 154.625 167.367188 150.679688 182.742188 Z M 152.296875 123.742188 C 136.53125 123.742188 123.707031 136.570312 123.707031 152.335938 C 123.707031 166.574219 134.042969 178.496094 147.96875 180.597656 C 151.152344 169.597656 159.492188 156.167969 180.871094 151.175781 C 180.292969 135.980469 167.699219 123.742188 152.296875 123.742188 Z M 152.296875 123.742188 "/>
<path style=" stroke:none;fill-rule:nonzero;fill:rgb(12.156863%,12.941177%,16.862746%);fill-opacity:1;" d="M 249.296875 171.273438 C 247.746094 171.273438 246.15625 171.085938 244.558594 170.707031 L 243.96875 170.566406 L 243.621094 170.066406 C 240.390625 165.429688 236.070312 161.636719 230.777344 158.792969 L 230.25 158.515625 L 230.042969 157.957031 C 229.144531 155.597656 228.691406 153.140625 228.691406 150.667969 C 228.691406 139.308594 237.933594 130.0625 249.296875 130.0625 C 260.65625 130.0625 269.898438 139.308594 269.898438 150.667969 C 269.898438 162.03125 260.65625 171.273438 249.296875 171.273438 Z M 245.867188 167.742188 C 257.011719 170.011719 266.722656 161.398438 266.722656 150.671875 C 266.722656 141.0625 258.90625 133.246094 249.300781 133.246094 C 239.6875 133.246094 231.871094 141.0625 231.871094 150.671875 C 231.871094 152.574219 232.191406 154.457031 232.820312 156.289062 C 238.117188 159.226562 242.503906 163.078125 245.867188 167.742188 Z M 245.867188 167.742188 "/>
<path style=" stroke:none;fill-rule:nonzero;fill:rgb(12.156863%,12.941177%,16.862746%);fill-opacity:1;" d="M 249.664062 184.0625 L 249.324219 182.738281 C 245.367188 167.351562 234.546875 157.683594 217.164062 153.996094 L 215.902344 153.726562 L 215.902344 152.441406 C 215.894531 134.816406 230.144531 120.566406 247.664062 120.566406 C 265.183594 120.566406 279.433594 134.816406 279.433594 152.335938 C 279.433594 168.640625 267.222656 182.21875 251.027344 183.925781 Z M 219.097656 151.171875 C 240.492188 156.152344 248.839844 169.582031 252.03125 180.59375 C 265.933594 178.476562 276.257812 166.558594 276.257812 152.335938 C 276.257812 136.570312 263.429688 123.742188 247.664062 123.742188 C 232.289062 123.742188 219.710938 135.945312 219.097656 151.171875 Z M 219.097656 151.171875 "/>
<path style=" stroke:none;fill-rule:nonzero;fill:rgb(12.156863%,12.941177%,16.862746%);fill-opacity:1;" d="M 123.707031 316.496094 L 80.269531 277.746094 C 77.5625 275.332031 76.011719 271.863281 76.019531 268.234375 C 76.03125 264.597656 77.59375 261.136719 80.320312 258.730469 L 123.707031 220.394531 L 123.707031 254.335938 L 107.886719 268.308594 L 123.707031 282.414062 Z M 117.347656 234.496094 L 84.527344 263.496094 C 83.164062 264.699219 82.382812 266.429688 82.378906 268.246094 C 82.375 270.0625 83.148438 271.796875 84.503906 273.003906 L 117.347656 302.300781 L 117.347656 285.265625 L 98.316406 268.285156 L 117.347656 251.464844 Z M 117.347656 234.496094 "/>
<path style=" stroke:none;fill-rule:nonzero;fill:rgb(12.156863%,12.941177%,16.862746%);fill-opacity:1;" d="M 279.472656 320.800781 C 277.714844 320.800781 276.292969 319.378906 276.292969 317.621094 L 276.292969 211.066406 C 276.292969 209.308594 277.714844 207.886719 279.472656 207.886719 C 281.230469 207.886719 282.652344 209.308594 282.652344 211.066406 L 282.652344 317.621094 C 282.652344 319.378906 281.230469 320.800781 279.472656 320.800781 Z M 279.472656 320.800781 "/>
<path style=" stroke:none;fill-rule:nonzero;fill:rgb(12.156863%,12.941177%,16.862746%);fill-opacity:1;" d="M 276.292969 316.496094 L 276.292969 282.417969 L 292.113281 268.308594 L 276.292969 254.335938 L 276.292969 220.394531 L 319.679688 258.734375 C 322.402344 261.136719 323.96875 264.597656 323.980469 268.234375 C 323.988281 271.867188 322.4375 275.332031 319.726562 277.746094 Z M 282.652344 285.265625 L 282.652344 302.296875 L 315.496094 273 C 316.851562 271.792969 317.625 270.058594 317.621094 268.242188 C 317.617188 266.425781 316.835938 264.699219 315.472656 263.496094 L 282.652344 234.496094 L 282.652344 251.46875 L 301.683594 268.285156 Z M 282.652344 285.265625 "/>
<path style=" stroke:none;fill-rule:nonzero;fill:rgb(12.156863%,12.941177%,16.862746%);fill-opacity:1;" d="M 292.191406 219.074219 C 279.921875 219.074219 269.9375 209.089844 269.9375 196.820312 L 269.9375 190.464844 C 269.9375 188.707031 271.359375 187.285156 273.117188 187.285156 C 274.875 187.285156 276.292969 188.707031 276.292969 190.464844 L 276.292969 196.820312 C 276.292969 205.585938 283.425781 212.714844 292.191406 212.714844 C 300.953125 212.714844 308.085938 205.585938 308.085938 196.820312 L 308.085938 193.640625 C 308.085938 134.042969 259.597656 85.558594 200 85.558594 C 140.402344 85.558594 91.914062 134.042969 91.914062 193.640625 L 91.914062 196.820312 C 91.914062 205.585938 99.046875 212.714844 107.8125 212.714844 C 116.574219 212.714844 123.707031 205.585938 123.707031 196.820312 L 123.707031 190.464844 C 123.707031 188.707031 125.125 187.285156 126.882812 187.285156 C 128.640625 187.285156 130.0625 188.707031 130.0625 190.464844 L 130.0625 196.820312 C 130.0625 209.089844 120.078125 219.074219 107.8125 219.074219 C 95.542969 219.074219 85.558594 209.089844 85.558594 196.820312 L 85.558594 193.640625 C 85.558594 130.535156 136.894531 79.199219 200 79.199219 C 263.105469 79.199219 314.441406 130.535156 314.441406 193.640625 L 314.441406 196.820312 C 314.441406 209.089844 304.457031 219.074219 292.191406 219.074219 Z M 292.191406 219.074219 "/>
<path style=" stroke:none;fill-rule:nonzero;fill:rgb(12.156863%,12.941177%,16.862746%);fill-opacity:1;" d="M 242.914062 108.320312 C 242.675781 108.320312 242.4375 108.265625 242.210938 108.152344 C 241.179688 107.644531 240.132812 107.160156 239.085938 106.683594 C 238.285156 106.324219 237.929688 105.382812 238.289062 104.582031 C 238.648438 103.78125 239.597656 103.425781 240.386719 103.785156 C 241.476562 104.277344 242.554688 104.777344 243.621094 105.304688 C 244.40625 105.695312 244.730469 106.648438 244.34375 107.433594 C 244.0625 107.996094 243.5 108.320312 242.914062 108.320312 Z M 242.914062 108.320312 "/>
<path style=" stroke:none;fill-rule:nonzero;fill:rgb(12.156863%,12.941177%,16.862746%);fill-opacity:1;" d="M 157.085938 108.320312 C 156.5 108.320312 155.941406 107.996094 155.660156 107.433594 C 155.273438 106.648438 155.59375 105.695312 156.382812 105.304688 C 170.042969 98.53125 184.714844 95.09375 200 95.09375 C 202.472656 95.09375 205.113281 95.210938 208.078125 95.453125 C 208.953125 95.523438 209.601562 96.292969 209.53125 97.167969 C 209.460938 98.042969 208.753906 98.683594 207.816406 98.621094 C 204.945312 98.386719 202.386719 98.273438 200 98.273438 C 185.210938 98.273438 171.011719 101.597656 157.789062 108.152344 C 157.5625 108.269531 157.324219 108.320312 157.085938 108.320312 Z M 157.085938 108.320312 "/>
<path style=" stroke:none;fill-rule:nonzero;fill:rgb(12.156863%,12.941177%,16.862746%);fill-opacity:1;" d="M 233.378906 104.195312 C 233.195312 104.195312 233.011719 104.164062 232.828125 104.101562 C 229.816406 102.988281 226.660156 102.015625 223.449219 101.199219 C 222.597656 100.984375 222.085938 100.117188 222.304688 99.269531 C 222.515625 98.417969 223.371094 97.886719 224.234375 98.121094 C 227.546875 98.964844 230.808594 99.972656 233.929688 101.117188 C 234.753906 101.421875 235.175781 102.332031 234.875 103.160156 C 234.632812 103.796875 234.023438 104.195312 233.378906 104.195312 Z M 233.378906 104.195312 "/>
<path style=" stroke:none;fill-rule:nonzero;fill:rgb(12.156863%,12.941177%,16.862746%);fill-opacity:1;" d="M 211.878906 199.828125 C 210.285156 201.214844 206.84375 203.179688 200 203.179688 C 193.148438 203.179688 189.714844 201.207031 188.121094 199.824219 C 187.78125 202.050781 187.339844 204.332031 186.78125 206.605469 C 189.660156 208.199219 193.886719 209.535156 200 209.535156 C 206.109375 209.535156 210.339844 208.199219 213.21875 206.605469 C 212.660156 204.335938 212.21875 202.054688 211.878906 199.828125 Z M 211.878906 199.828125 "/>
<path style=" stroke:none;fill-rule:nonzero;fill:rgb(12.156863%,12.941177%,16.862746%);fill-opacity:1;" d="M 232.875 231.789062 C 216.714844 231.789062 210.003906 207.394531 209.433594 190.996094 L 209.386719 189.660156 L 210.695312 189.386719 C 219.511719 187.527344 225.429688 183.492188 225.429688 179.335938 C 225.429688 173.964844 215.222656 168.210938 200.027344 168.210938 C 184.828125 168.210938 174.621094 173.964844 174.621094 179.335938 C 174.621094 183.480469 180.519531 187.511719 189.304688 189.371094 L 190.605469 189.648438 L 190.5625 190.984375 C 190 207.382812 183.292969 231.789062 167.121094 231.789062 C 160.242188 231.789062 152.707031 225.089844 149.195312 215.851562 C 147.574219 211.558594 145.875 203.886719 145.953125 195.214844 C 146.121094 178.007812 153.355469 149.136719 200 149.136719 C 246.644531 149.136719 253.878906 178.007812 254.042969 195.214844 C 254.121094 203.894531 252.421875 211.566406 250.800781 215.851562 C 247.289062 225.089844 239.753906 231.789062 232.875 231.789062 Z M 212.671875 192.199219 C 213.476562 206.820312 219.472656 228.609375 232.875 228.609375 C 238.390625 228.609375 244.820312 222.640625 247.828125 214.726562 C 249.347656 210.714844 250.9375 203.488281 250.863281 195.246094 C 250.710938 179.210938 243.90625 152.316406 200 152.316406 C 156.09375 152.316406 149.289062 179.210938 149.136719 195.246094 C 149.058594 203.480469 150.652344 210.710938 152.167969 214.726562 C 155.175781 222.640625 161.605469 228.609375 167.121094 228.609375 C 180.535156 228.609375 186.523438 206.808594 187.324219 192.1875 C 177.488281 189.8125 171.4375 184.949219 171.4375 179.335938 C 171.4375 171.316406 183.992188 165.03125 200.023438 165.03125 C 216.050781 165.03125 228.609375 171.316406 228.609375 179.335938 C 228.609375 184.964844 222.542969 189.832031 212.671875 192.199219 Z M 212.671875 192.199219 "/>
</g>
</svg>
