<?xml version="1.0" encoding="UTF-8"?>
<svg xmlns="http://www.w3.org/2000/svg" xmlns:xlink="http://www.w3.org/1999/xlink" viewBox="0 0 400 400" width="400px" height="400px">
<g id="surface29772501">
<path style=" stroke:none;fill-rule:nonzero;fill:rgb(0%,0%,0%);fill-opacity:1;" d="M 0 400 L 0 0 L 400 0 L 400 400 Z M 392 392 L 392 8 L 8 8 L 8 392 Z M 392 392 "/>
<path style=" stroke:none;fill-rule:nonzero;fill:rgb(48.627451%,54.11765%,61.960787%);fill-opacity:1;" d="M 272.433594 158.234375 C 264.511719 132.097656 257.601562 104.800781 232.390625 97.035156 L 233.585938 90.980469 C 246.914062 82.476562 241.089844 51.589844 235.636719 50.445312 C 230.238281 49.308594 210.933594 69.828125 217.519531 87.566406 L 215.535156 92.71875 C 209.800781 92.007812 204.53125 92 200 92 C 195.46875 92 190.199219 92.007812 184.464844 92.71875 L 182.480469 87.566406 C 189.066406 69.828125 169.761719 49.3125 164.363281 50.445312 C 158.910156 51.59375 153.085938 82.476562 166.414062 90.980469 L 167.609375 97.035156 C 142.398438 104.800781 135.488281 132.097656 127.566406 158.234375 C 115.519531 170.34375 97.601562 200.339844 97.601562 254.179688 C 97.601562 267.90625 106.46875 270.433594 113.601562 271.199219 C 123.675781 308.144531 145.601562 325.601562 145.601562 325.601562 L 254.398438 325.601562 C 254.398438 325.601562 276.324219 308.144531 286.398438 271.199219 C 293.53125 270.433594 302.398438 267.90625 302.398438 254.179688 C 302.398438 200.339844 284.480469 170.34375 272.433594 158.234375 Z M 272.433594 158.234375 "/>
<path style=" stroke:none;fill-rule:nonzero;fill:rgb(12.156863%,12.941177%,16.862746%);fill-opacity:1;" d="M 254.398438 328.800781 L 145.601562 328.800781 C 144.875 328.800781 144.171875 328.554688 143.605469 328.101562 C 142.699219 327.375 121.554688 310.21875 111.097656 274.113281 C 105.25 273.234375 94.398438 270.074219 94.398438 254.183594 C 94.398438 193.421875 116.890625 164.703125 124.730469 156.558594 L 125.761719 153.136719 C 133.054688 128.839844 140.59375 103.742188 163.929688 94.917969 L 163.527344 92.859375 C 154.890625 86.21875 153.984375 71.785156 155.929688 61.089844 C 156.789062 56.378906 158.941406 48.316406 163.707031 47.316406 C 168.574219 46.289062 174.523438 52.480469 176.855469 55.183594 C 183.738281 63.175781 189.585938 75.730469 185.882812 87.5 L 186.566406 89.269531 C 191.597656 88.800781 196.199219 88.800781 200 88.800781 C 203.800781 88.800781 208.402344 88.800781 213.433594 89.269531 L 214.117188 87.5 C 210.417969 75.730469 216.261719 63.175781 223.144531 55.183594 C 225.476562 52.476562 231.417969 46.28125 236.292969 47.316406 C 241.054688 48.316406 243.210938 56.378906 244.070312 61.089844 C 246.015625 71.785156 245.109375 86.21875 236.472656 92.859375 L 236.070312 94.917969 C 259.40625 103.742188 266.945312 128.839844 274.238281 153.136719 L 275.269531 156.558594 C 283.109375 164.699219 305.601562 193.421875 305.601562 254.183594 C 305.601562 270.078125 294.75 273.238281 288.902344 274.113281 C 278.441406 310.21875 257.300781 327.378906 256.394531 328.105469 C 255.828125 328.554688 255.125 328.800781 254.398438 328.800781 Z M 146.789062 322.398438 L 253.210938 322.398438 C 257.1875 318.851562 274.742188 301.777344 283.3125 270.359375 C 283.65625 269.089844 284.75 268.15625 286.058594 268.019531 C 293.945312 267.175781 299.199219 264.496094 299.199219 254.183594 C 299.199219 194.328125 276.980469 167.335938 270.167969 160.492188 C 269.796875 160.121094 269.527344 159.667969 269.371094 159.164062 L 268.113281 154.980469 C 260.695312 130.277344 253.683594 106.945312 231.449219 100.097656 C 229.882812 99.621094 228.933594 98.03125 229.246094 96.421875 L 230.441406 90.367188 C 230.609375 89.511719 231.125 88.757812 231.859375 88.292969 C 237.1875 84.890625 238.296875 76.824219 238.484375 72.316406 C 238.875 62.816406 236.1875 55.25 234.777344 53.628906 C 233.441406 54.074219 228.78125 57.34375 224.539062 64.027344 C 221.632812 68.613281 217.238281 77.625 220.519531 86.457031 C 220.789062 87.191406 220.785156 87.992188 220.503906 88.722656 L 218.523438 93.875 C 217.992188 95.246094 216.605469 96.070312 215.140625 95.902344 C 209.53125 95.199219 204.246094 95.199219 200 95.199219 C 195.753906 95.199219 190.46875 95.199219 184.859375 95.894531 C 183.398438 96.066406 182.003906 95.238281 181.476562 93.867188 L 179.492188 88.71875 C 179.210938 87.988281 179.207031 87.183594 179.476562 86.453125 C 182.757812 77.621094 178.363281 68.609375 175.457031 64.023438 C 171.335938 57.527344 166.820312 54.253906 165.164062 53.6875 C 163.742188 55.425781 161.125 62.929688 161.511719 72.308594 C 161.699219 76.816406 162.804688 84.882812 168.132812 88.285156 C 168.871094 88.753906 169.386719 89.503906 169.550781 90.363281 L 170.746094 96.417969 C 171.0625 98.023438 170.117188 99.613281 168.542969 100.09375 C 146.308594 106.941406 139.300781 130.273438 131.882812 154.972656 L 130.621094 159.160156 C 130.46875 159.660156 130.195312 160.113281 129.828125 160.488281 C 123.019531 167.335938 100.800781 194.328125 100.800781 254.183594 C 100.800781 264.5 106.054688 267.175781 113.9375 268.019531 C 115.25 268.15625 116.339844 269.089844 116.683594 270.359375 C 125.261719 301.777344 142.8125 318.851562 146.789062 322.398438 Z M 146.789062 322.398438 "/>
<path style=" stroke:none;fill-rule:nonzero;fill:rgb(99.607843%,96.470588%,66.666669%);fill-opacity:1;" d="M 278.398438 232.800781 C 278.398438 277.867188 243.300781 314.398438 200 314.398438 C 156.699219 314.398438 121.601562 277.867188 121.601562 232.800781 C 121.601562 187.734375 150.398438 154.398438 200 154.398438 C 249.601562 154.398438 278.398438 187.734375 278.398438 232.800781 Z M 278.398438 232.800781 "/>
<path style=" stroke:none;fill-rule:nonzero;fill:rgb(12.156863%,12.941177%,16.862746%);fill-opacity:1;" d="M 200 316 C 155.886719 316 120 278.675781 120 232.800781 C 120 184.203125 151.402344 152.800781 200 152.800781 C 248.597656 152.800781 280 184.203125 280 232.800781 C 280 278.675781 244.113281 316 200 316 Z M 200 156 C 153.347656 156 123.199219 186.144531 123.199219 232.800781 C 123.199219 276.910156 157.65625 312.800781 200 312.800781 C 242.34375 312.800781 276.800781 276.910156 276.800781 232.800781 C 276.800781 186.144531 246.652344 156 200 156 Z M 200 156 "/>
<path style=" stroke:none;fill-rule:nonzero;fill:rgb(99.607843%,99.215686%,93.725491%);fill-opacity:1;" d="M 179.199219 120.800781 C 179.199219 126.984375 174.1875 132 168 132 C 161.8125 132 156.800781 126.984375 156.800781 120.800781 C 156.800781 114.613281 161.8125 109.601562 168 109.601562 C 174.1875 109.601562 179.199219 114.613281 179.199219 120.800781 Z M 179.199219 120.800781 "/>
<path style=" stroke:none;fill-rule:nonzero;fill:rgb(12.156863%,12.941177%,16.862746%);fill-opacity:1;" d="M 168 133.601562 C 160.941406 133.601562 155.199219 127.859375 155.199219 120.800781 C 155.199219 113.742188 160.941406 108 168 108 C 175.058594 108 180.800781 113.742188 180.800781 120.800781 C 180.800781 127.859375 175.058594 133.601562 168 133.601562 Z M 168 111.199219 C 162.707031 111.199219 158.398438 115.507812 158.398438 120.800781 C 158.398438 126.09375 162.707031 130.398438 168 130.398438 C 173.292969 130.398438 177.601562 126.09375 177.601562 120.800781 C 177.601562 115.507812 173.292969 111.199219 168 111.199219 Z M 168 111.199219 "/>
<path style=" stroke:none;fill-rule:nonzero;fill:rgb(12.156863%,12.941177%,16.862746%);fill-opacity:1;" d="M 150.402344 133.601562 C 150.292969 133.601562 150.179688 133.589844 150.066406 133.566406 L 105.265625 123.964844 C 104.398438 123.777344 103.851562 122.929688 104.035156 122.0625 C 104.222656 121.199219 105.089844 120.648438 105.9375 120.835938 L 150.734375 130.433594 C 151.601562 130.621094 152.152344 131.472656 151.96875 132.335938 C 151.800781 133.085938 151.140625 133.601562 150.402344 133.601562 Z M 150.402344 133.601562 "/>
<path style=" stroke:none;fill-rule:nonzero;fill:rgb(12.156863%,12.941177%,16.862746%);fill-opacity:1;" d="M 145.789062 141.132812 C 145.777344 141.132812 145.761719 141.132812 145.75 141.132812 L 99.160156 140 C 98.277344 139.976562 97.578125 139.246094 97.601562 138.363281 C 97.621094 137.476562 98.355469 136.867188 99.238281 136.800781 L 145.828125 137.933594 C 146.710938 137.957031 147.410156 138.6875 147.390625 139.570312 C 147.367188 140.441406 146.652344 141.132812 145.789062 141.132812 Z M 145.789062 141.132812 "/>
<path style=" stroke:none;fill-rule:nonzero;fill:rgb(12.156863%,12.941177%,16.862746%);fill-opacity:1;" d="M 99.195312 156 C 98.414062 156 97.730469 155.425781 97.617188 154.628906 C 97.492188 153.753906 98.097656 152.941406 98.976562 152.816406 L 143.777344 146.417969 C 144.632812 146.292969 145.460938 146.898438 145.585938 147.773438 C 145.707031 148.644531 145.101562 149.460938 144.222656 149.585938 L 99.425781 155.984375 C 99.351562 155.996094 99.269531 156 99.195312 156 Z M 99.195312 156 "/>
<path style=" stroke:none;fill-rule:nonzero;fill:rgb(12.156863%,12.941177%,16.862746%);fill-opacity:1;" d="M 249.597656 133.601562 C 248.859375 133.601562 248.195312 133.085938 248.035156 132.335938 C 247.847656 131.472656 248.398438 130.621094 249.265625 130.433594 L 294.066406 120.835938 C 294.925781 120.648438 295.777344 121.199219 295.96875 122.0625 C 296.152344 122.929688 295.601562 123.777344 294.734375 123.964844 L 249.9375 133.566406 C 249.820312 133.589844 249.707031 133.601562 249.597656 133.601562 Z M 249.597656 133.601562 "/>
<path style=" stroke:none;fill-rule:nonzero;fill:rgb(12.156863%,12.941177%,16.862746%);fill-opacity:1;" d="M 254.210938 141.132812 C 253.34375 141.132812 252.632812 140.441406 252.609375 139.570312 C 252.589844 138.6875 253.289062 137.957031 254.171875 137.933594 L 300.761719 136.800781 C 301.667969 136.890625 302.378906 137.476562 302.398438 138.363281 C 302.421875 139.246094 301.722656 139.976562 300.839844 140 L 254.25 141.132812 C 254.238281 141.132812 254.222656 141.132812 254.210938 141.132812 Z M 254.210938 141.132812 "/>
<path style=" stroke:none;fill-rule:nonzero;fill:rgb(12.156863%,12.941177%,16.862746%);fill-opacity:1;" d="M 300.804688 156 C 300.730469 156 300.648438 155.996094 300.574219 155.984375 L 255.777344 149.585938 C 254.902344 149.460938 254.292969 148.648438 254.414062 147.773438 C 254.542969 146.898438 255.371094 146.289062 256.222656 146.417969 L 301.023438 152.816406 C 301.898438 152.941406 302.507812 153.75 302.382812 154.628906 C 302.269531 155.425781 301.585938 156 300.804688 156 Z M 300.804688 156 "/>
<path style=" stroke:none;fill-rule:nonzero;fill:rgb(12.156863%,12.941177%,16.862746%);fill-opacity:1;" d="M 209.601562 124.492188 C 209.601562 126.53125 205.300781 130.398438 200 130.398438 C 194.699219 130.398438 190.398438 126.53125 190.398438 124.492188 C 190.398438 122.453125 194.699219 120.800781 200 120.800781 C 205.300781 120.800781 209.601562 122.453125 209.601562 124.492188 Z M 209.601562 124.492188 "/>
<path style=" stroke:none;fill-rule:nonzero;fill:rgb(12.156863%,12.941177%,16.862746%);fill-opacity:1;" d="M 172.800781 120.800781 C 172.800781 123.449219 170.652344 125.601562 168 125.601562 C 165.347656 125.601562 163.199219 123.449219 163.199219 120.800781 C 163.199219 118.148438 165.347656 116 168 116 C 170.652344 116 172.800781 118.148438 172.800781 120.800781 Z M 172.800781 120.800781 "/>
<path style=" stroke:none;fill-rule:nonzero;fill:rgb(99.607843%,99.215686%,93.725491%);fill-opacity:1;" d="M 243.199219 120.800781 C 243.199219 126.984375 238.1875 132 232 132 C 225.8125 132 220.800781 126.984375 220.800781 120.800781 C 220.800781 114.613281 225.8125 109.601562 232 109.601562 C 238.1875 109.601562 243.199219 114.613281 243.199219 120.800781 Z M 243.199219 120.800781 "/>
<path style=" stroke:none;fill-rule:nonzero;fill:rgb(12.156863%,12.941177%,16.862746%);fill-opacity:1;" d="M 232 133.601562 C 224.941406 133.601562 219.199219 127.859375 219.199219 120.800781 C 219.199219 113.742188 224.941406 108 232 108 C 239.058594 108 244.800781 113.742188 244.800781 120.800781 C 244.800781 127.859375 239.058594 133.601562 232 133.601562 Z M 232 111.199219 C 226.707031 111.199219 222.398438 115.507812 222.398438 120.800781 C 222.398438 126.09375 226.707031 130.398438 232 130.398438 C 237.292969 130.398438 241.601562 126.09375 241.601562 120.800781 C 241.601562 115.507812 237.292969 111.199219 232 111.199219 Z M 232 111.199219 "/>
<path style=" stroke:none;fill-rule:nonzero;fill:rgb(12.156863%,12.941177%,16.862746%);fill-opacity:1;" d="M 236.800781 120.800781 C 236.800781 123.449219 234.652344 125.601562 232 125.601562 C 229.347656 125.601562 227.199219 123.449219 227.199219 120.800781 C 227.199219 118.148438 229.347656 116 232 116 C 234.652344 116 236.800781 118.148438 236.800781 120.800781 Z M 236.800781 120.800781 "/>
<path style=" stroke:none;fill-rule:nonzero;fill:rgb(12.156863%,12.941177%,16.862746%);fill-opacity:1;" d="M 212.046875 180.433594 C 212.046875 183.539062 206.652344 176.492188 200 176.492188 C 193.347656 176.492188 187.953125 183.539062 187.953125 180.433594 C 187.953125 177.324219 193.347656 169.175781 200 169.175781 C 206.652344 169.175781 212.046875 177.324219 212.046875 180.433594 Z M 212.046875 180.433594 "/>
<path style=" stroke:none;fill-rule:nonzero;fill:rgb(12.156863%,12.941177%,16.862746%);fill-opacity:1;" d="M 196.007812 204.6875 C 196.226562 207.75 190.414062 201.195312 183.863281 201.667969 C 177.308594 202.140625 172.5 209.464844 172.277344 206.40625 C 172.058594 203.34375 176.789062 194.9375 183.339844 194.464844 C 189.890625 193.988281 195.785156 201.625 196.007812 204.6875 Z M 196.007812 204.6875 "/>
<path style=" stroke:none;fill-rule:nonzero;fill:rgb(12.156863%,12.941177%,16.862746%);fill-opacity:1;" d="M 203.992188 204.6875 C 203.773438 207.75 209.585938 201.195312 216.136719 201.667969 C 222.691406 202.140625 227.5 209.464844 227.722656 206.40625 C 227.941406 203.34375 223.210938 194.9375 216.660156 194.464844 C 210.109375 193.988281 204.214844 201.625 203.992188 204.6875 Z M 203.992188 204.6875 "/>
<path style=" stroke:none;fill-rule:nonzero;fill:rgb(12.156863%,12.941177%,16.862746%);fill-opacity:1;" d="M 164.007812 209.175781 C 165 212.121094 157.019531 206.769531 150.71875 208.902344 C 144.417969 211.035156 141.15625 219.105469 140.160156 216.164062 C 139.164062 213.21875 143.140625 203.9375 149.441406 201.800781 C 155.742188 199.667969 163.011719 206.234375 164.007812 209.175781 Z M 164.007812 209.175781 "/>
<path style=" stroke:none;fill-rule:nonzero;fill:rgb(12.156863%,12.941177%,16.862746%);fill-opacity:1;" d="M 235.992188 209.175781 C 235 212.121094 242.980469 206.769531 249.28125 208.902344 C 255.582031 211.035156 258.84375 219.105469 259.839844 216.164062 C 260.835938 213.21875 256.859375 203.9375 250.558594 201.800781 C 244.257812 199.667969 236.988281 206.234375 235.992188 209.175781 Z M 235.992188 209.175781 "/>
<path style=" stroke:none;fill-rule:nonzero;fill:rgb(12.156863%,12.941177%,16.862746%);fill-opacity:1;" d="M 153.144531 190.238281 C 153.980469 193.460938 157.890625 185.34375 164.332031 183.671875 C 170.773438 182.003906 177.304688 186.738281 176.46875 183.519531 C 175.636719 180.300781 170.558594 173.972656 164.117188 175.640625 C 157.675781 177.3125 152.308594 187.019531 153.144531 190.238281 Z M 153.144531 190.238281 "/>
<path style=" stroke:none;fill-rule:nonzero;fill:rgb(12.156863%,12.941177%,16.862746%);fill-opacity:1;" d="M 246.855469 190.238281 C 246.019531 193.460938 242.109375 185.34375 235.667969 183.671875 C 229.226562 182.003906 222.695312 186.738281 223.53125 183.519531 C 224.363281 180.300781 229.441406 173.972656 235.882812 175.640625 C 242.324219 177.3125 247.691406 187.019531 246.855469 190.238281 Z M 246.855469 190.238281 "/>
</g>
</svg>
