<?xml version="1.0" encoding="UTF-8"?>
<svg xmlns="http://www.w3.org/2000/svg" xmlns:xlink="http://www.w3.org/1999/xlink" viewBox="0 0 400 400" width="400px" height="400px">
<g id="surface29773141">
<path style=" stroke:none;fill-rule:nonzero;fill:rgb(0%,0%,0%);fill-opacity:1;" d="M 0 400 L 0 0 L 400 0 L 400 400 Z M 392 392 L 392 8 L 8 8 L 8 392 Z M 392 392 "/>
<path style=" stroke:none;fill-rule:nonzero;fill:rgb(91.764706%,83.92157%,78.039217%);fill-opacity:1;" d="M 107.199219 256.671875 C 107.199219 241.601562 120 220.800781 120 220.800781 L 120 209.601562 C 120 209.601562 113.601562 203.199219 103.230469 203.199219 C 94.070312 203.199219 84.800781 210.488281 84.800781 224.414062 C 84.800781 239.488281 95.214844 255.195312 107.441406 261.3125 C 107.300781 259.796875 107.199219 258.257812 107.199219 256.671875 Z M 107.199219 256.671875 "/>
<path style=" stroke:none;fill-rule:nonzero;fill:rgb(80.000001%,67.450982%,58.039218%);fill-opacity:1;" d="M 120 220.800781 L 112.03125 220.800781 C 106.757812 220.800781 102.441406 225.117188 102.441406 230.390625 C 102.441406 235.253906 106.121094 239.257812 110.828125 239.859375 C 114.613281 229.582031 120 220.800781 120 220.800781 Z M 120 220.800781 "/>
<path style=" stroke:none;fill-rule:nonzero;fill:rgb(91.764706%,83.92157%,78.039217%);fill-opacity:1;" d="M 200 281.601562 C 181.476562 281.601562 166.398438 268.679688 166.398438 252.800781 C 166.398438 236.917969 181.476562 224 200 224 C 218.523438 224 233.601562 236.917969 233.601562 252.800781 C 233.601562 268.679688 218.523438 281.601562 200 281.601562 Z M 200 281.601562 "/>
<path style=" stroke:none;fill-rule:nonzero;fill:rgb(91.764706%,83.92157%,78.039217%);fill-opacity:1;" d="M 292.800781 256.671875 C 292.800781 241.601562 280 220.800781 280 220.800781 L 280 209.601562 C 280 209.601562 286.398438 203.199219 296.769531 203.199219 C 305.929688 203.199219 315.199219 210.488281 315.199219 224.414062 C 315.199219 239.488281 304.785156 255.195312 292.558594 261.3125 C 292.699219 259.796875 292.800781 258.257812 292.800781 256.671875 Z M 292.800781 256.671875 "/>
<path style=" stroke:none;fill-rule:nonzero;fill:rgb(80.000001%,67.450982%,58.039218%);fill-opacity:1;" d="M 287.96875 220.800781 L 280 220.800781 C 280 220.800781 285.386719 229.582031 289.171875 239.859375 C 293.878906 239.257812 297.558594 235.253906 297.558594 230.390625 C 297.558594 225.117188 293.242188 220.800781 287.96875 220.800781 Z M 287.96875 220.800781 "/>
<path style=" stroke:none;fill-rule:nonzero;fill:rgb(94.901961%,48.627451%,48.627451%);fill-opacity:1;" d="M 200 72 C 126.398438 72 84.800781 142.398438 84.800781 171.332031 C 84.800781 184.859375 92.644531 196.417969 99.171875 203.703125 C 100.507812 203.382812 101.867188 203.199219 103.230469 203.199219 C 113.601562 203.199219 120 209.601562 120 209.601562 L 120 203.292969 C 120 198.726562 122.183594 194.363281 125.835938 191.621094 L 127.039062 190.71875 C 127.039062 190.71875 127.042969 190.71875 127.046875 190.71875 C 127.074219 190.695312 127.28125 190.546875 127.589844 190.332031 C 127.664062 190.207031 127.734375 190.136719 127.808594 190.171875 C 132.480469 186.945312 157.453125 171.199219 200 171.199219 C 242.566406 171.199219 267.539062 186.957031 272.199219 190.175781 C 272.273438 190.144531 272.363281 190.222656 272.46875 190.375 C 272.738281 190.5625 272.925781 190.695312 272.953125 190.71875 C 272.953125 190.71875 272.957031 190.71875 272.960938 190.71875 L 274.164062 191.621094 C 277.816406 194.363281 280 198.730469 280 203.292969 L 280 209.601562 C 280 209.601562 286.398438 203.199219 296.769531 203.199219 C 298.132812 203.199219 299.496094 203.382812 300.828125 203.703125 C 307.355469 196.417969 315.199219 184.859375 315.199219 171.332031 C 315.199219 142.398438 273.601562 72 200 72 Z M 200 72 "/>
<path style=" stroke:none;fill-rule:nonzero;fill:rgb(90.980393%,33.725491%,32.941177%);fill-opacity:1;" d="M 200 171.199219 C 242.566406 171.199219 267.539062 186.957031 272.199219 190.175781 C 274.824219 188.964844 283.199219 184.3125 283.199219 174.398438 C 283.199219 158.964844 261.042969 136 200 136 C 138.957031 136 116.800781 158.964844 116.800781 174.398438 C 116.800781 184.222656 125.210938 188.945312 127.808594 190.171875 C 132.480469 186.945312 157.453125 171.199219 200 171.199219 Z M 200 171.199219 "/>
<path style=" stroke:none;fill-rule:nonzero;fill:rgb(91.764706%,83.92157%,78.039217%);fill-opacity:1;" d="M 280 209.601562 L 280 203.292969 C 280 198.726562 277.816406 194.363281 274.164062 191.621094 L 272.960938 190.71875 C 272.960938 190.71875 272.957031 190.714844 272.953125 190.714844 C 272.925781 190.699219 272.738281 190.5625 272.46875 190.375 C 272.363281 190.222656 272.273438 190.140625 272.199219 190.175781 C 267.539062 186.957031 242.566406 171.199219 200 171.199219 C 157.453125 171.199219 132.480469 186.945312 127.808594 190.171875 C 127.734375 190.136719 127.660156 190.207031 127.589844 190.332031 C 127.28125 190.546875 127.078125 190.695312 127.046875 190.714844 C 127.046875 190.714844 127.042969 190.71875 127.039062 190.71875 L 125.835938 191.621094 C 122.183594 194.363281 120 198.730469 120 203.292969 L 120 220.800781 C 120 220.800781 107.199219 241.601562 107.199219 256.671875 C 107.199219 293.511719 146.691406 310.4375 151.195312 312.246094 C 153.253906 313.0625 155.101562 313.800781 156.664062 314.539062 C 159.367188 315.804688 161.75 317.089844 164.058594 318.335938 L 164.449219 318.546875 C 173.433594 323.410156 181.910156 328 200 328 C 218.089844 328 226.566406 323.410156 235.550781 318.546875 L 235.941406 318.335938 C 238.25 317.089844 240.632812 315.804688 243.335938 314.539062 C 244.898438 313.804688 246.746094 313.0625 248.804688 312.246094 C 253.308594 310.4375 292.800781 293.511719 292.800781 256.671875 C 292.800781 241.601562 280 220.800781 280 220.800781 Z M 280 209.601562 "/>
<path style=" stroke:none;fill-rule:nonzero;fill:rgb(71.764708%,46.666667%,28.235295%);fill-opacity:1;" d="M 128 192 L 126.792969 192.902344 C 123.523438 195.355469 121.601562 199.203125 121.601562 203.292969 L 121.601562 209.601562 L 118.398438 209.601562 C 118.398438 217.148438 118.398438 223.675781 118.398438 226.910156 C 118.398438 226.910156 120.050781 223.507812 121.601562 221.25 C 129.601562 209.597656 137.601562 204.796875 137.601562 204.796875 L 137.601562 186.402344 C 131.3125 189.546875 128 192 128 192 Z M 128 192 "/>
<path style=" stroke:none;fill-rule:nonzero;fill:rgb(71.764708%,46.666667%,28.235295%);fill-opacity:1;" d="M 272 192 L 273.207031 192.902344 C 276.476562 195.355469 278.398438 199.203125 278.398438 203.292969 L 278.398438 209.601562 L 281.601562 209.601562 C 281.601562 217.148438 281.601562 223.675781 281.601562 226.910156 C 281.601562 226.910156 279.949219 223.507812 278.398438 221.25 C 270.398438 209.601562 262.398438 204.800781 262.398438 204.800781 L 262.398438 186.40625 C 268.6875 189.546875 272 192 272 192 Z M 272 192 "/>
<path style=" stroke:none;fill-rule:nonzero;fill:rgb(99.607843%,99.215686%,93.725491%);fill-opacity:1;" d="M 168.066406 138.417969 C 167.382812 138.417969 166.765625 137.980469 166.542969 137.316406 C 165.390625 133.761719 164.800781 130.085938 164.800781 126.398438 C 164.800781 106.992188 180.59375 91.199219 200 91.199219 C 219.40625 91.199219 235.199219 106.992188 235.199219 126.398438 C 235.199219 130.070312 234.621094 133.71875 233.480469 137.242188 C 233.238281 137.984375 232.5 138.433594 231.707031 138.328125 C 221.941406 136.785156 211.273438 136 200 136 C 188.503906 136 177.847656 136.804688 168.328125 138.398438 C 168.238281 138.414062 168.152344 138.417969 168.066406 138.417969 Z M 168.066406 138.417969 "/>
<path style=" stroke:none;fill-rule:nonzero;fill:rgb(71.764708%,46.666667%,28.235295%);fill-opacity:1;" d="M 270.398438 246.398438 C 270.398438 246.398438 262.164062 260.46875 230.664062 264.515625 C 225.414062 274.566406 213.65625 281.601562 200 281.601562 C 186.34375 281.601562 174.585938 274.566406 169.335938 264.515625 C 137.835938 260.46875 129.601562 246.398438 129.601562 246.398438 C 129.601562 246.398438 128 248 128 256 C 128 264 131.882812 270.910156 137.632812 274.230469 C 137.96875 285.425781 147.125 294.398438 158.398438 294.398438 C 162.1875 294.398438 165.726562 293.371094 168.785156 291.601562 C 171 298.785156 177.691406 304 185.601562 304 C 191.558594 304 196.816406 301.03125 200 296.5 C 203.183594 301.03125 208.441406 304 214.398438 304 C 222.308594 304 229 298.785156 231.214844 291.601562 C 234.273438 293.371094 237.8125 294.398438 241.601562 294.398438 C 252.875 294.398438 262.03125 285.425781 262.367188 274.230469 C 268.117188 270.910156 272 264 272 256 C 272 248 270.398438 246.398438 270.398438 246.398438 Z M 270.398438 246.398438 "/>
<path style=" stroke:none;fill-rule:nonzero;fill:rgb(12.156863%,12.941177%,16.862746%);fill-opacity:1;" d="M 112.03125 241.582031 C 105.859375 241.582031 100.839844 236.5625 100.839844 230.390625 C 100.839844 224.21875 105.859375 219.199219 112.03125 219.199219 L 121.601562 219.199219 L 121.601562 222.398438 L 112.03125 222.398438 C 107.625 222.398438 104.042969 225.984375 104.042969 230.390625 C 104.042969 234.796875 107.625 238.378906 112.03125 238.378906 Z M 112.03125 241.582031 "/>
<path style=" stroke:none;fill-rule:nonzero;fill:rgb(12.156863%,12.941177%,16.862746%);fill-opacity:1;" d="M 111.15625 266.75 L 106.007812 264.167969 C 92.089844 257.207031 81.601562 240.113281 81.601562 224.414062 C 81.601562 208.386719 92.480469 200 103.230469 200 C 114.792969 200 121.964844 207.035156 122.261719 207.335938 L 123.199219 208.273438 L 123.199219 221.707031 L 122.726562 222.472656 C 122.601562 222.679688 110.398438 242.695312 110.398438 256.671875 C 110.398438 257.992188 110.46875 259.371094 110.625 261.011719 Z M 103.230469 206.398438 C 95.664062 206.398438 88 212.589844 88 224.414062 C 88 235.75 94.734375 248.351562 104.027344 255.410156 C 104.601562 241.335938 114.46875 223.867188 116.800781 219.914062 L 116.800781 211.070312 C 114.851562 209.558594 109.972656 206.398438 103.230469 206.398438 Z M 103.230469 206.398438 "/>
<path style=" stroke:none;fill-rule:nonzero;fill:rgb(12.156863%,12.941177%,16.862746%);fill-opacity:1;" d="M 200 283.199219 C 180.59375 283.199219 164.800781 269.5625 164.800781 252.800781 C 164.800781 236.039062 180.59375 222.398438 200 222.398438 C 219.40625 222.398438 235.199219 236.039062 235.199219 252.800781 C 235.199219 269.5625 219.40625 283.199219 200 283.199219 Z M 200 225.601562 C 182.355469 225.601562 168 237.800781 168 252.800781 C 168 267.796875 182.355469 280 200 280 C 217.644531 280 232 267.796875 232 252.800781 C 232 237.800781 217.644531 225.601562 200 225.601562 Z M 200 225.601562 "/>
<path style=" stroke:none;fill-rule:nonzero;fill:rgb(12.156863%,12.941177%,16.862746%);fill-opacity:1;" d="M 214.398438 305.601562 C 208.867188 305.601562 203.628906 303.195312 200 299.082031 C 196.371094 303.195312 191.132812 305.601562 185.601562 305.601562 C 177.769531 305.601562 170.875 300.960938 167.90625 293.867188 C 164.929688 295.265625 161.675781 296 158.398438 296 C 146.519531 296 136.875 286.910156 136.074219 275.15625 C 130.082031 271.300781 126.398438 264.054688 126.398438 256 C 126.398438 247.960938 127.984375 245.753906 128.46875 245.265625 C 128.820312 244.917969 129.316406 244.753906 129.800781 244.808594 C 130.292969 244.875 130.730469 245.160156 130.980469 245.585938 C 131.054688 245.714844 139.363281 259.054688 169.535156 262.925781 C 170.054688 262.992188 170.507812 263.308594 170.753906 263.773438 C 175.902344 273.632812 187.382812 280 200 280 C 212.617188 280 224.097656 273.632812 229.246094 263.777344 C 229.492188 263.3125 229.945312 262.996094 230.464844 262.929688 C 260.828125 259.03125 268.941406 245.726562 269.019531 245.589844 C 269.269531 245.160156 269.707031 244.875 270.199219 244.8125 C 270.679688 244.742188 271.179688 244.914062 271.53125 245.269531 C 272.015625 245.753906 273.601562 247.960938 273.601562 256 C 273.601562 264.054688 269.917969 271.300781 263.925781 275.15625 C 263.125 286.910156 253.480469 296 241.601562 296 C 238.324219 296 235.070312 295.265625 232.09375 293.867188 C 229.125 300.960938 222.230469 305.601562 214.398438 305.601562 Z M 200 294.898438 C 200.523438 294.898438 201.007812 295.152344 201.308594 295.582031 C 204.308594 299.847656 209.203125 302.398438 214.398438 302.398438 C 221.460938 302.398438 227.601562 297.871094 229.6875 291.132812 C 229.832031 290.664062 230.175781 290.292969 230.628906 290.113281 C 231.085938 289.941406 231.597656 289.980469 232.015625 290.222656 C 234.941406 291.910156 238.253906 292.800781 241.601562 292.800781 C 252.035156 292.800781 260.453125 284.621094 260.769531 274.1875 C 260.789062 273.628906 261.089844 273.125 261.566406 272.847656 C 267.015625 269.703125 270.398438 263.246094 270.398438 256 C 270.398438 252.988281 270.164062 250.964844 269.902344 249.652344 C 266.007812 253.976562 255.394531 262.785156 231.6875 265.992188 C 225.8125 276.472656 213.484375 283.199219 200 283.199219 C 186.515625 283.199219 174.1875 276.472656 168.316406 265.992188 C 144.597656 262.785156 133.984375 253.964844 130.097656 249.644531 C 129.835938 250.953125 129.601562 252.976562 129.601562 256 C 129.601562 263.246094 132.984375 269.699219 138.433594 272.847656 C 138.910156 273.125 139.210938 273.628906 139.230469 274.1875 C 139.546875 284.621094 147.964844 292.800781 158.398438 292.800781 C 161.746094 292.800781 165.058594 291.910156 167.984375 290.222656 C 168.40625 289.980469 168.917969 289.941406 169.371094 290.113281 C 169.824219 290.292969 170.167969 290.667969 170.3125 291.132812 C 172.398438 297.871094 178.539062 302.398438 185.601562 302.398438 C 190.796875 302.398438 195.691406 299.851562 198.691406 295.582031 C 198.992188 295.152344 199.476562 294.898438 200 294.898438 Z M 200 294.898438 "/>
<path style=" stroke:none;fill-rule:nonzero;fill:rgb(12.156863%,12.941177%,16.862746%);fill-opacity:1;" d="M 174.398438 206.398438 C 170.027344 206.398438 166.378906 210.320312 165.21875 215.652344 C 165.96875 213.972656 167.640625 212.800781 169.601562 212.800781 C 172.25 212.800781 174.398438 214.949219 174.398438 217.601562 C 174.398438 220.25 172.25 222.398438 169.601562 222.398438 C 167.183594 222.398438 165.203125 220.609375 164.871094 218.285156 C 164.851562 218.59375 164.800781 218.886719 164.800781 219.199219 C 164.800781 226.269531 169.097656 232 174.398438 232 C 179.703125 232 184 226.269531 184 219.199219 C 184 212.132812 179.703125 206.398438 174.398438 206.398438 Z M 174.398438 206.398438 "/>
<path style=" stroke:none;fill-rule:nonzero;fill:rgb(12.156863%,12.941177%,16.862746%);fill-opacity:1;" d="M 225.601562 206.398438 C 221.230469 206.398438 217.582031 210.320312 216.417969 215.652344 C 217.167969 213.972656 218.839844 212.800781 220.800781 212.800781 C 223.449219 212.800781 225.601562 214.949219 225.601562 217.601562 C 225.601562 220.25 223.449219 222.398438 220.800781 222.398438 C 218.382812 222.398438 216.402344 220.609375 216.070312 218.285156 C 216.050781 218.59375 216 218.886719 216 219.199219 C 216 226.269531 220.296875 232 225.601562 232 C 230.902344 232 235.199219 226.269531 235.199219 219.199219 C 235.199219 212.132812 230.902344 206.398438 225.601562 206.398438 Z M 225.601562 206.398438 "/>
<path style=" stroke:none;fill-rule:nonzero;fill:rgb(12.156863%,12.941177%,16.862746%);fill-opacity:1;" d="M 118.398438 228.511719 C 118.28125 228.511719 118.164062 228.5 118.042969 228.46875 C 117.316406 228.304688 116.800781 227.660156 116.800781 226.910156 L 116.800781 209.601562 C 116.800781 208.714844 117.515625 208 118.398438 208 L 120 208 L 120 203.292969 C 120 198.726562 122.183594 194.363281 125.832031 191.621094 L 127.039062 190.71875 C 127.042969 190.71875 127.046875 190.714844 127.046875 190.714844 C 127.1875 190.609375 130.546875 188.140625 136.882812 184.976562 C 137.375 184.726562 137.96875 184.757812 138.4375 185.046875 C 138.910156 185.335938 139.199219 185.851562 139.199219 186.40625 L 139.199219 204.800781 C 139.199219 205.359375 138.90625 205.882812 138.425781 206.171875 C 138.347656 206.222656 130.597656 210.976562 122.917969 222.160156 C 121.460938 224.289062 119.855469 227.578125 119.839844 227.613281 C 119.566406 228.171875 119 228.511719 118.398438 228.511719 Z M 120 211.199219 L 120 220.765625 C 120.09375 220.625 120.1875 220.484375 120.28125 220.34375 C 127.035156 210.507812 133.753906 205.460938 136 203.929688 L 136 189.03125 C 131.480469 191.441406 129.039062 193.222656 128.953125 193.28125 L 127.753906 194.183594 C 124.902344 196.324219 123.199219 199.726562 123.199219 203.292969 L 123.199219 209.601562 C 123.199219 210.484375 122.484375 211.199219 121.601562 211.199219 Z M 120 211.199219 "/>
<path style=" stroke:none;fill-rule:nonzero;fill:rgb(12.156863%,12.941177%,16.862746%);fill-opacity:1;" d="M 123.199219 208 L 116.800781 208 L 116.800781 203.292969 C 116.800781 197.722656 119.460938 192.402344 123.921875 189.0625 L 125.121094 188.160156 C 125.15625 188.136719 128.667969 185.5 135.460938 182.113281 L 138.316406 187.835938 C 132.183594 190.898438 129 193.246094 128.96875 193.273438 L 127.761719 194.179688 C 124.902344 196.324219 123.199219 199.726562 123.199219 203.292969 Z M 123.199219 208 "/>
<path style=" stroke:none;fill-rule:nonzero;fill:rgb(12.156863%,12.941177%,16.862746%);fill-opacity:1;" d="M 283.199219 208 L 276.800781 208 L 276.800781 203.292969 C 276.800781 199.726562 275.097656 196.320312 272.242188 194.179688 L 271.023438 193.265625 C 271 193.246094 267.816406 190.898438 261.6875 187.835938 L 264.542969 182.113281 C 269.347656 184.507812 272.507812 186.527344 273.960938 187.511719 L 274.277344 187.511719 L 275.058594 188.292969 L 276.082031 189.054688 C 280.539062 192.402344 283.199219 197.726562 283.199219 203.292969 Z M 283.199219 208 "/>
<path style=" stroke:none;fill-rule:nonzero;fill:rgb(12.156863%,12.941177%,16.862746%);fill-opacity:1;" d="M 287.96875 241.582031 L 287.96875 238.378906 C 292.375 238.378906 295.957031 234.796875 295.957031 230.390625 C 295.957031 225.984375 292.375 222.398438 287.96875 222.398438 L 278.398438 222.398438 L 278.398438 219.199219 L 287.96875 219.199219 C 294.140625 219.199219 299.160156 224.21875 299.160156 230.390625 C 299.160156 236.5625 294.140625 241.582031 287.96875 241.582031 Z M 287.96875 241.582031 "/>
<path style=" stroke:none;fill-rule:nonzero;fill:rgb(12.156863%,12.941177%,16.862746%);fill-opacity:1;" d="M 200 331.199219 C 181.105469 331.199219 171.867188 326.199219 162.929688 321.367188 L 162.527344 321.148438 C 160.230469 319.90625 157.90625 318.65625 155.308594 317.441406 C 153.789062 316.722656 152.007812 316.011719 150.015625 315.226562 C 145.292969 313.324219 104 295.609375 104 256.671875 C 104 242.398438 114.394531 223.980469 116.800781 219.914062 L 116.800781 209.601562 L 123.199219 209.601562 L 123.199219 221.707031 L 122.726562 222.472656 C 122.601562 222.679688 110.398438 242.695312 110.398438 256.671875 C 110.398438 291.40625 148.089844 307.546875 152.386719 309.277344 C 154.503906 310.113281 156.410156 310.882812 158.027344 311.644531 C 160.78125 312.929688 163.191406 314.230469 165.519531 315.484375 L 165.976562 315.730469 C 174.964844 320.601562 182.726562 324.800781 200 324.800781 C 217.273438 324.800781 225.035156 320.597656 234.027344 315.734375 L 234.417969 315.523438 C 236.808594 314.234375 239.21875 312.929688 241.976562 311.640625 C 243.589844 310.886719 245.496094 310.113281 247.628906 309.273438 C 251.910156 307.546875 289.601562 291.402344 289.601562 256.671875 C 289.601562 242.695312 277.398438 222.679688 277.273438 222.472656 L 276.800781 221.707031 L 276.800781 209.601562 L 283.199219 209.601562 L 283.199219 219.914062 C 285.605469 223.980469 296 242.398438 296 256.671875 C 296 295.609375 254.707031 313.324219 250 315.214844 C 247.992188 316.007812 246.207031 316.722656 244.699219 317.433594 C 242.097656 318.652344 239.769531 319.902344 237.519531 321.117188 L 237.082031 321.355469 C 228.132812 326.203125 218.894531 331.199219 200 331.199219 Z M 200 331.199219 "/>
<path style=" stroke:none;fill-rule:nonzero;fill:rgb(12.156863%,12.941177%,16.862746%);fill-opacity:1;" d="M 288.84375 266.75 L 289.375 261.011719 C 289.53125 259.371094 289.601562 257.992188 289.601562 256.671875 C 289.601562 242.695312 277.398438 222.679688 277.273438 222.472656 L 276.800781 221.707031 L 276.800781 208.273438 L 277.738281 207.335938 C 278.039062 207.035156 285.207031 200 296.769531 200 C 307.519531 200 318.398438 208.386719 318.398438 224.414062 C 318.398438 240.117188 307.910156 257.210938 293.992188 264.171875 Z M 283.199219 219.914062 C 285.53125 223.863281 295.402344 241.335938 295.972656 255.414062 C 305.265625 248.351562 312 235.753906 312 224.414062 C 312 212.589844 304.335938 206.398438 296.769531 206.398438 C 289.957031 206.398438 285.128906 209.539062 283.199219 211.058594 Z M 283.199219 219.914062 "/>
<path style=" stroke:none;fill-rule:nonzero;fill:rgb(12.156863%,12.941177%,16.862746%);fill-opacity:1;" d="M 282.25 211.875 L 277.738281 207.335938 C 278.039062 207.035156 285.207031 200 296.769531 200 C 297.707031 200 298.664062 200.070312 299.628906 200.210938 C 305.53125 193.292969 312 183.035156 312 171.332031 C 312 141.96875 269.6875 75.199219 200 75.199219 C 130.3125 75.199219 88 141.96875 88 171.332031 C 88 183.035156 94.46875 193.292969 100.371094 200.210938 C 101.335938 200.070312 102.292969 200 103.230469 200 C 114.792969 200 121.964844 207.035156 122.261719 207.335938 L 117.738281 211.863281 C 117.691406 211.816406 112.0625 206.398438 103.230469 206.398438 C 102.175781 206.398438 101.058594 206.539062 99.921875 206.8125 L 98.066406 207.265625 L 96.792969 205.84375 C 89.859375 198.113281 81.601562 185.847656 81.601562 171.332031 C 81.601562 141.574219 123.089844 68.800781 200 68.800781 C 276.910156 68.800781 318.398438 141.574219 318.398438 171.332031 C 318.398438 185.847656 310.140625 198.113281 303.210938 205.839844 L 301.9375 207.261719 L 300.078125 206.808594 C 298.941406 206.539062 297.824219 206.398438 296.769531 206.398438 C 287.9375 206.398438 282.308594 211.816406 282.25 211.875 Z M 282.25 211.875 "/>
<path style=" stroke:none;fill-rule:nonzero;fill:rgb(12.156863%,12.941177%,16.862746%);fill-opacity:1;" d="M 128.109375 193.851562 L 126.441406 193.066406 C 123.425781 191.644531 113.601562 186.097656 113.601562 174.398438 C 113.601562 157.675781 136.609375 132.800781 200 132.800781 C 263.390625 132.800781 286.398438 157.675781 286.398438 174.398438 C 286.398438 186.222656 276.558594 191.6875 273.539062 193.082031 L 271.882812 193.847656 L 270.378906 192.808594 C 265.933594 189.734375 241.625 174.398438 200 174.398438 C 158.386719 174.398438 134.074219 189.730469 129.625 192.804688 Z M 200 168 C 239.882812 168 264.855469 181.667969 272.390625 186.46875 C 275.265625 184.78125 280 181 280 174.398438 C 280 160.789062 258.28125 139.199219 200 139.199219 C 141.71875 139.199219 120 160.789062 120 174.398438 C 120 180.925781 124.746094 184.738281 127.628906 186.453125 C 135.183594 181.648438 160.15625 168 200 168 Z M 200 168 "/>
<path style=" stroke:none;fill-rule:nonzero;fill:rgb(12.156863%,12.941177%,16.862746%);fill-opacity:1;" d="M 281.601562 228.511719 C 281 228.511719 280.433594 228.171875 280.160156 227.613281 C 280.144531 227.578125 278.539062 224.289062 277.082031 222.160156 C 269.371094 210.921875 261.65625 206.222656 261.578125 206.171875 C 261.09375 205.886719 260.800781 205.363281 260.800781 204.800781 L 260.800781 186.40625 C 260.800781 185.851562 261.089844 185.335938 261.558594 185.046875 C 262.027344 184.753906 262.621094 184.722656 263.113281 184.976562 C 269.449219 188.140625 272.808594 190.609375 272.949219 190.714844 C 272.949219 190.714844 272.953125 190.71875 272.957031 190.71875 L 274.164062 191.621094 C 277.816406 194.363281 280 198.730469 280 203.292969 L 280 208 L 281.601562 208 C 282.484375 208 283.199219 208.714844 283.199219 209.601562 L 283.199219 226.910156 C 283.199219 227.65625 282.683594 228.304688 281.957031 228.46875 C 281.835938 228.5 281.71875 228.511719 281.601562 228.511719 Z M 264 203.933594 C 266.246094 205.460938 272.964844 210.511719 279.71875 220.347656 C 279.8125 220.488281 279.90625 220.628906 280 220.769531 L 280 211.199219 L 278.398438 211.199219 C 277.515625 211.199219 276.800781 210.484375 276.800781 209.601562 L 276.800781 203.292969 C 276.800781 199.726562 275.097656 196.320312 272.246094 194.183594 L 271.046875 193.28125 C 270.960938 193.21875 268.519531 191.441406 264 189.03125 Z M 264 203.933594 "/>
<path style=" stroke:none;fill-rule:nonzero;fill:rgb(12.156863%,12.941177%,16.862746%);fill-opacity:1;" d="M 168.066406 138.417969 C 167.382812 138.417969 166.765625 137.980469 166.542969 137.316406 C 165.390625 133.761719 164.800781 130.085938 164.800781 126.398438 C 164.800781 106.992188 180.59375 91.199219 200 91.199219 C 219.40625 91.199219 235.199219 106.992188 235.199219 126.398438 C 235.199219 130.070312 234.621094 133.71875 233.480469 137.242188 C 233.238281 137.984375 232.5 138.433594 231.707031 138.328125 C 221.941406 136.785156 211.273438 136 200 136 C 188.503906 136 177.847656 136.804688 168.328125 138.398438 C 168.238281 138.414062 168.152344 138.417969 168.066406 138.417969 Z M 200 94.398438 C 182.355469 94.398438 168 108.753906 168 126.398438 C 168 129.300781 168.398438 132.195312 169.191406 135.015625 C 178.523438 133.542969 188.878906 132.800781 200 132.800781 C 210.914062 132.800781 221.277344 133.527344 230.828125 134.953125 C 231.605469 132.15625 232 129.285156 232 126.398438 C 232 108.753906 217.644531 94.398438 200 94.398438 Z M 200 94.398438 "/>
<path style=" stroke:none;fill-rule:nonzero;fill:rgb(12.156863%,12.941177%,16.862746%);fill-opacity:1;" d="M 220.800781 254.398438 C 219.917969 254.398438 219.199219 253.683594 219.199219 252.800781 C 219.199219 251.859375 219.078125 250.921875 218.835938 250.011719 C 218.609375 249.15625 219.117188 248.28125 219.96875 248.054688 C 220.855469 247.816406 221.703125 248.339844 221.925781 249.1875 C 222.238281 250.367188 222.398438 251.582031 222.398438 252.800781 C 222.398438 253.683594 221.683594 254.398438 220.800781 254.398438 Z M 220.800781 254.398438 "/>
<path style=" stroke:none;fill-rule:nonzero;fill:rgb(12.156863%,12.941177%,16.862746%);fill-opacity:1;" d="M 216.570312 244.800781 C 216.152344 244.800781 215.742188 244.640625 215.429688 244.324219 C 212.101562 240.933594 207.03125 238.804688 201.507812 238.480469 C 200.625 238.425781 199.953125 237.671875 200.003906 236.789062 C 200.054688 235.910156 200.824219 235.230469 201.691406 235.285156 C 207.996094 235.660156 213.832031 238.136719 217.707031 242.078125 C 218.328125 242.710938 218.320312 243.726562 217.691406 244.34375 C 217.378906 244.644531 216.976562 244.800781 216.570312 244.800781 Z M 216.570312 244.800781 "/>
<path style=" stroke:none;fill-rule:nonzero;fill:rgb(12.156863%,12.941177%,16.862746%);fill-opacity:1;" d="M 182.210938 136.722656 C 182.222656 136.703125 182.238281 136.695312 182.25 136.675781 L 192.382812 114.957031 L 198.769531 122.625 C 199.378906 123.355469 200.621094 123.355469 201.230469 122.625 L 207.621094 114.957031 L 217.753906 136.675781 C 217.761719 136.695312 217.78125 136.703125 217.792969 136.722656 C 222.0625 137.082031 226.105469 137.558594 229.902344 138.152344 L 211.019531 101.664062 C 210.769531 101.175781 210.28125 100.847656 209.734375 100.804688 C 209.167969 100.753906 208.648438 101 208.324219 101.4375 L 200 112.535156 L 191.679688 101.441406 C 191.351562 101 190.824219 100.753906 190.269531 100.804688 C 189.722656 100.851562 189.230469 101.175781 188.980469 101.667969 L 170.097656 138.160156 C 173.894531 137.558594 177.9375 137.082031 182.210938 136.722656 Z M 182.210938 136.722656 "/>
<path style=" stroke:none;fill-rule:nonzero;fill:rgb(12.156863%,12.941177%,16.862746%);fill-opacity:1;" d="M 185.601562 196.800781 C 185.28125 196.800781 184.960938 196.703125 184.679688 196.507812 C 184.59375 196.453125 175.789062 190.398438 163.199219 190.398438 C 153.761719 190.398438 148.449219 196.203125 148.398438 196.261719 C 147.902344 196.820312 147.097656 196.957031 146.445312 196.605469 C 145.796875 196.257812 145.464844 195.507812 145.652344 194.792969 C 145.835938 194.09375 150.296875 177.601562 163.199219 177.601562 C 177.261719 177.601562 186.597656 193.722656 186.992188 194.410156 C 187.363281 195.058594 187.230469 195.878906 186.679688 196.378906 C 186.375 196.660156 185.988281 196.800781 185.601562 196.800781 Z M 185.601562 196.800781 "/>
<path style=" stroke:none;fill-rule:nonzero;fill:rgb(12.156863%,12.941177%,16.862746%);fill-opacity:1;" d="M 213.324219 196.378906 C 212.769531 195.878906 212.640625 195.058594 213.011719 194.410156 C 213.398438 193.722656 222.738281 177.601562 236.800781 177.601562 C 249.703125 177.601562 254.164062 194.09375 254.347656 194.792969 C 254.535156 195.511719 254.207031 196.257812 253.554688 196.605469 C 252.902344 196.953125 252.097656 196.816406 251.601562 196.261719 C 251.550781 196.203125 246.238281 190.398438 236.800781 190.398438 C 224.210938 190.398438 215.40625 196.453125 215.316406 196.507812 C 215.039062 196.703125 214.71875 196.800781 214.398438 196.800781 C 214.011719 196.800781 213.625 196.660156 213.324219 196.378906 Z M 213.324219 196.378906 "/>
</g>
</svg>
