<?xml version="1.0" encoding="UTF-8"?>
<svg xmlns="http://www.w3.org/2000/svg" xmlns:xlink="http://www.w3.org/1999/xlink" viewBox="0 0 400 400" width="400px" height="400px">
<g id="surface29773518">
<path style=" stroke:none;fill-rule:nonzero;fill:rgb(0%,0%,0%);fill-opacity:1;" d="M 0 400 L 0 0 L 400 0 L 400 400 Z M 392 392 L 392 8 L 8 8 L 8 392 Z M 392 392 "/>
<path style=" stroke:none;fill-rule:nonzero;fill:rgb(30.588236%,43.137255%,56.862748%);fill-opacity:1;" d="M 299.199219 180.800781 C 299.199219 232 244.183594 331.199219 200 331.199219 C 155.816406 331.199219 100.800781 232 100.800781 180.800781 C 100.800781 123.199219 145.601562 68.800781 200 68.800781 C 254.398438 68.800781 299.199219 123.199219 299.199219 180.800781 Z M 299.199219 180.800781 "/>
<path style=" stroke:none;fill-rule:nonzero;fill:rgb(82.745099%,87.450981%,94.509804%);fill-opacity:1;" d="M 200 96 C 172.539062 96 149.710938 115.773438 144.941406 141.851562 C 143.964844 147.191406 140.996094 151.972656 136.34375 154.769531 C 126.667969 160.589844 120.496094 171.628906 121.765625 184.007812 C 122.378906 190.011719 124.816406 195.53125 128.492188 200 C 130.539062 202.488281 133.167969 204.378906 135.6875 206.398438 C 153.601562 220.800781 156.804688 220.800781 180.203125 296 C 181.152344 299.039062 182.839844 301.757812 184.992188 304 C 188.777344 307.945312 194.101562 310.398438 200 310.398438 C 205.898438 310.398438 211.222656 307.945312 215.007812 304 C 217.160156 301.757812 218.847656 299.039062 219.796875 296 C 243.199219 220.800781 246.398438 220.800781 264.316406 206.398438 C 266.832031 204.378906 269.460938 202.488281 271.511719 200 C 275.1875 195.527344 277.621094 190.007812 278.238281 184.007812 C 279.507812 171.628906 273.335938 160.59375 263.65625 154.769531 C 259.007812 151.972656 256.039062 147.191406 255.0625 141.851562 C 250.289062 115.773438 227.460938 96 200 96 Z M 200 96 "/>
<path style=" stroke:none;fill-rule:nonzero;fill:rgb(26.666668%,26.666668%,27.058825%);fill-opacity:1;" d="M 188.800781 141.601562 C 188.800781 137.621094 185.578125 134.398438 181.601562 134.398438 C 179.335938 134.398438 177.320312 135.441406 176 137.074219 C 175.492188 137.707031 175.140625 138.445312 174.808594 139.199219 C 166.398438 158.398438 156.800781 160 149.351562 166.398438 C 146.167969 169.132812 144 173.074219 144 177.601562 C 144 185.550781 150.449219 192 158.398438 192 C 172.800781 192 188.800781 172.800781 188.800781 141.601562 Z M 188.800781 141.601562 "/>
<path style=" stroke:none;fill-rule:nonzero;fill:rgb(26.666668%,26.666668%,27.058825%);fill-opacity:1;" d="M 211.199219 141.601562 C 211.199219 137.621094 214.421875 134.398438 218.398438 134.398438 C 220.664062 134.398438 222.679688 135.441406 224 137.074219 C 224.507812 137.707031 224.859375 138.445312 225.191406 139.199219 C 233.601562 158.398438 243.199219 160 250.648438 166.398438 C 253.832031 169.136719 256 173.074219 256 177.601562 C 256 185.550781 249.550781 192 241.601562 192 C 227.199219 192 211.199219 172.800781 211.199219 141.601562 Z M 211.199219 141.601562 "/>
<path style=" stroke:none;fill-rule:nonzero;fill:rgb(26.666668%,26.666668%,27.058825%);fill-opacity:1;" d="M 200 214.398438 C 190.277344 214.398438 182.398438 222.277344 182.398438 232 C 182.398438 246.398438 192 252.800781 192 286.398438 C 192 290.820312 195.582031 294.398438 200 294.398438 C 204.417969 294.398438 208 290.820312 208 286.398438 C 208 252.800781 217.601562 246.398438 217.601562 232 C 217.601562 222.277344 209.722656 214.398438 200 214.398438 Z M 200 214.398438 "/>
<path style=" stroke:none;fill-rule:nonzero;fill:rgb(26.666668%,26.666668%,27.058825%);fill-opacity:1;" d="M 200 198.398438 C 203.199219 198.398438 204.800781 204.800781 209.601562 204.800781 C 212.25 204.800781 214.398438 202.648438 214.398438 200 C 214.398438 195.199219 204.800781 176 200 176 C 195.199219 176 185.601562 195.199219 185.601562 200 C 185.601562 202.648438 187.75 204.800781 190.398438 204.800781 C 195.199219 204.800781 196.800781 198.398438 200 198.398438 Z M 200 198.398438 "/>
<path style=" stroke:none;fill-rule:nonzero;fill:rgb(12.156863%,12.941177%,16.862746%);fill-opacity:1;" d="M 200 312 C 193.839844 312 188.097656 309.550781 183.832031 305.105469 C 181.441406 302.609375 179.65625 299.628906 178.675781 296.472656 C 156.429688 224.992188 152.683594 222.007812 136.929688 209.441406 L 133.363281 206.601562 C 131.246094 204.929688 129.054688 203.199219 127.257812 201.015625 C 123.253906 196.148438 120.804688 190.320312 120.175781 184.167969 C 118.894531 171.65625 124.773438 159.867188 135.519531 153.398438 C 139.582031 150.957031 142.4375 146.644531 143.367188 141.566406 C 148.363281 114.238281 172.1875 94.398438 200 94.398438 C 227.8125 94.398438 251.636719 114.238281 256.632812 141.566406 C 257.566406 146.644531 260.425781 150.960938 264.480469 153.398438 C 275.226562 159.863281 281.105469 171.65625 279.824219 184.167969 C 279.195312 190.320312 276.746094 196.148438 272.746094 201.015625 C 270.945312 203.199219 268.753906 204.929688 266.636719 206.601562 L 263.070312 209.441406 C 247.316406 222.007812 243.570312 224.988281 221.324219 296.472656 C 220.34375 299.625 218.558594 302.609375 216.164062 305.105469 C 211.902344 309.550781 206.160156 312 200 312 Z M 200 97.601562 C 173.730469 97.601562 151.238281 116.332031 146.515625 142.140625 C 145.421875 148.125 142.015625 153.230469 137.167969 156.140625 C 127.496094 161.957031 122.203125 172.574219 123.355469 183.84375 C 123.925781 189.367188 126.125 194.601562 129.726562 198.980469 C 131.304688 200.902344 133.265625 202.449219 135.34375 204.085938 L 138.921875 206.941406 C 155.300781 220 159.191406 223.101562 181.730469 295.523438 C 182.566406 298.203125 184.089844 300.753906 186.144531 302.890625 C 189.800781 306.699219 194.71875 308.800781 200 308.800781 C 205.28125 308.800781 210.203125 306.699219 213.855469 302.894531 C 215.910156 300.753906 217.433594 298.203125 218.269531 295.527344 C 240.808594 223.105469 244.699219 220 261.078125 206.945312 L 264.65625 204.089844 C 266.730469 202.453125 268.695312 200.902344 270.273438 198.984375 C 273.875 194.605469 276.078125 189.371094 276.644531 183.847656 C 277.796875 172.574219 272.503906 161.960938 262.832031 156.144531 C 257.988281 153.230469 254.582031 148.128906 253.484375 142.144531 C 248.761719 116.332031 226.269531 97.601562 200 97.601562 Z M 200 97.601562 "/>
<path style=" stroke:none;fill-rule:nonzero;fill:rgb(12.156863%,12.941177%,16.862746%);fill-opacity:1;" d="M 158.398438 193.601562 C 149.578125 193.601562 142.398438 186.421875 142.398438 177.601562 C 142.398438 172.867188 144.496094 168.457031 148.308594 165.1875 C 150.269531 163.503906 152.308594 162.179688 154.472656 160.773438 C 160.753906 156.699219 167.246094 152.480469 173.34375 138.558594 C 173.6875 137.777344 174.109375 136.871094 174.753906 136.070312 C 176.433594 133.992188 178.929688 132.800781 181.601562 132.800781 C 186.453125 132.800781 190.398438 136.746094 190.398438 141.601562 C 190.398438 173.71875 173.792969 193.601562 158.398438 193.601562 Z M 181.601562 136 C 179.902344 136 178.3125 136.757812 177.246094 138.078125 C 176.847656 138.574219 176.546875 139.21875 176.273438 139.839844 C 169.796875 154.636719 162.578125 159.320312 156.214844 163.453125 C 154.144531 164.796875 152.1875 166.066406 150.394531 167.609375 C 147.300781 170.265625 145.601562 173.8125 145.601562 177.601562 C 145.601562 184.660156 151.339844 190.398438 158.398438 190.398438 C 172.308594 190.398438 187.199219 170.789062 187.199219 141.601562 C 187.199219 138.511719 184.6875 136 181.601562 136 Z M 181.601562 136 "/>
<path style=" stroke:none;fill-rule:nonzero;fill:rgb(12.156863%,12.941177%,16.862746%);fill-opacity:1;" d="M 241.601562 193.601562 C 226.207031 193.601562 209.601562 173.71875 209.601562 141.601562 C 209.601562 136.746094 213.546875 132.800781 218.398438 132.800781 C 221.070312 132.800781 223.566406 133.992188 225.246094 136.066406 C 225.890625 136.867188 226.3125 137.773438 226.65625 138.558594 C 232.753906 152.476562 239.246094 156.691406 245.527344 160.769531 C 247.691406 162.175781 249.726562 163.503906 251.691406 165.183594 C 255.503906 168.457031 257.601562 172.867188 257.601562 177.601562 C 257.601562 186.421875 250.421875 193.601562 241.601562 193.601562 Z M 218.398438 136 C 215.3125 136 212.800781 138.511719 212.800781 141.601562 C 212.800781 170.789062 227.691406 190.398438 241.601562 190.398438 C 248.660156 190.398438 254.398438 184.660156 254.398438 177.601562 C 254.398438 173.8125 252.699219 170.265625 249.605469 167.613281 C 247.808594 166.070312 245.855469 164.800781 243.785156 163.457031 C 237.425781 159.320312 230.207031 154.640625 223.726562 139.84375 C 223.453125 139.222656 223.152344 138.574219 222.753906 138.082031 C 221.6875 136.757812 220.097656 136 218.398438 136 Z M 218.398438 136 "/>
<path style=" stroke:none;fill-rule:nonzero;fill:rgb(12.156863%,12.941177%,16.862746%);fill-opacity:1;" d="M 200 296 C 194.707031 296 190.398438 291.691406 190.398438 286.398438 C 190.398438 266.355469 186.964844 256.195312 184.203125 248.027344 C 182.378906 242.625 180.800781 237.960938 180.800781 232 C 180.800781 221.410156 189.410156 212.800781 200 212.800781 C 210.589844 212.800781 219.199219 221.410156 219.199219 232 C 219.199219 237.960938 217.621094 242.625 215.796875 248.027344 C 213.035156 256.195312 209.601562 266.355469 209.601562 286.398438 C 209.601562 291.691406 205.292969 296 200 296 Z M 200 216 C 191.175781 216 184 223.175781 184 232 C 184 237.433594 185.425781 241.65625 187.234375 247 C 190.070312 255.390625 193.601562 265.832031 193.601562 286.398438 C 193.601562 289.929688 196.46875 292.800781 200 292.800781 C 203.53125 292.800781 206.398438 289.929688 206.398438 286.398438 C 206.398438 265.832031 209.929688 255.390625 212.765625 247 C 214.574219 241.65625 216 237.433594 216 232 C 216 223.175781 208.824219 216 200 216 Z M 200 216 "/>
<path style=" stroke:none;fill-rule:nonzero;fill:rgb(12.156863%,12.941177%,16.862746%);fill-opacity:1;" d="M 209.601562 206.398438 C 206.222656 206.398438 204.199219 204.050781 202.570312 202.160156 C 201.65625 201.097656 200.707031 200 200 200 C 199.292969 200 198.34375 201.097656 197.429688 202.160156 C 195.800781 204.050781 193.777344 206.398438 190.398438 206.398438 C 186.871094 206.398438 184 203.53125 184 200 C 184 195.335938 193.644531 174.398438 200 174.398438 C 206.355469 174.398438 216 195.335938 216 200 C 216 203.53125 213.128906 206.398438 209.601562 206.398438 Z M 200 196.800781 C 202.171875 196.800781 203.605469 198.464844 204.996094 200.070312 C 206.378906 201.679688 207.691406 203.199219 209.601562 203.199219 C 211.367188 203.199219 212.800781 201.761719 212.800781 200 C 212.800781 195.320312 203.289062 177.601562 200 177.601562 C 196.710938 177.601562 187.199219 195.320312 187.199219 200 C 187.199219 201.761719 188.632812 203.199219 190.398438 203.199219 C 192.308594 203.199219 193.621094 201.679688 195.003906 200.070312 C 196.394531 198.464844 197.828125 196.800781 200 196.800781 Z M 200 196.800781 "/>
<path style=" stroke:none;fill-rule:nonzero;fill:rgb(12.156863%,12.941177%,16.862746%);fill-opacity:1;" d="M 240 97.605469 C 239.691406 97.605469 239.390625 97.519531 239.113281 97.339844 C 238.222656 96.746094 237.3125 96.199219 236.398438 95.652344 L 235.972656 95.394531 C 235.214844 94.9375 234.972656 93.957031 235.429688 93.195312 C 235.890625 92.4375 236.875 92.203125 237.628906 92.652344 L 238.050781 92.910156 C 239 93.480469 239.957031 94.058594 240.890625 94.675781 C 241.621094 95.164062 241.824219 96.15625 241.335938 96.894531 C 241.023438 97.355469 240.515625 97.605469 240 97.605469 Z M 240 97.605469 "/>
<path style=" stroke:none;fill-rule:nonzero;fill:rgb(12.156863%,12.941177%,16.862746%);fill-opacity:1;" d="M 160 97.605469 C 159.484375 97.605469 158.976562 97.355469 158.667969 96.894531 C 158.179688 96.15625 158.378906 95.160156 159.117188 94.675781 C 171.980469 86.121094 186.117188 81.601562 200 81.601562 C 202.46875 81.601562 205.152344 81.785156 208.203125 82.167969 C 209.074219 82.277344 209.699219 83.078125 209.589844 83.957031 C 209.476562 84.835938 208.664062 85.429688 207.800781 85.347656 C 204.847656 84.972656 202.367188 84.800781 200 84.800781 C 186.75 84.800781 173.226562 89.136719 160.882812 97.335938 C 160.609375 97.519531 160.308594 97.605469 160 97.605469 Z M 160 97.605469 "/>
<path style=" stroke:none;fill-rule:nonzero;fill:rgb(12.156863%,12.941177%,16.862746%);fill-opacity:1;" d="M 230.398438 92.101562 C 230.164062 92.101562 229.925781 92.050781 229.699219 91.9375 C 226.59375 90.425781 223.429688 89.140625 220.300781 88.113281 C 219.460938 87.839844 219 86.9375 219.277344 86.097656 C 219.554688 85.253906 220.457031 84.792969 221.296875 85.074219 C 224.5625 86.144531 227.863281 87.484375 231.097656 89.066406 C 231.894531 89.453125 232.222656 90.410156 231.832031 91.203125 C 231.5625 91.773438 230.992188 92.101562 230.398438 92.101562 Z M 230.398438 92.101562 "/>
<path style=" stroke:none;fill-rule:nonzero;fill:rgb(12.156863%,12.941177%,16.862746%);fill-opacity:1;" d="M 200 334.398438 C 152.875 334.398438 97.601562 232.875 97.601562 180.800781 C 97.601562 119.429688 145.449219 65.601562 200 65.601562 C 254.550781 65.601562 302.398438 119.429688 302.398438 180.800781 C 302.398438 232.875 247.125 334.398438 200 334.398438 Z M 200 72 C 148.859375 72 104 122.839844 104 180.800781 C 104 229.453125 156.800781 328 200 328 C 243.199219 328 296 229.453125 296 180.800781 C 296 122.839844 251.140625 72 200 72 Z M 200 72 "/>
</g>
</svg>
