<?xml version="1.0" encoding="UTF-8"?>
<svg xmlns="http://www.w3.org/2000/svg" xmlns:xlink="http://www.w3.org/1999/xlink" viewBox="0 0 400 400" width="400px" height="400px">
<g id="surface29775702">
<path style=" stroke:none;fill-rule:nonzero;fill:rgb(0%,0%,0%);fill-opacity:1;" d="M 0 400 L 0 0 L 400 0 L 400 400 Z M 392 392 L 392 8 L 8 8 L 8 392 Z M 392 392 "/>
<path style=" stroke:none;fill-rule:nonzero;fill:rgb(30.588236%,43.137255%,56.862748%);fill-opacity:1;" d="M 274.042969 128.414062 C 278.902344 132.980469 324.800781 177.699219 324.800781 236.800781 C 324.800781 269.496094 298.292969 296 265.601562 296 C 262.972656 296 260.40625 295.769531 257.867188 295.4375 L 142.132812 295.4375 C 139.59375 295.769531 137.027344 296 134.398438 296 C 101.707031 296 75.199219 269.496094 75.199219 236.800781 C 75.199219 177.699219 121.097656 132.980469 125.957031 128.414062 Z M 274.042969 128.414062 "/>
<path style=" stroke:none;fill-rule:nonzero;fill:rgb(89.019608%,88.627452%,89.019608%);fill-opacity:1;" d="M 276.800781 194.4375 L 276.800781 148.800781 C 276.800781 106.382812 242.414062 72 200 72 C 157.585938 72 123.199219 106.382812 123.199219 148.800781 L 123.199219 194.4375 C 112.164062 197.28125 104 207.273438 104 219.199219 C 104 231.125 112.164062 241.113281 123.199219 243.960938 L 123.199219 252.800781 C 123.199219 262.242188 138.066406 301.390625 165.449219 317.652344 C 167.210938 323.621094 172.664062 328 179.199219 328 C 193.601562 328 200 318.398438 200 318.398438 C 200 318.398438 206.398438 328 220.800781 328 C 227.335938 328 232.789062 323.621094 234.550781 317.652344 C 261.933594 301.390625 276.800781 262.242188 276.800781 252.800781 L 276.800781 243.960938 C 287.835938 241.117188 296 231.125 296 219.199219 C 296 207.273438 287.835938 197.285156 276.800781 194.4375 Z M 276.800781 194.4375 "/>
<path style=" stroke:none;fill-rule:nonzero;fill:rgb(12.156863%,12.941177%,16.862746%);fill-opacity:1;" d="M 276.800781 193.761719 C 275.035156 193.761719 273.601562 192.332031 273.601562 190.5625 L 273.601562 148.800781 C 273.601562 108.214844 240.582031 75.199219 200 75.199219 C 159.417969 75.199219 126.398438 108.214844 126.398438 148.800781 L 126.398438 190.5625 C 126.398438 192.332031 124.964844 193.761719 123.199219 193.761719 C 121.433594 193.761719 120 192.332031 120 190.5625 L 120 148.800781 C 120 104.6875 155.886719 68.800781 200 68.800781 C 244.113281 68.800781 280 104.6875 280 148.800781 L 280 190.5625 C 280 192.332031 278.566406 193.761719 276.800781 193.761719 Z M 276.800781 193.761719 "/>
<path style=" stroke:none;fill-rule:nonzero;fill:rgb(12.156863%,12.941177%,16.862746%);fill-opacity:1;" d="M 200 248 C 189.195312 248 184.46875 241.183594 184.273438 240.894531 C 183.777344 240.160156 183.972656 239.167969 184.703125 238.675781 C 185.4375 238.183594 186.429688 238.371094 186.921875 239.097656 C 187.082031 239.332031 190.964844 244.800781 200 244.800781 C 209.035156 244.800781 212.917969 239.332031 213.078125 239.097656 C 213.578125 238.371094 214.574219 238.183594 215.300781 238.679688 C 216.027344 239.175781 216.21875 240.167969 215.726562 240.894531 C 215.53125 241.183594 210.804688 248 200 248 Z M 200 248 "/>
<path style=" stroke:none;fill-rule:nonzero;fill:rgb(94.117647%,35.686275%,42.352942%);fill-opacity:1;" d="M 182.398438 187.199219 C 182.398438 196.921875 174.519531 204.800781 164.800781 204.800781 C 155.078125 204.800781 147.199219 196.921875 147.199219 187.199219 C 147.199219 177.480469 155.078125 169.601562 164.800781 169.601562 C 174.519531 169.601562 182.398438 177.480469 182.398438 187.199219 Z M 182.398438 187.199219 "/>
<path style=" stroke:none;fill-rule:nonzero;fill:rgb(12.156863%,12.941177%,16.862746%);fill-opacity:1;" d="M 164.800781 206.398438 C 154.210938 206.398438 145.601562 197.789062 145.601562 187.199219 C 145.601562 176.609375 154.210938 168 164.800781 168 C 175.390625 168 184 176.609375 184 187.199219 C 184 197.789062 175.390625 206.398438 164.800781 206.398438 Z M 164.800781 171.199219 C 155.976562 171.199219 148.800781 178.378906 148.800781 187.199219 C 148.800781 196.023438 155.976562 203.199219 164.800781 203.199219 C 173.621094 203.199219 180.800781 196.023438 180.800781 187.199219 C 180.800781 178.378906 173.621094 171.199219 164.800781 171.199219 Z M 164.800781 171.199219 "/>
<path style=" stroke:none;fill-rule:nonzero;fill:rgb(12.156863%,12.941177%,16.862746%);fill-opacity:1;" d="M 164.800781 180.800781 C 164.144531 180.800781 163.527344 180.929688 162.929688 181.109375 C 164.027344 181.617188 164.800781 182.710938 164.800781 184 C 164.800781 185.765625 163.367188 187.199219 161.601562 187.199219 C 160.308594 187.199219 159.214844 186.429688 158.710938 185.332031 C 158.527344 185.925781 158.398438 186.542969 158.398438 187.199219 C 158.398438 190.734375 161.265625 193.601562 164.800781 193.601562 C 168.335938 193.601562 171.199219 190.734375 171.199219 187.199219 C 171.199219 183.664062 168.335938 180.800781 164.800781 180.800781 Z M 164.800781 180.800781 "/>
<path style=" stroke:none;fill-rule:nonzero;fill:rgb(12.156863%,12.941177%,16.862746%);fill-opacity:1;" d="M 188.800781 180.800781 C 183.546875 180.800781 179.574219 177.839844 175.730469 174.980469 C 171.125 171.546875 166.355469 168 158.398438 168 C 149.140625 168 144.734375 174.132812 144.554688 174.390625 L 139.273438 170.777344 C 139.53125 170.402344 145.652344 161.601562 158.398438 161.601562 C 168.476562 161.601562 174.617188 166.171875 179.550781 169.847656 C 182.96875 172.390625 185.671875 174.398438 188.800781 174.398438 C 191.625 174.398438 193.601562 172.425781 193.601562 169.601562 C 193.601562 166.066406 190.390625 163.53125 190.355469 163.511719 L 194.21875 158.410156 C 194.453125 158.589844 200 162.863281 200 169.601562 C 200 175.984375 195.183594 180.800781 188.800781 180.800781 Z M 188.800781 180.800781 "/>
<path style=" stroke:none;fill-rule:nonzero;fill:rgb(94.117647%,35.686275%,42.352942%);fill-opacity:1;" d="M 252.800781 187.199219 C 252.800781 196.921875 244.921875 204.800781 235.199219 204.800781 C 225.480469 204.800781 217.601562 196.921875 217.601562 187.199219 C 217.601562 177.480469 225.480469 169.601562 235.199219 169.601562 C 244.921875 169.601562 252.800781 177.480469 252.800781 187.199219 Z M 252.800781 187.199219 "/>
<path style=" stroke:none;fill-rule:nonzero;fill:rgb(12.156863%,12.941177%,16.862746%);fill-opacity:1;" d="M 235.199219 206.398438 C 224.609375 206.398438 216 197.789062 216 187.199219 C 216 176.609375 224.609375 168 235.199219 168 C 245.789062 168 254.398438 176.609375 254.398438 187.199219 C 254.398438 197.789062 245.789062 206.398438 235.199219 206.398438 Z M 235.199219 171.199219 C 226.378906 171.199219 219.199219 178.378906 219.199219 187.199219 C 219.199219 196.023438 226.378906 203.199219 235.199219 203.199219 C 244.023438 203.199219 251.199219 196.023438 251.199219 187.199219 C 251.199219 178.378906 244.023438 171.199219 235.199219 171.199219 Z M 235.199219 171.199219 "/>
<path style=" stroke:none;fill-rule:nonzero;fill:rgb(12.156863%,12.941177%,16.862746%);fill-opacity:1;" d="M 235.199219 180.800781 C 234.542969 180.800781 233.925781 180.929688 233.332031 181.109375 C 234.429688 181.617188 235.199219 182.710938 235.199219 184 C 235.199219 185.765625 233.765625 187.199219 232 187.199219 C 230.710938 187.199219 229.617188 186.429688 229.109375 185.332031 C 228.929688 185.925781 228.800781 186.542969 228.800781 187.199219 C 228.800781 190.734375 231.664062 193.601562 235.199219 193.601562 C 238.734375 193.601562 241.601562 190.734375 241.601562 187.199219 C 241.601562 183.664062 238.734375 180.800781 235.199219 180.800781 Z M 235.199219 180.800781 "/>
<path style=" stroke:none;fill-rule:nonzero;fill:rgb(12.156863%,12.941177%,16.862746%);fill-opacity:1;" d="M 211.199219 180.800781 C 204.816406 180.800781 200 175.984375 200 169.601562 C 200 162.863281 205.546875 158.589844 205.78125 158.410156 L 209.644531 163.511719 L 207.710938 160.960938 L 209.660156 163.496094 C 209.628906 163.523438 206.398438 166.078125 206.398438 169.601562 C 206.398438 172.425781 208.375 174.398438 211.199219 174.398438 C 214.328125 174.398438 217.03125 172.390625 220.449219 169.847656 C 225.382812 166.171875 231.523438 161.601562 241.601562 161.601562 C 254.347656 161.601562 260.46875 170.402344 260.726562 170.777344 L 255.433594 174.371094 C 255.265625 174.132812 250.859375 168 241.601562 168 C 233.644531 168 228.875 171.546875 224.269531 174.980469 C 220.425781 177.839844 216.453125 180.800781 211.199219 180.800781 Z M 211.199219 180.800781 "/>
<path style=" stroke:none;fill-rule:nonzero;fill:rgb(89.019608%,88.627452%,89.019608%);fill-opacity:1;" d="M 200 318.398438 C 200 318.398438 206.398438 328 220.800781 328 C 228.753906 328 235.199219 321.550781 235.199219 313.601562 C 235.199219 300.800781 224 270.398438 224 270.398438 L 176 270.398438 C 176 270.398438 164.800781 300.800781 164.800781 313.601562 C 164.800781 321.550781 171.246094 328 179.199219 328 C 193.601562 328 200 318.398438 200 318.398438 Z M 200 318.398438 "/>
<path style=" stroke:none;fill-rule:nonzero;fill:rgb(12.156863%,12.941177%,16.862746%);fill-opacity:1;" d="M 165.445312 320.855469 C 164.890625 320.855469 164.328125 320.710938 163.8125 320.402344 C 135.539062 303.605469 120 263.148438 120 252.800781 L 120 244.800781 C 120 243.03125 121.433594 241.601562 123.199219 241.601562 C 124.964844 241.601562 126.398438 243.03125 126.398438 244.800781 L 126.398438 252.800781 C 126.398438 261.941406 141.277344 299.570312 167.085938 314.902344 C 168.605469 315.800781 169.105469 317.769531 168.203125 319.285156 C 167.601562 320.292969 166.539062 320.855469 165.445312 320.855469 Z M 165.445312 320.855469 "/>
<path style=" stroke:none;fill-rule:nonzero;fill:rgb(12.156863%,12.941177%,16.862746%);fill-opacity:1;" d="M 234.554688 320.855469 C 233.460938 320.855469 232.398438 320.292969 231.796875 319.289062 C 230.894531 317.769531 231.398438 315.804688 232.914062 314.90625 C 258.722656 299.570312 273.601562 261.941406 273.601562 252.800781 L 273.601562 244.800781 C 273.601562 243.03125 275.035156 241.601562 276.800781 241.601562 C 278.566406 241.601562 280 243.03125 280 244.800781 L 280 252.800781 C 280 263.148438 264.460938 303.605469 236.1875 320.402344 C 235.671875 320.710938 235.109375 320.855469 234.554688 320.855469 Z M 234.554688 320.855469 "/>
<path style=" stroke:none;fill-rule:nonzero;fill:rgb(12.156863%,12.941177%,16.862746%);fill-opacity:1;" d="M 134.398438 299.199219 C 99.992188 299.199219 72 271.207031 72 236.800781 C 72 176.503906 118.46875 131.066406 123.761719 126.078125 C 125.050781 124.871094 127.074219 124.929688 128.289062 126.21875 C 129.5 127.503906 129.4375 129.53125 128.152344 130.742188 C 123.054688 135.53125 78.398438 179.195312 78.398438 236.800781 C 78.398438 267.675781 103.523438 292.800781 134.398438 292.800781 C 136.59375 292.800781 138.921875 292.628906 141.71875 292.265625 C 143.472656 292.039062 145.074219 293.269531 145.304688 295.019531 C 145.53125 296.773438 144.300781 298.378906 142.546875 298.609375 C 139.464844 299.011719 136.875 299.199219 134.398438 299.199219 Z M 134.398438 299.199219 "/>
<path style=" stroke:none;fill-rule:nonzero;fill:rgb(12.156863%,12.941177%,16.862746%);fill-opacity:1;" d="M 265.601562 299.199219 C 263.125 299.199219 260.535156 299.011719 257.457031 298.609375 C 255.703125 298.378906 254.46875 296.773438 254.699219 295.019531 C 254.929688 293.269531 256.5625 292.042969 258.285156 292.265625 C 261.078125 292.628906 263.40625 292.800781 265.601562 292.800781 C 296.476562 292.800781 321.601562 267.675781 321.601562 236.800781 C 321.601562 179.195312 276.945312 135.53125 271.851562 130.742188 C 270.566406 129.53125 270.503906 127.503906 271.714844 126.21875 C 272.929688 124.929688 274.953125 124.871094 276.238281 126.078125 C 281.53125 131.066406 328 176.503906 328 236.800781 C 328 271.207031 300.007812 299.199219 265.601562 299.199219 Z M 265.601562 299.199219 "/>
<path style=" stroke:none;fill-rule:nonzero;fill:rgb(94.117647%,35.686275%,42.352942%);fill-opacity:1;" d="M 115.199219 219.199219 C 115.199219 224.414062 111.039062 228.671875 105.855469 228.769531 C 104.671875 225.792969 104 222.59375 104 219.199219 C 104 215.808594 104.671875 212.609375 105.855469 209.632812 C 111.039062 209.726562 115.199219 213.984375 115.199219 219.199219 Z M 115.199219 219.199219 "/>
<path style=" stroke:none;fill-rule:nonzero;fill:rgb(12.156863%,12.941177%,16.862746%);fill-opacity:1;" d="M 105.855469 230.367188 C 105.199219 230.367188 104.609375 229.96875 104.371094 229.359375 C 103.0625 226.078125 102.398438 222.660156 102.398438 219.199219 C 102.398438 215.742188 103.0625 212.324219 104.371094 209.039062 C 104.617188 208.421875 105.1875 208.019531 105.886719 208.03125 C 111.902344 208.144531 116.800781 213.152344 116.800781 219.199219 C 116.800781 225.246094 111.902344 230.257812 105.886719 230.367188 C 105.875 230.367188 105.867188 230.367188 105.855469 230.367188 Z M 106.929688 211.332031 C 106.046875 213.894531 105.601562 216.535156 105.601562 219.199219 C 105.601562 221.867188 106.046875 224.503906 106.929688 227.070312 C 110.699219 226.457031 113.601562 223.136719 113.601562 219.199219 C 113.601562 215.265625 110.699219 211.941406 106.929688 211.332031 Z M 106.929688 211.332031 "/>
<path style=" stroke:none;fill-rule:nonzero;fill:rgb(94.117647%,35.686275%,42.352942%);fill-opacity:1;" d="M 129.761719 193.601562 L 129.601562 193.601562 C 123.902344 193.601562 118.65625 195.457031 114.398438 198.59375 C 122.398438 201.984375 128 209.953125 128 219.199219 C 128 228.449219 122.398438 236.414062 114.398438 239.808594 C 118.65625 242.945312 123.902344 244.800781 129.601562 244.800781 L 129.761719 244.800781 C 136.574219 238.398438 140.800781 229.3125 140.800781 219.199219 C 140.800781 209.089844 136.574219 200 129.761719 193.601562 Z M 129.761719 193.601562 "/>
<path style=" stroke:none;fill-rule:nonzero;fill:rgb(12.156863%,12.941177%,16.862746%);fill-opacity:1;" d="M 129.761719 246.398438 C 123.742188 246.398438 118.160156 244.566406 113.449219 241.09375 C 112.984375 240.753906 112.742188 240.191406 112.808594 239.621094 C 112.875 239.046875 113.246094 238.558594 113.773438 238.335938 C 121.445312 235.082031 126.398438 227.570312 126.398438 219.199219 C 126.398438 210.828125 121.445312 203.320312 113.777344 200.066406 C 113.246094 199.847656 112.878906 199.355469 112.8125 198.785156 C 112.746094 198.214844 112.988281 197.652344 113.453125 197.308594 C 118.160156 193.832031 123.742188 192 129.601562 192 C 130.007812 192 130.558594 192.15625 130.855469 192.433594 C 138.300781 199.421875 142.398438 208.929688 142.398438 219.199219 C 142.398438 229.472656 138.300781 238.980469 130.855469 245.964844 C 130.558594 246.242188 130.167969 246.398438 129.761719 246.398438 Z M 117.605469 239.996094 C 121.105469 242.023438 125.035156 243.117188 129.125 243.195312 C 135.625 236.859375 139.199219 228.363281 139.199219 219.199219 C 139.199219 210.035156 135.625 201.539062 129.125 195.203125 C 125.035156 195.285156 121.105469 196.378906 117.605469 198.402344 C 124.976562 202.628906 129.601562 210.515625 129.601562 219.199219 C 129.601562 227.886719 124.976562 235.769531 117.605469 239.996094 Z M 117.605469 239.996094 "/>
<path style=" stroke:none;fill-rule:nonzero;fill:rgb(12.156863%,12.941177%,16.862746%);fill-opacity:1;" d="M 136.332031 248 L 129.601562 248 C 113.722656 248 100.800781 235.082031 100.800781 219.199219 C 100.800781 203.320312 113.722656 190.398438 129.601562 190.398438 L 136.132812 190.398438 C 137.902344 190.398438 139.335938 191.832031 139.335938 193.601562 C 139.335938 195.371094 137.902344 196.800781 136.132812 196.800781 L 129.601562 196.800781 C 117.246094 196.800781 107.199219 206.851562 107.199219 219.199219 C 107.199219 231.546875 117.246094 241.601562 129.601562 241.601562 L 136.332031 241.601562 C 138.097656 241.601562 139.53125 243.03125 139.53125 244.800781 C 139.53125 246.570312 138.097656 248 136.332031 248 Z M 136.332031 248 "/>
<path style=" stroke:none;fill-rule:nonzero;fill:rgb(94.117647%,35.686275%,42.352942%);fill-opacity:1;" d="M 284.800781 219.199219 C 284.800781 224.414062 288.960938 228.671875 294.144531 228.769531 C 295.328125 225.792969 296 222.59375 296 219.199219 C 296 215.808594 295.328125 212.609375 294.144531 209.632812 C 288.960938 209.726562 284.800781 213.984375 284.800781 219.199219 Z M 284.800781 219.199219 "/>
<path style=" stroke:none;fill-rule:nonzero;fill:rgb(12.156863%,12.941177%,16.862746%);fill-opacity:1;" d="M 294.144531 230.367188 C 294.132812 230.367188 294.125 230.367188 294.113281 230.367188 C 288.097656 230.257812 283.199219 225.246094 283.199219 219.199219 C 283.199219 213.152344 288.097656 208.144531 294.113281 208.03125 C 294.789062 208.03125 295.386719 208.421875 295.632812 209.039062 C 296.9375 212.328125 297.601562 215.742188 297.601562 219.199219 C 297.601562 222.660156 296.9375 226.078125 295.628906 229.359375 C 295.390625 229.96875 294.800781 230.367188 294.144531 230.367188 Z M 293.070312 211.332031 C 289.300781 211.941406 286.398438 215.265625 286.398438 219.199219 C 286.398438 223.136719 289.300781 226.457031 293.070312 227.070312 C 293.953125 224.503906 294.398438 221.867188 294.398438 219.199219 C 294.398438 216.539062 293.953125 213.894531 293.070312 211.332031 Z M 293.070312 211.332031 "/>
<path style=" stroke:none;fill-rule:nonzero;fill:rgb(94.117647%,35.686275%,42.352942%);fill-opacity:1;" d="M 272 219.199219 C 272 209.953125 277.601562 201.984375 285.601562 198.59375 C 281.34375 195.457031 276.097656 193.601562 270.398438 193.601562 L 270.238281 193.601562 C 263.425781 200 259.199219 209.089844 259.199219 219.199219 C 259.199219 229.3125 263.425781 238.398438 270.238281 244.800781 L 270.398438 244.800781 C 276.097656 244.800781 281.34375 242.945312 285.601562 239.808594 C 277.601562 236.414062 272 228.449219 272 219.199219 Z M 272 219.199219 "/>
<path style=" stroke:none;fill-rule:nonzero;fill:rgb(12.156863%,12.941177%,16.862746%);fill-opacity:1;" d="M 270.398438 246.398438 C 269.992188 246.398438 269.441406 246.242188 269.144531 245.964844 C 261.699219 238.980469 257.601562 229.472656 257.601562 219.199219 C 257.601562 208.929688 261.699219 199.421875 269.144531 192.433594 C 269.441406 192.15625 269.832031 192 270.238281 192 C 276.257812 192 281.839844 193.832031 286.550781 197.304688 C 287.015625 197.644531 287.257812 198.207031 287.191406 198.78125 C 287.125 199.355469 286.753906 199.84375 286.226562 200.0625 C 278.554688 203.320312 273.601562 210.828125 273.601562 219.199219 C 273.601562 227.570312 278.554688 235.082031 286.222656 238.332031 C 286.753906 238.554688 287.121094 239.046875 287.1875 239.617188 C 287.253906 240.1875 287.011719 240.75 286.546875 241.089844 C 281.839844 244.566406 276.257812 246.398438 270.398438 246.398438 Z M 270.875 195.203125 C 264.375 201.539062 260.800781 210.035156 260.800781 219.199219 C 260.800781 228.363281 264.375 236.859375 270.875 243.195312 C 275.027344 243.089844 278.929688 241.996094 282.394531 239.996094 C 275.023438 235.765625 270.398438 227.886719 270.398438 219.199219 C 270.398438 210.515625 275.023438 202.628906 282.394531 198.402344 C 278.894531 196.378906 274.964844 195.285156 270.875 195.203125 Z M 270.875 195.203125 "/>
<path style=" stroke:none;fill-rule:nonzero;fill:rgb(12.156863%,12.941177%,16.862746%);fill-opacity:1;" d="M 270.398438 248 L 263.667969 248 C 261.902344 248 260.46875 246.570312 260.46875 244.800781 C 260.46875 243.03125 261.902344 241.601562 263.667969 241.601562 L 270.398438 241.601562 C 282.753906 241.601562 292.800781 231.546875 292.800781 219.199219 C 292.800781 206.851562 282.753906 196.800781 270.398438 196.800781 L 263.867188 196.800781 C 262.097656 196.800781 260.664062 195.371094 260.664062 193.601562 C 260.664062 191.832031 262.097656 190.398438 263.867188 190.398438 L 270.398438 190.398438 C 286.277344 190.398438 299.199219 203.320312 299.199219 219.199219 C 299.199219 235.082031 286.277344 248 270.398438 248 Z M 270.398438 248 "/>
<path style=" stroke:none;fill-rule:nonzero;fill:rgb(12.156863%,12.941177%,16.862746%);fill-opacity:1;" d="M 200.003906 148.796875 L 200 148.796875 C 194.875 148.796875 192.488281 146.378906 190.171875 144.039062 C 187.714844 141.546875 185.390625 139.199219 179.199219 139.199219 L 166.398438 139.199219 C 165.515625 139.199219 164.800781 138.484375 164.800781 137.601562 C 164.800781 136.714844 165.515625 136 166.398438 136 L 179.199219 136 C 186.730469 136 189.902344 139.210938 192.453125 141.792969 C 194.554688 143.917969 196.214844 145.597656 200 145.597656 L 200.003906 145.597656 C 203.789062 145.597656 205.445312 143.917969 207.546875 141.792969 C 210.097656 139.210938 213.273438 136 220.800781 136 C 221.683594 136 222.398438 136.714844 222.398438 137.601562 C 222.398438 138.484375 221.683594 139.199219 220.800781 139.199219 C 214.609375 139.199219 212.285156 141.546875 209.828125 144.042969 C 207.515625 146.378906 205.125 148.796875 200.003906 148.796875 Z M 200.003906 148.796875 "/>
<path style=" stroke:none;fill-rule:nonzero;fill:rgb(12.156863%,12.941177%,16.862746%);fill-opacity:1;" d="M 200 132.800781 C 196.367188 132.800781 194.382812 131.023438 192.632812 129.460938 C 190.796875 127.816406 189.210938 126.398438 185.601562 126.398438 L 176 126.398438 C 175.117188 126.398438 174.398438 125.683594 174.398438 124.800781 C 174.398438 123.917969 175.117188 123.199219 176 123.199219 L 185.601562 123.199219 C 190.433594 123.199219 192.835938 125.347656 194.765625 127.074219 C 196.34375 128.484375 197.589844 129.601562 200 129.601562 C 202.410156 129.601562 203.65625 128.484375 205.234375 127.074219 C 207.164062 125.347656 209.566406 123.199219 214.398438 123.199219 L 224 123.199219 C 224.882812 123.199219 225.601562 123.917969 225.601562 124.800781 C 225.601562 125.683594 224.882812 126.398438 224 126.398438 L 214.398438 126.398438 C 210.789062 126.398438 209.203125 127.816406 207.367188 129.460938 C 205.617188 131.023438 203.632812 132.800781 200 132.800781 Z M 200 132.800781 "/>
<path style=" stroke:none;fill-rule:nonzero;fill:rgb(12.156863%,12.941177%,16.862746%);fill-opacity:1;" d="M 233.601562 139.199219 L 230.398438 139.199219 C 229.515625 139.199219 228.800781 138.484375 228.800781 137.601562 C 228.800781 136.714844 229.515625 136 230.398438 136 L 233.601562 136 C 234.484375 136 235.199219 136.714844 235.199219 137.601562 C 235.199219 138.484375 234.484375 139.199219 233.601562 139.199219 Z M 233.601562 139.199219 "/>
<path style=" stroke:none;fill-rule:nonzero;fill:rgb(94.117647%,35.686275%,42.352942%);fill-opacity:1;" d="M 200 284.800781 C 233.601562 284.800781 240 252.800781 240 252.800781 C 240 252.800781 228.800781 259.199219 200 259.199219 C 171.199219 259.199219 160 252.800781 160 252.800781 C 160 252.800781 166.398438 284.800781 200 284.800781 Z M 200 284.800781 "/>
<path style=" stroke:none;fill-rule:nonzero;fill:rgb(12.156863%,12.941177%,16.862746%);fill-opacity:1;" d="M 200 286.398438 C 165.488281 286.398438 158.496094 253.445312 158.433594 253.113281 C 158.308594 252.503906 158.558594 251.875 159.0625 251.507812 C 159.566406 251.136719 160.242188 251.09375 160.789062 251.410156 C 160.898438 251.46875 172.109375 257.601562 200 257.601562 C 227.890625 257.601562 239.101562 251.46875 239.210938 251.40625 C 239.753906 251.09375 240.429688 251.136719 240.9375 251.503906 C 241.445312 251.871094 241.691406 252.5 241.566406 253.109375 C 241.503906 253.445312 234.511719 286.398438 200 286.398438 Z M 162.421875 255.609375 C 164.957031 263.460938 173.925781 283.199219 200 283.199219 C 225.722656 283.199219 234.90625 263.453125 237.53125 255.625 C 232.332031 257.570312 220.609375 260.800781 200 260.800781 C 179.332031 260.800781 167.601562 257.554688 162.421875 255.609375 Z M 162.421875 255.609375 "/>
<path style=" stroke:none;fill-rule:nonzero;fill:rgb(12.156863%,12.941177%,16.862746%);fill-opacity:1;" d="M 220.800781 331.199219 C 210.167969 331.199219 203.40625 326.488281 200 323.21875 C 196.59375 326.488281 189.832031 331.199219 179.199219 331.199219 C 169.496094 331.199219 161.601562 323.300781 161.601562 313.601562 C 161.601562 300.378906 172.53125 270.558594 173 269.292969 C 173.460938 268.035156 174.660156 267.199219 176 267.199219 L 224 267.199219 C 225.339844 267.199219 226.539062 268.035156 227 269.292969 C 227.46875 270.558594 238.398438 300.378906 238.398438 313.601562 C 238.398438 323.300781 230.503906 331.199219 220.800781 331.199219 Z M 202.652344 316.605469 C 202.894531 316.964844 208.433594 324.800781 220.800781 324.800781 C 226.976562 324.800781 232 319.777344 232 313.601562 C 232 303.390625 224.230469 280.609375 221.746094 273.601562 L 178.253906 273.601562 C 175.769531 280.609375 168 303.394531 168 313.601562 C 168 319.777344 173.023438 324.800781 179.199219 324.800781 C 191.585938 324.800781 197.121094 316.941406 197.347656 316.605469 C 197.949219 315.726562 198.90625 315.265625 200.011719 315.203125 C 201.070312 315.210938 202.0625 315.730469 202.652344 316.605469 Z M 202.652344 316.605469 "/>
</g>
</svg>
