<?xml version="1.0" encoding="UTF-8"?>
<svg xmlns="http://www.w3.org/2000/svg" xmlns:xlink="http://www.w3.org/1999/xlink" viewBox="0 0 400 400" width="400px" height="400px">
<g id="surface29776551">
<path style=" stroke:none;fill-rule:nonzero;fill:rgb(0%,0%,0%);fill-opacity:1;" d="M 0 400 L 0 0 L 400 0 L 400 400 Z M 392 392 L 392 8 L 8 8 L 8 392 Z M 392 392 "/>
<path style=" stroke:none;fill-rule:nonzero;fill:rgb(91.764706%,83.92157%,78.039217%);fill-opacity:1;" d="M 120.011719 168.800781 L 120.011719 248.800781 C 120.011719 275.53125 160.335938 323.378906 200.011719 323.378906 C 239.6875 323.378906 280.011719 275.53125 280.011719 248.800781 L 280.011719 168.800781 "/>
<path style=" stroke:none;fill-rule:nonzero;fill:rgb(26.666668%,26.666668%,27.058825%);fill-opacity:1;" d="M 120.011719 140 L 124.417969 96.585938 C 125.578125 84.898438 135.34375 76 147.003906 76 L 253.019531 76 C 264.679688 76 274.445312 84.898438 275.605469 96.585938 L 280.011719 140 L 280.265625 140 L 312.84375 147.964844 C 319.25 148.804688 320.5 157.300781 314.636719 159.972656 C 299.109375 167.054688 266.730469 178.398438 200.011719 178.398438 C 133.332031 178.398438 100.914062 166.964844 85.363281 159.832031 C 79.578125 157.175781 80.988281 148.707031 87.316406 147.886719 L 119.757812 140 Z M 120.011719 140 "/>
<path style=" stroke:none;fill-rule:nonzero;fill:rgb(71.764708%,46.666667%,28.235295%);fill-opacity:1;" d="M 211.210938 256.800781 L 188.8125 256.800781 C 171.136719 256.800781 156.8125 271.125 156.8125 288.800781 C 156.8125 311.777344 175.4375 330.398438 198.410156 330.398438 L 201.613281 330.398438 C 224.589844 330.398438 243.210938 311.777344 243.210938 288.800781 C 243.210938 271.125 228.886719 256.800781 211.210938 256.800781 Z M 214.859375 307.828125 C 214.75 307.847656 214.640625 307.871094 214.535156 307.894531 C 211.140625 308.574219 208.011719 305.832031 208.011719 302.371094 L 208.011719 295.199219 C 208.011719 293.433594 206.578125 292 204.8125 292 L 195.210938 292 C 193.445312 292 192.011719 293.433594 192.011719 295.199219 L 192.011719 302.371094 C 192.011719 305.832031 188.882812 308.574219 185.492188 307.894531 C 185.382812 307.871094 185.269531 307.851562 185.160156 307.828125 C 177.886719 306.285156 172.8125 299.671875 172.8125 292.238281 L 172.8125 288.800781 C 172.8125 279.964844 179.976562 272.800781 188.8125 272.800781 L 211.210938 272.800781 C 220.046875 272.800781 227.210938 279.964844 227.210938 288.800781 L 227.210938 291.714844 C 227.210938 299.148438 222.132812 306.289062 214.859375 307.828125 Z M 214.859375 307.828125 "/>
<path style=" stroke:none;fill-rule:nonzero;fill:rgb(91.764706%,83.92157%,78.039217%);fill-opacity:1;" d="M 120.011719 181.835938 C 106.46875 182.925781 100.8125 187.867188 100.8125 198.097656 C 100.8125 209.65625 108.980469 226.347656 120.011719 231.3125 Z M 120.011719 181.835938 "/>
<path style=" stroke:none;fill-rule:nonzero;fill:rgb(91.764706%,83.92157%,78.039217%);fill-opacity:1;" d="M 280.011719 181.835938 C 293.554688 182.925781 299.210938 187.867188 299.210938 198.097656 C 299.210938 209.65625 291.042969 226.347656 280.011719 231.3125 Z M 280.011719 181.835938 "/>
<path style=" stroke:none;fill-rule:nonzero;fill:rgb(39.607844%,39.607844%,40.000001%);fill-opacity:1;" d="M 280.328125 143.125 L 277.679688 117.019531 L 277.429688 117.109375 C 269.296875 120.144531 245.46875 127.199219 200.011719 127.199219 C 154.554688 127.199219 130.730469 120.144531 122.59375 117.109375 L 122.34375 117.019531 L 119.695312 143.125 C 132.710938 147.125 158.464844 152.800781 200.011719 152.800781 C 241.558594 152.800781 267.316406 147.125 280.328125 143.125 Z M 280.328125 143.125 "/>
<path style=" stroke:none;fill-rule:nonzero;fill:rgb(12.156863%,12.941177%,16.862746%);fill-opacity:1;" d="M 200.011719 181.601562 C 150.335938 181.601562 111.3125 175.253906 84.027344 162.734375 C 80.097656 160.933594 77.976562 157.019531 78.625 152.769531 C 79.261719 148.570312 82.5 145.371094 86.714844 144.738281 L 117.066406 137.359375 L 121.234375 96.257812 C 122.5625 82.890625 133.640625 72.800781 147.003906 72.800781 L 253.019531 72.800781 C 266.382812 72.800781 277.460938 82.890625 278.789062 96.269531 L 282.960938 137.367188 L 313.449219 144.820312 C 317.714844 145.457031 320.867188 148.566406 321.503906 152.792969 C 322.140625 157.027344 319.914062 161.085938 315.964844 162.886719 C 288.738281 175.300781 249.726562 181.601562 200.011719 181.601562 Z M 120.144531 143.199219 L 87.730469 151.0625 C 85.945312 151.289062 85.125 152.59375 84.949219 153.730469 C 84.871094 154.257812 84.761719 156.03125 86.695312 156.917969 C 113.136719 169.050781 151.261719 175.199219 200.011719 175.199219 C 248.800781 175.199219 286.921875 169.097656 313.308594 157.0625 C 315.363281 156.125 315.257812 154.289062 315.171875 153.742188 C 315.09375 153.207031 314.65625 151.429688 312.429688 151.140625 L 312.085938 151.074219 L 279.878906 143.199219 L 277.371094 143.199219 L 276.828125 140.324219 L 272.421875 96.910156 C 271.421875 86.808594 263.078125 79.199219 253.019531 79.199219 L 147.003906 79.199219 C 136.941406 79.199219 128.605469 86.808594 127.601562 96.898438 L 122.90625 143.199219 Z M 120.144531 143.199219 "/>
<path style=" stroke:none;fill-rule:nonzero;fill:rgb(12.156863%,12.941177%,16.862746%);fill-opacity:1;" d="M 175.144531 236 L 147.175781 236 C 139.257812 236 132.8125 229.539062 132.8125 221.601562 L 132.8125 202.398438 C 132.8125 194.460938 139.257812 188 147.171875 188 L 179.242188 188 C 183.59375 188 187.660156 189.9375 190.398438 193.328125 C 193.148438 196.730469 194.199219 201.132812 193.289062 205.414062 L 189.1875 224.613281 C 187.777344 231.210938 181.871094 236 175.144531 236 Z M 147.171875 191.199219 C 141.019531 191.199219 136.011719 196.222656 136.011719 202.398438 L 136.011719 221.601562 C 136.011719 227.777344 141.019531 232.800781 147.171875 232.800781 L 175.140625 232.800781 C 180.371094 232.800781 184.960938 229.078125 186.058594 223.945312 L 190.160156 204.746094 C 190.871094 201.414062 190.050781 197.988281 187.910156 195.339844 C 185.78125 192.710938 182.625 191.199219 179.242188 191.199219 Z M 147.171875 191.199219 "/>
<path style=" stroke:none;fill-rule:nonzero;fill:rgb(12.156863%,12.941177%,16.862746%);fill-opacity:1;" d="M 252.851562 236 L 224.882812 236 C 218.152344 236 212.25 231.210938 210.839844 224.613281 L 206.738281 205.414062 C 205.824219 201.132812 206.875 196.726562 209.628906 193.328125 C 212.363281 189.9375 216.429688 188 220.78125 188 L 252.851562 188 C 260.765625 188 267.210938 194.460938 267.210938 202.398438 L 267.210938 221.601562 C 267.210938 229.539062 260.765625 236 252.851562 236 Z M 220.78125 191.199219 C 217.402344 191.199219 214.242188 192.710938 212.113281 195.339844 C 209.976562 197.988281 209.15625 201.414062 209.863281 204.746094 L 213.96875 223.945312 C 215.066406 229.078125 219.652344 232.800781 224.878906 232.800781 L 252.847656 232.800781 C 259.003906 232.800781 264.011719 227.777344 264.011719 221.601562 L 264.011719 202.398438 C 264.011719 196.222656 259.003906 191.199219 252.851562 191.199219 Z M 220.78125 191.199219 "/>
<path style=" stroke:none;fill-rule:nonzero;fill:rgb(12.156863%,12.941177%,16.862746%);fill-opacity:1;" d="M 201.613281 332 L 198.410156 332 C 174.589844 332 155.210938 312.621094 155.210938 288.800781 C 155.210938 270.273438 170.285156 255.199219 188.8125 255.199219 L 211.210938 255.199219 C 229.738281 255.199219 244.8125 270.273438 244.8125 288.800781 C 244.8125 312.621094 225.433594 332 201.613281 332 Z M 188.8125 258.398438 C 172.050781 258.398438 158.410156 272.039062 158.410156 288.800781 C 158.410156 310.859375 176.355469 328.800781 198.410156 328.800781 L 201.613281 328.800781 C 223.667969 328.800781 241.613281 310.859375 241.613281 288.800781 C 241.613281 272.039062 227.972656 258.398438 211.210938 258.398438 Z M 186.523438 309.601562 C 186.074219 309.601562 185.625 309.554688 185.175781 309.464844 L 184.832031 309.394531 C 176.941406 307.722656 171.210938 300.507812 171.210938 292.238281 L 171.210938 288.800781 C 171.210938 279.097656 179.105469 271.199219 188.8125 271.199219 L 211.210938 271.199219 C 220.917969 271.199219 228.8125 279.097656 228.8125 288.800781 L 228.8125 291.714844 C 228.8125 300.152344 222.957031 307.75 215.191406 309.390625 L 215.179688 309.394531 L 214.859375 307.828125 L 215.050781 309.421875 C 212.8125 309.878906 210.710938 309.339844 209.082031 308.003906 C 207.382812 306.609375 206.410156 304.558594 206.410156 302.371094 L 206.410156 295.199219 C 206.410156 294.320312 205.695312 293.601562 204.8125 293.601562 L 195.210938 293.601562 C 194.328125 293.601562 193.613281 294.320312 193.613281 295.199219 L 193.613281 302.371094 C 193.613281 304.558594 192.640625 306.609375 190.945312 308.003906 C 189.671875 309.042969 188.109375 309.601562 186.523438 309.601562 Z M 214.214844 306.328125 L 214.859375 307.832031 L 214.527344 306.265625 C 220.847656 304.925781 225.613281 298.671875 225.613281 291.714844 L 225.613281 288.800781 C 225.613281 280.859375 219.152344 274.398438 211.210938 274.398438 L 188.8125 274.398438 C 180.871094 274.398438 174.410156 280.859375 174.410156 288.800781 L 174.410156 292.238281 C 174.410156 299.003906 179.074219 304.902344 185.492188 306.261719 C 186.90625 306.550781 188.015625 306.265625 188.914062 305.53125 C 189.867188 304.746094 190.410156 303.597656 190.410156 302.371094 L 190.410156 295.199219 C 190.410156 292.554688 192.566406 290.398438 195.210938 290.398438 L 204.8125 290.398438 C 207.457031 290.398438 209.613281 292.554688 209.613281 295.199219 L 209.613281 302.371094 C 209.613281 303.597656 210.15625 304.746094 211.109375 305.527344 C 212.003906 306.265625 213.101562 306.550781 214.214844 306.328125 Z M 214.214844 306.328125 "/>
<path style=" stroke:none;fill-rule:nonzero;fill:rgb(12.156863%,12.941177%,16.862746%);fill-opacity:1;" d="M 118.699219 234.230469 C 106.273438 228.640625 97.613281 210.699219 97.613281 198.097656 C 97.613281 182.257812 110.25 179.410156 119.757812 178.644531 L 120.269531 185.027344 C 106.730469 186.113281 104.011719 190.832031 104.011719 198.097656 C 104.011719 208.503906 111.574219 224.007812 121.324219 228.394531 Z M 118.699219 234.230469 "/>
<path style=" stroke:none;fill-rule:nonzero;fill:rgb(12.156863%,12.941177%,16.862746%);fill-opacity:1;" d="M 281.324219 234.230469 L 278.699219 228.394531 C 288.449219 224.007812 296.011719 208.503906 296.011719 198.097656 C 296.011719 190.832031 293.292969 186.113281 279.757812 185.027344 L 280.269531 178.644531 C 289.773438 179.410156 302.410156 182.257812 302.410156 198.097656 C 302.410156 210.699219 293.75 228.640625 281.324219 234.230469 Z M 281.324219 234.230469 "/>
<path style=" stroke:none;fill-rule:nonzero;fill:rgb(12.156863%,12.941177%,16.862746%);fill-opacity:1;" d="M 192.011719 200.800781 L 208.011719 200.800781 L 208.011719 204 L 192.011719 204 Z M 192.011719 200.800781 "/>
<path style=" stroke:none;fill-rule:nonzero;fill:rgb(12.156863%,12.941177%,16.862746%);fill-opacity:1;" d="M 200.011719 152.800781 C 154.972656 152.800781 128.449219 146.125 116.648438 142.148438 C 115.808594 141.867188 115.363281 140.957031 115.644531 140.117188 C 115.925781 139.285156 116.835938 138.84375 117.667969 139.117188 C 129.285156 143.03125 155.429688 149.601562 200.011719 149.601562 C 244.589844 149.601562 270.730469 143.03125 282.347656 139.121094 C 283.1875 138.839844 284.09375 139.289062 284.375 140.121094 C 284.65625 140.960938 284.207031 141.867188 283.367188 142.152344 C 271.566406 146.128906 245.046875 152.800781 200.011719 152.800781 Z M 200.011719 152.800781 "/>
<path style=" stroke:none;fill-rule:nonzero;fill:rgb(12.156863%,12.941177%,16.862746%);fill-opacity:1;" d="M 200.011719 130.398438 C 154.035156 130.398438 129.773438 123.203125 121.472656 120.109375 C 120.644531 119.796875 120.226562 118.875 120.535156 118.046875 C 120.84375 117.21875 121.769531 116.800781 122.59375 117.105469 C 130.730469 120.144531 154.554688 127.199219 200.011719 127.199219 C 209.316406 127.199219 218.429688 126.882812 227.097656 126.261719 C 227.980469 126.191406 228.746094 126.863281 228.804688 127.742188 C 228.871094 128.625 228.203125 129.390625 227.324219 129.457031 C 218.582031 130.078125 209.394531 130.398438 200.011719 130.398438 Z M 200.011719 130.398438 "/>
<path style=" stroke:none;fill-rule:nonzero;fill:rgb(12.156863%,12.941177%,16.862746%);fill-opacity:1;" d="M 243.210938 127.902344 C 242.417969 127.902344 241.730469 127.3125 241.625 126.503906 C 241.511719 125.628906 242.132812 124.828125 243.011719 124.714844 C 248.585938 124.003906 253.933594 123.136719 258.894531 122.132812 C 259.78125 121.957031 260.605469 122.519531 260.78125 123.386719 C 260.957031 124.253906 260.394531 125.09375 259.527344 125.269531 C 254.488281 126.289062 249.066406 127.171875 243.414062 127.886719 C 243.347656 127.902344 243.277344 127.902344 243.210938 127.902344 Z M 243.210938 127.902344 "/>
<path style=" stroke:none;fill-rule:nonzero;fill:rgb(12.156863%,12.941177%,16.862746%);fill-opacity:1;" d="M 265.613281 123.898438 C 264.890625 123.898438 264.234375 123.40625 264.058594 122.675781 C 263.851562 121.8125 264.375 120.949219 265.238281 120.742188 C 266.355469 120.46875 267.414062 120.203125 268.398438 119.9375 C 269.25 119.707031 270.128906 120.210938 270.359375 121.066406 C 270.589844 121.921875 270.085938 122.796875 269.230469 123.023438 C 268.21875 123.296875 267.136719 123.570312 265.992188 123.851562 C 265.863281 123.882812 265.738281 123.898438 265.613281 123.898438 Z M 265.613281 123.898438 "/>
<path style=" stroke:none;fill-rule:nonzero;fill:rgb(12.156863%,12.941177%,16.862746%);fill-opacity:1;" d="M 168.011719 200.800781 C 165.125 200.800781 162.570312 202.316406 160.808594 204.667969 C 161.519531 204.253906 162.332031 204 163.210938 204 C 165.863281 204 168.011719 206.152344 168.011719 208.800781 C 168.011719 211.449219 165.863281 213.601562 163.210938 213.601562 C 160.980469 213.601562 159.121094 212.070312 158.585938 210.007812 C 158.484375 210.65625 158.410156 211.320312 158.410156 212 C 158.410156 218.1875 162.710938 223.199219 168.011719 223.199219 C 173.3125 223.199219 177.613281 218.1875 177.613281 212 C 177.613281 205.8125 173.3125 200.800781 168.011719 200.800781 Z M 168.011719 200.800781 "/>
<path style=" stroke:none;fill-rule:nonzero;fill:rgb(12.156863%,12.941177%,16.862746%);fill-opacity:1;" d="M 232.011719 200.800781 C 229.125 200.800781 226.570312 202.316406 224.808594 204.667969 C 225.519531 204.253906 226.332031 204 227.210938 204 C 229.863281 204 232.011719 206.152344 232.011719 208.800781 C 232.011719 211.449219 229.863281 213.601562 227.210938 213.601562 C 224.980469 213.601562 223.121094 212.070312 222.585938 210.007812 C 222.484375 210.65625 222.410156 211.320312 222.410156 212 C 222.410156 218.1875 226.710938 223.199219 232.011719 223.199219 C 237.3125 223.199219 241.613281 218.1875 241.613281 212 C 241.613281 205.8125 237.3125 200.800781 232.011719 200.800781 Z M 232.011719 200.800781 "/>
<path style=" stroke:none;fill-rule:nonzero;fill:rgb(12.156863%,12.941177%,16.862746%);fill-opacity:1;" d="M 184.011719 210.398438 C 178.546875 210.398438 174.152344 207.886719 169.90625 205.453125 C 165.726562 203.058594 161.773438 200.800781 156.8125 200.800781 C 149.082031 200.800781 144.726562 206.828125 144.546875 207.085938 L 139.292969 203.429688 C 139.542969 203.0625 145.664062 194.398438 156.8125 194.398438 C 163.476562 194.398438 168.582031 197.320312 173.085938 199.902344 C 176.929688 202.097656 180.25 204 184.011719 204 Z M 184.011719 210.398438 "/>
<path style=" stroke:none;fill-rule:nonzero;fill:rgb(12.156863%,12.941177%,16.862746%);fill-opacity:1;" d="M 216.011719 210.398438 C 221.476562 210.398438 225.871094 207.886719 230.117188 205.453125 C 234.296875 203.058594 238.25 200.800781 243.210938 200.800781 C 250.941406 200.800781 255.296875 206.828125 255.476562 207.085938 L 260.730469 203.429688 C 260.480469 203.0625 254.359375 194.398438 243.210938 194.398438 C 236.546875 194.398438 231.441406 197.320312 226.9375 199.902344 C 223.09375 202.097656 219.773438 204 216.011719 204 Z M 216.011719 210.398438 "/>
<path style=" stroke:none;fill-rule:nonzero;fill:rgb(12.156863%,12.941177%,16.862746%);fill-opacity:1;" d="M 188.8125 272.800781 C 184.703125 272.800781 180.996094 274.394531 178.164062 276.9375 C 178.359375 277.230469 178.625 277.476562 178.984375 277.597656 C 182.398438 278.734375 185.847656 279.449219 189.355469 279.972656 C 192.859375 280.507812 196.410156 280.761719 200.011719 280.800781 C 203.613281 280.753906 207.164062 280.488281 210.664062 279.945312 C 214.171875 279.414062 217.621094 278.695312 221.03125 277.546875 C 221.367188 277.4375 221.628906 277.199219 221.824219 276.910156 C 218.996094 274.378906 215.304688 272.800781 211.210938 272.800781 Z M 188.8125 272.800781 "/>
<path style=" stroke:none;fill-rule:nonzero;fill:rgb(12.156863%,12.941177%,16.862746%);fill-opacity:1;" d="M 200.011719 258.398438 C 196.121094 258.398438 192.378906 257.21875 189.851562 255.21875 C 187.265625 255.386719 184.753906 256.621094 184.726562 256.632812 C 184.464844 256.761719 184.171875 256.824219 183.878906 256.792969 C 181.710938 256.613281 177.613281 254.960938 177.613281 250 C 177.613281 244.671875 181.527344 242.652344 181.695312 242.570312 C 182.484375 242.179688 183.441406 242.496094 183.84375 243.285156 C 184.238281 244.078125 183.914062 245.035156 183.125 245.433594 C 183.046875 245.472656 180.8125 246.703125 180.8125 250 C 180.8125 252.679688 182.871094 253.375 183.765625 253.546875 C 184.84375 253.074219 187.597656 252 190.410156 252 C 190.804688 252 191.1875 252.144531 191.480469 252.410156 C 193.402344 254.132812 196.667969 255.199219 200.011719 255.199219 C 203.355469 255.199219 206.625 254.132812 208.542969 252.410156 C 208.835938 252.144531 209.21875 252 209.613281 252 C 212.425781 252 215.171875 253.070312 216.253906 253.546875 C 217.191406 253.363281 219.210938 252.65625 219.210938 250 C 219.210938 246.703125 216.976562 245.472656 216.878906 245.421875 C 216.105469 245.011719 215.796875 244.046875 216.199219 243.269531 C 216.601562 242.496094 217.542969 242.179688 218.328125 242.570312 C 218.496094 242.652344 222.410156 244.671875 222.410156 250 C 222.410156 254.960938 218.3125 256.613281 216.144531 256.792969 C 215.855469 256.816406 215.5625 256.761719 215.296875 256.632812 C 215.273438 256.621094 212.757812 255.386719 210.171875 255.21875 C 207.644531 257.21875 203.902344 258.398438 200.011719 258.398438 Z M 200.011719 258.398438 "/>
<path style=" stroke:none;fill-rule:nonzero;fill:rgb(12.156863%,12.941177%,16.862746%);fill-opacity:1;" d="M 276.8125 171.78125 L 276.8125 248.800781 C 276.8125 262.820312 264.34375 283.578125 246.816406 299.105469 C 244.640625 301.039062 242.394531 302.902344 240.070312 304.648438 C 239.902344 305.054688 239.285156 304.96875 238.367188 304.554688 C 232.238281 318.796875 218.074219 328.800781 201.613281 328.800781 L 198.410156 328.800781 C 181.851562 328.800781 167.613281 318.683594 161.542969 304.308594 C 160.691406 304.871094 160.117188 305.046875 159.953125 304.648438 C 157.632812 302.902344 155.382812 301.035156 153.207031 299.105469 C 135.679688 283.578125 123.210938 262.820312 123.210938 248.800781 L 123.210938 171.726562 C 120.988281 171.265625 118.855469 170.796875 116.8125 170.320312 L 116.8125 248.800781 C 116.8125 267.417969 134.285156 294.792969 158.101562 311.613281 C 166.074219 325.667969 181.128906 335.199219 198.410156 335.199219 L 201.613281 335.199219 C 218.894531 335.199219 233.949219 325.667969 241.921875 311.613281 C 265.738281 294.792969 283.210938 267.417969 283.210938 248.800781 L 283.210938 170.386719 C 281.171875 170.863281 279.035156 171.328125 276.8125 171.78125 Z M 276.8125 171.78125 "/>
</g>
</svg>
